<svg width="26" height="26" viewBox="0 0 26 26" fill="none" xmlns="http://www.w3.org/2000/svg">
<path d="M15.7223 13.0002L25.4353 3.28662C26.1882 2.534 26.1882 1.3171 25.4353 0.564471C24.6827 -0.188157 23.4658 -0.188157 22.7132 0.564471L12.9998 10.2781L3.28682 0.564471C2.53386 -0.188157 1.31734 -0.188157 0.564724 0.564471C-0.188241 1.3171 -0.188241 2.534 0.564724 3.28662L10.2777 13.0002L0.564724 22.7138C-0.188241 23.4664 -0.188241 24.6833 0.564724 25.436C0.939797 25.8114 1.43296 26 1.92577 26C2.41858 26 2.9114 25.8114 3.28682 25.436L12.9998 15.7224L22.7132 25.436C23.0886 25.8114 23.5814 26 24.0742 26C24.567 26 25.0599 25.8114 25.4353 25.436C26.1882 24.6833 26.1882 23.4664 25.4353 22.7138L15.7223 13.0002Z" fill="#414244"/>
</svg>
