<svg width="9" height="6" viewBox="0 0 9 6" fill="none" xmlns="http://www.w3.org/2000/svg">
<path d="M8.69201 1.13026C8.5748 1.01309 8.41586 0.947266 8.25013 0.947266C8.0844 0.947266 7.92546 1.01309 7.80826 1.13026L4.94201 3.99651C4.82317 4.11056 4.66484 4.17425 4.50013 4.17425C4.33542 4.17425 4.17709 4.11056 4.05826 3.99651L1.19201 1.13026C1.07413 1.01641 0.916255 0.953412 0.752382 0.954836C0.588509 0.95626 0.431751 1.02199 0.315871 1.13787C0.199991 1.25375 0.13426 1.41051 0.132836 1.57438C0.131412 1.73825 0.194409 1.89613 0.308258 2.01401L3.17388 4.88026C3.348 5.0544 3.55471 5.19254 3.78222 5.28679C4.00972 5.38104 4.25356 5.42954 4.49982 5.42954C4.74607 5.42954 4.98992 5.38104 5.21742 5.28679C5.44493 5.19254 5.65164 5.0544 5.82576 4.88026L8.69201 2.01401C8.80918 1.8968 8.875 1.73786 8.875 1.57213C8.875 1.4064 8.80918 1.24746 8.69201 1.13026Z" fill="#cccccc"/>
</svg>
