<svg width="174" height="37" viewBox="0 0 174 37" fill="none" xmlns="http://www.w3.org/2000/svg">
<path d="M166.523 30.501C164.839 30.501 163.326 30.0914 161.983 29.2722C160.641 28.4531 159.583 27.3381 158.809 25.9273C158.035 24.5166 157.648 22.9238 157.648 21.1489C157.648 19.3741 158.035 17.7813 158.809 16.3705C159.583 14.9597 160.641 13.8448 161.983 13.0256C163.326 12.2065 164.839 11.7969 166.523 11.7969C168.138 11.7969 169.606 12.1041 170.926 12.7184C172.245 13.3328 173.269 14.1861 173.997 15.2783L171.677 18.0771C171.335 17.5992 170.903 17.1669 170.38 16.7801C169.856 16.3933 169.299 16.0861 168.707 15.8585C168.115 15.631 167.524 15.5172 166.932 15.5172C165.931 15.5172 165.032 15.7675 164.236 16.2681C163.462 16.746 162.848 17.4172 162.393 18.2819C161.938 19.1238 161.71 20.0795 161.71 21.1489C161.71 22.2184 161.938 23.1741 162.393 24.016C162.871 24.8579 163.508 25.5291 164.304 26.0297C165.1 26.5303 165.988 26.7806 166.966 26.7806C167.558 26.7806 168.127 26.6896 168.673 26.5076C169.242 26.3028 169.777 26.0184 170.277 25.6543C170.778 25.2902 171.244 24.8351 171.677 24.289L173.997 27.1219C173.224 28.1231 172.154 28.9423 170.789 29.5794C169.447 30.1938 168.024 30.501 166.523 30.501Z" fill="white"/>
<path d="M149.286 30.1596V12.1723H153.484V30.1596H149.286ZM151.334 8.34956C150.492 8.34956 149.832 8.14477 149.354 7.73519C148.899 7.30286 148.672 6.69987 148.672 5.92622C148.672 5.19808 148.911 4.60647 149.389 4.15138C149.866 3.69629 150.515 3.46875 151.334 3.46875C152.199 3.46875 152.859 3.68492 153.314 4.11725C153.792 4.52683 154.031 5.12982 154.031 5.92622C154.031 6.63161 153.792 7.21184 153.314 7.66693C152.836 8.12202 152.176 8.34956 151.334 8.34956Z" fill="white"/>
<path d="M137.495 30.1596V7.59863H141.693V30.1596H137.495ZM133.945 16.0633V12.1723H145.618V16.0633H133.945Z" fill="white"/>
<path d="M120.516 30.1596V12.1723H124.646L124.714 17.9064L124.134 16.6094C124.384 15.6992 124.816 14.8801 125.431 14.152C126.045 13.4238 126.75 12.855 127.547 12.4454C128.366 12.013 129.219 11.7969 130.107 11.7969C130.493 11.7969 130.857 11.831 131.199 11.8993C131.563 11.9675 131.859 12.0472 132.086 12.1382L130.96 16.7459C130.71 16.6094 130.402 16.4957 130.038 16.4046C129.674 16.3136 129.31 16.2681 128.946 16.2681C128.377 16.2681 127.831 16.3819 127.308 16.6094C126.807 16.8142 126.363 17.11 125.977 17.4968C125.59 17.8837 125.283 18.3388 125.055 18.8621C124.85 19.3627 124.748 19.9316 124.748 20.5687V30.1596H120.516Z" fill="white"/>
<path d="M105.294 30.7383C103.815 30.7383 102.473 30.3287 101.267 29.5095C100.061 28.6904 99.0938 27.5754 98.3656 26.1646C97.6375 24.7539 97.2734 23.1497 97.2734 21.3521C97.2734 19.5545 97.6375 17.9503 98.3656 16.5395C99.0938 15.1288 100.084 14.0252 101.335 13.2288C102.587 12.4324 103.997 12.0342 105.567 12.0342C106.478 12.0342 107.308 12.1707 108.059 12.4438C108.81 12.6941 109.47 13.0581 110.039 13.536C110.607 14.0138 111.074 14.5599 111.438 15.1743C111.825 15.7886 112.087 16.4485 112.223 17.1539L111.302 16.915V12.4096H115.534V30.3969H111.267V26.0964L112.257 25.9257C112.098 26.5401 111.802 27.1431 111.37 27.7347C110.96 28.3036 110.437 28.8155 109.8 29.2706C109.185 29.7029 108.491 30.0556 107.718 30.3287C106.967 30.6017 106.159 30.7383 105.294 30.7383ZM106.455 27.0179C107.433 27.0179 108.298 26.779 109.049 26.3012C109.8 25.8233 110.38 25.1634 110.79 24.3215C111.222 23.4569 111.438 22.4671 111.438 21.3521C111.438 20.2599 111.222 19.2928 110.79 18.4509C110.38 17.609 109.8 16.9491 109.049 16.4713C108.298 15.9934 107.433 15.7545 106.455 15.7545C105.476 15.7545 104.612 15.9934 103.861 16.4713C103.133 16.9491 102.564 17.609 102.154 18.4509C101.745 19.2928 101.54 20.2599 101.54 21.3521C101.54 22.4671 101.745 23.4569 102.154 24.3215C102.564 25.1634 103.133 25.8233 103.861 26.3012C104.612 26.779 105.476 27.0179 106.455 27.0179Z" fill="white"/>
<path d="M83.7596 30.5015C82.4626 30.5015 81.3363 30.2171 80.3806 29.6482C79.4249 29.0566 78.6968 28.2261 78.1962 27.1566C77.6956 26.0644 77.4453 24.7674 77.4453 23.2656V12.1729H81.6435V22.3782C81.6435 23.3339 81.7914 24.153 82.0872 24.8357C82.383 25.4955 82.8153 26.0075 83.3842 26.3716C83.9531 26.7356 84.6357 26.9177 85.4321 26.9177C86.0237 26.9177 86.5584 26.8267 87.0363 26.6446C87.5369 26.4398 87.9692 26.1668 88.3333 25.8255C88.6973 25.4614 88.9818 25.0404 89.1866 24.5626C89.3914 24.062 89.4937 23.5273 89.4937 22.9584V12.1729H93.6919V30.1602H89.5961L89.5279 26.4057L90.2788 25.9961C90.0057 26.8608 89.5393 27.6344 88.8794 28.3171C88.2423 28.9769 87.48 29.5117 86.5926 29.9213C85.7051 30.3081 84.7608 30.5015 83.7596 30.5015Z" fill="white"/>
<path d="M68.9492 33.9145L59.8702 21.9002L63.3175 19.5451L72.2941 31.4571L68.9492 33.9145ZM61.5085 30.5014C59.802 30.5014 58.2205 30.1942 56.7643 29.5798C55.308 28.9655 54.0337 28.1122 52.9415 27.02C51.8721 25.905 51.0415 24.5966 50.4499 23.0948C49.8583 21.593 49.5625 19.9547 49.5625 18.1799C49.5625 16.405 49.8583 14.7667 50.4499 13.2649C51.0415 11.7632 51.8721 10.4662 52.9415 9.37395C54.0337 8.25898 55.308 7.39432 56.7643 6.77995C58.2205 6.16558 59.802 5.8584 61.5085 5.8584C63.2379 5.8584 64.8307 6.16558 66.287 6.77995C67.7432 7.39432 69.0061 8.25898 70.0756 9.37395C71.145 10.4889 71.9755 11.7973 72.5672 13.2991C73.1588 14.7781 73.4546 16.405 73.4546 18.1799C73.4546 19.932 73.1588 21.5589 72.5672 23.0607C71.9755 24.5625 71.145 25.8709 70.0756 26.9858C69.0061 28.1008 67.7432 28.9655 66.287 29.5798C64.8307 30.1942 63.2379 30.5014 61.5085 30.5014ZM61.5085 26.2691C62.6008 26.2691 63.5906 26.0756 64.478 25.6888C65.3882 25.2792 66.1732 24.7104 66.8331 23.9822C67.4929 23.2314 68.0049 22.3667 68.369 21.3883C68.7558 20.4098 68.9492 19.3404 68.9492 18.1799C68.9492 17.0194 68.7558 15.95 68.369 14.9715C68.0049 13.9931 67.4929 13.1398 66.8331 12.4117C66.1732 11.6608 65.3882 11.0919 64.478 10.7051C63.5906 10.2955 62.6008 10.0907 61.5085 10.0907C60.4391 10.0907 59.4493 10.2955 58.5391 10.7051C57.6289 11.0919 56.8439 11.6494 56.184 12.3775C55.5241 13.1057 55.0122 13.959 54.6481 14.9374C54.284 15.9158 54.102 16.9967 54.102 18.1799C54.102 19.3404 54.284 20.4212 54.6481 21.4224C55.0122 22.4008 55.5241 23.2541 56.184 23.9822C56.8439 24.7104 57.6289 25.2792 58.5391 25.6888C59.4493 26.0756 60.4391 26.2691 61.5085 26.2691Z" fill="white"/>
<path d="M36.1016 12.0332L12.0342 36.1025L0 24.0684L24.0674 0.000976562V0H36.1016V12.0332Z" fill="url(#paint0_linear_4657_8296)" fill-opacity="0.7"/>
<rect x="24.0703" width="12.0341" height="12.0341" fill="#F15A29"/>
<rect width="12.0341" height="12.0341" fill="white"/>
<rect y="24.0684" width="12.0341" height="12.0341" fill="white"/>
<rect x="24.0703" y="24.0684" width="12.0341" height="12.0341" fill="white"/>
<defs>
<linearGradient id="paint0_linear_4657_8296" x1="10.4411" y1="25.8381" x2="31.324" y2="5.30976" gradientUnits="userSpaceOnUse">
<stop stop-opacity="0"/>
<stop offset="1" stop-color="#F15A29"/>
</linearGradient>
</defs>
</svg>
