<svg width="125" height="27" viewBox="0 0 125 27" fill="none" xmlns="http://www.w3.org/2000/svg">
<path d="M118.722 22.8261C117.436 22.8261 116.264 22.5177 115.206 21.9008C114.149 21.2839 113.312 20.4467 112.695 19.3893C112.096 18.3318 111.796 17.1509 111.796 15.8466C111.796 14.5424 112.104 13.3704 112.721 12.3305C113.338 11.273 114.166 10.4358 115.206 9.81893C116.264 9.18444 117.436 8.86719 118.722 8.86719C119.745 8.86719 120.723 9.06106 121.657 9.44881C122.609 9.83656 123.428 10.3829 124.116 11.0879L122.477 12.9121C121.965 12.3481 121.393 11.9251 120.758 11.6431C120.124 11.3611 119.463 11.2201 118.775 11.2201C117.965 11.2201 117.224 11.4228 116.555 11.8282C115.902 12.2335 115.383 12.7887 114.995 13.4937C114.607 14.1987 114.413 14.983 114.413 15.8466C114.413 16.7103 114.607 17.4946 114.995 18.1996C115.383 18.9046 115.911 19.4686 116.581 19.8916C117.251 20.2969 118 20.4996 118.828 20.4996C119.516 20.4996 120.159 20.3674 120.758 20.1031C121.357 19.8211 121.921 19.4157 122.45 18.8869L124.063 20.5789C123.358 21.3016 122.538 21.8567 121.604 22.2445C120.688 22.6322 119.727 22.8261 118.722 22.8261Z" fill="white"/>
<path d="M106.647 22.5882V9.13157H109.291V22.5882H106.647ZM107.969 6.96371C107.529 6.96371 107.15 6.80508 106.832 6.48784C106.515 6.15296 106.356 5.76522 106.356 5.32459C106.356 4.86635 106.515 4.48741 106.832 4.18779C107.15 3.87054 107.529 3.71191 107.969 3.71191C108.427 3.71191 108.815 3.87054 109.132 4.18779C109.45 4.48741 109.608 4.86635 109.608 5.32459C109.608 5.76522 109.45 6.15296 109.132 6.48784C108.815 6.80508 108.427 6.96371 107.969 6.96371Z" fill="white"/>
<path d="M102.134 22.8264C100.83 22.8264 99.8344 22.5268 99.147 21.9276C98.4597 21.3107 98.116 20.4206 98.116 19.2574V11.3526H95.2607V9.1319H98.116V5.69504L100.733 5.06055V9.1319H104.699V11.3526H100.733V18.6493C100.733 19.3367 100.883 19.8302 101.183 20.1298C101.5 20.4118 102.011 20.5528 102.716 20.5528C103.086 20.5528 103.412 20.5264 103.694 20.4735C103.994 20.4206 104.311 20.3413 104.646 20.2356V22.4563C104.294 22.5797 103.879 22.6678 103.403 22.7207C102.945 22.7912 102.522 22.8264 102.134 22.8264Z" fill="white"/>
<path d="M86.5605 22.5883V9.1317H89.2043V10.8501C89.6273 10.2156 90.1472 9.72214 90.7641 9.36964C91.3986 8.99951 92.1124 8.81445 92.9055 8.81445C93.4519 8.83208 93.9013 8.91139 94.2538 9.05239V11.4318C94.0071 11.326 93.7515 11.2555 93.4871 11.2203C93.2228 11.1674 92.9584 11.1409 92.694 11.1409C91.9185 11.1409 91.2311 11.3524 90.6319 11.7754C90.0327 12.1808 89.5568 12.7801 89.2043 13.5732V22.5883H86.5605Z" fill="white"/>
<path d="M76.7465 22.8261C75.7771 22.8261 74.9223 22.6587 74.1821 22.3238C73.4418 21.9713 72.8602 21.4866 72.4372 20.8697C72.0142 20.2529 71.8027 19.5391 71.8027 18.7283C71.8027 17.4593 72.2874 16.4635 73.2568 15.7409C74.2262 15.0007 75.5568 14.6305 77.2488 14.6305C78.5707 14.6305 79.7956 14.8861 80.9236 15.3972V13.9696C80.9236 13.0002 80.6416 12.2776 80.0776 11.8017C79.5313 11.3259 78.7205 11.0879 77.6454 11.0879C77.0285 11.0879 76.3852 11.1849 75.7155 11.3787C75.0457 11.555 74.2967 11.837 73.4683 12.2247L72.4901 10.2419C73.5123 9.76606 74.4641 9.42237 75.3453 9.21087C76.2266 8.98175 77.1166 8.86719 78.0155 8.86719C79.7604 8.86719 81.1087 9.28137 82.0604 10.1097C83.0298 10.9381 83.5145 12.119 83.5145 13.6523V22.5882H80.9236V21.4249C80.3244 21.9008 79.6811 22.2533 78.9937 22.4824C78.3063 22.7115 77.5573 22.8261 76.7465 22.8261ZM74.3407 18.6754C74.3407 19.3276 74.6139 19.8563 75.1603 20.2617C75.7243 20.6494 76.4557 20.8433 77.3546 20.8433C78.0596 20.8433 78.7029 20.7464 79.2845 20.5525C79.8838 20.341 80.4301 20.0149 80.9236 19.5743V17.3007C80.4125 17.0011 79.8749 16.7896 79.3109 16.6662C78.7646 16.5252 78.1477 16.4547 77.4603 16.4547C76.491 16.4547 75.7243 16.6574 75.1603 17.0628C74.6139 17.4505 74.3407 17.9881 74.3407 18.6754Z" fill="white"/>
<path d="M62.6985 22.8528C61.6587 22.8528 60.7422 22.6325 59.949 22.1919C59.1559 21.7513 58.5391 21.1344 58.0984 20.3413C57.6578 19.5305 57.4375 18.6052 57.4375 17.5653V9.13184H60.0548V17.1159C60.0548 18.1734 60.3544 19.0106 60.9537 19.6275C61.5705 20.2443 62.3901 20.5528 63.4123 20.5528C64.135 20.5528 64.7783 20.403 65.3423 20.1033C65.9063 19.7861 66.3645 19.3455 66.717 18.7815V9.13184H69.3607V22.5884H66.717V21.2137C65.6771 22.3064 64.3376 22.8528 62.6985 22.8528Z" fill="white"/>
<path d="M51.2358 23.196L49.9668 21.6627C49.2794 22.0328 48.5392 22.3324 47.7461 22.5615C46.953 22.773 46.1246 22.8788 45.261 22.8788C43.9038 22.8788 42.6349 22.6408 41.454 22.165C40.2907 21.6715 39.2685 20.9929 38.3872 20.1293C37.506 19.2481 36.8186 18.2346 36.3251 17.089C35.8493 15.9258 35.6113 14.6744 35.6113 13.3349C35.6113 11.9954 35.8493 10.7529 36.3251 9.60723C36.8186 8.44399 37.506 7.43056 38.3872 6.56694C39.2685 5.68569 40.2907 5.00713 41.454 4.53126C42.6349 4.03776 43.9038 3.79102 45.261 3.79102C46.6005 3.79102 47.8518 4.03776 49.0151 4.53126C50.1783 5.00713 51.2006 5.68569 52.0818 6.56694C52.963 7.43056 53.6504 8.44399 54.1439 9.60723C54.6374 10.7529 54.8842 11.9954 54.8842 13.3349C54.8842 14.692 54.6198 15.9698 54.091 17.1683C53.5623 18.3668 52.8397 19.3979 51.9232 20.2615L53.8267 22.588L51.2358 23.196ZM45.261 20.3144C45.8073 20.3144 46.3273 20.2527 46.8208 20.1293C47.3319 20.0059 47.8078 19.8209 48.2484 19.5741L45.869 16.6924L48.4863 16.0579L50.2047 18.1465C50.7864 17.5296 51.2358 16.807 51.5531 15.9786C51.8879 15.1503 52.0554 14.269 52.0554 13.3349C52.0554 12.3303 51.8791 11.405 51.5266 10.559C51.1741 9.71298 50.6894 8.98155 50.0726 8.36468C49.4557 7.73018 48.7331 7.23668 47.9047 6.88419C47.094 6.53169 46.2127 6.35544 45.261 6.35544C44.2916 6.35544 43.3927 6.53169 42.5644 6.88419C41.736 7.23668 41.0134 7.73018 40.3965 8.36468C39.7796 8.98155 39.2949 9.71298 38.9424 10.559C38.6076 11.405 38.4401 12.3303 38.4401 13.3349C38.4401 14.3219 38.6076 15.2472 38.9424 16.1108C39.2949 16.9568 39.7796 17.6971 40.3965 18.3316C41.0134 18.9484 41.736 19.4331 42.5644 19.7856C43.3927 20.1381 44.2916 20.3144 45.261 20.3144Z" fill="white"/>
<path d="M27 9L9 27L0 18L18 0H27V9Z" fill="url(#paint0_linear_5706_18941)" fill-opacity="0.7"/>
<rect x="17.999" width="9.00003" height="9.00003" fill="#F15A29"/>
<rect width="9.00003" height="9.00003" fill="white"/>
<rect y="18" width="9.00003" height="9.00003" fill="white"/>
<rect x="17.999" y="18" width="9.00003" height="9.00003" fill="white"/>
<defs>
<linearGradient id="paint0_linear_5706_18941" x1="7.80882" y1="19.3235" x2="23.4265" y2="3.97059" gradientUnits="userSpaceOnUse">
<stop/>
<stop offset="1" stop-color="#F15A29"/>
</linearGradient>
</defs>
</svg>
