<svg width="124" height="57" viewBox="0 0 124 57" fill="none" xmlns="http://www.w3.org/2000/svg">
<g clip-path="url(#clip0_5700_15529)">
<path d="M107.344 54.4813C107.344 54.9782 107.814 55.1344 108.08 55.1344H108.684C109.18 55.1344 109.18 55.9917 108.684 55.9917H102.86C102.365 55.9917 102.365 55.1344 102.86 55.1344H103.463C103.73 55.1344 104.2 54.9782 104.2 54.4813V45.4318C104.2 44.937 103.73 44.7776 103.463 44.7776H102.86C102.365 44.7776 102.365 43.9211 102.86 43.9211H108.684C109.18 43.9211 109.18 44.7776 108.684 44.7776H108.08C107.814 44.7776 107.344 44.937 107.344 45.4318V54.4813Z" fill="#6D6D6D"/>
<path d="M86.4808 54.4805C86.7465 55.1336 86.3004 55.1336 86.0339 55.1336H85.4293C84.9342 55.1336 84.9342 55.9909 85.4293 55.9909H91.2552C91.7497 55.9909 91.7497 55.1336 91.2552 55.1336H90.8442C90.5779 55.1336 90.2519 55.1336 89.9618 54.4805C89.9618 54.4805 85.4065 44.0521 85.3087 43.8228C85.2136 43.5943 85.0804 43.6312 84.9827 43.6312H84.3424C84.1131 43.6312 84.041 43.8228 83.9938 43.8965C83.9443 43.9688 79.3521 54.4808 79.3521 54.4808C79.0137 55.1339 78.8085 55.1339 78.5422 55.1339H77.9381C77.4425 55.1339 77.4425 55.9912 77.9381 55.9912H82.1433C82.6383 55.9912 82.6383 55.1339 82.1433 55.1339H81.0569C80.7901 55.1339 80.2701 55.2301 80.5603 54.4808L83.5334 47.2789L86.4808 54.4805Z" fill="#6D6D6D"/>
<path d="M85.4062 51.8487L85.049 50.9885H82.0043L81.6484 51.8487H85.4062Z" fill="#6D6D6D"/>
<path d="M72.9629 45.4308C72.6966 44.7767 73.1422 44.7767 73.4092 44.7767H74.0133C74.5079 44.7767 74.5079 43.9202 74.0133 43.9202H68.1885C67.6924 43.9202 67.6924 44.7767 68.1885 44.7767H68.5989C68.8652 44.7767 69.1912 44.7767 69.4803 45.4308C69.4803 45.4308 74.0361 55.7625 74.1323 55.9907C74.2296 56.2206 74.3627 56.1844 74.4594 56.1844H74.9068C75.0501 56.1844 75.0829 56.2285 75.2247 55.9931C75.2708 55.9208 79.8971 45.4308 79.8971 45.4308C80.2355 44.7767 80.4407 44.7767 80.7075 44.7767H81.3111C81.8067 44.7767 81.8067 43.9202 81.3111 43.9202H77.687C77.1909 43.9202 77.1909 44.7767 77.687 44.7767H78.1933C78.4591 44.7767 78.9791 44.6815 78.6889 45.4308L75.7174 52.3433L72.9629 45.4308Z" fill="#6D6D6D"/>
<path d="M66.419 54.4805C66.6847 55.1336 66.2392 55.1336 65.9727 55.1336H65.3665C64.8735 55.1336 64.8735 55.9909 65.3665 55.9909H71.1926C71.6882 55.9909 71.6882 55.1336 71.1926 55.1336H70.7817C70.5164 55.1336 70.1893 55.1336 69.8992 54.4805C69.8992 54.4805 65.3439 44.0521 65.2488 43.8228C65.151 43.5943 65.0179 43.6312 64.9212 43.6312H64.2798C64.18 43.6312 64.093 43.6197 63.9528 43.8516C63.9072 43.9274 59.2898 54.4808 59.2898 54.4808C58.9511 55.1339 58.7459 55.1339 58.4817 55.1339H57.8758C57.3799 55.1339 57.3799 55.9912 57.8758 55.9912H62.081C62.5768 55.9912 62.5768 55.1339 62.081 55.1339H60.9941C60.7281 55.1339 60.2094 55.2301 60.4982 54.4808L63.4721 47.2789L66.419 54.4805Z" fill="#6D6D6D"/>
<path d="M65.3437 51.8487L64.9881 50.9885H61.9421L61.5859 51.8487H65.3437Z" fill="#6D6D6D"/>
<path d="M43.9188 49.9576L41.5508 47.5896L39.1824 49.958L41.5504 52.326L43.9188 49.9576Z" fill="#6D6D6D"/>
<path d="M0.609375 52.8864C0.609375 52.4993 1.45512 52.3779 1.45512 52.8864C1.45512 53.8286 1.89621 55.822 4.38549 55.822C6.87478 55.822 7.11013 54.0466 7.11013 53.4415C7.11013 50.7352 0.851541 51.387 0.851541 47.229C0.851541 44.2829 3.47973 43.2799 5.49778 43.2799C7.26135 43.2799 8.05259 43.7019 8.27038 43.8709C8.48843 44.0407 8.51176 44.1844 8.51176 44.3555V46.6037C8.51176 46.9158 8.02821 47.1582 7.83663 46.6037C7.64295 46.0473 6.98983 44.0879 5.49202 44.0879C3.79895 44.0879 3.19641 45.2733 3.19641 45.999C3.19641 48.7294 9.43089 47.6654 9.43089 52.1612C9.43089 54.7223 7.0619 56.6793 4.37973 56.6793C1.6965 56.6793 0.826381 55.5869 0.609637 55.3447L0.609375 52.8864Z" fill="#6D6D6D"/>
<path d="M35.1691 53.0408C35.3631 52.654 35.8209 52.7263 35.8209 53.2324V54.8288C35.8209 54.9011 35.8209 55.046 35.7017 55.142C35.5798 55.2384 34.1292 56.4964 31.7615 56.4964C28.2577 56.4964 24.2695 54.4419 24.2695 50.0185C24.2695 46.1281 28.3667 43.687 31.8464 43.687C32.8612 43.687 34.7102 44.0967 35.0488 44.2411C35.3872 44.3868 35.4346 44.5312 35.4595 44.7141C35.4836 44.8944 35.628 46.0557 35.6763 46.3448C35.7255 46.6352 35.2666 46.9995 34.9508 46.4415C34.6376 45.8859 33.888 44.5086 31.8346 44.5086C29.7801 44.5086 27.5079 46.0798 27.5079 50.0672C27.5079 54.0554 29.9728 55.6737 31.7612 55.6737C32.9464 55.6735 34.3957 55.142 35.1691 53.0408Z" fill="#6D6D6D"/>
<path d="M114.782 43.9211L121.024 51.6558V45.4318C121.024 44.937 120.552 44.7776 120.286 44.7776H119.684C119.187 44.7776 119.187 43.9211 119.684 43.9211H123.429C123.925 43.9211 123.925 44.7776 123.429 44.7776H122.825C122.558 44.7776 122.088 44.937 122.088 45.4318V56.149C122.088 56.2457 122.052 56.366 121.87 56.366H120.927C120.855 56.366 120.794 56.3421 120.722 56.2708C120.649 56.1975 112.71 46.2663 112.71 46.2663V54.4816C112.71 54.9785 113.182 55.1347 113.447 55.1347H114.052C114.548 55.1347 114.548 55.992 114.052 55.992H110.306C109.81 55.992 109.81 55.1347 110.306 55.1347H110.91C111.176 55.1347 111.647 54.9785 111.647 54.4816V45.6257C111.647 45.0575 111.2 44.7779 110.812 44.7779H110.306C109.81 44.7779 109.81 43.9214 110.306 43.9214L114.782 43.9211Z" fill="#6D6D6D"/>
<path d="M14.9051 43.9211L21.1453 51.6558V45.4318C21.1453 44.937 20.6759 44.7776 20.4083 44.7776H19.8045C19.3089 44.7776 19.3089 43.9211 19.8045 43.9211H23.5497C24.0466 43.9211 24.0466 44.7776 23.5497 44.7776H22.9474C22.6822 44.7776 22.2097 44.937 22.2097 45.4318V56.149C22.2097 56.2457 22.1724 56.366 21.9924 56.366H21.0489C20.9768 56.366 20.9171 56.3421 20.8437 56.2708C20.7724 56.1975 12.8328 46.2663 12.8328 46.2663V54.4816C12.8328 54.9785 13.3032 55.1347 13.5695 55.1347H14.1744C14.6692 55.1347 14.6692 55.992 14.1744 55.992H10.4266C9.93072 55.992 9.93072 55.1347 10.4266 55.1347H11.0328C11.298 55.1347 11.7698 54.9785 11.7698 54.4816V45.6257C11.7698 45.0575 11.3221 44.7779 10.9363 44.7779H10.4268C9.93098 44.7779 9.93098 43.9214 10.4268 43.9214L14.9051 43.9211Z" fill="#6D6D6D"/>
<path d="M53.4366 55.3893C53.9128 55.3893 55.4151 55.3814 56.4275 53.2855C56.6008 52.8127 57.332 52.9186 57.2492 53.4053L56.8673 55.665C56.833 55.8406 56.7135 55.9907 56.5046 55.9907H47.4422C46.9463 55.9907 46.9463 55.1335 47.4422 55.1335H48.0474C48.3121 55.1335 48.7843 54.9773 48.7843 54.4804V45.4308C48.7843 44.936 48.3121 44.7767 48.0474 44.7767H47.4422C46.9463 44.7767 46.9463 43.9202 47.4422 43.9202H53.266C53.7613 43.9202 53.7613 44.7767 53.266 44.7767H52.6622C52.3967 44.7767 51.9241 44.936 51.9241 45.4308V53.9981C51.9239 55.112 52.5715 55.3893 53.4366 55.3893Z" fill="#6D6D6D"/>
<path d="M98.4277 55.3893C98.9042 55.3893 100.407 55.3814 101.421 53.2855C101.593 52.8127 102.324 52.9186 102.24 53.4053L101.859 55.665C101.825 55.8406 101.706 55.9907 101.496 55.9907H92.4346C91.9385 55.9907 91.9385 55.1335 92.4346 55.1335H93.0377C93.3045 55.1335 93.7757 54.9773 93.7757 54.4804V45.4308C93.7757 44.936 93.3042 44.7767 93.0377 44.7767H92.4346C91.9385 44.7767 91.9385 43.9202 92.4346 43.9202H98.2579C98.7524 43.9202 98.7524 44.7767 98.2579 44.7767H97.6543C97.3875 44.7767 96.9176 44.936 96.9176 45.4308V53.9981C96.9176 55.112 97.5646 55.3893 98.4277 55.3893Z" fill="#6D6D6D"/>
<path d="M24.5391 16.085L33.0435 24.5894L41.5492 16.085L33.0435 7.58142L24.5391 16.085Z" fill="#6D6D6D"/>
<path d="M34.7971 28.9255C36.1298 29.8873 37.6232 30.6563 39.2185 31.1726C44.8192 27.9359 50.3513 21.1062 50.3513 16.1468C50.3513 11.1176 44.647 4.15192 38.9658 0.973877C37.4004 1.51115 35.9382 2.2788 34.6367 3.24773C38.6699 4.86584 46.5959 13.094 46.5959 16.1158C46.5957 19.101 38.8752 27.1685 34.7971 28.9255Z" fill="#6D6D6D"/>
<path d="M45.3906 0.162842C53.5999 0.796301 60.0378 7.6527 60.0378 16.0253C60.0378 24.2317 53.8151 30.9914 45.837 31.8499C50.6714 27.8477 54.1049 21.9405 54.1049 16.1757C54.1049 10.2513 50.4397 4.16593 45.3906 0.162842Z" fill="#6D6D6D"/>
</g>
<defs>
<clipPath id="clip0_5700_15529">
<rect width="123.189" height="56.5168" fill="white" transform="translate(0.609375 0.162109)"/>
</clipPath>
</defs>
</svg>
