<svg width="115" height="35" viewBox="0 0 115 35" fill="none" xmlns="http://www.w3.org/2000/svg">
<path d="M13.5527 5.51386C10.9511 4.35896 9.39967 3.91086 7.85904 3.91086C6.24218 3.91086 5.20662 4.48985 5.20662 5.38451C5.20662 8.08466 14.3665 7.32474 14.3665 13.5704C14.3665 17.0143 11.477 19.0154 7.46253 19.0154C4.31352 19.0154 2.76286 18.2008 0.976624 17.2784V13.4149C3.55281 15.1218 5.12964 15.7247 7.11683 15.7247C8.83994 15.7247 9.76925 15.1218 9.76925 14.0709C9.76925 11.1305 0.609375 12.2076 0.609375 5.77641C0.609375 2.67513 3.28951 0.621721 7.46253 0.621721C9.47668 0.621721 11.2937 1.04441 13.5527 2.01606V5.51386Z" fill="#7F7F7F"/>
<path d="M26.3762 18.1945C24.8494 18.7481 23.5583 19.0122 22.2702 19.0122C18.004 19.0122 15.2461 16.5276 15.2461 12.7473C15.2461 9.03621 18.111 6.41459 22.1116 6.41459C23.3473 6.41459 24.9272 6.73103 26.1907 7.20146V10.0425C25.1905 9.51125 24.0325 9.22022 23.0848 9.22022C20.795 9.22022 19.3221 10.5961 19.3221 12.7196C19.3221 14.8731 20.7704 16.2905 22.9523 16.2905C23.8732 16.2905 24.6916 16.0795 26.3762 15.449V18.1945Z" fill="#7F7F7F"/>
<path d="M59.6375 11.3552C59.7938 9.66909 60.7732 8.69436 62.273 8.69436C63.7474 8.69436 64.7468 9.69681 64.9046 11.3552H59.6375ZM62.0097 6.41844C58.2663 6.41844 55.6016 9.06238 55.6016 12.7827C55.6016 16.5307 58.3725 19.0122 62.6434 19.0122C63.5896 19.0122 65.8778 19.0122 68.0575 17.3992V15.027C66.272 16.299 65.091 16.7371 63.5665 16.7371C61.1605 16.7371 59.6891 15.4921 59.5559 13.3671H68.2723C68.4533 8.9315 65.5414 6.41844 62.0097 6.41844Z" fill="#7F7F7F"/>
<path d="M69.7461 18.7909H73.5574V6.64215H69.7461V18.7909Z" fill="#7F7F7F"/>
<path d="M84.1639 15.4706C83.3701 16.1851 82.7102 16.4715 81.8964 16.4715C80.1017 16.4715 78.9661 14.9948 78.9661 12.7812C78.9661 10.356 80.1017 8.95777 82.0227 8.95777C82.7102 8.95777 83.608 9.27421 84.1639 9.67072V15.4706ZM84.1639 0.845772V7.17538C83.1345 6.67723 82.1082 6.41469 80.9987 6.41469C77.5225 6.41469 75.1172 8.98395 75.1172 12.7019C75.1172 16.3399 77.5224 19.0154 80.7839 19.0154C82.0774 19.0154 83.0767 18.6766 84.1639 17.8097V18.7875H87.9743V0.845772H84.1639Z" fill="#7F7F7F"/>
<path d="M93.6149 11.3552C93.7735 9.66909 94.7475 8.69436 96.245 8.69436C97.7217 8.69436 98.7311 9.69681 98.889 11.3552H93.6149ZM95.9848 6.41844C92.2421 6.41844 89.582 9.06238 89.582 12.7827C89.582 16.5307 92.353 19.0122 96.6192 19.0122C97.5639 19.0122 99.8568 19.0122 102.042 17.3992V15.027C100.254 16.299 99.0706 16.7371 97.5392 16.7371C95.1463 16.7371 93.6688 15.4921 93.5356 13.3671H102.248C102.429 8.9315 99.5149 6.41844 95.9848 6.41844Z" fill="#7F7F7F"/>
<mask id="mask0_5700_15481" style="mask-type:luminance" maskUnits="userSpaceOnUse" x="0" y="0" width="115" height="35">
<path d="M0.609375 0.622131V34.2142H114.402V0.622131" fill="white"/>
</mask>
<g mask="url(#mask0_5700_15481)">
<path d="M107.956 10.1212H108.013C109.144 7.59279 110.41 6.4071 111.88 6.4071C112.641 6.4071 113.298 6.69736 114.404 7.51502L113.355 10.8835C112.354 10.2521 111.697 9.98805 111.092 9.98805C109.694 9.98805 108.799 11.3062 107.956 13.5343V18.7753H104.141V6.62961H107.956V10.1212Z" fill="#7F7F7F"/>
<path d="M73.7375 1.53141C74.0955 2.47535 73.4511 3.79193 72.3031 4.46947C71.1505 5.14624 69.9325 4.93143 69.5776 3.9875C69.2157 3.04202 69.8571 1.7239 71.0081 1.05021C72.1576 0.369588 73.3764 0.585168 73.7375 1.53141Z" fill="#7F7F7F"/>
</g>
<path d="M40.1018 11.0585C40.1018 7.76626 37.8644 6.41811 35.6562 6.41811C34.1548 6.41811 32.9206 7.05177 31.8166 8.44919H31.7642V0.84535H27.9492V18.7555H31.7642V11.0585C32.6566 9.76731 33.4188 9.21527 34.3127 9.21527C35.4992 9.21527 36.2876 10.0591 36.2876 11.8738V16.1416C37.5672 15.4841 38.8676 15.0806 40.1018 14.9305V11.0585Z" fill="#7F7F7F"/>
<path d="M49.6702 6.41469C48.1165 6.41469 46.93 6.99213 45.7158 8.38109V6.64259H41.9023V14.8986C43.2235 15.0302 44.9089 15.6362 45.7158 16.6371V10.9634C46.7183 9.459 47.4297 8.95777 48.3782 8.95777C49.4585 8.95777 50.2792 9.67072 50.2792 11.3838V18.7598H54.0934V11.0682C54.0934 7.49028 51.5665 6.41469 49.6702 6.41469Z" fill="#7F7F7F"/>
<path d="M56.2029 22.2482H51.7711V25.3972H56.0466V26.7484H51.7711V29.9967H56.3353V31.3464H50.2852V20.9H56.2029V22.2482Z" fill="#7F7F7F"/>
<path d="M59.8203 31.3528H61.1778V20.8971H59.8203V31.3528Z" fill="#7F7F7F"/>
<path d="M67.9016 25.496C68.864 25.496 69.4607 26.1589 69.5054 27.2007H66.0484C66.2355 26.1127 66.8614 25.496 67.9016 25.496ZM66.0238 28.1069H70.8597C70.8597 25.5576 69.6948 24.3273 67.8708 24.3273C65.9783 24.3273 64.6641 25.7262 64.6641 27.8128C64.6641 29.7199 65.8513 31.4807 67.9886 31.4807C69.1535 31.4807 69.9065 31.222 70.7404 30.6684V29.3472C69.935 29.8746 69.1535 30.1788 68.3312 30.1788C67.0162 30.1788 66.2355 29.4735 66.0238 28.1069Z" fill="#7F7F7F"/>
<path d="M79.7225 26.2675C78.9418 25.7332 78.4205 25.5761 77.8261 25.5761C76.5835 25.5761 75.7227 26.5293 75.7227 27.9252C75.7227 29.3472 76.6389 30.2042 78.0533 30.2042C78.6353 30.2042 79.1897 30.0533 79.8742 29.7468V31.0857C79.4168 31.3013 78.5452 31.4807 77.8261 31.4807C75.7704 31.4807 74.3438 30.0671 74.3438 28.0468C74.3438 25.7671 75.6472 24.3273 77.733 24.3273C78.5298 24.3273 79.0657 24.5128 79.7225 24.8016V26.2675Z" fill="#7F7F7F"/>
<path d="M85.9055 24.4589H88.0844V25.6824H85.9055V29.2179C85.9055 30.0271 86.4914 30.2611 86.8871 30.2611C87.3783 30.2611 87.885 30.0894 88.4347 29.7499V31.0234C87.9581 31.2859 87.2267 31.4807 86.7786 31.4807C85.3003 31.4807 84.5527 30.563 84.5527 29.3203V25.6824H83.3555V25.5307L85.9055 23.0353V24.4589Z" fill="#7F7F7F"/>
<path d="M93.2738 24.4596V26.0541H93.3015C93.9937 24.8338 94.652 24.3279 95.2926 24.3279C95.8454 24.3279 96.3628 24.5874 96.9318 25.1256L96.2126 26.322C95.7992 25.9132 95.2648 25.6314 94.9422 25.6314C94.0075 25.6314 93.2738 26.5815 93.2738 27.7587V31.3528H91.918V24.4596H93.2738Z" fill="#7F7F7F"/>
<path d="M110.842 26.2675C110.057 25.7332 109.537 25.5761 108.939 25.5761C107.699 25.5761 106.845 26.5293 106.845 27.9252C106.845 29.3472 107.762 30.2042 109.168 30.2042C109.751 30.2042 110.302 30.0533 110.996 29.7468V31.0857C110.528 31.3013 109.656 31.4807 108.939 31.4807C106.886 31.4807 105.453 30.0671 105.453 28.0468C105.453 25.7671 106.763 24.3273 108.849 24.3273C109.647 24.3273 110.177 24.5128 110.842 24.8016V26.2675Z" fill="#7F7F7F"/>
<path d="M100.531 31.3528H101.888V24.4598H100.531V31.3528Z" fill="#7F7F7F"/>
<mask id="mask1_5700_15481" style="mask-type:luminance" maskUnits="userSpaceOnUse" x="0" y="0" width="115" height="35">
<path d="M0.609375 0.622131V34.2142H114.402V0.622131" fill="white"/>
</mask>
<g mask="url(#mask1_5700_15481)">
<path d="M101.933 21.9835C102.066 22.3161 101.834 22.7865 101.426 23.026C101.015 23.2662 100.58 23.1892 100.456 22.8558C100.332 22.5193 100.557 22.0528 100.969 21.8126C101.377 21.5693 101.809 21.647 101.933 21.9835Z" fill="#7F7F7F"/>
<path d="M41.1737 22.5416C40.9342 22.5416 40.8334 22.5809 40.7356 22.6902C40.6971 22.7326 40.6817 22.7757 40.6678 22.8619L39.4506 27.4784C39.1649 29.0976 37.1762 30.7144 34.5838 30.7144H30.9798L31.605 28.3423H33.9202C34.1565 28.3423 34.3413 28.2545 34.4961 28.082C34.553 28.0151 34.627 27.9104 34.637 27.8026L35.5978 23.7689C35.8812 22.149 37.5927 20.3596 40.1843 20.3596H43.8754L43.4034 22.5416H41.1737ZM42.0052 25.3549L42.4171 23.8613H46.1667C46.6294 21.6955 46.2652 19.689 44.951 18.3748C42.2909 15.7146 36.7258 16.6185 32.5797 20.5852C31.9322 21.2012 31.3855 21.8672 30.8874 22.5478H33.1448L32.6197 24.0445H29.9227C29.6647 24.5165 29.423 24.9846 29.2382 25.4597H32.4365L31.9245 26.9564H28.7816C28.2442 29.2431 28.5868 31.3758 29.9388 32.7301C32.5658 35.3564 38.114 34.4332 42.2577 30.4673C42.983 29.7774 43.582 29.0329 44.1233 28.2684H41.223L41.6649 26.7747H45.0557C45.3044 26.2997 45.533 25.83 45.7116 25.3549H42.0052Z" fill="#7F7F7F"/>
</g>
</svg>
