<svg width="101" height="79" viewBox="0 0 101 79" fill="none" xmlns="http://www.w3.org/2000/svg">
<g clip-path="url(#clip0_5700_15513)">
<path d="M46.2993 52.6192V19.3502L39.4258 26.2229V59.4919L46.2993 52.6192Z" fill="#C1C5C8"/>
<path d="M54.6562 52.6181V49.2538L71.2907 22.5279H55.3096V19.3491H75.3068V22.3406L58.5342 49.4419H75.3068V52.619L54.6562 52.6181Z" fill="#898A8D"/>
<path d="M100.496 45.5613C99.7881 50.2225 95.4474 53.1515 89.3671 53.1515C84.3622 53.1515 81.0869 51.8889 77.9531 48.7542L80.3861 46.3213C83.1453 49.0813 85.7181 49.9711 89.4587 49.9711C93.3075 49.9711 96.0035 48.4329 96.7975 45.7752C96.9014 45.4211 96.9637 45.056 96.9831 44.6874C97.0455 43.7993 96.9128 42.9084 96.5944 42.0771C96.3522 41.4013 95.5906 40.5006 95.003 40.1003C93.707 39.1514 91.8534 38.3524 89.9489 37.7048L86.2308 36.4313C83.7255 35.5607 81.8527 34.3671 80.6366 32.878C79.2041 31.1251 78.7181 28.5706 79.1384 25.9953C79.1384 25.9778 79.1684 25.8188 79.1684 25.8188C80.2096 21.4074 83.8345 18.8163 89.5311 18.8163C93.7877 18.8163 96.1483 20.0964 99.0016 22.6692L96.7093 24.9615C94.6517 23.0904 92.8996 21.9035 89.3904 21.9035C85.2437 21.9035 82.9522 24.1017 82.4986 27.0424C82.3246 28.6713 82.7641 29.8857 83.6073 30.9186C84.4654 31.9732 85.9686 32.8214 87.6242 33.399L91.1201 34.586C93.6579 35.4358 96.4471 36.7734 98.0011 38.1651C98.0011 38.1651 101.24 40.6763 100.498 45.558" fill="#898A8D"/>
<path d="M7.6001 52.6192V19.3502L0.726562 26.2229V59.4919L7.6001 52.6192Z" fill="#AFAFAF"/>
<path d="M10.4023 69.1667L17.2759 62.294V42.9443L10.4023 49.8179V69.1667Z" fill="#979797"/>
<path d="M17.2759 9.67468L10.4023 16.5482V35.897L17.2759 29.0243V9.67468Z" fill="#AFAFAF"/>
<path d="M10.4023 35.8974V49.8176L17.2759 42.944V29.0247L10.4023 35.8974Z" fill="#A9A9A9"/>
<path d="M20.0742 59.4915V78.8411L26.9469 71.9676V52.6188L20.0742 59.4915Z" fill="#C1C5C8"/>
<path d="M20.0742 40.1425V45.5719L26.9469 38.6983V33.2689L20.0742 40.1425Z" fill="#979797"/>
<path d="M26.9469 0.000366211L20.0742 6.87391V26.2227L26.9469 19.35V0.000366211Z" fill="#AFAFAF"/>
<path d="M20.0742 59.492L26.9469 52.6193V38.6991L20.0742 45.5726V59.492Z" fill="#B1B1B1"/>
<path d="M26.9469 33.2696V19.3502L20.0742 26.2229V40.1431L26.9469 33.2696Z" fill="#A9A9A9"/>
<path d="M36.6227 42.9443L29.75 49.8179V69.1675L36.6227 62.294V42.9443Z" fill="#C1C5C8"/>
<path d="M36.6227 29.0243V9.67468L29.75 16.5482V35.897L36.6227 29.0243Z" fill="#979797"/>
<path d="M36.6227 29.0247L29.75 35.8974V49.8176L36.6227 42.944V29.0247Z" fill="#B1B1B1"/>
</g>
<defs>
<clipPath id="clip0_5700_15513">
<rect width="99.8819" height="78.841" fill="white" transform="translate(0.726562)"/>
</clipPath>
</defs>
</svg>
