<svg width="117" height="36" viewBox="0 0 117 36" fill="none" xmlns="http://www.w3.org/2000/svg">
<path d="M14.0747 5.64777C11.4731 4.49288 9.92164 4.04478 8.38101 4.04478C6.76415 4.04478 5.72859 4.62376 5.72859 5.51842C5.72859 8.21857 14.8885 7.45865 14.8885 13.7043C14.8885 17.1482 11.9989 19.1493 7.98451 19.1493C4.83549 19.1493 3.28484 18.3347 1.4986 17.4123V13.5488C4.07479 15.2557 5.65161 15.8586 7.6388 15.8586C9.36191 15.8586 10.2912 15.2558 10.2912 14.2048C10.2912 11.2644 1.13135 12.3416 1.13135 5.91032C1.13135 2.80904 3.81148 0.755632 7.98451 0.755632C9.99865 0.755632 11.8157 1.17832 14.0747 2.14997V5.64777Z" fill="#009E4D"/>
<path d="M26.8987 18.3284C25.3719 18.882 24.0807 19.1461 22.7926 19.1461C18.5264 19.1461 15.7686 16.6615 15.7686 12.8811C15.7686 9.17006 18.6335 6.54844 22.634 6.54844C23.8698 6.54844 25.4497 6.86488 26.7131 7.33531V10.1764C25.713 9.6451 24.555 9.35407 23.6072 9.35407C21.3174 9.35407 19.8446 10.7299 19.8446 12.8534C19.8446 15.0069 21.2928 16.4243 23.4748 16.4243C24.3956 16.4243 25.2141 16.2134 26.8987 15.5828V18.3284Z" fill="#009E4D"/>
<path d="M60.1607 11.4891C60.317 9.80294 61.2964 8.82821 62.7962 8.82821C64.2706 8.82821 65.27 9.83066 65.4278 11.4891H60.1607ZM62.5329 6.55229C58.7895 6.55229 56.1248 9.19623 56.1248 12.9165C56.1248 16.6646 58.8957 19.1461 63.1665 19.1461C64.1128 19.1461 66.401 19.1461 68.5807 17.5331V15.1609C66.7952 16.4328 65.6142 16.8709 64.0897 16.8709C61.6837 16.8709 60.2123 15.6259 60.0791 13.5009H68.7955C68.9764 9.06535 66.0646 6.55229 62.5329 6.55229Z" fill="#009E4D"/>
<path d="M70.2681 18.9247H74.0794V6.776H70.2681V18.9247Z" fill="#009E4D"/>
<path d="M84.6859 15.6045C83.8921 16.319 83.2322 16.6054 82.4184 16.6054C80.6237 16.6054 79.4881 15.1287 79.4881 12.9152C79.4881 10.4899 80.6237 9.09168 82.5447 9.09168C83.2322 9.09168 84.13 9.40812 84.6859 9.80464V15.6045ZM84.6859 0.979683V7.30929C83.6565 6.81114 82.6302 6.5486 81.5207 6.5486C78.0445 6.5486 75.6392 9.11786 75.6392 12.8359C75.6392 16.4738 78.0444 19.1493 81.3058 19.1493C82.5993 19.1493 83.5987 18.8105 84.6859 17.9436V18.9214H88.4963V0.979683H84.6859Z" fill="#009E4D"/>
<path d="M94.1374 11.4891C94.296 9.80294 95.27 8.82821 96.7675 8.82821C98.2442 8.82821 99.2536 9.83066 99.4114 11.4891H94.1374ZM96.5072 6.55229C92.7646 6.55229 90.1045 9.19623 90.1045 12.9165C90.1045 16.6646 92.8755 19.1461 97.1417 19.1461C98.0864 19.1461 100.379 19.1461 102.564 17.5331V15.1609C100.776 16.4328 99.5931 16.8709 98.0617 16.8709C95.6688 16.8709 94.1913 15.6259 94.0581 13.5009H102.771C102.952 9.06535 100.037 6.55229 96.5072 6.55229Z" fill="#009E4D"/>
<mask id="mask0_6846_6830" style="mask-type:luminance" maskUnits="userSpaceOnUse" x="1" y="0" width="114" height="35">
<path d="M1.12988 0.755859V34.348H114.923V0.755859" fill="white"/>
</mask>
<g mask="url(#mask0_6846_6830)">
<path d="M108.475 10.2551H108.531C109.662 7.72664 110.929 6.54095 112.399 6.54095C113.16 6.54095 113.817 6.83121 114.922 7.64887L113.874 11.0173C112.873 10.386 112.215 10.1219 111.611 10.1219C110.213 10.1219 109.318 11.44 108.475 13.6682V18.9091H104.659V6.76346H108.475V10.2551Z" fill="#009E4D"/>
<path d="M74.2575 1.66526C74.6155 2.6092 73.9711 3.92578 72.8231 4.60332C71.6706 5.28009 70.4525 5.06528 70.0976 4.12135C69.7357 3.17587 70.3771 1.85775 71.5281 1.18406C72.6776 0.503438 73.8964 0.719018 74.2575 1.66526Z" fill="#009E4D"/>
</g>
<path d="M40.6248 11.1923C40.6248 7.90011 38.3873 6.55196 36.1792 6.55196C34.6778 6.55196 33.4436 7.18562 32.3395 8.58304H32.2872V0.9792H28.4722V18.8893H32.2872V11.1923C33.1795 9.90116 33.9417 9.34912 34.8356 9.34912C36.0221 9.34912 36.8105 10.193 36.8105 12.0077V16.2754C38.0901 15.6179 39.3906 15.2145 40.6248 15.0643V11.1923Z" fill="#009E4D"/>
<path d="M50.1941 6.54854C48.6404 6.54854 47.4539 7.12598 46.2397 8.51494V6.77644H42.4263V15.0324C43.7475 15.1641 45.4329 15.77 46.2397 16.7709V11.0973C47.2422 9.59285 47.9536 9.09162 48.9022 9.09162C49.9824 9.09162 50.8031 9.80457 50.8031 11.5177V18.8936H54.6174V11.202C54.6174 7.62413 52.0904 6.54854 50.1941 6.54854Z" fill="#009E4D"/>
<path d="M56.7251 22.3819H52.2933V25.531H56.5688V26.8822H52.2933V30.1305H56.8575V31.4802H50.8074V21.0338H56.7251V22.3819Z" fill="#009E4D"/>
<path d="M60.3423 31.4867H61.6998V21.031H60.3423V31.4867Z" fill="#009E4D"/>
<path d="M68.4224 25.6298C69.3848 25.6298 69.9815 26.2927 70.0261 27.3344H66.5692C66.7562 26.2465 67.3822 25.6298 68.4224 25.6298ZM66.5445 28.2407H71.3804C71.3804 25.6914 70.2155 24.4611 68.3916 24.4611C66.4991 24.4611 65.1848 25.86 65.1848 27.9465C65.1848 29.8537 66.372 31.6145 68.5094 31.6145C69.6743 31.6145 70.4273 31.3558 71.2611 30.8022V29.481C70.4558 30.0084 69.6743 30.3125 68.852 30.3125C67.537 30.3125 66.7562 29.6073 66.5445 28.2407Z" fill="#009E4D"/>
<path d="M80.2445 26.4013C79.4637 25.867 78.9425 25.7099 78.3481 25.7099C77.1054 25.7099 76.2447 26.6631 76.2447 28.059C76.2447 29.481 77.1609 30.338 78.5752 30.338C79.1573 30.338 79.7117 30.1871 80.3961 29.8806V31.2195C79.9388 31.4351 79.0672 31.6145 78.3481 31.6145C76.2924 31.6145 74.8657 30.2009 74.8657 28.1806C74.8657 25.9008 76.1692 24.4611 78.2549 24.4611C79.0518 24.4611 79.5877 24.6466 80.2445 24.9353V26.4013Z" fill="#009E4D"/>
<path d="M86.4284 24.5927H88.6073V25.8161H86.4284V29.3517C86.4284 30.1609 87.0143 30.3949 87.4101 30.3949C87.9013 30.3949 88.4079 30.2232 88.9576 29.8837V31.1572C88.4811 31.4197 87.7496 31.6145 87.3015 31.6145C85.8233 31.6145 85.0757 30.6967 85.0757 29.4541V25.8161H83.8784V25.6645L86.4284 23.1691V24.5927Z" fill="#009E4D"/>
<path d="M93.7977 24.5935V26.188H93.8255C94.5176 24.9677 95.1759 24.4618 95.8165 24.4618C96.3693 24.4618 96.8867 24.7213 97.4557 25.2595L96.7366 26.456C96.3231 26.0471 95.7888 25.7653 95.4662 25.7653C94.5315 25.7653 93.7977 26.7154 93.7977 27.8927V31.4867H92.4419V24.5935H93.7977Z" fill="#009E4D"/>
<path d="M111.366 26.4013C110.581 25.867 110.061 25.7099 109.463 25.7099C108.223 25.7099 107.369 26.6631 107.369 28.059C107.369 29.481 108.286 30.338 109.692 30.338C110.275 30.338 110.826 30.1871 111.52 29.8806V31.2195C111.052 31.4351 110.18 31.6145 109.463 31.6145C107.41 31.6145 105.977 30.2009 105.977 28.1806C105.977 25.9008 107.287 24.4611 109.372 24.4611C110.171 24.4611 110.701 24.6466 111.366 24.9353V26.4013Z" fill="#009E4D"/>
<path d="M101.055 31.4867H102.412V24.5937H101.055V31.4867Z" fill="#009E4D"/>
<mask id="mask1_6846_6830" style="mask-type:luminance" maskUnits="userSpaceOnUse" x="1" y="0" width="114" height="35">
<path d="M1.12988 0.755859V34.348H114.923V0.755859" fill="white"/>
</mask>
<g mask="url(#mask1_6846_6830)">
<path d="M102.458 22.1172C102.59 22.4498 102.358 22.9202 101.95 23.1597C101.539 23.3999 101.104 23.3229 100.98 22.9895C100.856 22.6531 101.081 22.1865 101.494 21.9463C101.901 21.703 102.334 21.7807 102.458 22.1172Z" fill="#009E4D"/>
<path d="M41.6961 22.6753C41.4567 22.6753 41.3558 22.7146 41.2581 22.8239C41.2196 22.8663 41.2041 22.9094 41.1903 22.9956L39.973 27.6121C39.6874 29.2313 37.6987 30.8482 35.1063 30.8482H31.5023L32.1274 28.476H34.4426C34.679 28.476 34.8638 28.3882 35.0185 28.2158C35.0755 28.1488 35.1494 28.0441 35.1594 27.9363L36.1203 23.9026C36.4036 22.2827 38.1152 20.4934 40.7068 20.4934H44.3978L43.9259 22.6753H41.6961ZM42.5277 25.4887L42.9396 23.995H46.6891C47.1519 21.8292 46.7877 19.8228 45.4734 18.5085C42.8133 15.8484 37.2482 16.7523 33.1022 20.719C32.4546 21.3349 31.908 22.0009 31.4098 22.6815H33.6673L33.1422 24.1783H30.4451C30.1872 24.6502 29.9454 25.1183 29.7607 25.5934H32.959L32.447 27.0901H29.3041C28.7667 29.3768 29.1093 31.5095 30.4613 32.8638C33.0883 35.4901 38.6364 34.5669 42.7802 30.601C43.5055 29.9112 44.1045 29.1666 44.6457 28.4021H41.7454L42.1874 26.9084H45.5781C45.8268 26.4334 46.0555 25.9637 46.2341 25.4887H42.5277Z" fill="#009E4D"/>
</g>
</svg>
