<svg width="130" height="60" viewBox="0 0 130 60" fill="none" xmlns="http://www.w3.org/2000/svg">
<g clip-path="url(#clip0_6846_6957)">
<path d="M112.635 57.6656C112.635 58.1932 113.132 58.359 113.413 58.359H114.05C114.573 58.359 114.573 59.2691 114.05 59.2691H107.904C107.381 59.2691 107.381 58.359 107.904 58.359H108.541C108.823 58.359 109.319 58.1932 109.319 57.6656V48.0583C109.319 47.533 108.823 47.3639 108.541 47.3639H107.904C107.381 47.3639 107.381 46.4546 107.904 46.4546H114.05C114.573 46.4546 114.573 47.3639 114.05 47.3639H113.413C113.132 47.3639 112.635 47.533 112.635 48.0583V57.6656Z" fill="black"/>
<path d="M90.6152 57.6656C90.8957 58.359 90.4249 58.359 90.1437 58.359H89.5056C88.9832 58.359 88.9832 59.2691 89.5056 59.2691H95.6536C96.1755 59.2691 96.1755 58.359 95.6536 58.359H95.2199C94.9389 58.359 94.5949 58.359 94.2887 57.6656C94.2887 57.6656 89.4815 46.5945 89.3784 46.3511C89.278 46.1084 89.1375 46.1477 89.0343 46.1477H88.3586C88.1166 46.1477 88.0406 46.3511 87.9908 46.4292C87.9385 46.506 83.0924 57.6659 83.0924 57.6659C82.7353 58.3592 82.5188 58.3592 82.2378 58.3592H81.6003C81.0773 58.3592 81.0773 59.2694 81.6003 59.2694H86.0379C86.5604 59.2694 86.5604 58.3592 86.0379 58.3592H84.8915C84.61 58.3592 84.0612 58.4614 84.3674 57.6659L87.5049 50.0202L90.6152 57.6656Z" fill="black"/>
<path d="M89.4812 54.8707L89.1042 53.9575H85.8912L85.5156 54.8707H89.4812Z" fill="black"/>
<path d="M76.3524 48.058C76.0714 47.3636 76.5416 47.3636 76.8234 47.3636H77.4609C77.9828 47.3636 77.9828 46.4543 77.4609 46.4543H71.3141C70.7905 46.4543 70.7905 47.3636 71.3141 47.3636H71.7472C72.0282 47.3636 72.3722 47.3636 72.6773 48.058C72.6773 48.058 77.485 59.0265 77.5865 59.2688C77.6891 59.5128 77.8296 59.4744 77.9317 59.4744H78.4038C78.5551 59.4744 78.5896 59.5212 78.7393 59.2713C78.788 59.1945 83.6701 48.058 83.6701 48.058C84.0271 47.3636 84.2437 47.3636 84.5252 47.3636H85.1622C85.6852 47.3636 85.6852 46.4543 85.1622 46.4543H81.3377C80.8141 46.4543 80.8141 47.3636 81.3377 47.3636H81.872C82.1525 47.3636 82.7012 47.2626 82.395 48.058L79.2592 55.3966L76.3524 48.058Z" fill="black"/>
<path d="M69.447 57.6656C69.7275 58.359 69.2573 58.359 68.976 58.359H68.3363C67.8161 58.359 67.8161 59.2691 68.3363 59.2691H74.4846C75.0076 59.2691 75.0076 58.359 74.4846 58.359H74.0509C73.771 58.359 73.4259 58.359 73.1197 57.6656C73.1197 57.6656 68.3125 46.5945 68.2121 46.3511C68.109 46.1084 67.9685 46.1477 67.8664 46.1477H67.1896C67.0843 46.1477 66.9924 46.1354 66.8445 46.3817C66.7963 46.4621 61.9236 57.6659 61.9236 57.6659C61.5663 58.3592 61.3498 58.3592 61.071 58.3592H60.4315C59.9082 58.3592 59.9082 59.2694 60.4315 59.2694H64.8692C65.3925 59.2694 65.3925 58.3592 64.8692 58.3592H63.7222C63.4415 58.3592 62.8941 58.4614 63.1989 57.6659L66.3372 50.0202L69.447 57.6656Z" fill="black"/>
<path d="M68.3122 54.8707L67.9369 53.9575H64.7225L64.3467 54.8707H68.3122Z" fill="black"/>
<path d="M45.7026 52.8633L43.2036 50.3494L40.7043 52.8637L43.2032 55.3777L45.7026 52.8633Z" fill="black"/>
<path d="M0 55.9734C0 55.5624 0.892509 55.4336 0.892509 55.9734C0.892509 56.9736 1.35798 59.0899 3.9849 59.0899C6.61181 59.0899 6.86017 57.2051 6.86017 56.5627C6.86017 53.6896 0.255556 54.3816 0.255556 49.9673C0.255556 46.8397 3.02905 45.7748 5.15868 45.7748C7.01976 45.7748 7.85474 46.2228 8.08457 46.4023C8.31468 46.5826 8.3393 46.735 8.3393 46.9167V49.3035C8.3393 49.6348 7.82902 49.8922 7.62684 49.3035C7.42245 48.7128 6.73323 46.6327 5.1526 46.6327C3.36592 46.6327 2.73007 47.8911 2.73007 48.6616C2.73007 51.5602 9.30925 50.4306 9.30925 55.2035C9.30925 57.9224 6.80928 60 3.97881 60C1.14723 60 0.229004 58.8403 0.000276423 58.5832L0 55.9734Z" fill="black"/>
<path d="M36.4705 56.1364C36.6751 55.7257 37.1583 55.8025 37.1583 56.3398V58.0346C37.1583 58.1113 37.1583 58.2652 37.0325 58.367C36.9039 58.4694 35.373 59.805 32.8744 59.805C29.1769 59.805 24.9683 57.6239 24.9683 52.9278C24.9683 48.7976 29.292 46.2061 32.9641 46.2061C34.035 46.2061 35.9862 46.641 36.3435 46.7943C36.7006 46.949 36.7506 47.1023 36.7769 47.2965C36.8024 47.488 36.9548 48.7208 37.0057 49.0277C37.0576 49.336 36.5734 49.7228 36.2401 49.1304C35.9096 48.5405 35.1186 47.0784 32.9516 47.0784C30.7835 47.0784 28.3856 48.7464 28.3856 52.9795C28.3856 57.2135 30.9868 58.9316 32.8742 58.9316C34.1248 58.9313 35.6543 58.367 36.4705 56.1364Z" fill="black"/>
<path d="M120.483 46.4546L127.07 54.6659V48.0583C127.07 47.533 126.572 47.3639 126.291 47.3639H125.656C125.131 47.3639 125.131 46.4546 125.656 46.4546H129.608C130.131 46.4546 130.131 47.3639 129.608 47.3639H128.97C128.689 47.3639 128.193 47.533 128.193 48.0583V59.436C128.193 59.5387 128.154 59.6664 127.962 59.6664H126.968C126.892 59.6664 126.827 59.6411 126.751 59.5654C126.674 59.4875 118.296 48.9443 118.296 48.9443V57.6659C118.296 58.1934 118.794 58.3593 119.073 58.3593H119.712C120.236 58.3593 120.236 59.2694 119.712 59.2694H115.759C115.235 59.2694 115.235 58.3593 115.759 58.3593H116.396C116.677 58.3593 117.174 58.1934 117.174 57.6659V48.2642C117.174 47.661 116.703 47.3641 116.293 47.3641H115.759C115.235 47.3641 115.235 46.4549 115.759 46.4549L120.483 46.4546Z" fill="black"/>
<path d="M15.0839 46.4546L21.6692 54.6659V48.0583C21.6692 47.533 21.1738 47.3639 20.8914 47.3639H20.2542C19.7312 47.3639 19.7312 46.4546 20.2542 46.4546H24.2065C24.7309 46.4546 24.7309 47.3639 24.2065 47.3639H23.5709C23.291 47.3639 22.7923 47.533 22.7923 48.0583V59.436C22.7923 59.5387 22.7531 59.6664 22.5631 59.6664H21.5674C21.4913 59.6664 21.4283 59.6411 21.3508 59.5654C21.2756 59.4875 12.897 48.9443 12.897 48.9443V57.6659C12.897 58.1934 13.3935 58.3593 13.6745 58.3593H14.3128C14.835 58.3593 14.835 59.2694 14.3128 59.2694H10.3578C9.83451 59.2694 9.83451 58.3593 10.3578 58.3593H10.9975C11.2774 58.3593 11.7752 58.1934 11.7752 57.6659V48.2642C11.7752 47.661 11.3029 47.3641 10.8957 47.3641H10.3581C9.83479 47.3641 9.83479 46.4549 10.3581 46.4549L15.0839 46.4546Z" fill="black"/>
<path d="M55.7491 58.6302C56.2516 58.6302 57.8369 58.6219 58.9053 56.3968C59.0881 55.8949 59.8598 56.0073 59.7724 56.524L59.3694 58.9229C59.3332 59.1094 59.2071 59.2688 58.9866 59.2688H49.4232C48.8999 59.2688 48.8999 58.3587 49.4232 58.3587H50.0618C50.3412 58.3587 50.8396 58.1929 50.8396 57.6653V48.058C50.8396 47.5327 50.3412 47.3636 50.0618 47.3636H49.4232C48.8999 47.3636 48.8999 46.4543 49.4232 46.4543H55.569C56.0917 46.4543 56.0917 47.3636 55.569 47.3636H54.9318C54.6516 47.3636 54.1529 47.5327 54.1529 48.058V57.1534C54.1527 58.3359 54.8361 58.6302 55.7491 58.6302Z" fill="black"/>
<path d="M103.228 58.6302C103.731 58.6302 105.317 58.6219 106.387 56.3968C106.568 55.8949 107.34 56.0073 107.252 56.524L106.85 58.9229C106.813 59.1094 106.688 59.2688 106.466 59.2688H96.9039C96.3803 59.2688 96.3803 58.3587 96.9039 58.3587H97.5403C97.8219 58.3587 98.3191 58.1929 98.3191 57.6653V48.058C98.3191 47.5327 97.8216 47.3636 97.5403 47.3636H96.9039C96.3803 47.3636 96.3803 46.4543 96.9039 46.4543H103.049C103.571 46.4543 103.571 47.3636 103.049 47.3636H102.412C102.131 47.3636 101.635 47.5327 101.635 48.058V57.1534C101.635 58.3359 102.318 58.6302 103.228 58.6302Z" fill="black"/>
<path d="M25.252 16.9035L34.2265 25.932L43.2025 16.9035L34.2265 7.87579L25.252 16.9035Z" fill="#00537B"/>
<path d="M36.077 30.5355C37.4834 31.5566 39.0593 32.3729 40.7428 32.9211C46.6532 29.4848 52.4912 22.2342 52.4912 16.9692C52.4912 11.6301 46.4715 4.23505 40.4762 0.861145C38.8242 1.43153 37.2812 2.24649 35.9077 3.27514C40.1639 4.99297 48.5281 13.7282 48.5281 16.9363C48.5278 20.1055 40.3805 28.6702 36.077 30.5355Z" fill="#00537B"/>
<path d="M47.2573 0C55.9205 0.6725 62.7143 7.95148 62.7143 16.8401C62.7143 25.5522 56.1476 32.7285 47.7283 33.64C52.83 29.3911 56.4535 23.1199 56.4535 16.9998C56.4535 10.7102 52.5855 4.2498 47.2573 0Z" fill="#00537B"/>
</g>
<defs>
<clipPath id="clip0_6846_6957">
<rect width="130" height="60" fill="white"/>
</clipPath>
</defs>
</svg>
