<svg width="175" height="37" viewBox="0 0 175 37" fill="none" xmlns="http://www.w3.org/2000/svg">
<path d="M32.9831 1.89255C37.4855 -0.371211 42.9424 -0.603552 47.6426 1.19239C52.4465 2.99775 56.4057 6.9193 58.2425 11.7106C59.4104 14.6274 59.7307 17.8425 59.3288 20.9477C58.6946 25.5663 56.2173 29.8992 52.5595 32.7877C48.5092 36.05 43.0115 37.4597 37.8937 36.4989C34.0883 35.871 30.5718 33.9212 27.8622 31.1959C27.8747 27.0671 27.8716 22.9383 27.8496 18.8096C29.1275 22.9069 30.1228 27.0954 31.2877 31.2304C32.7539 31.2241 34.2233 31.2336 35.6927 31.2179C36.7979 27.086 38.0005 22.9792 38.9801 18.8127C39.2501 19.9273 39.1025 21.0733 39.1119 22.2068C39.1151 25.2115 39.1088 28.2194 39.1151 31.2241C40.9895 31.2179 42.8639 31.2461 44.7384 31.2053C44.685 24.8096 44.7164 18.4108 44.7227 12.012C41.9 12.0277 39.0805 11.9994 36.2579 12.0277C35.407 15.7734 34.3678 19.4783 33.6142 23.246C33.1495 22.706 33.1464 21.9556 32.9643 21.3025C32.2264 18.2067 31.4541 15.1203 30.7162 12.0245C28.4368 12.0026 26.1573 12.0277 23.8747 12.012C22.242 18.4265 20.6188 24.8442 18.983 31.2587C17.2404 31.243 15.4978 31.2336 13.7553 31.2681C13.1524 27.3811 12.4585 23.5066 11.9436 19.6071C11.5229 20.2852 11.5888 21.1141 11.4632 21.874C10.9734 25.0012 10.4931 28.1346 9.99698 31.2618C8.245 31.2398 6.49615 31.2367 4.74731 31.265C3.15859 24.841 1.58244 18.4171 0 11.99C1.76454 12.034 3.52908 12.0057 5.29363 12.0088C6.02205 15.9744 6.65942 19.9587 7.4475 23.9117C8.1822 19.9461 8.82899 15.9555 9.56055 11.9869C11.1461 12.0371 12.7348 12.0057 14.3236 12.0088C14.9201 15.9838 15.7051 19.9304 16.2828 23.9117C16.6124 23.29 16.6658 22.5835 16.782 21.9054C17.3628 18.5992 17.9814 15.2962 18.556 11.99C20.3017 12.0245 22.0474 12.0277 23.7899 11.9963C25.5356 7.68226 28.7445 3.90828 32.9831 1.89255Z" fill="#00456A"/>
<path d="M61.6743 25.5914C62.3965 25.5945 63.1186 25.5945 63.8439 25.5977C64.3525 28.3387 64.5566 31.1362 65.216 33.849C65.464 31.0766 66.0386 28.3512 66.4153 25.5977C67.1281 25.6511 67.9381 25.4501 68.5975 25.7076C69.125 28.4266 69.373 31.199 69.9696 33.9023C70.3275 31.1268 70.7325 28.3575 71.1752 25.5945C71.8974 25.5945 72.6195 25.5945 73.3416 25.5945C72.6289 29.3183 71.9947 33.0546 71.2757 36.7783C70.4311 36.7783 69.5865 36.7783 68.7419 36.7595C68.3275 34.075 68.0417 31.356 67.4483 28.706C67.0904 31.3999 66.6602 34.0876 66.2584 36.7752C65.4075 36.7783 64.5597 36.7783 63.712 36.7595C63.0495 33.0326 62.3996 29.3057 61.6743 25.5914Z" fill="black"/>
<path d="M93.9825 25.5945C94.7173 25.5945 95.4551 25.5945 96.1961 25.5977C96.1741 29.3246 96.1678 33.0515 96.1961 36.7752C95.4896 36.7752 94.7832 36.7752 94.0799 36.7752C94.1144 36.5586 94.1835 36.1253 94.2212 35.9086C93.5901 36.4801 92.8742 37.1457 91.9417 36.9542C90.4629 36.9856 89.7659 35.4094 89.6591 34.1535C89.5367 32.4612 89.3954 30.593 90.2714 29.064C91.1254 27.7421 93.1254 27.9054 94.0673 29.0514C93.9825 27.9023 94.0014 26.7468 93.9825 25.5945ZM92.6136 29.8207C92.083 29.9557 91.8726 30.524 91.8412 31.0169C91.7282 32.1504 91.6968 33.3058 91.9009 34.4298C91.9386 35.1457 92.8868 35.6072 93.4425 35.1268C93.9512 34.7595 93.9166 34.0782 93.9763 33.5224C94.0108 32.4769 94.0485 31.4125 93.7879 30.3921C93.565 29.9965 93.0877 29.6323 92.6136 29.8207Z" fill="black"/>
<path d="M110.111 25.5945C110.83 25.5945 111.556 25.5945 112.278 25.5977C112.253 29.3214 112.253 33.0452 112.278 36.7721C111.556 36.7752 110.833 36.7752 110.111 36.7784C110.111 33.0515 110.111 29.3214 110.111 25.5945Z" fill="black"/>
<path d="M113.851 25.4941C114.582 25.4847 115.311 25.4878 116.042 25.5067C116.023 26.122 116.014 26.7343 116.014 27.3466C115.295 27.356 114.576 27.356 113.86 27.3591C113.857 26.7374 113.854 26.1158 113.851 25.4941Z" fill="black"/>
<path d="M124.752 25.5945C125.487 25.5945 126.225 25.5945 126.966 25.5977C126.944 26.7782 126.966 27.9619 126.896 29.1425C127.882 27.7798 130.495 27.6668 131.016 29.4816C131.324 31.8929 131.022 34.3482 131.182 36.7784C130.444 36.7752 129.707 36.7752 128.969 36.7784C129.032 34.7532 129.038 32.7281 128.988 30.7061C129.075 29.4564 126.997 29.5287 126.978 30.7092C126.909 32.7312 126.956 34.7564 126.966 36.7784C126.221 36.7784 125.477 36.7752 124.736 36.7627C124.787 33.0389 124.761 29.3183 124.752 25.5945Z" fill="black"/>
<path d="M138.46 25.6008C139.584 25.5946 140.708 25.5914 141.832 25.604C142.379 28.2288 142.853 30.8725 143.418 33.4942C144.027 30.8819 144.476 28.2288 145.032 25.604C146.156 25.5914 147.283 25.5914 148.407 25.6008C148.372 29.3214 148.372 33.0452 148.407 36.7689C147.701 36.7752 146.994 36.7752 146.291 36.7627C146.316 33.7642 146.398 30.7563 146.3 27.7641C145.635 30.7626 144.963 33.7642 144.319 36.7689C143.722 36.7721 143.126 36.7721 142.529 36.7627C141.864 33.8176 141.321 30.8348 140.529 27.9243C140.489 30.8693 140.514 33.8207 140.554 36.7689C139.848 36.7752 139.145 36.7752 138.441 36.7627C138.514 33.042 138.476 29.3214 138.46 25.6008Z" fill="black"/>
<path d="M157.487 25.5977C158.222 25.5946 158.956 25.5946 159.694 25.5977C159.669 29.3183 159.644 33.0421 159.707 36.7658C158.966 36.7752 158.228 36.7784 157.487 36.7752C157.506 33.0483 157.509 29.3214 157.487 25.5977Z" fill="black"/>
<path d="M83.9226 29.378C84.8206 27.874 87.5365 27.5287 88.2115 29.3843C88.538 31.8239 88.2429 34.3137 88.3716 36.7721C87.6401 36.7752 86.9116 36.7752 86.1832 36.7784C86.2146 34.7407 86.2366 32.703 86.1864 30.6684C86.2586 29.9431 85.3292 29.5726 84.7641 29.9023C84.1644 30.075 84.1738 30.8286 84.1549 31.3309C84.1487 33.1457 84.1518 34.9605 84.1675 36.7752C83.4265 36.7784 82.6855 36.7752 81.9477 36.7658C82.0011 33.9652 82.0073 31.1614 81.9414 28.3607C82.6667 28.3387 83.392 28.3387 84.1173 28.3576C84.0513 28.6967 83.9854 29.0357 83.9226 29.378Z" fill="black"/>
<path d="M97.5932 30.0656C98.2495 27.783 101.822 27.4031 103.125 29.2775C103.728 30.3607 103.735 31.6386 103.741 32.8443C102.297 32.86 100.849 32.8474 99.4049 32.8537C99.4959 33.7925 99.317 35.1332 100.406 35.5602C101.311 35.5508 101.518 34.6308 101.678 33.9275C102.325 33.9244 102.975 33.9244 103.628 33.9275C103.502 34.9385 103.261 36.1065 102.246 36.5932C100.724 37.3498 98.3531 37.0861 97.6498 35.3278C97.1286 33.6355 97.1348 31.7705 97.5932 30.0656ZM99.3986 31.579C100.158 31.5821 100.921 31.579 101.684 31.5538C101.54 30.8568 101.644 29.7767 100.742 29.5884C99.6247 29.4659 99.4174 30.7469 99.3986 31.579Z" fill="black"/>
<path d="M104.821 28.3293C105.531 28.3356 106.243 28.3419 106.956 28.345C106.922 28.615 106.859 29.1551 106.824 29.4282C107.421 28.6182 108.234 28.0059 109.289 28.0687C109.289 28.772 109.289 29.4753 109.295 30.1755C108.438 30.1221 107.235 30.254 107.047 31.2869C106.922 33.1111 107 34.9479 107.019 36.7752C106.278 36.7752 105.537 36.7752 104.796 36.7784C104.878 33.962 104.83 31.1425 104.821 28.3293Z" fill="black"/>
<path d="M118.218 28.9918C119.578 27.6762 122.309 27.7673 123.261 29.5318C123.565 30.1001 123.575 30.7657 123.681 31.3906C122.994 31.3906 122.306 31.3906 121.622 31.3906C121.615 30.5805 121.352 29.8018 120.504 29.535C119.286 30.0593 119.402 31.4753 119.389 32.5774C119.427 33.6889 119.22 35.2211 120.551 35.6512C121.455 35.287 121.587 34.3388 121.637 33.4848C122.303 33.4848 122.972 33.4848 123.644 33.4973C123.594 34.4298 123.55 35.4974 122.809 36.1787C121.848 37.1112 120.347 37.0798 119.126 36.8004C117.744 36.3671 117.323 34.7941 117.245 33.5068C117.16 31.9746 117.154 30.2194 118.218 28.9918Z" fill="black"/>
<path d="M151.735 28.254C153.135 27.9714 155.245 27.9745 155.801 29.6103C156.165 31.9808 155.571 34.4424 156.152 36.7941C155.465 36.7753 154.783 36.7753 154.099 36.7721C154.046 36.5398 153.936 36.0782 153.879 35.8459C153.144 37.2399 150.83 37.444 149.998 36.0562C149.509 35.1803 149.512 34.0594 149.901 33.1488C150.63 31.827 152.36 32.0217 153.521 31.3529C154.25 30.838 153.785 29.4659 152.865 29.5884C152.115 29.4973 151.826 30.3105 151.782 30.9102C151.126 30.9039 150.473 30.9008 149.819 30.8788C149.873 29.7328 150.476 28.4392 151.735 28.254ZM152.071 33.3529C151.364 34.0217 151.656 35.2462 152.517 35.6449C152.944 35.3718 153.549 35.2462 153.754 34.7219C153.914 34.0217 153.832 33.2933 153.873 32.5837C153.273 32.8474 152.626 33.0075 152.071 33.3529Z" fill="black"/>
<path d="M162.706 28.3764C163.936 27.9619 165.56 27.9462 166.498 28.9792C167.356 30.0687 167.271 31.5287 167.334 32.8348C165.896 32.8662 164.461 32.8474 163.026 32.8505C162.95 33.9086 163.02 35.1551 164.122 35.6637C164.834 35.3372 165.133 34.6433 165.308 33.9275C165.965 33.9243 166.627 33.9306 167.286 33.9557C167.073 35.0452 166.718 36.3168 165.553 36.7375C164.288 37.1331 162.64 37.1174 161.685 36.0625C160.709 34.8286 160.891 33.13 160.9 31.6543C160.913 30.3764 161.399 28.863 162.706 28.3764ZM162.979 31.5601C163.751 31.5821 164.53 31.5821 165.308 31.5569C165.18 30.8756 165.198 29.9682 164.489 29.6103C163.333 29.2995 162.938 30.6809 162.979 31.5601Z" fill="black"/>
<path d="M169.983 28.3921C171.248 27.9274 172.966 27.962 173.854 29.1174C174.423 29.7328 174.451 30.6025 174.58 31.3874C173.883 31.3906 173.186 31.3906 172.492 31.3969C172.429 30.9542 172.372 30.5115 172.313 30.0687C171.939 29.8615 171.544 29.5381 171.091 29.7108C170.115 30.3136 170.328 31.6135 170.275 32.59C170.303 33.6889 170.124 35.174 171.396 35.6512C172.328 35.3121 172.495 34.3922 172.476 33.5099C173.154 33.4942 173.836 33.4754 174.517 33.4722C174.595 34.7752 174.143 36.3231 172.771 36.7721C171.421 37.1112 169.584 37.1646 168.759 35.8208C168.049 34.5712 168.052 33.0735 168.121 31.6794C168.228 30.4016 168.677 28.9102 169.983 28.3921Z" fill="black"/>
<path d="M74.2019 35.0421C74.1579 32.8034 74.1862 30.5648 74.1925 28.3293C74.9052 28.3387 75.621 28.3418 76.3369 28.3356C76.4154 30.6244 76.1077 32.9479 76.5096 35.2116C77.012 35.2242 77.6022 35.4251 78.0355 35.0484C78.4029 34.6339 78.3589 34.0562 78.3683 33.5444C78.3558 31.805 78.3558 30.0687 78.3621 28.3293C79.103 28.3324 79.8472 28.3481 80.5913 28.3638C80.5254 31.1613 80.5316 33.9651 80.585 36.7658C79.8629 36.7752 79.1376 36.7784 78.4154 36.7784C78.4563 36.5178 78.5347 35.9966 78.5756 35.736C77.9382 36.5523 76.9994 37.1803 75.9162 36.9385C74.9272 36.9197 74.1799 35.9997 74.2019 35.0421Z" fill="black"/>
<path d="M113.854 28.345C114.582 28.3387 115.314 28.345 116.049 28.3513C115.97 31.1582 116.005 33.9683 116.027 36.7784C115.305 36.7753 114.582 36.7753 113.86 36.7753C113.851 33.9652 113.863 31.1551 113.854 28.345Z" fill="black"/>
<path d="M132.557 31.3058C134.033 31.3089 135.505 31.3215 136.981 31.2901C136.981 31.9118 136.981 32.5366 136.984 33.1614C135.502 33.1645 134.02 33.1802 132.542 33.1457C132.545 32.5334 132.551 31.9181 132.557 31.3058Z" fill="black"/>
</svg>
