<svg width="80" height="63" viewBox="0 0 80 63" fill="none" xmlns="http://www.w3.org/2000/svg">
<g clip-path="url(#clip0_6670_1252)">
<path d="M36.2551 41.7336V15.4893L30.8079 20.9109V47.1551L36.2551 41.7336Z" fill="#C1C5C8"/>
<path d="M42.8772 41.7329V39.079L56.0599 17.9963H43.395V15.4887H59.2426V17.8485L45.9504 39.2274H59.2426V41.7336L42.8772 41.7329Z" fill="#898A8D"/>
<path d="M79.2075 36.1662C78.6461 39.8432 75.2061 42.1538 70.3875 42.1538C66.4212 42.1538 63.8255 41.1577 61.342 38.6849L63.2701 36.7657C65.4568 38.943 67.4957 39.6449 70.4601 39.6449C73.5102 39.6449 75.6468 38.4315 76.2761 36.335C76.3584 36.0556 76.4077 35.7676 76.4231 35.4768C76.4726 34.7763 76.3674 34.0735 76.1151 33.4177C75.9232 32.8846 75.3196 32.1741 74.8539 31.8583C73.8269 31.1098 72.3579 30.4794 70.8486 29.9686L67.9021 28.964C65.9166 28.2772 64.4324 27.3356 63.4687 26.161C62.3335 24.7782 61.9482 22.7631 62.2814 20.7316C62.2814 20.7178 62.3051 20.5924 62.3051 20.5924C63.1303 17.1124 66.003 15.0684 70.5175 15.0684C73.8908 15.0684 75.7615 16.0783 78.0228 18.1078L76.2061 19.9161C74.5755 18.4401 73.187 17.5037 70.406 17.5037C67.1197 17.5037 65.3038 19.2378 64.9443 21.5576C64.8064 22.8425 65.1547 23.8005 65.8229 24.6154C66.503 25.4473 67.6943 26.1163 69.0063 26.572L71.7767 27.5083C73.7879 28.1787 75.9983 29.2339 77.2299 30.3317C77.2299 30.3317 79.7965 32.3127 79.2088 36.1636" fill="#898A8D"/>
<path d="M5.58687 41.7336V15.4893L0.139648 20.9109V47.1551L5.58687 41.7336Z" fill="#97A3AE"/>
<path d="M7.80664 54.7867L13.2539 49.3652V34.1013L7.80664 39.5234V54.7867Z" fill="#EC7700"/>
<path d="M13.2539 7.85706L7.80664 13.2792V28.5425L13.2539 23.121V7.85706Z" fill="#97A3AE"/>
<path d="M7.80664 28.5425V39.5235L13.2539 34.1013V23.121L7.80664 28.5425Z" fill="#96460A"/>
<path d="M15.4741 47.1551V62.4191L20.9207 56.9969V41.7336L15.4741 47.1551Z" fill="#C1C5C8"/>
<path d="M15.4741 31.8918V36.1748L20.9207 30.7526V26.4696L15.4741 31.8918Z" fill="#EC7700"/>
<path d="M20.9207 0.225403L15.4741 5.64759V20.9109L20.9207 15.4893V0.225403Z" fill="#97A3AE"/>
<path d="M15.4741 47.1551L20.9207 41.7336V30.7526L15.4741 36.1748V47.1551Z" fill="#C1531B"/>
<path d="M20.9207 26.4696V15.4893L15.4741 20.9109V31.8918L20.9207 26.4696Z" fill="#96460A"/>
<path d="M28.5877 34.1013L23.1411 39.5234V54.7874L28.5877 49.3652V34.1013Z" fill="#C1C5C8"/>
<path d="M28.5877 23.121V7.85706L23.1411 13.2792V28.5425L28.5877 23.121Z" fill="#EC7700"/>
<path d="M28.5877 23.121L23.1411 28.5425V39.5235L28.5877 34.1013V23.121Z" fill="#C1531B"/>
</g>
<defs>
<clipPath id="clip0_6670_1252">
<rect width="79.1556" height="62.1936" fill="white" transform="translate(0.139648 0.225403)"/>
</clipPath>
</defs>
</svg>
