<svg width="25" height="25" viewBox="0 0 25 25" fill="none" xmlns="http://www.w3.org/2000/svg">
<path d="M9.728 17.024L17.024 12.16L9.728 7.296V17.024ZM12.16 24.32C10.4779 24.32 8.89707 24.0008 7.4176 23.3624C5.93813 22.724 4.6512 21.8576 3.5568 20.7632C2.4624 19.6688 1.596 18.3819 0.9576 16.9024C0.3192 15.4229 0 13.8421 0 12.16C0 11.2885 0.0912 10.4323 0.2736 9.5912C0.456 8.75013 0.719467 7.9344 1.064 7.144L2.9488 9.0288C2.78667 9.55573 2.66 10.0776 2.5688 10.5944C2.4776 11.1112 2.432 11.6331 2.432 12.16C2.432 14.8757 3.3744 17.176 5.2592 19.0608C7.144 20.9456 9.44427 21.888 12.16 21.888C14.8757 21.888 17.176 20.9456 19.0608 19.0608C20.9456 17.176 21.888 14.8757 21.888 12.16C21.888 9.44427 20.9456 7.144 19.0608 5.2592C17.176 3.3744 14.8757 2.432 12.16 2.432C11.6128 2.432 11.0808 2.4776 10.564 2.5688C10.0472 2.66 9.53547 2.78667 9.0288 2.9488L7.1744 1.0944C7.98507 0.7296 8.79573 0.456 9.6064 0.2736C10.4171 0.0912 11.2683 0 12.16 0C13.8421 0 15.4229 0.3192 16.9024 0.9576C18.3819 1.596 19.6688 2.4624 20.7632 3.5568C21.8576 4.6512 22.724 5.93813 23.3624 7.4176C24.0008 8.89707 24.32 10.4779 24.32 12.16C24.32 13.8421 24.0008 15.4229 23.3624 16.9024C22.724 18.3819 21.8576 19.6688 20.7632 20.7632C19.6688 21.8576 18.3819 22.724 16.9024 23.3624C15.4229 24.0008 13.8421 24.32 12.16 24.32ZM4.256 6.08C3.74933 6.08 3.31867 5.90267 2.964 5.548C2.60933 5.19333 2.432 4.76267 2.432 4.256C2.432 3.74933 2.60933 3.31867 2.964 2.964C3.31867 2.60933 3.74933 2.432 4.256 2.432C4.76267 2.432 5.19333 2.60933 5.548 2.964C5.90267 3.31867 6.08 3.74933 6.08 4.256C6.08 4.76267 5.90267 5.19333 5.548 5.548C5.19333 5.90267 4.76267 6.08 4.256 6.08Z" fill="#F15A29"/>
</svg>
