<svg width="50" height="50" viewBox="0 0 50 50" fill="none" xmlns="http://www.w3.org/2000/svg">
<path d="M14.8506 1.5625C13.1339 1.5625 11.7256 2.97094 11.7256 4.6875C11.7256 6.40422 13.1339 7.81241 14.8506 7.81241C16.5672 7.81241 17.9756 6.40422 17.9756 4.6875C17.9756 2.97094 16.5672 1.5625 14.8506 1.5625ZM14.8506 3.125C15.7228 3.125 16.4131 3.81531 16.4131 4.6875C16.4131 5.55969 15.7228 6.24991 14.8506 6.24991C13.9784 6.24991 13.2881 5.55969 13.2881 4.6875C13.2881 3.81531 13.9784 3.125 14.8506 3.125ZM25.0068 5.46875C23.7217 5.46875 22.6631 6.52725 22.6631 7.81241C22.6631 9.09756 23.7217 10.1562 25.0068 10.1562C26.292 10.1562 27.3506 9.09756 27.3506 7.81241C27.3506 6.52725 26.292 5.46875 25.0068 5.46875ZM25.0068 7.03116C25.4475 7.03116 25.7881 7.37178 25.7881 7.81241C25.7881 8.25319 25.4475 8.59366 25.0068 8.59366C24.5661 8.59366 24.2256 8.25319 24.2256 7.81241C24.2256 7.37178 24.5661 7.03116 25.0068 7.03116ZM25.0006 10.9313L14.0631 10.9469C12.7781 10.9469 11.7193 12.0058 11.7193 13.2907C11.7193 14.5757 12.7781 15.6344 14.0631 15.6344H14.8443V24.0237V24.4329V26.0015C11.6162 27.4118 9.28845 30.1455 8.31966 33.3592C8.16087 33.8869 8.03066 34.4244 7.94734 34.9736C7.94109 35.0142 7.94109 35.0549 7.93484 35.0955C7.86734 35.5743 7.83234 36.0588 7.825 36.5481C7.82408 36.6075 7.8125 36.6638 7.8125 36.7221C7.8125 36.7518 7.81875 36.7797 7.81875 36.811C7.82187 37.2668 7.85531 37.7275 7.91344 38.1875C7.9275 38.3016 7.94766 38.4133 7.96531 38.5263C7.98875 38.6763 8.00297 38.8273 8.0325 38.9779C8.08141 39.2276 8.14531 39.4701 8.2095 39.7134C8.22637 39.7774 8.23731 39.8431 8.25528 39.9056C8.38341 40.3602 8.54358 40.7985 8.72219 41.2271C8.75016 41.2942 8.77844 41.3598 8.80766 41.4254C9.19902 42.3175 9.69809 43.146 10.2847 43.9004C10.2988 43.9176 10.3108 43.9349 10.3244 43.9521C10.9435 44.7391 11.6578 45.4392 12.4515 46.0424C14.4424 47.5549 16.9135 48.4476 19.562 48.441C23.3406 48.4254 26.755 46.6072 28.9065 43.7383V43.7539C28.9065 44.0608 28.9401 44.3585 28.9981 44.6481C29.0384 44.855 29.1053 45.05 29.172 45.2462C29.1983 45.3212 29.2153 45.4009 29.2453 45.4751C29.3391 45.7106 29.458 45.9315 29.5871 46.1465C29.6012 46.1699 29.6148 46.1965 29.6298 46.2199C29.764 46.4346 29.9184 46.6314 30.0845 46.8211C30.1003 46.8399 30.1111 46.8617 30.1272 46.8789H30.1303C30.9889 47.8288 32.2168 48.4384 33.594 48.4384C34.9713 48.4384 36.1991 47.8288 37.0578 46.8789H37.0609C37.077 46.8617 37.0878 46.8399 37.1037 46.8211C37.2698 46.6314 37.4242 46.4346 37.5584 46.2199C37.56 46.2199 37.5662 46.2202 37.5678 46.2043C37.5803 46.184 37.5889 46.1605 37.6014 46.1402C37.7304 45.9252 37.8494 45.7043 37.9432 45.4688C37.9732 45.3954 37.9902 45.3157 38.0165 45.2401C38.0832 45.0439 38.15 44.8487 38.1904 44.6418C38.2482 44.3519 38.282 44.0547 38.282 43.7478V41.4069C38.282 41.4069 38.282 41.3913 38.282 41.3913V40.6222V39.0597V35.1413V28.8913V22.6413V20.3097H39.8445C40.901 20.3254 40.901 18.7322 39.8445 18.7472H37.5007H29.6882H27.3445C27.319 18.746 27.2935 18.746 27.2682 18.7472C26.2266 18.7988 26.3029 20.3607 27.3445 20.3097H28.907V29.7032C27.7212 28.1159 26.1279 26.8225 24.2195 25.9892V15.6222H25.0007C26.2857 15.6222 27.3445 14.5635 27.3445 13.2785C27.3445 11.9936 26.2857 10.9347 25.0007 10.9347L25.0006 10.9313ZM35.9443 11.7187C34.6592 11.7187 33.6006 12.7772 33.6006 14.0624C33.6006 15.3476 34.6592 16.4062 35.9443 16.4062C37.2295 16.4062 38.2881 15.3476 38.2881 14.0624C38.2881 12.7772 37.2295 11.7187 35.9443 11.7187ZM14.0632 12.5093H25.0007C25.447 12.5093 25.782 12.8443 25.782 13.2905C25.782 13.7369 25.447 14.0718 25.0007 14.0718H14.0632C13.6169 14.0718 13.282 13.7369 13.282 13.2905C13.282 12.8443 13.6169 12.5093 14.0632 12.5093ZM35.9443 13.2812C36.385 13.2812 36.7256 13.6218 36.7256 14.0624C36.7256 14.5032 36.385 14.8437 35.9443 14.8437C35.5036 14.8437 35.1631 14.5032 35.1631 14.0624C35.1631 13.6218 35.5036 13.2812 35.9443 13.2812ZM16.407 15.6343H22.657V26.526C22.6573 26.85 22.8577 27.1402 23.1605 27.2553C24.009 27.5799 24.7809 28.0261 25.492 28.543C25.6545 28.6617 25.82 28.7762 25.9742 28.9031C26.2362 29.1184 26.481 29.3507 26.7188 29.5898C26.8592 29.7304 26.9965 29.8742 27.1278 30.0231C27.3426 30.2661 27.5478 30.5181 27.7381 30.7799C27.8705 30.9627 27.9907 31.1536 28.1105 31.3445C28.2686 31.5959 28.4233 31.8489 28.5591 32.1136C28.6755 32.3417 28.7713 32.5792 28.8703 32.8156C28.9782 33.0722 29.0948 33.3248 29.1816 33.5906C29.2646 33.8462 29.3157 34.1121 29.3769 34.3749H19.3824C19.2789 34.3734 19.1761 34.3926 19.08 34.4312C18.984 34.4698 18.8965 34.5271 18.8228 34.5998C18.7491 34.6725 18.6905 34.7591 18.6506 34.8546C18.6106 34.9501 18.59 35.0526 18.59 35.1562C18.59 35.2597 18.6106 35.3622 18.6506 35.4577C18.6905 35.5532 18.7491 35.6398 18.8228 35.7125C18.8965 35.7852 18.984 35.8425 19.08 35.8811C19.1761 35.9197 19.2789 35.9389 19.3824 35.9374H29.6211C29.6436 36.2232 29.6875 36.5051 29.6851 36.795C29.6836 37.1106 29.6695 37.4237 29.6393 37.7318C29.639 37.7318 29.6362 37.7475 29.6362 37.7475C29.6192 37.9148 29.5886 38.0834 29.5629 38.251C29.5428 38.3854 29.5272 38.5212 29.5018 38.6539C29.4593 38.8737 29.4054 39.0869 29.3493 39.3008C29.3261 39.3899 29.3078 39.4813 29.2822 39.5696C29.2184 39.7888 29.1429 40.0042 29.0655 40.2164C29.0433 40.2773 29.0217 40.3382 28.9983 40.3995C28.7999 40.9123 28.5608 41.4013 28.2872 41.8675C28.2572 41.9191 28.2266 41.969 28.1957 42.0205C27.9162 42.478 27.6067 42.9135 27.2618 43.3177C27.2423 43.3411 27.2206 43.3614 27.2007 43.3848C26.4673 44.2292 25.5984 44.9502 24.6312 45.5119C24.6155 45.5275 24.6008 45.5306 24.5854 45.54C24.1099 45.8128 23.6112 46.0449 23.0931 46.2388C23.0557 46.2544 23.0177 46.2652 22.9801 46.2777C22.4623 46.4644 21.9258 46.6129 21.3749 46.7141C21.2913 46.7297 21.2059 46.7407 21.1216 46.7532C20.9044 46.7876 20.6866 46.822 20.4655 46.8423C20.4639 46.8424 20.4608 46.8421 20.4592 46.8423C20.3978 46.8423 20.3347 46.8418 20.273 46.8579C20.0351 46.8751 19.7976 46.8907 19.5559 46.8907C19.3132 46.8915 19.0746 46.8735 18.8357 46.8595C18.7697 46.8595 18.703 46.8598 18.6373 46.8438C18.4234 46.8251 18.2128 46.7953 18.0025 46.7641C17.9079 46.7485 17.8125 46.7376 17.7187 46.7219C17.178 46.6251 16.6503 46.481 16.141 46.301C16.093 46.2838 16.0452 46.2665 15.9975 46.2493C15.481 46.0577 14.9827 45.8294 14.5083 45.5594C14.502 45.5594 14.4958 45.5601 14.49 45.544C13.5208 44.9894 12.6523 44.2761 11.9143 43.4382C11.8852 43.4054 11.8543 43.3757 11.8259 43.3429C11.4788 42.9385 11.1643 42.5044 10.8829 42.0461C10.8568 42.0039 10.8319 41.9601 10.8066 41.9179C10.5311 41.4542 10.2873 40.9668 10.0864 40.4563C10.0544 40.375 10.0248 40.2916 9.99484 40.2091C9.91984 40.0029 9.84641 39.7963 9.78427 39.5835C9.7702 39.5366 9.76052 39.4866 9.7477 39.4397C9.67864 39.1897 9.6152 38.9381 9.56459 38.6798C9.56303 38.6642 9.55991 38.6579 9.55834 38.647C9.50428 38.3629 9.46006 38.0754 9.43022 37.7833C9.42241 37.7146 9.42397 37.6443 9.41772 37.5758C9.39741 37.3279 9.3835 37.0779 9.38116 36.8251C9.37803 36.5251 9.42022 36.233 9.44225 35.937H10.4737C10.5773 35.9385 10.6801 35.9194 10.7761 35.8808C10.8722 35.8422 10.9596 35.7848 11.0334 35.7122C11.1071 35.6395 11.1656 35.5528 11.2056 35.4573C11.2455 35.3618 11.2661 35.2593 11.2661 35.1558C11.2661 35.0522 11.2455 34.9497 11.2056 34.8542C11.1656 34.7587 11.1071 34.6721 11.0334 34.5994C10.9596 34.5267 10.8722 34.4694 10.7761 34.4308C10.6801 34.3922 10.5773 34.3731 10.4737 34.3745H9.68639C9.74545 34.1111 9.79858 33.8455 9.8817 33.5902C9.95748 33.358 10.0613 33.138 10.1533 32.9127C10.2607 32.6493 10.3632 32.3848 10.4921 32.1315C10.6203 31.8801 10.7708 31.6416 10.9193 31.4021C11.052 31.1877 11.1859 30.9748 11.3343 30.7704C11.5064 30.5341 11.6916 30.3077 11.8837 30.0868C12.0431 29.9032 12.2082 29.7251 12.3811 29.5527C12.5865 29.3484 12.7988 29.1506 13.022 28.9638C13.2231 28.7953 13.4383 28.6411 13.6537 28.4877C13.9217 28.2967 14.1834 28.0977 14.4715 27.9323C14.4886 27.9166 14.5064 27.9152 14.5234 27.9042C14.9631 27.6552 15.4237 27.4354 15.9059 27.2512C16.2075 27.1355 16.4065 26.8451 16.4063 26.5218V25.0142H20.3248C21.3813 25.0298 21.3813 23.4367 20.3248 23.4517H16.4063V21.8892H18.7379C19.7944 21.9048 19.7944 20.3117 18.7379 20.3267H16.4063V18.7642H20.3248C21.3813 18.7798 21.3813 17.1867 20.3248 17.2017H16.4063L16.407 15.6343ZM30.4695 20.3218H36.7195V21.8843H32.801C32.7755 21.883 32.7501 21.883 32.7248 21.8843C31.6832 21.9358 31.7596 23.4977 32.801 23.4468H36.7195V25.0093H34.3879C34.3615 25.0078 34.335 25.0078 34.3085 25.0093C33.2685 25.0639 33.3476 26.6232 34.3879 26.5718H36.7195V28.1343H32.801C32.7755 28.133 32.7501 28.133 32.7248 28.1343C31.6832 28.1858 31.7596 29.7477 32.801 29.6968H36.7195V31.2593H34.3879C34.3615 31.2578 34.335 31.2578 34.3085 31.2593C33.2685 31.3139 33.3476 32.8732 34.3879 32.8218H36.7195V34.3843H32.801C32.7755 34.383 32.7501 34.383 32.7248 34.3843C31.6832 34.4358 31.7596 35.9977 32.801 35.9468H36.7195V37.5093H34.3879C34.3615 37.5078 34.335 37.5078 34.3085 37.5093C33.2685 37.5639 33.3476 39.1232 34.3879 39.0718H36.7195V40.631H32.801C32.7755 40.6298 32.7501 40.6298 32.7248 40.631C31.6832 40.6826 31.7596 42.2444 32.801 42.1935H36.7195V43.7532C36.7195 44.6256 36.3732 45.4054 35.81 45.9685C35.2469 46.5317 34.4668 46.8782 33.5945 46.8782C32.7221 46.8782 31.942 46.5317 31.3789 45.9685C31.2387 45.8279 31.1086 45.6763 30.9974 45.511C30.8863 45.3456 30.7917 45.1696 30.7136 44.983C30.6356 44.7966 30.5747 44.6008 30.5335 44.3971C30.4925 44.1863 30.4695 43.9741 30.4695 43.756V42.1935V40.9333C30.7168 40.2902 30.9103 39.6189 31.0432 38.9222C31.1123 38.5605 31.1613 38.1964 31.1959 37.8356C31.2037 37.7559 31.2021 37.6745 31.2084 37.5945C31.2288 37.3219 31.2467 37.0508 31.2481 36.7799C31.2482 36.7611 31.2512 36.7439 31.2512 36.7251C31.2511 36.6439 31.2402 36.5648 31.2387 36.4841C31.2324 36.21 31.2207 35.9371 31.196 35.6662C31.0976 34.591 30.8493 33.5457 30.4697 32.5534L30.4695 20.3218ZM18.7568 28.1249C17.4717 28.1249 16.4131 29.1835 16.4131 30.4687C16.4131 31.7538 17.4717 32.8124 18.7568 32.8124C20.042 32.8124 21.1006 31.7538 21.1006 30.4687C21.1006 29.1835 20.042 28.1249 18.7568 28.1249ZM18.7568 29.6874C19.1975 29.6874 19.5381 30.028 19.5381 30.4687C19.5381 30.9094 19.1975 31.2499 18.7568 31.2499C18.3161 31.2499 17.9756 30.9094 17.9756 30.4687C17.9756 30.028 18.3161 29.6874 18.7568 29.6874ZM14.8506 34.3749C13.1339 34.3749 11.7256 35.7833 11.7256 37.4999C11.7256 39.2166 13.1339 40.6249 14.8506 40.6249C16.5672 40.6249 17.9756 39.2166 17.9756 37.4999C17.9756 35.7833 16.5672 34.3749 14.8506 34.3749ZM14.8506 35.9374C15.7228 35.9374 16.4131 36.6277 16.4131 37.4999C16.4131 38.3721 15.7228 39.0624 14.8506 39.0624C13.9784 39.0624 13.2881 38.3721 13.2881 37.4999C13.2881 36.6277 13.9784 35.9374 14.8506 35.9374ZM25.0068 37.4999C23.7217 37.4999 22.6631 38.5585 22.6631 39.8437C22.6631 41.1288 23.7217 42.1874 25.0068 42.1874C26.292 42.1874 27.3506 41.1288 27.3506 39.8437C27.3506 38.5585 26.292 37.4999 25.0068 37.4999ZM25.0068 39.0624C25.4475 39.0624 25.7881 39.403 25.7881 39.8437C25.7881 40.2844 25.4475 40.6249 25.0068 40.6249C24.5661 40.6249 24.2256 40.2844 24.2256 39.8437C24.2256 39.403 24.5661 39.0624 25.0068 39.0624Z" fill="#F15A29"/>
</svg>
