<svg width="372" height="372" viewBox="0 0 372 372" fill="none" xmlns="http://www.w3.org/2000/svg">
<path opacity="0.39" d="M71.583 70.4326H116.433V0H117.583V70.4326H162.429V0H163.579V70.4326H208.424V0H209.574V70.4326H254.42V0H255.57V70.4326H300.415V0H301.565V70.4326H372V71.583H301.565V116.429H372V117.579H301.565V162.427H372V163.576H301.565V208.424H372V209.573H301.565V254.42H372V255.569H301.565V300.417H372V301.566H301.565V372H300.415V301.566H255.57V372H254.42V301.566H209.574V372H208.424V301.566H163.579V372H162.429V301.566H117.583V372H116.433V301.566H71.583V372H70.4326V301.566H0V300.417H70.4326V255.569H0V254.42H70.4326V209.573H0V208.424H70.4326V163.576H0V162.427H70.4326V117.579H0V116.429H70.4326V71.583H0V70.4326H70.4326V0H71.583V70.4326ZM71.583 300.417H116.433V255.569H71.583V300.417ZM117.583 300.417H162.429V255.569H117.583V300.417ZM163.579 300.417H208.424V255.569H163.579V300.417ZM209.574 300.417H254.42V255.569H209.574V300.417ZM255.57 300.417H300.415V255.569H255.57V300.417ZM71.583 254.42H116.433V209.573H71.583V254.42ZM117.583 254.42H162.429V209.573H117.583V254.42ZM163.579 254.42H208.424V209.573H163.579V254.42ZM209.574 254.42H254.42V209.573H209.574V254.42ZM255.57 254.42H300.415V209.573H255.57V254.42ZM71.583 208.424H116.433V163.576H71.583V208.424ZM117.583 208.424H162.429V163.576H117.583V208.424ZM163.579 208.424H208.424V163.576H163.579V208.424ZM209.574 208.424H254.42V163.576H209.574V208.424ZM255.57 208.424H300.415V163.576H255.57V208.424ZM71.583 162.427H116.433V117.579H71.583V162.427ZM117.583 162.427H162.429V117.579H117.583V162.427ZM163.579 162.427H208.424V117.579H163.579V162.427ZM209.574 162.427H254.42V117.579H209.574V162.427ZM255.57 162.427H300.415V117.579H255.57V162.427ZM71.583 116.429H116.433V71.583H71.583V116.429ZM117.583 116.429H162.429V71.583H117.583V116.429ZM163.579 116.429H208.424V71.583H163.579V116.429ZM209.574 116.429H254.42V71.583H209.574V116.429ZM255.57 116.429H300.415V71.583H255.57V116.429Z" fill="url(#paint0_radial_6658_4860)" fill-opacity="0.7"/>
<defs>
<radialGradient id="paint0_radial_6658_4860" cx="0" cy="0" r="1" gradientUnits="userSpaceOnUse" gradientTransform="translate(186 186) rotate(90) scale(161.095)">
<stop stop-color="white"/>
<stop offset="1" stop-color="white" stop-opacity="0"/>
</radialGradient>
</defs>
</svg>
