<svg width="52" height="62" viewBox="0 0 52 62" fill="none" xmlns="http://www.w3.org/2000/svg">
<path fill-rule="evenodd" clip-rule="evenodd" d="M45.92 11.988L35.8359 31.1208L45.92 50.2537L50.0509 47.9529V14.2888L45.92 11.988Z" fill="#E25444"/>
<path fill-rule="evenodd" clip-rule="evenodd" d="M45.919 11.988L25.7507 14.2888L15.4844 31.1208L25.7507 47.9529L45.919 50.2537V11.988Z" fill="#7B1D13"/>
<path fill-rule="evenodd" clip-rule="evenodd" d="M5.22178 11.988L1.94141 13.4412V48.8005L5.22178 50.2537L25.7545 31.1208L5.22178 11.988Z" fill="#58150D"/>
<path fill-rule="evenodd" clip-rule="evenodd" d="M5.17578 11.9478L25.7798 17.6526V45.1004L5.17578 50.2671V11.9478Z" fill="#E25444"/>
<path fill-rule="evenodd" clip-rule="evenodd" d="M25.7955 20.6667L17.0469 19.2673L25.7955 9.3645L34.5225 19.2673L25.7955 20.6667Z" fill="#58150D"/>
<path fill-rule="evenodd" clip-rule="evenodd" d="M34.5225 19.2673L25.7847 20.6881L17.0469 19.2673V9.3645" fill="#58150D"/>
<path fill-rule="evenodd" clip-rule="evenodd" d="M25.7955 41.4407L17.0469 43.0553L25.7955 51.5588L34.5225 43.0553L25.7955 41.4407Z" fill="#58150D"/>
<path fill-rule="evenodd" clip-rule="evenodd" d="M25.7516 1.93726L17.0039 6.53882V19.2537L25.7788 16.7915L25.7516 1.93726Z" fill="#7B1D13"/>
<path fill-rule="evenodd" clip-rule="evenodd" d="M25.7847 23.7878L17.0469 24.7352V37.4304L25.7847 38.4267V23.7878Z" fill="#7B1D13"/>
<path fill-rule="evenodd" clip-rule="evenodd" d="M25.7847 45.2083L17.0469 43.0247V55.5049L25.7847 60.0625V45.2083Z" fill="#7B1D13"/>
<path fill-rule="evenodd" clip-rule="evenodd" d="M34.5191 43.0247L25.7812 45.2089V60.0625L34.5191 55.5049V43.0247Z" fill="#E25444"/>
<path fill-rule="evenodd" clip-rule="evenodd" d="M25.7812 23.7878L34.5191 24.7352V37.4304L25.7812 38.4267V23.7878Z" fill="#E25444"/>
<path fill-rule="evenodd" clip-rule="evenodd" d="M25.7539 1.93726L34.5016 6.53882V19.2537L25.7539 16.8318V1.93726Z" fill="#E25444"/>
</svg>
