<svg width="78" height="41" viewBox="0 0 78 41" fill="none" xmlns="http://www.w3.org/2000/svg">
<g clip-path="url(#clip0_5716_21967)">
<path fill-rule="evenodd" clip-rule="evenodd" d="M70.4775 20.709C70.411 20.5667 70.381 20.4952 70.3452 20.4269C69.3829 18.5958 68.4231 16.7647 67.451 14.9337C67.3535 14.7501 67.3659 14.6417 67.4992 14.4833C69.0304 12.6943 70.5418 10.8954 72.0755 9.11385C72.1297 9.051 72.1779 8.98444 72.1982 8.87235C71.7529 8.9884 71.3077 9.10321 70.8599 9.22124C69.0121 9.71117 67.1494 10.1986 65.3189 10.696C65.147 10.7423 65.0691 10.692 64.9825 10.549C63.9337 8.79465 62.8774 7.03534 61.8162 5.30325C61.762 5.21243 61.7029 5.12434 61.5871 5.04838C61.502 5.51605 61.416 5.98124 61.3323 6.4489C61.038 8.09934 60.7436 9.73988 60.4517 11.3977C60.4198 11.5756 60.3763 11.7541 60.3609 11.9322C60.3463 12.1025 60.2585 12.1653 60.1037 12.2143C57.9244 12.8997 55.75 13.5901 53.5732 14.2804C53.4777 14.3104 53.3839 14.35 53.2813 14.4428C55.0623 15.1504 56.8434 15.8581 58.6492 16.5782C58.5834 16.6304 58.5398 16.671 58.4916 16.7019C57.3784 17.422 56.2628 18.142 55.1521 18.8645C55.0188 18.9516 54.9134 18.964 54.7638 18.8965C53.4329 18.2977 52.0922 17.7087 50.7564 17.1149C50.1578 16.8476 49.621 16.4938 49.2029 15.9791C48.2555 14.8211 48.4435 13.5047 49.7051 12.6881C50.1182 12.4234 50.5882 12.2279 51.0557 12.0745C53.1905 11.3792 55.3352 10.7086 57.4625 10.0356C57.6421 9.97841 57.7247 9.89824 57.7594 9.704C58.0463 8.05109 58.3407 6.38828 58.64 4.75516C58.7993 3.87179 58.8834 2.96863 59.3128 2.15702C59.4773 1.84525 59.674 1.54089 59.9115 1.28108C60.7624 0.33585 61.9473 0.301209 62.8551 1.19992C63.1594 1.50427 63.4191 1.86059 63.6442 2.22928C64.6337 3.84507 65.6083 5.47076 66.5879 7.10388C66.7029 7.29614 66.8063 7.33474 67.0183 7.27882C69.4054 6.63795 71.7925 6.00697 74.192 5.37599C74.6867 5.24559 75.1839 5.19833 75.691 5.2931C76.7918 5.49897 77.2742 6.3373 76.9006 7.40378C76.7317 7.88876 76.4381 8.29704 76.1091 8.68553C74.4418 10.6477 72.7696 12.6199 71.1123 14.5746C70.976 14.735 70.9732 14.8493 71.0677 15.0299C72.0671 16.913 73.0566 18.7911 74.0609 20.6964C74.2986 21.1467 74.4814 21.6168 74.4863 22.134C74.498 23.3118 73.6354 24.2768 72.4654 24.45C71.8098 24.5458 71.2013 24.4058 70.5854 24.2162C69.0888 23.7535 67.5922 23.2982 66.0833 22.8454C65.944 22.8038 65.8908 22.7486 65.8658 22.5989C65.6937 21.5424 65.5047 20.4883 65.3216 19.4317C65.3169 19.4027 65.3256 19.3718 65.3305 19.307C67.0398 19.7796 68.7442 20.2448 70.5005 20.7322" fill="#E25A1C"/>
<path fill-rule="evenodd" clip-rule="evenodd" d="M67.5089 36.1744C66.1583 36.1724 64.8126 36.1657 63.4521 36.1716C63.2732 36.1716 63.1725 36.1204 63.0736 35.9685C61.4756 33.5337 59.8578 31.0939 58.2747 28.669C58.2235 28.5917 58.1693 28.5173 58.0785 28.3869C57.7347 31.0098 57.3958 33.5831 57.0569 36.1565H53.5195C53.5611 35.8126 53.5979 35.4786 53.6415 35.147C53.9853 32.4994 54.3341 29.8765 54.6804 27.2288C55.0119 24.7049 55.3409 22.181 55.6773 19.6571C55.687 19.5826 55.7372 19.4869 55.798 19.4473C57.0151 18.653 58.2371 17.8661 59.4591 17.0793C59.4766 17.0676 59.5016 17.0667 59.5644 17.0483C59.1959 19.8692 58.8298 22.6653 58.4612 25.4614C58.4758 25.471 58.4901 25.4817 58.5047 25.4913C60.4218 23.3683 62.3389 21.2353 64.2931 19.0826C64.3493 19.4092 64.3985 19.6888 64.4467 19.9684C64.584 20.7676 64.7164 21.5718 64.8623 22.3711C64.8922 22.5324 64.8487 22.6309 64.7416 22.7447C63.5023 24.0413 62.2679 25.3428 61.0311 26.6543C60.9769 26.7114 60.9257 26.7703 60.8639 26.8381C60.9034 26.9007 60.9373 26.9619 60.9769 27.0178C63.1067 30.0118 65.2316 33.0059 67.359 35.9999C67.3976 36.0541 67.4535 36.0967 67.501 36.1449V36.1922" fill="white"/>
<path fill-rule="evenodd" clip-rule="evenodd" d="M25.7047 28.2561C25.6505 27.9815 25.612 27.5757 25.4893 27.1971C24.8956 25.3685 23.023 24.3762 21.0861 24.8192C18.9563 25.314 17.4251 26.9892 17.2272 29.1741C17.0639 30.7825 17.9297 32.3414 19.5376 32.9105C20.8338 33.3782 22.0855 33.1827 23.2481 32.4874C24.7843 31.5669 25.6154 30.1986 25.7218 28.2561H25.7047ZM16.3542 35.0608C16.2498 35.8476 16.1494 36.5875 16.0525 37.3298C15.9231 38.3146 15.7927 39.3019 15.669 40.2991C15.6547 40.4142 15.6198 40.4654 15.4961 40.4644C14.524 40.4607 13.5518 40.4617 12.5772 40.4597C12.5549 40.4597 12.5327 40.4481 12.4805 40.4327C12.5393 39.9676 12.5965 39.4999 12.6573 39.0347C12.8718 37.4016 13.0853 35.7685 13.303 34.1354C13.5528 32.2647 13.7482 30.399 14.0673 28.5432C14.6313 25.2522 17.4315 22.4314 20.6968 21.7138C22.5941 21.303 24.4073 21.4933 26.0646 22.5625C27.717 23.6265 28.662 25.1854 28.8846 27.1154C29.1914 29.862 28.1796 32.1385 26.2378 34.0438C24.9564 35.2835 23.4178 36.0703 21.6615 36.3376C19.8384 36.6122 18.1241 36.3086 16.5905 35.234C16.5343 35.1944 16.4735 35.1598 16.377 35.0989" fill="white"/>
<path fill-rule="evenodd" clip-rule="evenodd" d="M14.7207 19.472C13.6323 20.2836 12.581 21.0655 11.5297 21.8499C11.3597 21.5826 11.2081 21.3154 11.03 21.0655C10.5723 20.4246 10.0034 19.9471 9.17719 19.8901C8.48951 19.8416 7.90078 20.0678 7.43325 20.5756C7.0152 21.0284 6.96078 21.6742 7.35113 22.1864C7.78155 22.7506 8.25154 23.285 8.73391 23.8072C9.53291 24.6732 10.3665 25.5046 11.1581 26.3805C11.8779 27.1724 12.4543 28.0582 12.6324 29.1519C12.8442 30.4386 12.5871 31.6511 11.9794 32.7893C10.8538 34.8802 9.08517 36.105 6.73518 36.4762C5.70119 36.6432 4.67214 36.6105 3.66783 36.3136C2.32957 35.9202 1.397 35.0418 0.798372 33.8144C0.586873 33.3765 0.424848 32.9138 0.234375 32.4436C1.40442 31.8176 2.54478 31.2064 3.69752 30.5903C3.73709 30.686 3.76604 30.7662 3.80289 30.8427C4.00005 31.2361 4.16158 31.6543 4.404 32.018C5.12878 33.0944 6.29635 33.421 7.47135 32.889C7.77561 32.7517 8.06998 32.5599 8.31982 32.3372C9.08171 31.6592 9.22518 30.714 8.66119 29.8628C8.33713 29.3729 7.93145 28.9324 7.53566 28.4944C6.59072 27.4453 5.6062 26.4283 4.69094 25.3519C4.05521 24.6146 3.62232 23.7584 3.48379 22.7785C3.33413 21.6997 3.54959 20.6852 4.10963 19.7845C5.50231 17.5303 7.5233 16.3698 10.1949 16.444C11.7211 16.4992 12.9406 17.2136 13.8806 18.4013C14.1602 18.7527 14.4224 19.1164 14.7068 19.4975" fill="white"/>
<path fill-rule="evenodd" clip-rule="evenodd" d="M40.5451 31.473C40.3673 32.8315 40.1988 34.1206 40.0257 35.4073C40.016 35.4731 39.9648 35.562 39.9096 35.5872C37.2628 36.8096 33.7997 36.6388 31.6476 34.1793C30.4849 32.8579 29.9976 31.2842 30.0694 29.5521C30.2383 25.5188 33.582 21.9804 37.5893 21.4855C39.927 21.1985 41.9677 21.8294 43.5509 23.6481C44.6294 24.8854 45.1291 26.37 45.0549 28.0031C45.0066 29.082 44.8374 30.1534 44.7036 31.2199C44.5131 32.7392 44.3054 34.2634 44.105 35.7728C44.0973 35.8257 44.0867 35.8799 44.0741 35.9487H40.9325C40.9741 35.5998 41.0127 35.2584 41.0572 34.9169C41.2852 33.1625 41.5371 31.4032 41.7374 29.6464C41.8621 28.5527 41.7837 27.4664 41.2823 26.4544C40.7504 25.378 39.8599 24.8064 38.6849 24.6827C36.2558 24.4254 33.9355 26.1129 33.4407 28.4933C33.0994 30.072 33.6379 31.5863 34.8953 32.4276C36.1197 33.2417 37.4184 33.2442 38.7542 32.7171C39.432 32.4499 40.0059 32.0243 40.555 31.4527" fill="white"/>
<path fill-rule="evenodd" clip-rule="evenodd" d="M53.9023 21.8969C53.7583 22.9906 53.6154 24.067 53.4719 25.1632C52.804 25.1632 52.151 25.1594 51.4979 25.1641C50.9685 25.1681 50.4862 25.5106 50.3254 26.0055C50.2635 26.1987 50.2405 26.4063 50.2133 26.6092C49.8819 29.1331 49.5529 31.6323 49.2239 34.1314C49.1407 34.7649 49.0606 35.3983 48.9775 36.0417H45.6875C45.7484 35.5592 45.8062 35.0915 45.8671 34.6239C46.0806 32.9957 46.295 31.3576 46.5102 29.7492C46.6968 28.3413 46.864 26.9284 47.0841 25.518C47.3785 23.6374 49.2486 21.9548 51.141 21.8806C52.0463 21.841 52.9542 21.8739 53.8867 21.8739" fill="white"/>
<path d="M71.4666 36.1743V34.7886H71.4589L70.9147 36.1743H70.7418L70.1976 34.7886H70.1889V36.1743H69.9168V34.5139H70.3398L70.8345 35.7759L71.3218 34.5139H71.7424V36.1743H71.4666ZM69.0572 34.7366V36.1743H68.7851V34.7366H68.2656V34.5142H69.5791V34.7366H69.0597" fill="white"/>
<path d="M19.1016 17.1459H19.9155L19.723 15.9137L19.1016 17.1459ZM20.0441 17.9427H18.691L18.2606 18.7865H17.3008L19.4158 14.8274H20.3409L21.0608 18.7865H20.1727L20.0451 17.9427" fill="white"/>
<path d="M24.8857 15.6365H24.4034L24.2411 16.5495H24.7234C25.0153 16.5495 25.2454 16.3582 25.2454 15.9977C25.2454 15.7589 25.1004 15.6365 24.8842 15.6365H24.8857ZM23.7181 14.8397H24.9847C25.6476 14.8397 26.1102 15.2356 26.1102 15.9136C26.1102 16.7697 25.5066 17.3438 24.6458 17.3438H24.0991L23.8418 18.7913H23.0156L23.7132 14.8323" fill="white"/>
<path d="M28.9205 17.1459H29.7343L29.5421 15.9137L28.9205 17.1459ZM29.8605 17.9427H28.5074L28.077 18.7865H27.1172L29.2322 14.8274H30.1573L30.8772 18.7865H29.9891L29.8615 17.9427" fill="white"/>
<path d="M35.1052 18.6552C34.8256 18.7829 34.5189 18.8591 34.2097 18.8591C33.1633 18.8591 32.5078 18.0747 32.5078 17.0924C32.5078 15.8354 33.5641 14.7788 34.8207 14.7788C35.1349 14.7788 35.4193 14.8543 35.6519 14.9817L35.5358 15.9294C35.3619 15.7372 35.0807 15.6028 34.7344 15.6028C34.0145 15.6028 33.3738 16.2536 33.3738 17.0083C33.3738 17.5823 33.735 18.0327 34.3039 18.0327C34.6527 18.0327 34.9892 17.8983 35.2167 17.7135L35.1067 18.6537" fill="white"/>
<path d="M40.299 17.1954H38.5798L38.3003 18.7865H37.4766L38.1741 14.8274H39.0003L38.7233 16.3912H40.4425L40.722 14.8274H41.5482L40.8507 18.7865H40.0244L40.3015 17.1954" fill="white"/>
<path d="M43.2656 18.7791L43.9632 14.8201H46.1549L46.0156 15.6168H44.6501L44.5109 16.3839H45.765L45.6258 17.1807H44.3716L44.2323 17.9774H45.5978L45.4585 18.7742H43.2669" fill="white"/>
</g>
<defs>
<clipPath id="clip0_5716_21967">
<rect width="77" height="40" fill="white" transform="translate(0.222656 0.54248)"/>
</clipPath>
</defs>
</svg>
