<svg width="83" height="42" viewBox="0 0 83 42" fill="none" xmlns="http://www.w3.org/2000/svg">
<path d="M10.302 5.93784C9.9112 5.54313 9.36856 5.30006 8.76409 5.30006C8.16098 5.30006 7.62278 5.54313 7.23685 5.93784H7.22675C6.83714 6.32953 6.59533 6.87626 6.59533 7.48038C6.59533 8.08809 6.83714 8.63139 7.22675 9.01923L7.23685 9.02998C7.62278 9.42126 8.16098 9.66093 8.76409 9.66093C9.36856 9.66093 9.9112 9.42126 10.302 9.02998L10.3065 9.01923C10.6979 8.63139 10.9364 8.08809 10.9364 7.48038C10.9364 6.87626 10.6979 6.32953 10.3065 5.93784H10.302ZM8.76409 35.785C9.36856 35.785 9.9112 35.5374 10.302 35.15L10.3065 35.1388C10.6979 34.752 10.9364 34.2053 10.9364 33.6044C10.9364 32.9969 10.6979 32.4525 10.3065 32.0589H10.302C9.9112 31.6605 9.36856 31.4196 8.76409 31.4196C8.16098 31.4196 7.62278 31.6605 7.23685 32.0589H7.22675C6.83714 32.4525 6.59533 32.9969 6.59533 33.6044C6.59533 34.2053 6.83714 34.752 7.22675 35.1388L7.23685 35.15C7.62278 35.5374 8.16098 35.785 8.76409 35.785ZM20.5804 29.1787C21.1176 29.0366 21.604 28.6901 21.9009 28.1659L21.9409 28.0892C22.2049 27.5929 22.2534 27.0189 22.1121 26.5097C21.9698 25.9658 21.6212 25.4833 21.1008 25.1833L21.0703 25.1625C20.5632 24.8825 19.9861 24.8215 19.4557 24.9668C18.9164 25.1022 18.4315 25.4633 18.1363 25.9831C17.8373 26.4996 17.7749 27.0933 17.9178 27.6399C18.0658 28.1777 18.4115 28.6633 18.9287 28.9667H18.9319C19.4501 29.2665 20.0362 29.32 20.5804 29.1787ZM10.9886 18.3081C10.4193 17.7373 9.63364 17.3796 8.76409 17.3796C7.89571 17.3796 7.11232 17.7373 6.54417 18.3081C5.9775 18.8782 5.62835 19.6646 5.62835 20.5388C5.62835 21.413 5.9775 22.2029 6.54417 22.7798C7.11232 23.3471 7.89571 23.7015 8.76409 23.7015C9.63364 23.7015 10.4193 23.3471 10.9886 22.7798C11.5563 22.2029 11.9055 21.413 11.9055 20.5388C11.9055 19.6646 11.5563 18.8782 10.9886 18.3081ZM9.73771 14.5921C10.9997 14.8011 12.1334 15.4088 12.9997 16.2863H13.0063C13.1442 16.4243 13.2782 16.5763 13.4028 16.7284L15.5683 15.4692C15.2769 14.5848 15.2636 13.6602 15.4975 12.7927C15.8062 11.6319 16.5551 10.5922 17.6776 9.94101L17.7144 9.91747C18.8247 9.28591 20.0867 9.15457 21.226 9.46476C22.3796 9.77556 23.4204 10.5319 24.0681 11.6587V11.662C24.7131 12.7827 24.8437 14.0689 24.5362 15.2265C24.2293 16.3875 23.4776 17.4339 22.3562 18.0817L22.0604 18.2571H22.0304C20.9929 18.7536 19.8526 18.8313 18.8051 18.554C17.9451 18.3248 17.1562 17.8418 16.5383 17.1571L14.3762 18.4126C14.6247 19.0738 14.762 19.786 14.762 20.5388C14.762 21.2879 14.6247 22.0106 14.3762 22.6751L16.5383 23.9273C17.1562 23.2318 17.9451 22.7596 18.8051 22.5299C19.9594 22.2129 21.2381 22.3476 22.3562 23.0027L22.4279 23.0363V23.0396C23.5077 23.6981 24.2327 24.7137 24.5362 25.8612C24.8437 27.0122 24.7131 28.2988 24.0681 29.4218L24.0292 29.5001L24.0247 29.4933C23.3771 30.5761 22.3561 31.3094 21.2292 31.6196C20.0733 31.9259 18.794 31.795 17.6776 31.1495V31.1406C16.5551 30.4883 15.8062 29.4464 15.4975 28.2876C15.2635 27.4242 15.2769 26.4996 15.5682 25.6152L13.4027 24.3593C13.2782 24.5113 13.1441 24.6566 13.0063 24.7947L12.9996 24.8014C12.1333 25.6756 10.9997 26.2833 9.73768 26.4856V29.0009C10.6372 29.1899 11.4423 29.6421 12.0733 30.2765L12.0767 30.2832C12.9224 31.1294 13.4461 32.3083 13.4461 33.6044C13.4461 34.8963 12.9224 36.0685 12.0767 36.9192L12.0733 36.9324C11.2215 37.7826 10.0535 38.3092 8.76405 38.3092C7.48143 38.3092 6.31003 37.7826 5.46048 36.9324H5.45707V36.9192C4.61037 36.0685 4.08552 34.8963 4.08552 33.6044C4.08552 32.3083 4.61037 31.1294 5.45707 30.2832V30.2765H5.46048C6.09087 29.6421 6.89757 29.1899 7.794 29.0009V26.4856C6.53184 26.2833 5.40043 25.6756 4.53532 24.8014L4.52644 24.7947C3.4462 23.7048 2.76953 22.2029 2.76953 20.5388C2.76953 18.8782 3.4462 17.3762 4.52644 16.2863H4.53532C5.40043 15.4088 6.53184 14.8011 7.794 14.5921V12.0874C6.8976 11.8919 6.09091 11.4396 5.46051 10.8085H5.4571V10.8018C4.6104 9.94771 4.08555 8.77671 4.08555 7.48037C4.08555 6.19089 4.6104 5.00966 5.4571 4.15912L5.46051 4.15568C6.31006 3.30208 7.48147 2.77588 8.76409 2.77588C10.0535 2.77588 11.2215 3.30208 12.0733 4.15568V4.15912H12.0767C12.9224 5.00966 13.4461 6.19089 13.4461 7.48037C13.4461 8.77671 12.9224 9.94771 12.0767 10.8018L12.0733 10.8085C11.4423 11.4396 10.6372 11.8919 9.73771 12.0874V14.5921ZM21.9009 12.9214L21.8826 12.8939C21.584 12.3882 21.1075 12.0506 20.5804 11.9051C20.0362 11.7599 19.4501 11.8207 18.9287 12.1215H18.9319C18.4115 12.4183 18.0635 12.9041 17.9178 13.4478C17.7748 13.9878 17.8373 14.5848 18.1363 15.1047L18.1463 15.1182C18.446 15.6312 18.923 15.9755 19.4557 16.1141C19.9905 16.2661 20.5871 16.2019 21.1008 15.9011L21.1287 15.8877C21.6346 15.5842 21.9716 15.1047 22.1121 14.5781C22.2556 14.0348 22.1983 13.4411 21.9009 12.9214Z" fill="white"/>
<path d="M31.5078 13.6567H33.924V21.0719L37.4084 17.1972H40.3056L36.099 21.6862L40.323 27.3764H37.5565L33.924 22.2937V27.3764H31.5078V13.6567Z" fill="white"/>
<path d="M43.1112 22.331C43.1112 23.5936 44.0145 25.4292 46.1908 25.4292C47.5375 25.4292 48.4237 24.7238 48.8834 23.7993C49.124 23.3505 49.2348 22.8709 49.272 22.3717C49.2887 21.8887 49.198 21.3863 48.9938 20.9403C48.5702 19.9787 47.6301 19.1449 46.173 19.1449C44.2191 19.1449 43.1112 20.7379 43.1112 22.3142V22.331ZM51.6689 27.3766H49.2515V25.9122C48.6082 27.0966 47.2612 27.6907 45.8405 27.6907C42.5942 27.6907 40.6953 25.1492 40.6953 22.2773C40.6953 19.0706 43.0003 16.8833 45.8405 16.8833C47.6848 16.8833 48.8094 17.8659 49.2515 18.6826V17.1975H51.6689V27.3766Z" fill="white"/>
<path d="M54.4084 19.0705H53.1562V17.1975H54.4084V16.6239C54.4084 13.5994 56.6959 13.4171 58.4305 13.397V15.2667C57.8206 15.2667 56.8258 15.2667 56.8258 16.6977V17.1975H58.4305V19.0705H56.8258V27.3766H54.4084V19.0705Z" fill="white"/>
<path d="M60.0703 13.6567H62.4858V21.0719L65.9708 17.1972H68.8679L64.6614 21.6862L68.8846 27.3764H66.1181L62.4858 22.2937V27.3764H60.0703V13.6567Z" fill="white"/>
<path d="M71.6721 22.331C71.6721 23.5936 72.5751 25.4292 74.7518 25.4292C76.0966 25.4292 76.9828 24.7238 77.4432 23.7993C77.6846 23.3505 77.7958 22.8709 77.8323 22.3717C77.849 21.8887 77.7582 21.3863 77.5537 20.9403C77.1308 19.9787 76.1907 19.1449 74.734 19.1449C72.7797 19.1449 71.6721 20.7379 71.6721 22.3142V22.331ZM80.2291 27.3766H77.8125V25.9122C77.1673 27.0966 75.8214 27.6907 74.4015 27.6907C71.1552 27.6907 69.2578 25.1492 69.2578 22.2773C69.2578 19.0706 71.5621 16.8833 74.4015 16.8833C76.2446 16.8833 77.3703 17.8659 77.8125 18.6826V17.1975H80.2291V27.3766Z" fill="white"/>
</svg>
