<svg width="50" height="50" viewBox="0 0 50 50" fill="none" xmlns="http://www.w3.org/2000/svg">
<path d="M22.4718 43.8194C22.1971 43.5422 22.0424 43.1681 22.0412 42.7778V40.6805C22.0323 40.3638 21.9224 40.0582 21.7275 39.8083C21.5326 39.5584 21.263 39.3774 20.9579 39.2917C19.8497 38.9779 18.7822 38.535 17.7773 37.9722C17.4943 37.8143 17.1674 37.7533 16.8464 37.7984C16.5255 37.8436 16.2281 37.9924 15.9996 38.2222L14.5135 39.7083C14.2349 39.9857 13.8579 40.1414 13.4648 40.1414C13.0718 40.1414 12.6947 39.9857 12.4162 39.7083L10.3329 37.5694C10.0556 37.2909 9.89985 36.9139 9.89985 36.5208C9.89985 36.1278 10.0556 35.7507 10.3329 35.4722L11.819 33.9861C12.0457 33.7586 12.1925 33.4638 12.2376 33.1458C12.2827 32.8278 12.2235 32.5038 12.069 32.2222C11.5056 31.2176 11.0627 30.1501 10.7496 29.0417C10.6638 28.7366 10.4828 28.4669 10.2329 28.272C9.98306 28.0772 9.67744 27.9672 9.36068 27.9583H7.22179C6.82877 27.9547 6.45287 27.797 6.17495 27.519C5.89703 27.2411 5.7393 26.8652 5.73568 26.4722V23.5139C5.7429 23.1233 5.90222 22.7509 6.17975 22.476C6.45729 22.201 6.83114 22.0452 7.22179 22.0417H9.31901C9.63577 22.0328 9.94139 21.9228 10.1913 21.7279C10.4411 21.533 10.6221 21.2634 10.7079 20.9583C11.0206 19.8498 11.4635 18.7821 12.0273 17.7778C12.1852 17.4947 12.2463 17.1678 12.2011 16.8469C12.156 16.5259 12.0072 16.2285 11.7773 16L10.3329 14.5278C10.0589 14.2475 9.90547 13.8711 9.90547 13.4792C9.90547 13.0872 10.0589 12.7108 10.3329 12.4305L12.4301 10.3333C12.7086 10.056 13.0857 9.90028 13.4787 9.90028C13.8718 9.90028 14.2488 10.056 14.5273 10.3333L16.0135 11.8194C16.242 12.0493 16.5394 12.1981 16.8603 12.2432C17.1813 12.2884 17.5082 12.2273 17.7912 12.0694C18.7959 11.5061 19.8634 11.0633 20.9718 10.75C21.2768 10.6642 21.5465 10.4832 21.7414 10.2333C21.9363 9.98348 22.0462 9.67786 22.0551 9.3611V7.22222C22.0551 6.82807 22.2117 6.45008 22.4904 6.17138C22.7691 5.89268 23.1471 5.7361 23.5412 5.7361H26.4996V2.77777H23.5135C22.3347 2.77777 21.2043 3.24602 20.3708 4.07952C19.5373 4.91301 19.069 6.04348 19.069 7.22222V8.2361C18.4781 8.44639 17.8986 8.68746 17.3329 8.95833L16.6662 8.2361C15.833 7.40494 14.7042 6.93816 13.5273 6.93816C12.3505 6.93816 11.2216 7.40494 10.3885 8.2361L8.23568 10.3333C7.41454 11.1718 6.95465 12.2986 6.95465 13.4722C6.95465 14.6458 7.41454 15.7726 8.23568 16.6111L8.9579 17.3333C8.68658 17.8988 8.4455 18.4784 8.23568 19.0694H7.22179C6.04641 19.0803 4.92225 19.552 4.0911 20.3832C3.25995 21.2143 2.78821 22.3385 2.77734 23.5139V26.4722C2.78821 27.6476 3.25995 28.7717 4.0911 29.6029C4.92225 30.434 6.04641 30.9058 7.22179 30.9167H8.23568C8.44596 31.5076 8.68703 32.0871 8.9579 32.6528L8.23568 33.3333C7.40451 34.1665 6.93773 35.2953 6.93773 36.4722C6.93773 37.6491 7.40451 38.7779 8.23568 39.6111L10.3329 41.7083C11.1679 42.5361 12.296 43.0006 13.4718 43.0006C14.6475 43.0006 15.7757 42.5361 16.6107 41.7083L17.3329 40.9861C17.8986 41.257 18.4781 41.498 19.069 41.7083V42.7222C19.0741 43.8996 19.5432 45.0275 20.3746 45.8611C20.7856 46.2753 21.2746 46.6039 21.8134 46.828C22.3521 47.0521 22.93 47.1672 23.5135 47.1667H26.4718V44.2639H23.5135C23.1215 44.2575 22.7476 44.098 22.4718 43.8194Z" fill="#F15A29"/>
<path d="M42.7782 38.3333C41.9025 38.3341 41.0469 38.5952 40.3199 39.0833L31.8199 32.7083C31.5632 32.5171 31.2511 32.4147 30.931 32.4167H25.0004C23.8217 32.4167 22.6912 31.9484 21.8577 31.1149C21.0242 30.2814 20.556 29.151 20.556 27.9722V22.0417C20.556 20.8629 21.0242 19.7325 21.8577 18.899C22.6912 18.0655 23.8217 17.5972 25.0004 17.5972H30.931C31.2511 17.5992 31.5632 17.4968 31.8199 17.3056L40.2782 10.9167C41.098 11.4744 42.0809 11.742 43.0703 11.6768C44.0597 11.6117 44.9989 11.2175 45.7385 10.557C46.4781 9.89655 46.9756 9.00773 47.1518 8.03195C47.3281 7.05617 47.173 6.04947 46.7111 5.17201C46.2493 4.29455 45.5073 3.59673 44.6032 3.18955C43.6991 2.78238 42.6848 2.68924 41.7216 2.92495C40.7585 3.16067 39.9018 3.7117 39.2879 4.49038C38.674 5.26906 38.3382 6.23067 38.3338 7.22223C38.34 7.67082 38.4149 8.11581 38.556 8.54168L30.431 14.6389H25.0004C23.0371 14.6389 21.1542 15.4188 19.7659 16.8071C18.3776 18.1954 17.5977 20.0783 17.5977 22.0417V27.9722C17.5977 29.9356 18.3776 31.8185 19.7659 33.2068C21.1542 34.5951 23.0371 35.375 25.0004 35.375H30.431L38.556 41.4722C38.4149 41.8981 38.34 42.3431 38.3338 42.7917C38.3338 43.6707 38.5944 44.53 39.0828 45.2609C39.5712 45.9918 40.2653 46.5614 41.0774 46.8978C41.8895 47.2342 42.7831 47.3222 43.6453 47.1507C44.5074 46.9792 45.2993 46.5559 45.9209 45.9344C46.5425 45.3128 46.9658 44.5209 47.1373 43.6587C47.3088 42.7966 47.2207 41.903 46.8843 41.0909C46.548 40.2787 45.9783 39.5846 45.2474 39.0963C44.5165 38.6079 43.6572 38.3472 42.7782 38.3472V38.3333ZM42.7782 5.73612C43.0721 5.73612 43.3595 5.82328 43.6039 5.98658C43.8482 6.14987 44.0387 6.38197 44.1512 6.65352C44.2637 6.92508 44.2931 7.22388 44.2358 7.51216C44.1784 7.80044 44.0369 8.06524 43.8291 8.27307C43.6212 8.48091 43.3564 8.62245 43.0681 8.67979C42.7799 8.73713 42.4811 8.7077 42.2095 8.59522C41.938 8.48274 41.7059 8.29226 41.5426 8.04787C41.3793 7.80348 41.2921 7.51616 41.2921 7.22223C41.2921 6.82809 41.4487 6.45009 41.7274 6.17139C42.0061 5.89269 42.3841 5.73612 42.7782 5.73612ZM42.7782 44.25C42.4843 44.25 42.197 44.1629 41.9526 43.9996C41.7082 43.8363 41.5177 43.6042 41.4052 43.3326C41.2927 43.0611 41.2633 42.7623 41.3207 42.474C41.378 42.1857 41.5195 41.9209 41.7274 41.7131C41.9352 41.5052 42.2 41.3637 42.4883 41.3063C42.7766 41.249 43.0754 41.2784 43.3469 41.3909C43.6185 41.5034 43.8506 41.6939 44.0139 41.9383C44.1772 42.1827 44.2643 42.47 44.2643 42.7639C44.2662 42.9602 44.2291 43.155 44.1552 43.3369C44.0814 43.5188 43.9722 43.6843 43.834 43.8237C43.6958 43.9632 43.5314 44.0739 43.3501 44.1495C43.1689 44.225 42.9745 44.2639 42.7782 44.2639V44.25Z" fill="#F15A29"/>
<path d="M42.7778 20.5556C41.8628 20.5581 40.971 20.8438 40.225 21.3735C39.4789 21.9032 38.9151 22.6509 38.6111 23.5139H25V26.4722H38.6111C38.8858 27.2356 39.3648 27.909 39.9959 28.4188C40.6271 28.9286 41.3861 29.2553 42.1901 29.3634C42.9942 29.4714 43.8126 29.3565 44.5559 29.0313C45.2991 28.7062 45.9389 28.1831 46.4053 27.5193C46.8717 26.8554 47.1469 26.0762 47.2008 25.2667C47.2547 24.4572 47.0853 23.6484 46.7111 22.9286C46.3368 22.2087 45.7721 21.6054 45.0785 21.1845C44.3849 20.7636 43.5891 20.5413 42.7778 20.5417V20.5556ZM42.7778 26.4861C42.4839 26.4861 42.1965 26.399 41.9521 26.2357C41.7078 26.0724 41.5173 25.8403 41.4048 25.5687C41.2923 25.2972 41.2629 24.9984 41.3202 24.7101C41.3776 24.4218 41.5191 24.157 41.7269 23.9492C41.9348 23.7413 42.1996 23.5998 42.4879 23.5425C42.7761 23.4851 43.0749 23.5146 43.3465 23.627C43.618 23.7395 43.8501 23.93 44.0134 24.1744C44.1767 24.4188 44.2639 24.7061 44.2639 25C44.2639 25.3942 44.1073 25.7722 43.8286 26.0509C43.5499 26.3296 43.1719 26.4861 42.7778 26.4861Z" fill="#F15A29"/>
</svg>
