<svg width="54" height="54" viewBox="0 0 54 54" fill="none" xmlns="http://www.w3.org/2000/svg">
<path d="M51.6058 47.4853L45.878 41.7575C47.4671 39.6708 48.4237 37.0749 48.4237 34.2592C48.4186 30.9675 47.1082 27.8122 44.7799 25.4853C42.4515 23.1584 39.2954 21.85 36.0037 21.8469C32.7133 21.852 29.5592 23.1614 27.2325 25.488C24.9059 27.8147 23.5965 30.9688 23.5914 34.2592C23.5945 37.5516 24.9035 40.7083 27.2312 43.0367C29.5589 45.3651 32.7152 46.6751 36.0076 46.6792C38.8271 46.6792 41.423 45.7226 43.5058 44.1335L49.2337 49.8575C49.3883 50.0139 49.5724 50.138 49.7753 50.2228C49.9783 50.3075 50.196 50.3511 50.4159 50.3511C50.6358 50.3511 50.8535 50.3075 51.0565 50.2228C51.2594 50.138 51.4435 50.0139 51.5981 49.8575C51.7548 49.7025 51.8793 49.518 51.9645 49.3148C52.0497 49.1115 52.094 48.8934 52.0947 48.673C52.0954 48.4526 52.0526 48.2342 51.9687 48.0304C51.8848 47.8266 51.7615 47.6414 51.6058 47.4853ZM26.9433 34.2592C26.9463 31.8561 27.9023 29.5524 29.6015 27.8532C31.3007 26.1539 33.6045 25.198 36.0076 25.1949C38.4116 25.1949 40.7171 26.1499 42.417 27.8498C44.1169 29.5497 45.0718 31.8552 45.0718 34.2592C45.0718 36.6632 44.1169 38.9687 42.417 40.6686C40.7171 42.3685 38.4116 43.3235 36.0076 43.3235C33.6048 43.3194 31.3016 42.3631 29.6026 40.6641C27.9036 38.9651 26.9474 36.6619 26.9433 34.2592ZM41.1954 14.2985C41.1954 15.2242 40.4433 15.9725 39.5176 15.9725H22.7506C22.3066 15.9725 21.8808 15.7961 21.5669 15.4822C21.2529 15.1682 21.0766 14.7425 21.0766 14.2985C21.0766 13.8545 21.2529 13.4287 21.5669 13.1148C21.8808 12.8008 22.3066 12.6245 22.7506 12.6245H39.5176C40.4433 12.6245 41.1954 13.3728 41.1954 14.2985ZM9.0577 46.9955H20.2357C20.661 47.0243 21.0595 47.2137 21.3506 47.5251C21.6417 47.8366 21.8036 48.247 21.8036 48.6733C21.8036 49.0996 21.6417 49.5101 21.3506 49.8215C21.0595 50.133 20.661 50.3223 20.2357 50.3512H9.0577C5.9797 50.3512 3.46484 47.8441 3.46484 44.7583V14.9272C3.46484 14.1751 3.73484 13.4461 4.21699 12.8675L12.6796 2.80034C12.9633 2.4626 13.3175 2.19095 13.7173 2.0044C14.117 1.81785 14.5527 1.7209 14.9938 1.72034H42.3101C45.392 1.72034 47.903 4.22748 47.903 7.31319V19.3243C47.903 19.7693 47.7262 20.1961 47.4115 20.5108C47.0969 20.8254 46.6701 21.0022 46.2251 21.0022C45.7801 21.0022 45.3534 20.8254 45.0387 20.5108C44.724 20.1961 44.5473 19.7693 44.5473 19.3243V7.30934C44.5463 6.71801 44.3112 6.15114 43.8934 5.73265C43.4756 5.31416 42.9092 5.07809 42.3178 5.07605H17.7208V14.7729C17.7137 15.4798 17.4268 16.1551 16.923 16.651C16.4191 17.1469 15.7394 17.423 15.0324 17.4189H6.82441V44.7622C6.82441 45.9926 7.82727 46.9955 9.0577 46.9955ZM14.369 6.00177L7.59199 14.0632H14.369V6.00177ZM18.5617 31.1118C19.0067 31.1118 19.4335 30.935 19.7481 30.6203C20.0628 30.3057 20.2396 29.8789 20.2396 29.4339C20.2396 28.9889 20.0628 28.5621 19.7481 28.2475C19.4335 27.9328 19.0067 27.7561 18.5617 27.7561H12.6911C12.2461 27.7561 11.8194 27.9328 11.5047 28.2475C11.19 28.5621 11.0133 28.9889 11.0133 29.4339C11.0133 29.8789 11.19 30.3057 11.5047 30.6203C11.8194 30.935 12.2461 31.1118 12.6911 31.1118H18.5617ZM18.5617 38.8145C19.0062 38.8145 19.4325 38.6379 19.7468 38.3236C20.0611 38.0093 20.2376 37.583 20.2376 37.1385C20.2376 36.6941 20.0611 36.2678 19.7468 35.9535C19.4325 35.6392 19.0062 35.4626 18.5617 35.4626H12.6911C12.2466 35.4626 11.8204 35.6392 11.5061 35.9535C11.1918 36.2678 11.0152 36.6941 11.0152 37.1385C11.0152 37.583 11.1918 38.0093 11.5061 38.3236C11.8204 38.6379 12.2466 38.8145 12.6911 38.8145H18.5617ZM20.2357 20.1883H12.6911C12.2466 20.1883 11.8204 20.3649 11.5061 20.6792C11.1918 20.9935 11.0152 21.4198 11.0152 21.8643C11.0152 22.3088 11.1918 22.735 11.5061 23.0493C11.8204 23.3636 12.2466 23.5402 12.6911 23.5402H20.2357C20.6802 23.5402 21.1065 23.3636 21.4208 23.0493C21.7351 22.735 21.9116 22.3088 21.9116 21.8643C21.9116 21.4198 21.7351 20.9935 21.4208 20.6792C21.1065 20.3649 20.6802 20.1883 20.2357 20.1883Z" fill="black"/>
</svg>
