<svg width="54" height="54" viewBox="0 0 54 54" fill="none" xmlns="http://www.w3.org/2000/svg">
<path d="M24.7531 6.1875C25.6851 6.18581 26.4391 5.42894 26.4375 4.49697C26.4359 3.56499 25.679 2.81084 24.7468 2.8125C20.2129 2.82067 16.5992 2.87724 13.7264 3.34222C10.8043 3.81522 8.46574 4.73657 6.60181 6.60051C4.58849 8.61383 3.67648 11.1789 3.23944 14.4295C2.81246 17.6054 2.81248 21.6757 2.8125 26.8695V27.1278C2.81248 32.3217 2.81246 36.3919 3.23944 39.5678C3.67648 42.8186 4.58849 45.3836 6.60181 47.3969C8.61514 49.4102 11.1802 50.3222 14.4308 50.7593C17.6067 51.1861 21.677 51.1861 26.8708 51.1861H27.1291C32.323 51.1861 36.3933 51.1861 39.5692 50.7593C42.8197 50.3222 45.385 49.4102 47.3983 47.3969C49.2622 45.533 50.1835 43.1944 50.6565 40.2723C51.1216 37.3995 51.178 33.7858 51.1861 29.2518C51.1879 28.3198 50.4337 27.563 49.5018 27.5611C48.5698 27.5596 47.8129 28.3138 47.8111 29.2457C47.8028 33.8355 47.7394 37.1727 47.3249 39.733C46.9183 42.2442 46.201 43.821 45.0117 45.0103C43.7299 46.2922 41.9958 47.0277 39.1194 47.4145C36.1944 47.8075 32.3509 47.8111 27 47.8111C21.649 47.8111 17.8055 47.8075 14.8806 47.4145C12.0041 47.0277 10.27 46.2922 8.9883 45.0103C7.70657 43.7288 6.97106 41.9947 6.58433 39.118C6.19108 36.1933 6.1875 32.3496 6.1875 26.9986C6.1875 21.6477 6.19108 17.8042 6.58433 14.8793C6.97106 12.0029 7.70657 10.2687 8.9883 8.987C10.1777 7.7976 11.7546 7.08032 14.2657 6.67386C16.8261 6.25943 20.1632 6.19576 24.7531 6.1875Z" fill="#383E45"/>
<path d="M35.789 4.5C35.789 5.43199 36.5445 6.1875 37.4765 6.1875H45.4259L28.6875 22.9259V18C28.6875 17.068 27.932 16.3125 27 16.3125C26.068 16.3125 25.3125 17.068 25.3125 18V27C25.3125 27.9319 26.068 28.6875 27 28.6875H36C36.9319 28.6875 37.6875 27.9319 37.6875 27C37.6875 26.0681 36.9319 25.3125 36 25.3125H31.0741L47.8125 8.57398V16.5234C47.8125 17.4554 48.5681 18.2109 49.5 18.2109C50.4319 18.2109 51.1875 17.4554 51.1875 16.5234V4.5C51.1875 3.56803 50.4319 2.8125 49.5 2.8125H37.4765C36.5445 2.8125 35.789 3.56803 35.789 4.5Z" fill="#383E45"/>
</svg>
