<svg width="54" height="54" viewBox="0 0 54 54" fill="none" xmlns="http://www.w3.org/2000/svg">
<g clip-path="url(#clip0_5716_21993)">
<mask id="mask0_5716_21993" style="mask-type:luminance" maskUnits="userSpaceOnUse" x="0" y="0" width="54" height="54">
<path d="M54 0H0V54H54V0Z" fill="white"/>
</mask>
<g mask="url(#mask0_5716_21993)">
<path d="M51.7902 27.0003C51.7902 13.2068 40.6087 2.02502 26.8153 2.02502C25.7547 2.02502 24.8948 2.88484 24.8948 3.94545C24.8948 5.00607 25.7547 5.86586 26.8153 5.86586C38.4873 5.86586 47.9494 15.328 47.9494 27.0003C47.9494 38.6724 38.4873 48.1343 26.8153 48.1343C25.7547 48.1343 24.8948 48.9942 24.8948 50.0548C24.8948 51.1154 25.7547 51.9753 26.8153 51.9753C40.6087 51.9753 51.7902 40.7935 51.7902 27.0003ZM18.2858 3.55088C19.2834 3.19056 20.3841 3.70715 20.7444 4.70469C21.1048 5.70224 20.5882 6.803 19.5906 7.16329C17.2739 8.00004 15.1224 9.23708 13.2342 10.8179C12.421 11.4988 11.2098 11.3915 10.5289 10.5782C9.84805 9.76498 9.95537 8.55379 10.7686 7.87293C13.0017 6.00334 15.5462 4.5404 18.2858 3.55088ZM10.528 43.4233C11.2083 42.6095 12.4194 42.5013 13.2331 43.1817C15.123 44.7614 17.2752 45.9988 19.592 46.8377C20.5892 47.1987 21.105 48.2998 20.7439 49.2972C20.3829 50.2943 19.2817 50.8102 18.2845 50.449C15.5466 49.4578 13.0033 47.9958 10.7697 46.1284C9.95597 45.4483 9.84775 44.2371 10.528 43.4233ZM7.82342 13.8099C6.90499 13.2794 5.73041 13.5939 5.19992 14.5123C3.742 17.0364 2.73938 19.7972 2.23793 22.6685C2.05547 23.7133 2.75452 24.7082 3.79934 24.8906C4.84414 25.0731 5.83906 24.374 6.02152 23.3292C6.44548 20.9016 7.29314 18.5674 8.5258 16.4334C9.0563 15.515 8.74183 14.3404 7.82342 13.8099ZM3.79964 29.1068C4.84449 28.9246 5.83927 29.6239 6.02158 30.6688C6.44529 33.0974 7.29301 35.4324 8.52586 37.5673C9.0563 38.4856 8.74175 39.6601 7.82332 40.1906C6.90486 40.7212 5.7303 40.4066 5.19986 39.4881C3.74167 36.9633 2.73905 34.2012 2.23788 31.3289C2.05558 30.284 2.75479 29.2894 3.79964 29.1068Z" fill="#F15A29"/>
<mask id="mask1_5716_21993" style="mask-type:luminance" maskUnits="userSpaceOnUse" x="17" y="14" width="20" height="26">
<path d="M17.3906 14.8336H36.6089V39.1674H17.3906V14.8336Z" fill="white"/>
</mask>
<g mask="url(#mask1_5716_21993)">
<path d="M30.7038 15.2101C29.9518 14.6523 28.8851 14.7143 28.2033 15.3961C28.1413 15.4679 28.0793 15.5397 28.0173 15.6115C27.4595 16.3633 27.5216 17.4302 28.2033 18.112C28.8186 18.7267 29.434 19.3415 30.0493 19.9562C26.4712 19.9564 22.893 19.9566 19.3149 19.9567C19.228 19.9626 19.1412 19.9684 19.0543 19.9743C18.117 20.1014 17.3945 20.9049 17.3945 21.8771C17.3945 22.9378 18.2543 23.7976 19.3149 23.7976C24.4381 23.7976 29.5614 23.7976 34.6847 23.7976C34.7723 23.792 34.86 23.7864 34.9476 23.7808C36.4802 23.5822 37.1886 21.6653 36.0425 20.5192C34.3347 18.8115 32.627 17.1037 30.9192 15.396C30.8474 15.334 30.7756 15.272 30.7038 15.2101ZM36.6052 32.1238C36.6052 31.063 35.7452 30.2033 34.6847 30.2033C29.5614 30.2033 24.4381 30.2033 19.3149 30.2033C19.2273 30.2089 19.1397 30.2145 19.052 30.2201C17.5195 30.4188 16.8108 32.3355 17.9569 33.4817C19.6647 35.1894 21.3724 36.8972 23.0801 38.6049C23.1519 38.6669 23.2237 38.7289 23.2955 38.7909C24.0473 39.3488 25.1142 39.2867 25.796 38.6049C25.858 38.5331 25.92 38.4613 25.982 38.3895C26.5398 37.6378 26.4778 36.5707 25.796 35.889C25.1798 35.2733 24.5637 34.6576 23.9475 34.0419C27.5265 34.0426 31.1056 34.0433 34.6847 34.0441C34.7715 34.0382 34.8584 34.0324 34.9452 34.0265C35.8827 33.8993 36.6052 33.0961 36.6052 32.1238Z" fill="#F15A29"/>
</g>
</g>
</g>
<defs>
<clipPath id="clip0_5716_21993">
<rect width="54" height="54" fill="white"/>
</clipPath>
</defs>
</svg>
