<svg width="92" height="32" viewBox="0 0 92 32" fill="none" xmlns="http://www.w3.org/2000/svg">
<path d="M7.99571 30.3885L0.349406 17.1437C0.148655 16.796 0.0429688 16.4016 0.0429688 16.0001C0.0429688 15.5986 0.148655 15.2042 0.349406 14.8565L7.99571 1.61166C8.19619 1.26442 8.48443 0.975982 8.83153 0.775259C9.17863 0.574535 9.57239 0.468581 9.97335 0.468018H25.2742C25.6738 0.470024 26.0658 0.576661 26.4114 0.777312C26.7569 0.977963 27.0438 1.26563 27.2436 1.61166L34.8899 14.8565C35.0907 15.2042 35.1963 15.5986 35.1963 16.0001C35.1963 16.4016 35.0907 16.796 34.8899 17.1437L27.2436 30.3885C27.0431 30.7358 26.7549 31.0242 26.4078 31.2249C26.0607 31.4257 25.6669 31.5316 25.266 31.5322H9.96922C9.56896 31.5309 9.17605 31.4246 8.82974 31.2239C8.48343 31.0232 8.19584 30.7352 7.99571 30.3885Z" fill="#4386FA"/>
<path opacity="0.1" d="M22.4 11.7354C22.4 11.7354 24.5262 16.8343 21.6279 19.7243C18.7296 22.6144 13.4531 20.7648 13.4531 20.7648C13.4531 20.7648 21.2976 28.7125 24.1877 31.5282H25.2777C25.6786 31.5277 26.0724 31.4217 26.4195 31.221C26.7666 31.0203 27.0548 30.7318 27.2553 30.3846L32.317 21.6194L22.4 11.7354Z" fill="black"/>
<path d="M24.9118 22.1688L22.5626 19.8196C22.5371 19.7934 22.5079 19.7711 22.4759 19.7535C23.47 18.4673 23.9362 16.8504 23.7796 15.2324C23.6229 13.6143 22.8553 12.1169 21.6329 11.0452C20.4106 9.97353 18.8257 9.40824 17.201 9.46453C15.5764 9.52082 14.0344 10.1945 12.8892 11.3482C11.744 12.5019 11.0818 14.0489 11.0375 15.6739C10.9933 17.2989 11.5703 18.8796 12.651 20.0939C13.7317 21.3083 15.2348 22.0649 16.8539 22.2095C18.4731 22.3541 20.0865 21.8759 21.3653 20.8724C21.3819 20.9027 21.4028 20.9305 21.4272 20.9549L23.7764 23.3042C23.8106 23.3384 23.8511 23.3655 23.8957 23.384C23.9404 23.4025 23.9882 23.4121 24.0365 23.4121C24.0849 23.4121 24.1327 23.4025 24.1773 23.384C24.222 23.3655 24.2625 23.3384 24.2966 23.3042L24.9118 22.689C24.946 22.6549 24.9732 22.6143 24.9917 22.5697C25.0102 22.5251 25.0197 22.4772 25.0197 22.4289C25.0197 22.3806 25.0102 22.3327 24.9917 22.2881C24.9732 22.2435 24.946 22.2029 24.9118 22.1688ZM17.4265 20.6494C16.476 20.6494 15.5469 20.3676 14.7566 19.8395C13.9663 19.3114 13.3503 18.5609 12.9866 17.6827C12.6228 16.8046 12.5277 15.8383 12.7131 14.9061C12.8985 13.9739 13.3562 13.1175 14.0283 12.4454C14.7004 11.7733 15.5567 11.3156 16.489 11.1302C17.4212 10.9448 18.3875 11.0399 19.2656 11.4037C20.1438 11.7674 20.8943 12.3834 21.4224 13.1737C21.9505 13.964 22.2323 14.8932 22.2323 15.8436C22.2323 16.4747 22.108 17.0997 21.8665 17.6827C21.625 18.2658 21.271 18.7956 20.8247 19.2418C20.3785 19.6881 19.8487 20.0421 19.2656 20.2836C18.6826 20.5251 18.0576 20.6494 17.4265 20.6494Z" fill="white"/>
<path d="M14.3516 15.5876V17.5735C14.6576 18.1136 15.1004 18.5636 15.6356 18.8781V15.5752L14.3516 15.5876Z" fill="white"/>
<path d="M14.3516 15.5876V17.5735C14.6576 18.1136 15.1004 18.5636 15.6356 18.8781V15.5752L14.3516 15.5876Z" fill="white"/>
<path d="M16.75 13.9399V19.3072C17.1744 19.3854 17.6096 19.3854 18.034 19.3072V13.9399H16.75Z" fill="white"/>
<path d="M16.75 13.9399V19.3072C17.1744 19.3854 17.6096 19.3854 18.034 19.3072V13.9399H16.75Z" fill="white"/>
<path d="M20.4676 17.5693V16.3926H19.1836V18.8698C19.7182 18.5564 20.161 18.1078 20.4676 17.5693Z" fill="white"/>
<path d="M20.4676 17.5693V16.3926H19.1836V18.8698C19.7182 18.5564 20.161 18.1078 20.4676 17.5693Z" fill="white"/>
<path d="M53.4872 7.35954H47.6888V9.08195H51.8114C51.6062 11.5008 49.5947 12.5268 47.6982 12.5268C47.102 12.5309 46.5109 12.4172 45.9587 12.1924C45.4065 11.9675 44.9042 11.6359 44.4804 11.2165C44.0567 10.7971 43.7199 10.2982 43.4894 9.74837C43.2589 9.19855 43.1392 8.60862 43.1372 8.01244V7.93471C43.1269 7.33106 43.237 6.73141 43.4613 6.17087C43.6856 5.61032 44.0194 5.10015 44.4433 4.67021C44.8671 4.24027 45.3725 3.89921 45.9298 3.66698C46.4871 3.43476 47.0851 3.31605 47.6888 3.31779C48.8497 3.31925 49.9645 3.77188 50.7979 4.58006L52.0042 3.33644C51.4244 2.77632 50.7399 2.33591 49.9899 2.04037C49.2398 1.74484 48.4389 1.59997 47.6329 1.61404C46.7847 1.59419 45.9413 1.74487 45.1525 2.05712C44.3637 2.36938 43.6456 2.83686 43.0409 3.43183C42.4361 4.02681 41.957 4.73716 41.632 5.52078C41.3069 6.30439 41.1426 7.14529 41.1486 7.99363C41.1546 8.84196 41.331 9.68044 41.6671 10.4593C42.0033 11.2382 42.4925 11.9417 43.1056 12.528C43.7188 13.1143 44.4434 13.5715 45.2366 13.8725C46.0297 14.1735 46.8753 14.3122 47.723 14.2803C51.1088 14.2741 53.596 11.9516 53.596 8.5161C53.6034 8.13198 53.568 7.74823 53.4903 7.37198L53.4872 7.35954Z" fill="#767677"/>
<path d="M58.2563 6.11581C57.727 6.1051 57.2007 6.19899 56.7077 6.3921C56.2147 6.58521 55.7646 6.87374 55.3833 7.24114C55.0021 7.60855 54.6971 8.0476 54.4858 8.53313C54.2746 9.01866 54.1613 9.5411 54.1524 10.0705V10.1576C54.1463 11.2423 54.5713 12.285 55.3339 13.0563C56.0965 13.8277 57.1343 14.2645 58.219 14.2707C59.3037 14.2769 60.3465 13.8519 61.1178 13.0893C61.8892 12.3267 62.3261 11.2889 62.3323 10.2042C62.3323 7.50556 60.215 6.11581 58.2563 6.11581ZM58.2781 7.72008C59.4502 7.72008 60.5601 8.65279 60.5601 10.2073C60.5601 11.7618 59.4533 12.6759 58.2719 12.6759C56.9723 12.6759 55.9463 11.6344 55.9463 10.1887C55.9463 8.74295 56.9568 7.7263 58.275 7.7263L58.2781 7.72008Z" fill="#767677"/>
<path d="M67.1462 6.11607C66.6179 6.10701 66.0929 6.20212 65.6014 6.39598C65.1098 6.58983 64.6612 6.87863 64.2813 7.24587C63.9013 7.61311 63.5975 8.05161 63.387 8.53631C63.1766 9.02101 63.0637 9.54242 63.0547 10.0708V10.1578C63.049 11.2422 63.4742 12.2846 64.2368 13.0556C64.9994 13.8266 66.0369 14.2632 67.1214 14.2694C68.2058 14.2756 69.2483 13.8508 70.0196 13.0886C70.791 12.3263 71.228 11.2889 71.2346 10.2045C71.2346 7.50892 69.1143 6.11918 67.1493 6.11918L67.1462 6.11607ZM67.1711 7.72033C68.3432 7.72033 69.4531 8.65305 69.4531 10.2076C69.4531 11.7621 68.3463 12.6761 67.1649 12.6761C65.8653 12.6761 64.8393 11.6346 64.8393 10.1889C64.8393 8.74321 65.8498 7.72655 67.168 7.72655L67.1711 7.72033Z" fill="#767677"/>
<path d="M75.8773 6.11591C73.701 6.11591 71.9692 8.03108 71.9692 10.1856C71.9531 11.2363 72.3493 12.2515 73.0729 13.0134C73.7965 13.7754 74.7899 14.2235 75.84 14.2616C76.2642 14.2838 76.6877 14.2053 77.0757 14.0324C77.4637 13.8594 77.8052 13.597 78.0723 13.2667V14.0719C78.0723 15.4772 77.2204 16.3229 75.9332 16.3229C75.481 16.3171 75.0409 16.1761 74.6696 15.9178C74.2983 15.6596 74.0129 15.296 73.8502 14.8741L72.2957 15.5207C72.8398 16.6866 73.9559 17.9303 75.9457 17.9303C78.122 17.9303 79.7853 16.5592 79.7853 13.6864V6.36463H78.0723V7.04862C77.7943 6.74535 77.4545 6.50518 77.0759 6.34429C76.6973 6.1834 76.2886 6.10552 75.8773 6.11591ZM76.0358 7.70463C77.1085 7.70463 78.2122 8.62179 78.2122 10.1919C78.2122 11.7619 77.1116 12.6449 76.011 12.6449C74.8451 12.6449 73.76 11.7122 73.76 10.195C73.76 8.64045 74.8886 7.70774 76.039 7.70774L76.0358 7.70463Z" fill="#767677"/>
<path d="M87.376 6.11597C85.3116 6.11597 83.5767 7.75754 83.5767 10.1826C83.5577 10.7163 83.6474 11.2483 83.8403 11.7462C84.0333 12.2442 84.3255 12.6977 84.6992 13.0792C85.0728 13.4607 85.5202 13.7623 86.014 13.9656C86.5078 14.1688 87.0379 14.2696 87.5718 14.2616C88.2444 14.2647 88.9075 14.1035 89.5035 13.7919C90.0995 13.4804 90.6104 13.0279 90.9918 12.474L89.5834 11.5412C89.3802 11.8863 89.0894 12.1715 88.7406 12.3681C88.3917 12.5646 87.9971 12.6655 87.5967 12.6605C87.1777 12.6771 86.7634 12.5674 86.4075 12.3456C86.0515 12.1239 85.7705 11.8003 85.6007 11.4169L91.0602 9.1535L90.7772 8.49127C90.5144 7.80079 90.0503 7.20517 89.4449 6.78164C88.8395 6.35811 88.1209 6.1262 87.3822 6.11597H87.376ZM87.4475 7.67049C87.7555 7.65773 88.0608 7.73279 88.3277 7.88692C88.5947 8.04105 88.8124 8.2679 88.9554 8.54102L85.3085 10.0707C85.1499 8.88923 86.2691 7.6767 87.4475 7.6767V7.67049Z" fill="#767677"/>
<path d="M80.9727 14.0188H82.7666V2.021H80.9727V14.0188Z" fill="#767677"/>
<path d="M41.5039 27.8371V19.9712H44.3518C44.947 19.9622 45.5224 20.1852 45.9561 20.593C46.1733 20.7831 46.3461 21.0187 46.4622 21.283C46.5782 21.5474 46.6347 21.834 46.6276 22.1227C46.6461 22.4735 46.5528 22.8211 46.3611 23.1155C46.1695 23.4099 45.8894 23.636 45.5612 23.7611V23.8047C45.9482 23.9254 46.2868 24.166 46.5281 24.4917C46.769 24.8136 46.8969 25.2059 46.8919 25.6079C46.8996 25.9099 46.8413 26.2099 46.7211 26.487C46.6008 26.7641 46.4214 27.0116 46.1954 27.2122C45.7379 27.6318 45.1339 27.8551 44.5135 27.834H41.507L41.5039 27.8371ZM42.5143 20.935V23.3414H44.3487C44.5158 23.3455 44.6821 23.3154 44.8371 23.2528C44.9922 23.1902 45.1328 23.0966 45.2503 22.9776C45.4743 22.7639 45.6043 22.4701 45.6119 22.1606C45.6195 21.8511 45.504 21.5512 45.2907 21.3267L45.2596 21.2957C45.1483 21.178 45.0137 21.0848 44.8643 21.0222C44.715 20.9595 44.5541 20.9288 44.3922 20.9319H42.5268L42.5143 20.935ZM42.5143 24.2897V26.8702H44.5477C44.891 26.8735 45.2216 26.7405 45.467 26.5003C45.7124 26.2602 45.8525 25.9325 45.8566 25.5892C45.8568 25.4207 45.8227 25.2538 45.7564 25.0988C45.6901 24.9438 45.5931 24.8039 45.471 24.6876C45.3447 24.5608 45.1937 24.4612 45.0275 24.3949C44.8612 24.3286 44.6831 24.297 44.5041 24.3021H42.5112L42.5143 24.2897Z" fill="#767677"/>
<path d="M49.1661 20.5927C49.1653 20.7573 49.1075 20.9165 49.0025 21.0433C48.8975 21.17 48.7519 21.2565 48.5904 21.288C48.4288 21.3195 48.2614 21.294 48.1165 21.216C47.9716 21.1379 47.8582 21.0121 47.7956 20.8598C47.7331 20.7076 47.7252 20.5384 47.7733 20.381C47.8214 20.2236 47.9226 20.0878 48.0595 19.9966C48.1965 19.9053 48.3609 19.8644 48.5247 19.8807C48.6884 19.897 48.8415 19.9695 48.9578 20.0859C49.0253 20.1517 49.0786 20.2306 49.1144 20.3178C49.1502 20.4049 49.1678 20.4985 49.1661 20.5927ZM48.9578 22.4581V27.843H47.9474V22.4581H48.9578Z" fill="#767677"/>
<path d="M52.6074 30.3863C52.3214 30.3883 52.0367 30.3496 51.7617 30.2713C51.5076 30.2028 51.2646 30.0981 51.0404 29.9604C50.8275 29.823 50.6385 29.6519 50.4808 29.4536C50.3287 29.2681 50.2099 29.0578 50.1295 28.8318L51.087 28.4338C51.1914 28.7415 51.392 29.0075 51.6591 29.1925C51.9327 29.3825 52.2587 29.4825 52.5918 29.4785C52.8292 29.4923 53.0667 29.4554 53.2887 29.3701C53.5106 29.2849 53.7119 29.1533 53.879 28.9841C54.2042 28.6075 54.3703 28.1192 54.3422 27.6224V27.0907H54.2987C54.1042 27.3796 53.8372 27.6122 53.5245 27.7654C53.1959 27.9313 52.8325 28.0165 52.4643 28.0141C52.1202 28.016 51.7797 27.9433 51.4663 27.8011C51.1528 27.6588 50.8739 27.4505 50.6487 27.1902C50.1513 26.6288 49.8837 25.9006 49.8994 25.1507C49.8804 24.4027 50.1472 23.6756 50.6456 23.1174C50.869 22.8541 51.1472 22.6428 51.4609 22.4983C51.7745 22.3539 52.1159 22.2797 52.4612 22.2811C52.8294 22.2785 53.1928 22.3638 53.5214 22.5298C53.8341 22.6829 54.1011 22.9156 54.2956 23.2044H54.3391V22.4583H55.306V27.6131C55.3269 27.9842 55.2724 28.3557 55.1457 28.7051C55.0191 29.0546 54.823 29.3748 54.5692 29.6464C54.3085 29.8949 54.0005 30.0885 53.6634 30.2157C53.3264 30.3428 52.9673 30.4008 52.6074 30.3863ZM52.6416 27.0876C52.8719 27.0939 53.1007 27.0489 53.3115 26.9559C53.5222 26.8628 53.7097 26.7241 53.8603 26.5498C54.1792 26.1532 54.3531 25.6596 54.3531 25.1507C54.3531 24.6418 54.1792 24.1482 53.8603 23.7516C53.7109 23.575 53.524 23.4339 53.3131 23.3387C53.1023 23.2435 52.8728 23.1966 52.6416 23.2013C52.4105 23.1981 52.1815 23.2457 51.9709 23.3408C51.7603 23.4359 51.5732 23.5762 51.4228 23.7516C51.0847 24.1386 50.9078 24.6404 50.9285 25.1538C50.9072 25.6655 51.0843 26.1655 51.4228 26.5498C51.5735 26.7247 51.7608 26.8643 51.9713 26.9589C52.1819 27.0534 52.4107 27.1006 52.6416 27.097V27.0876Z" fill="#767677"/>
<path d="M65.811 27.8493L65.0151 28.3654L64.4741 27.5633C63.8871 27.857 63.2402 28.0113 62.5838 28.0141C62.0476 28.0257 61.5149 27.9259 61.0193 27.7209C60.5238 27.5159 60.0761 27.2103 59.7048 26.8233C58.9563 26.0338 58.5391 24.9873 58.5391 23.8993C58.5391 22.8113 58.9563 21.7648 59.7048 20.9752C60.083 20.5969 60.5321 20.2967 61.0263 20.0919C61.5206 19.8871 62.0503 19.7817 62.5853 19.7817C63.1203 19.7817 63.6501 19.8871 64.1443 20.0919C64.6386 20.2967 65.0876 20.5969 65.4659 20.9752C65.8478 21.3562 66.1481 21.811 66.3486 22.3119C66.549 22.8127 66.6454 23.3491 66.6318 23.8884C66.6356 24.4814 66.5137 25.0684 66.2742 25.6108C66.042 26.1454 65.6986 26.6245 65.2669 27.0161L65.811 27.8493ZM62.59 27.0472C63.0496 27.0471 63.5029 26.9407 63.9145 26.7363L62.9817 25.3497L63.7777 24.8118L64.6886 26.186C64.9902 25.8892 65.2263 25.5325 65.3815 25.1389C65.5368 24.7454 65.6079 24.3236 65.5902 23.9008C65.6054 23.4865 65.5363 23.0734 65.3872 22.6865C65.2381 22.2996 65.0121 21.9469 64.7228 21.6499C64.4479 21.36 64.1151 21.1311 63.7461 20.9779C63.3771 20.8247 62.9801 20.7507 62.5807 20.7607C62.1795 20.7511 61.7807 20.8252 61.4097 20.9783C61.0388 21.1314 60.7038 21.3601 60.4261 21.6499C59.8743 22.2699 59.5695 23.0709 59.5695 23.9008C59.5695 24.7308 59.8743 25.5318 60.4261 26.1518C60.7043 26.4439 61.0406 26.6744 61.4132 26.8286C61.7859 26.9829 62.1868 27.0573 62.59 27.0472Z" fill="#767677"/>
<path d="M72.381 27.8369H71.4141V27.0907H71.3706C71.1995 27.3723 70.9543 27.6014 70.6617 27.7529C70.3583 27.9249 70.0157 28.0159 69.6668 28.0172C69.3874 28.0352 69.1073 27.9941 68.8448 27.8966C68.5823 27.7991 68.3433 27.6474 68.1434 27.4514C67.7635 27.0042 67.5738 26.4262 67.6149 25.8409V22.4583H68.6253V25.7756C68.6481 26.6586 69.0896 27.1 69.9498 27.1C70.1441 27.101 70.3361 27.0572 70.5108 26.972C70.6855 26.8868 70.8382 26.7626 70.9571 26.6088C71.2297 26.28 71.3743 25.8637 71.3644 25.4367V22.4583H72.3748V27.8369H72.381Z" fill="#767677"/>
<path d="M75.9752 28.0142C75.6101 28.0247 75.247 27.9576 74.9099 27.8171C74.5727 27.6767 74.2693 27.4662 74.0196 27.1996C73.5018 26.6432 73.2257 25.9042 73.2517 25.1446C73.2288 24.3901 73.4984 23.656 74.0041 23.0957C74.2512 22.8404 74.5465 22.6367 74.8729 22.4962C75.1992 22.3557 75.5502 22.2813 75.9055 22.2773C76.2608 22.2732 76.6134 22.3396 76.9428 22.4726C77.2723 22.6056 77.5722 22.8026 77.8251 23.0522C78.3341 23.6586 78.5881 24.4387 78.5339 25.2285V25.3373H74.2839C74.2812 25.5745 74.3266 25.8097 74.4175 26.0289C74.5083 26.248 74.6427 26.4463 74.8124 26.612C75.006 26.8011 75.2419 26.9414 75.5005 27.0212C75.7591 27.101 76.0329 27.1181 76.2994 27.071C76.5659 27.0239 76.8174 26.914 77.0329 26.7503C77.2485 26.5867 77.422 26.3741 77.539 26.1301L78.4407 26.5685C78.2112 27.0101 77.8635 27.3793 77.4364 27.6349C76.9933 27.8928 76.4878 28.024 75.9752 28.0142ZM74.3585 24.4979H77.4458C77.4353 24.3199 77.3895 24.1457 77.3111 23.9856C77.2326 23.8254 77.123 23.6825 76.9887 23.5652C76.68 23.3086 76.286 23.1776 75.885 23.1983C75.5256 23.1911 75.176 23.3161 74.9026 23.5496C74.6213 23.7955 74.4299 24.128 74.3585 24.4948V24.4979Z" fill="#767677"/>
<path d="M80.4675 27.837H79.457V22.4584H80.4239V23.3382H80.4675C80.5864 23.0315 80.8055 22.774 81.0893 22.6076C81.3642 22.4171 81.6878 22.3093 82.022 22.2967C82.2772 22.2906 82.531 22.336 82.7682 22.4304L82.4573 23.4097C82.2656 23.3484 82.0644 23.3221 81.8634 23.332C81.674 23.3326 81.4869 23.3743 81.3151 23.4543C81.1433 23.5343 80.991 23.6506 80.8685 23.7952C80.5946 24.0861 80.4431 24.4714 80.4457 24.871V27.8401L80.4675 27.837Z" fill="#767677"/>
<path d="M88.37 22.4583L85.0029 30.2308H83.9583L85.2019 27.5167L82.9883 22.4583H84.0889L85.6931 26.329H85.7149L87.2694 22.4583H88.3607H88.37Z" fill="#767677"/>
</svg>
