<svg width="49" height="54" viewBox="0 0 49 54" fill="none" xmlns="http://www.w3.org/2000/svg">
<g clip-path="url(#clip0_5716_22013)">
<path d="M35.5293 27.25C42.7996 27.25 48.75 33.2126 48.75 40.5C48.75 47.7874 42.7996 53.75 35.5293 53.75C28.259 53.75 22.3086 47.7874 22.3086 40.5C22.3086 33.2126 28.259 27.25 35.5293 27.25ZM35.5293 30.125C29.8341 30.125 25.1768 34.7937 25.1768 40.5C25.1768 46.2063 29.8341 50.875 35.5293 50.875C41.2246 50.875 45.8828 46.2063 45.8828 40.5C45.8828 34.7937 41.2246 30.125 35.5293 30.125Z" fill="#F15A29" stroke="#F3F3F3" stroke-width="0.5"/>
<path d="M36.9619 34V39.0625H42.0127V41.9375H34.0938V34H36.9619Z" fill="#F15A29" stroke="#F3F3F3" stroke-width="0.5"/>
<path d="M8.41797 6.75H11.7857V10.125H8.41797V6.75Z" fill="#F15A29"/>
<path d="M8.41797 20.25H11.7857V23.625H8.41797V20.25Z" fill="#F15A29"/>
<path d="M8.41797 33.75H11.7857V37.125H8.41797V33.75Z" fill="#F15A29"/>
<path d="M40.6621 17.4463L40.5889 17.373L39.916 16.6982L39.8428 16.625H3.9375L3.86426 16.6982L3.19043 17.373L3.11816 17.4463V26.4287L3.19043 26.502L3.86426 27.1768L3.9375 27.25H18.2725V30.125H3.9375L3.86426 30.1982L3.19043 30.873L3.11816 30.9463V39.9287L3.19043 40.002L3.86426 40.6768L3.9375 40.75H18.2725V43.625H2.79785L0.25 41.0713V29.8027L1.1875 28.8643L1.36328 28.6875L1.1875 28.5107L0.25 27.5713V16.3027L1.1875 15.3643L1.36328 15.1875L1.1875 15.0107L0.25 14.0713V2.80273L2.79785 0.25H40.9824L43.5303 2.80273V14.0713L42.5928 15.0107L42.417 15.1875L42.5928 15.3643L43.5303 16.3027V23.375H40.6621V17.4463ZM40.6621 3.94629L40.5889 3.87305L39.916 3.19824L39.8428 3.125H3.9375L3.86426 3.19824L3.19043 3.87305L3.11816 3.94629V12.9287L3.19043 13.002L3.86426 13.6768L3.9375 13.75H39.8428L39.916 13.6768L40.5889 13.002L40.6621 12.9287V3.94629Z" fill="#F15A29" stroke="#F3F3F3" stroke-width="0.5"/>
</g>
<defs>
<clipPath id="clip0_5716_22013">
<rect width="49" height="54" fill="#F15A29"/>
</clipPath>
</defs>
</svg>
