<svg width="100" height="24" viewBox="0 0 100 24" fill="none" xmlns="http://www.w3.org/2000/svg">
<g clip-path="url(#clip0_5716_21907)">
<path d="M20.742 18.36L15.8051 15.4687C15.1115 15.0638 14.2246 15.3046 13.8231 16.0077C13.6676 16.2847 13.6066 16.5894 13.6361 16.8856V22.5361C13.6361 23.3437 14.2834 23.9999 15.0821 23.9999C15.8786 23.9999 16.526 23.3437 16.526 22.5361V19.2869L19.2918 20.9062C19.9854 21.3131 20.8744 21.0702 21.2738 20.3671C21.6752 19.664 21.4377 18.7648 20.742 18.36Z" fill="#29B5E8"/>
<path d="M8.46651 12.1641C8.47492 11.6421 8.20379 11.1563 7.75822 10.8942L2.82125 8.00499C2.60688 7.87928 2.36098 7.81323 2.11507 7.81323C1.60855 7.81323 1.13777 8.08809 0.885559 8.53127C0.494637 9.21735 0.72793 10.0973 1.40469 10.4936L4.25043 12.1577L1.40469 13.8239C1.07682 14.0156 0.841423 14.3246 0.744743 14.6953C0.645962 15.0661 0.696403 15.4539 0.885559 15.7862C1.13777 16.2294 1.60856 16.5043 2.11297 16.5043C2.36098 16.5043 2.60688 16.4382 2.82125 16.3125L7.75822 13.4233C8.19959 13.1634 8.47071 12.6818 8.46651 12.1641Z" fill="#29B5E8"/>
<path d="M3.93739 5.95765L8.87436 8.84686C9.45024 9.18563 10.1606 9.07484 10.6146 8.62527C10.9025 8.3568 11.0812 7.97328 11.0812 7.54714V1.75595C11.0812 0.946289 10.4338 0.290039 9.63729 0.290039C8.83863 0.290039 8.1913 0.946289 8.1913 1.75595V5.05211L5.38759 3.41149C4.69402 3.00453 3.80708 3.24529 3.40565 3.94842C3.00422 4.65154 3.24382 5.55069 3.93739 5.95765Z" fill="#29B5E8"/>
<path d="M15.0403 12.3984C15.0403 12.5092 14.9772 12.6626 14.8995 12.7435L12.9428 14.7272C12.865 14.806 12.7116 14.87 12.6023 14.87H12.1042C11.9949 14.87 11.8415 14.806 11.7637 14.7272L9.80488 12.7435C9.72711 12.6626 9.66406 12.5092 9.66406 12.3984V11.8934C9.66406 11.7805 9.72711 11.6271 9.80488 11.5482L11.7637 9.56243C11.8415 9.4836 11.9949 9.41968 12.1042 9.41968H12.6023C12.7116 9.41968 12.865 9.4836 12.9428 9.56243L14.8995 11.5482C14.9772 11.6271 15.0403 11.7805 15.0403 11.8934V12.3984ZM13.2938 12.1555V12.1342C13.2938 12.0532 13.2475 11.9403 13.1908 11.8806L12.6128 11.2968C12.556 11.2371 12.4447 11.1903 12.3627 11.1903H12.3417C12.2618 11.1903 12.1504 11.2371 12.0916 11.2968L11.5157 11.8806C11.4589 11.9381 11.4127 12.0511 11.4127 12.1342V12.1555C11.4127 12.2386 11.4589 12.3515 11.5157 12.409L12.0916 12.995C12.1504 13.0525 12.2618 13.0994 12.3417 13.0994H12.3627C12.4447 13.0994 12.556 13.0525 12.6128 12.995L13.1908 12.409C13.2475 12.3515 13.2938 12.2386 13.2938 12.1555Z" fill="#29B5E8"/>
<path d="M15.8045 8.84686L20.7415 5.95765C21.435 5.55282 21.6746 4.65154 21.2732 3.94842C20.8718 3.24529 19.9848 3.00453 19.2913 3.41149L16.5254 5.03081V1.75595C16.5254 0.946289 15.878 0.290039 15.0815 0.290039C14.2828 0.290039 13.6355 0.946289 13.6355 1.75595V7.43208C13.6082 7.72612 13.6649 8.03294 13.8225 8.30993C14.224 9.01305 15.1109 9.25382 15.8045 8.84686Z" fill="#29B5E8"/>
<path d="M9.86428 15.2986C9.53641 15.2347 9.18542 15.288 8.87436 15.4691L3.93739 18.3604C3.24382 18.7653 3.00422 19.6644 3.40565 20.3675C3.80708 21.0728 4.69402 21.3136 5.38759 20.9066L8.1913 19.266V22.5366C8.1913 23.3441 8.83863 24.0003 9.63729 24.0003C10.4338 24.0003 11.0812 23.3441 11.0812 22.5366V16.7454C11.0812 16.0146 10.5536 15.4094 9.86428 15.2986Z" fill="#29B5E8"/>
<path d="M23.8317 8.51427C23.4324 7.80901 22.5433 7.56825 21.8498 7.97521L16.9128 10.8644C16.4399 11.1414 16.1793 11.6485 16.1877 12.1641C16.1835 12.6776 16.4441 13.1783 16.9128 13.4511L21.8498 16.3424C22.5433 16.7472 23.4303 16.5065 23.8317 15.8033C24.2331 15.1002 23.9935 14.2011 23.3 13.7941L20.5047 12.1577L23.3 10.5214C23.9956 10.1165 24.2331 9.2174 23.8317 8.51427Z" fill="#29B5E8"/>
<path d="M99.6972 11.8187V11.8208V11.8741C99.6972 12.1468 99.4723 12.3492 99.1948 12.3492H92.2591C92.2717 12.5154 92.2928 12.6774 92.3264 12.8372C92.6479 14.3606 93.9342 15.4941 95.4622 15.5069C95.4664 15.5069 95.5441 15.5069 95.6639 15.5069C95.6829 15.5069 95.7018 15.5069 95.7207 15.5069H95.8657C95.8972 15.5069 95.9288 15.5069 95.9624 15.5048C95.9918 15.5048 96.0212 15.5026 96.0507 15.5005C96.0528 15.5005 96.0549 15.5005 96.057 15.4984C96.5635 15.4579 97.0742 15.2512 97.5303 14.9188C97.5303 14.9188 97.5303 14.9188 97.5324 14.9188C97.5555 14.9018 97.5807 14.8826 97.6038 14.8634C97.608 14.8613 97.6122 14.857 97.6185 14.8528C97.6375 14.8379 97.6585 14.8208 97.6795 14.8038C97.6879 14.7974 97.6942 14.791 97.7026 14.7846C97.7194 14.7718 97.7362 14.7569 97.7531 14.742C97.7636 14.7335 97.7762 14.7228 97.7867 14.7143C97.7993 14.7015 97.8119 14.6887 97.8266 14.6781C97.8392 14.6653 97.8539 14.6525 97.8666 14.6397C97.8771 14.6312 97.8876 14.6205 97.8981 14.6099C97.9149 14.595 97.9296 14.5801 97.9464 14.5651C97.9548 14.5566 97.9632 14.546 97.9716 14.5374C97.9885 14.5204 98.0053 14.5034 98.0221 14.4863C98.0305 14.4778 98.0368 14.4714 98.0452 14.4629C98.062 14.4437 98.0788 14.4245 98.0956 14.4053C98.104 14.3989 98.1104 14.3904 98.1167 14.3819C98.1356 14.3627 98.1524 14.3436 98.1692 14.3244C98.1755 14.3159 98.1839 14.3073 98.1902 14.2988C98.207 14.2775 98.2217 14.2583 98.2386 14.2391C98.247 14.2285 98.2554 14.2178 98.2638 14.2072C98.2785 14.188 98.2932 14.171 98.3058 14.1539C98.3184 14.1369 98.3289 14.122 98.3394 14.107C98.3499 14.0921 98.3605 14.0793 98.371 14.0644C98.3878 14.041 98.4046 14.0176 98.4193 13.9941C98.4256 13.9856 98.4298 13.9792 98.434 13.9728C98.4761 13.911 98.516 13.8471 98.5559 13.7811C98.5559 13.7811 98.5559 13.7789 98.558 13.7768C98.5664 13.7619 98.5769 13.7491 98.5874 13.7342C98.5916 13.7278 98.5959 13.7214 98.6022 13.7171C98.6085 13.7065 98.6169 13.7001 98.6232 13.6916C98.6295 13.6852 98.6358 13.6788 98.6421 13.6724C98.6505 13.666 98.6568 13.6596 98.6652 13.6532C98.6715 13.6468 98.6778 13.6404 98.6862 13.6362C98.6967 13.6276 98.7093 13.6191 98.722 13.6127C98.7304 13.6063 98.7409 13.5999 98.7493 13.5957C98.7598 13.5914 98.7682 13.5872 98.7766 13.5829C98.785 13.5786 98.7934 13.5765 98.7997 13.5722C98.8123 13.568 98.8228 13.5659 98.8354 13.5616C98.8418 13.5595 98.846 13.5573 98.8523 13.5552C98.8922 13.5467 98.9342 13.5403 98.9742 13.5403C99.0183 13.5403 99.0645 13.5467 99.1066 13.5595C99.1087 13.5595 99.1087 13.5595 99.1108 13.5595C99.1276 13.5659 99.1465 13.5701 99.1633 13.5786C99.1675 13.5808 99.1717 13.5808 99.1759 13.5829C99.1948 13.5914 99.2117 13.5999 99.2285 13.6106L99.2369 13.6149C99.4681 13.7853 99.5395 14.0836 99.3987 14.3286L99.3966 14.3308C99.3798 14.3585 99.363 14.3862 99.3462 14.4117C99.342 14.4181 99.3378 14.4245 99.3336 14.4309C98.8418 15.1894 98.1734 15.7945 97.4273 16.1568C97.4105 16.1632 97.3958 16.1717 97.3789 16.1802C97.3768 16.1802 97.3726 16.1823 97.3705 16.1823C97.0259 16.3443 96.656 16.4572 96.2608 16.5041C96.2524 16.5041 96.244 16.5062 96.2356 16.5062C96.202 16.5105 96.1684 16.5147 96.1347 16.5168C96.1158 16.5168 96.0969 16.519 96.0759 16.5211C96.0528 16.5211 96.0275 16.5232 96.0044 16.5254C95.9582 16.5254 95.9119 16.5275 95.8657 16.5275C95.8594 16.5275 95.685 16.5275 95.5673 16.5275C95.5 16.5275 95.4622 16.5275 95.458 16.5275C93.125 16.5105 91.2461 14.5374 91.2461 12.1212C91.2461 9.66457 93.1377 7.68091 95.4895 7.68091C95.5588 7.68091 95.6282 7.68304 95.6976 7.68517C96.5172 7.72778 97.2739 8.01116 97.9023 8.47565C97.9044 8.47778 97.9065 8.47991 97.9086 8.47991C97.9443 8.50548 97.9779 8.53318 98.0116 8.55875C98.0284 8.57366 98.0473 8.58858 98.0662 8.60349C98.083 8.61628 98.0998 8.63119 98.1167 8.64398C99.0015 9.39185 99.5984 10.5147 99.6972 11.8144V11.8187ZM92.3264 11.3457H98.6043C98.2932 9.81159 96.9922 8.7015 95.4895 8.7015C93.9594 8.7015 92.669 9.79028 92.3264 11.3457Z" fill="#29B5E8"/>
<path d="M81.9597 7.83006C82.0375 7.90889 82.09 8.01542 82.1026 8.139C82.1026 8.15605 82.1047 8.1731 82.1047 8.19014V16.0161C82.1047 16.2953 81.8736 16.5275 81.6003 16.5275C81.3271 16.5275 81.098 16.2953 81.098 16.0161V14.9764C80.9068 15.2107 80.6966 15.4238 80.4675 15.6092C80.4612 15.6156 80.4549 15.6198 80.4486 15.6262C80.4276 15.6433 80.4044 15.6603 80.3834 15.6752C79.6899 16.2164 78.8471 16.5275 77.9664 16.5275C76.5478 16.5275 75.2993 15.7626 74.5553 14.6035C74.549 14.595 74.5406 14.5843 74.5343 14.5758C74.5133 14.5396 74.4923 14.5034 74.4692 14.465C74.4544 14.4416 74.4418 14.4181 74.4271 14.3947C74.4124 14.3712 74.3998 14.3457 74.3872 14.3201C74.3662 14.2839 74.3452 14.2455 74.3262 14.2093C74.3199 14.1965 74.3157 14.1837 74.3094 14.171C74.0341 13.617 73.8639 12.9927 73.8344 12.3301C73.8302 12.2555 73.8281 12.1809 73.8281 12.1042C73.8281 12.0275 73.8302 11.9529 73.8344 11.8784C73.8639 11.2157 74.0341 10.5914 74.3094 10.0353C74.3157 10.0247 74.3199 10.0119 74.3262 9.99909C74.3452 9.96287 74.3662 9.92452 74.3872 9.88829C74.3998 9.86273 74.4124 9.83716 74.4271 9.81372C74.4397 9.79028 74.4544 9.76685 74.4692 9.74341C74.4902 9.70719 74.5133 9.66883 74.5343 9.63261C74.5406 9.62409 74.549 9.61344 74.5553 9.60491C75.2993 8.44582 76.5478 7.68091 77.9664 7.68091C78.9248 7.68091 79.8307 8.03673 80.5516 8.65676C80.7491 8.82508 80.932 9.01045 81.098 9.215V8.19014C81.098 8.1731 81.098 8.15605 81.1001 8.139C81.1127 8.01542 81.1653 7.90889 81.243 7.83006C81.243 7.83006 81.243 7.83006 81.243 7.82792C81.2514 7.8194 81.262 7.81301 81.2704 7.80449C81.2725 7.80236 81.2767 7.7981 81.2788 7.79597C81.2851 7.78957 81.2935 7.78531 81.2998 7.78105C81.3061 7.77679 81.3124 7.7704 81.3187 7.76614C81.3229 7.764 81.3271 7.76187 81.3313 7.75761C81.3418 7.75335 81.3502 7.74696 81.3607 7.74057C81.3628 7.74057 81.3649 7.73844 81.367 7.73844C81.3797 7.73204 81.3923 7.72565 81.4049 7.71926C81.4049 7.71926 81.4049 7.71926 81.407 7.71926C81.4364 7.70648 81.4679 7.69795 81.4994 7.69156C81.5016 7.69156 81.5058 7.68943 81.5079 7.68943C81.5205 7.6873 81.5352 7.68517 81.5499 7.68304C81.5667 7.68304 81.5835 7.68091 81.6003 7.68091C81.6192 7.68091 81.6361 7.68304 81.6529 7.68304C81.6676 7.68517 81.6802 7.6873 81.6949 7.68943C81.697 7.68943 81.6991 7.69156 81.7033 7.69156C81.7348 7.69795 81.7664 7.70648 81.7958 7.71926H81.7979C81.8105 7.72565 81.8231 7.73204 81.8336 7.73844C81.8378 7.73844 81.8399 7.74057 81.842 7.74057C81.8504 7.74696 81.8609 7.75335 81.8694 7.75761C81.8736 7.76187 81.8799 7.764 81.8841 7.76614C81.8904 7.7704 81.8967 7.77679 81.903 7.78105C81.9093 7.78531 81.9156 7.78957 81.9219 7.79597C81.9261 7.7981 81.9282 7.80236 81.9324 7.80449C81.9408 7.81301 81.9513 7.8194 81.9576 7.82792C81.9597 7.83006 81.9597 7.83006 81.9597 7.83006ZM77.9664 15.5069C79.692 15.5069 81.098 13.9813 81.098 12.1042C81.098 10.2186 79.692 8.68446 77.9664 8.68446C76.2535 8.68446 74.8349 10.2164 74.8349 12.1042C74.8349 12.1639 74.837 12.2214 74.8391 12.2789C74.8391 12.3045 74.8433 12.3279 74.8433 12.3514C74.8454 12.3855 74.8475 12.4195 74.8517 12.4515C74.8538 12.4792 74.858 12.5048 74.8601 12.5303C74.8643 12.5602 74.8664 12.5921 74.8706 12.622C74.8748 12.6454 74.879 12.6667 74.8811 12.688C74.8874 12.7221 74.8916 12.7562 74.8979 12.7903C74.9021 12.8073 74.9063 12.8222 74.9084 12.8372C74.9168 12.8776 74.9252 12.916 74.9336 12.9565C74.9357 12.965 74.9378 12.9735 74.942 12.982C75.2993 14.4394 76.5267 15.5069 77.9664 15.5069Z" fill="#29B5E8"/>
<path d="M69.3243 3.99072H69.1877C69.1709 3.99072 69.152 3.99072 69.1351 3.99285C69.1162 3.99072 69.0994 3.99072 69.0805 3.99072C69.0322 3.99072 68.9838 3.99072 68.9355 3.99285C68.9271 3.99285 68.9166 3.99498 68.9082 3.99498C68.8703 3.99498 68.8325 3.99711 68.7947 4.00138C68.7884 4.00138 68.78 4.00138 68.7736 4.00138C68.7337 4.00564 68.6959 4.00777 68.6581 4.01203C68.6539 4.01416 68.6496 4.01416 68.6454 4.01416C68.6034 4.02055 68.5635 4.02481 68.5256 4.03121C68.5235 4.03121 68.5214 4.03121 68.5214 4.03121C68.2671 4.07169 68.038 4.14413 67.8342 4.2464C67.8342 4.24854 67.8321 4.24854 67.83 4.24854C67.8005 4.26558 67.769 4.28263 67.7396 4.29967C67.7333 4.3018 67.7291 4.30606 67.7228 4.31033C67.6976 4.32524 67.6723 4.34015 67.6471 4.3572C67.6366 4.36359 67.6282 4.37212 67.6198 4.37851C67.5988 4.39129 67.5799 4.40621 67.5588 4.42112C67.5441 4.4339 67.5294 4.44669 67.5147 4.45734C67.5021 4.468 67.4895 4.47865 67.4769 4.4893C67.4538 4.51061 67.4327 4.52979 67.4117 4.55109C67.4075 4.55535 67.4033 4.55961 67.3991 4.56388C67.3739 4.59158 67.3487 4.61714 67.3235 4.64484C67.3193 4.65123 67.315 4.65763 67.3108 4.66189C67.2898 4.68533 67.2688 4.70876 67.2499 4.7322C67.2436 4.74285 67.2352 4.75351 67.2289 4.76416C67.2121 4.78547 67.1974 4.80464 67.1826 4.82595C67.1784 4.83447 67.1742 4.84086 67.1679 4.84726C67.1511 4.87283 67.1343 4.89839 67.1196 4.92396C67.1175 4.92822 67.1154 4.93035 67.1133 4.93462C66.9767 5.1626 66.88 5.43106 66.819 5.75493C66.819 5.75919 66.819 5.76558 66.8169 5.76984C66.8085 5.81033 66.8022 5.85294 66.7959 5.89555C66.7938 5.90834 66.7917 5.92112 66.7917 5.9339C66.7854 5.97013 66.7812 6.00635 66.777 6.0447C66.7749 6.06601 66.7728 6.08731 66.7707 6.11075C66.7665 6.14058 66.7623 6.16828 66.7602 6.20024C66.7581 6.2322 66.756 6.26416 66.7539 6.29825C66.7518 6.31956 66.7518 6.34086 66.7497 6.3643C66.7476 6.40905 66.7455 6.45592 66.7434 6.5028C66.7434 6.51558 66.7413 6.5241 66.7413 6.53476C66.7392 6.59442 66.7392 6.65621 66.7392 6.71587V7.55748H65.6925C65.6274 7.55535 65.5622 7.56814 65.5034 7.58944C65.3142 7.65976 65.1797 7.84086 65.1797 8.0518C65.1797 8.24996 65.2764 8.41828 65.4277 8.51629C65.5034 8.5653 65.5916 8.59513 65.6883 8.59939H65.6925V8.60152H66.7392V16.0333C66.7371 16.044 66.7392 16.0525 66.7392 16.0632C66.7392 16.0696 66.7392 16.076 66.7392 16.0823C66.7455 16.2017 66.7938 16.3103 66.8716 16.3934L66.8737 16.3956C66.8842 16.4062 66.8968 16.4169 66.9073 16.4275C66.9094 16.4296 66.9115 16.4296 66.9136 16.4318C66.922 16.4403 66.9325 16.4467 66.9409 16.4531C66.9451 16.4573 66.9514 16.4616 66.9557 16.4637C66.9599 16.468 66.9641 16.4701 66.9704 16.4723C67.0523 16.5255 67.149 16.5554 67.252 16.5554C67.2688 16.5554 67.2856 16.5532 67.3003 16.5511C67.3991 16.5426 67.4895 16.5 67.5631 16.4382L67.5652 16.436C67.5757 16.4275 67.5841 16.419 67.5925 16.4083C67.5946 16.4062 67.5988 16.4041 67.6009 16.4019C67.6093 16.3934 67.6156 16.3849 67.6219 16.3785C67.7018 16.2805 67.7459 16.159 67.7396 16.0333V8.60152H68.8661V8.59939H68.8703C69.1688 8.58447 69.3874 8.34797 69.3789 8.05393C69.3789 8.0518 69.3789 8.0518 69.3789 8.04967C69.3811 8.03902 69.3789 8.02837 69.3789 8.01771C69.3789 8.01345 69.3789 8.00919 69.3789 8.00706C69.3705 7.89413 69.3222 7.79186 69.2465 7.71302C69.2465 7.71302 69.2465 7.71302 69.2465 7.71089C69.2444 7.71089 69.2444 7.71089 69.2444 7.71089C69.2339 7.70024 69.2255 7.69172 69.215 7.6832C69.2108 7.67893 69.2066 7.6768 69.2045 7.67254C69.1961 7.66615 69.1898 7.66189 69.1814 7.6555C69.1751 7.65123 69.1667 7.64484 69.1604 7.64058C69.1562 7.63845 69.1499 7.63419 69.1457 7.63206C69.1351 7.62567 69.1246 7.61927 69.1141 7.61501C69.112 7.61288 69.1078 7.61075 69.1057 7.61075C69.0931 7.60436 69.0805 7.59797 69.0679 7.59371C69.0658 7.59158 69.0637 7.59158 69.0595 7.58944C69.0469 7.58518 69.0343 7.58092 69.0217 7.57666C69.0175 7.57666 69.0132 7.57453 69.009 7.57453C68.9964 7.5724 68.9859 7.56814 68.9733 7.56601C68.967 7.56601 68.9607 7.56601 68.9544 7.56388C68.946 7.56175 68.9355 7.56175 68.925 7.55962C68.9166 7.55962 68.9082 7.55962 68.9019 7.55962C68.8955 7.55962 68.8892 7.55748 68.8829 7.55748C68.8766 7.55748 68.8682 7.55748 68.8661 7.55748H67.7396V6.718C67.7396 6.7116 67.7396 6.70521 67.7396 6.70095C67.7417 6.65834 67.7417 6.61572 67.7438 6.57524C67.7438 6.56459 67.7438 6.5518 67.7459 6.54115C67.7459 6.50493 67.748 6.46871 67.7501 6.43462C67.7501 6.42822 67.7522 6.4197 67.7522 6.41331C67.7543 6.37283 67.7585 6.33234 67.7627 6.29399C67.8026 5.87851 67.8909 5.61643 67.9834 5.45663C67.9855 5.45237 67.9855 5.45024 67.9876 5.44598C67.9939 5.43533 68.0023 5.42467 68.0086 5.41402C68.0128 5.4055 68.0191 5.39697 68.0254 5.38845C68.0275 5.38419 68.0317 5.37567 68.0359 5.3714C68.0465 5.35649 68.057 5.34371 68.0696 5.33092C68.202 5.17964 68.4079 5.08802 68.7064 5.0518C68.7106 5.0518 68.7127 5.04967 68.719 5.04967C68.7358 5.04754 68.7547 5.04541 68.7715 5.04541C68.78 5.04328 68.7905 5.04328 68.7989 5.04115C68.8157 5.04115 68.8304 5.03902 68.8472 5.03902C68.8598 5.03902 68.8703 5.03689 68.885 5.03689C68.8998 5.03476 68.9145 5.03476 68.9292 5.03476C68.9439 5.03476 68.9586 5.03263 68.9733 5.03263C68.988 5.03263 69.0027 5.03263 69.0175 5.03263C69.0385 5.03263 69.0595 5.03263 69.0805 5.03263H69.0826C69.0994 5.03263 69.1141 5.0305 69.1309 5.02837C69.1499 5.0305 69.1688 5.03263 69.1877 5.03263H69.3243C69.6059 5.03263 69.8371 4.79825 69.8371 4.51061C69.8371 4.22297 69.6059 3.99072 69.3243 3.99072Z" fill="#29B5E8"/>
<path d="M72.0346 4.00575C72.0346 4.00575 72.0325 4.00362 72.0304 4.00362C72.0199 3.99936 72.0115 3.9951 71.9989 3.99296C71.9947 3.99083 71.9884 3.9887 71.9821 3.98657C71.9737 3.98444 71.9652 3.98231 71.9568 3.98018C71.9484 3.97805 71.94 3.97379 71.9337 3.97379C71.9232 3.97166 71.9148 3.96953 71.9043 3.96953C71.8959 3.9674 71.8896 3.9674 71.8812 3.96527C71.8644 3.96313 71.8454 3.96313 71.8286 3.96313C71.5554 3.96313 71.3242 4.19538 71.3242 4.47237V16.0164C71.3242 16.2955 71.5554 16.5278 71.8286 16.5278C71.8454 16.5278 71.8644 16.5278 71.8812 16.5256C71.8833 16.5256 71.8875 16.5235 71.8896 16.5235C71.9043 16.5214 71.919 16.5192 71.9337 16.5171C71.9358 16.5171 71.94 16.515 71.9442 16.515C71.9568 16.5107 71.9695 16.5086 71.9821 16.5043C71.9842 16.5043 71.9863 16.5043 71.9884 16.5022C72.1817 16.4404 72.3246 16.2742 72.3457 16.0697C72.3478 16.0526 72.3499 16.0356 72.3499 16.0164V4.47237C72.3499 4.45532 72.3478 4.43828 72.3457 4.42123C72.3267 4.23373 72.2048 4.07819 72.0346 4.00575Z" fill="#29B5E8"/>
<path d="M33.4481 13.8109C33.4439 13.7811 33.4439 13.7534 33.4397 13.7257C33.4376 13.7043 33.4355 13.6852 33.4334 13.666C33.4292 13.6426 33.4271 13.6212 33.4229 13.5978C33.4186 13.5765 33.4144 13.5552 33.4102 13.5318C33.4081 13.5147 33.4039 13.4955 33.3997 13.4785C33.3934 13.4529 33.3892 13.4295 33.3829 13.4039C33.3787 13.3911 33.3745 13.3762 33.3703 13.3634C33.364 13.3357 33.3556 13.3102 33.3451 13.2846C33.343 13.2739 33.3388 13.2633 33.3367 13.2548C33.3262 13.2249 33.3157 13.1972 33.3031 13.1674C33.301 13.1632 33.2988 13.1568 33.2967 13.1504C33.282 13.1205 33.2694 13.0886 33.2547 13.0587C33.2526 13.0566 33.2526 13.0545 33.2505 13.0524C33.1307 12.8073 32.9605 12.6028 32.7524 12.4302C32.7524 12.4281 32.7524 12.4281 32.7503 12.4281C32.7209 12.4046 32.6914 12.3791 32.6599 12.3556C32.6599 12.3556 32.6578 12.3535 32.6557 12.3514C32.6536 12.3514 32.6515 12.3492 32.6494 12.3471C32.6305 12.3343 32.6116 12.3194 32.5948 12.3066C32.3363 12.1212 32.0504 11.9742 31.6343 11.8123C31.628 11.8102 31.6217 11.808 31.6154 11.8059C31.6091 11.8016 31.6007 11.7995 31.5943 11.7953C31.359 11.7058 31.1152 11.6205 30.865 11.5374C30.865 11.5374 30.865 11.5374 30.8629 11.5374C30.8629 11.5374 30.8608 11.5374 30.8608 11.5353C30.8566 11.5353 30.8524 11.5332 30.8461 11.5311C30.823 11.5225 30.7978 11.514 30.7642 11.5034C30.7473 11.4991 30.7347 11.4948 30.7221 11.4906C30.6381 11.4607 30.5519 11.433 30.4657 11.4032C30.4048 11.3819 30.3396 11.3606 30.2618 11.335C30.2408 11.3286 30.1904 11.3116 30.1484 11.2988C30.1463 11.2988 30.1463 11.2967 30.1441 11.2967C30.1189 11.2882 30.0937 11.2796 30.0664 11.2711C29.8562 11.2029 29.6839 11.1433 29.5368 11.0879C29.2972 10.9984 29.0786 10.9025 28.8999 10.7874C28.8957 10.7853 28.8915 10.7832 28.8894 10.7811C28.6456 10.6234 28.4775 10.4295 28.4375 10.1759L28.4354 10.1738C28.4333 10.1568 28.4312 10.1376 28.4312 10.1205C28.4291 10.1163 28.4291 10.1141 28.4291 10.112C28.427 10.0907 28.427 10.0715 28.427 10.0502C28.427 10.0204 28.4291 9.99057 28.4312 9.96287C28.4312 9.95435 28.4312 9.94795 28.4333 9.94156C28.4354 9.91812 28.4375 9.89682 28.4396 9.87551C28.4417 9.86912 28.4417 9.86273 28.4438 9.85633C28.4481 9.8329 28.4523 9.81159 28.4565 9.78815C28.4586 9.78602 28.4586 9.78176 28.4607 9.7775C28.467 9.75193 28.4733 9.72849 28.4817 9.70506C28.4817 9.70292 28.4817 9.70293 28.4817 9.70293C28.591 9.37267 28.8495 9.12764 29.1542 8.95506C29.1753 8.9444 29.1963 8.93375 29.2152 8.9231C29.2362 8.91244 29.2551 8.90179 29.274 8.89327C29.3056 8.87835 29.3371 8.86344 29.3686 8.85065C29.3875 8.84213 29.4043 8.83361 29.4233 8.82722C29.4569 8.81443 29.4905 8.80165 29.5241 8.78886C29.541 8.78247 29.5599 8.77608 29.5788 8.76969C29.6124 8.75903 29.6439 8.74838 29.6776 8.73986C29.6986 8.73347 29.7175 8.72707 29.7385 8.72281C29.77 8.71429 29.8016 8.7079 29.831 8.69937C29.852 8.69511 29.873 8.69085 29.894 8.68659C29.9277 8.6802 29.9592 8.67381 29.9886 8.66954C30.0075 8.66741 30.0244 8.66528 30.0433 8.66102C30.079 8.65676 30.1168 8.6525 30.1547 8.65037C30.1631 8.64824 30.1715 8.64824 30.182 8.64611C30.2282 8.64398 30.2745 8.64185 30.3186 8.64185C30.3711 8.64185 30.4237 8.64398 30.4741 8.64611C30.4825 8.64611 30.4909 8.64611 30.4972 8.64611C30.8692 8.66954 31.1698 8.76116 31.4178 8.88261C31.4367 8.89114 31.4556 8.90179 31.4745 8.91031C31.4851 8.9167 31.4956 8.9231 31.5061 8.92736C31.5292 8.94014 31.5523 8.95293 31.5775 8.96784C31.5817 8.96997 31.5859 8.9721 31.5901 8.97423C31.6154 8.98915 31.6406 9.00619 31.6658 9.02111C31.6679 9.02324 31.67 9.02324 31.67 9.02324C31.6973 9.04028 31.7247 9.05946 31.752 9.0765C31.752 9.07864 31.7541 9.07864 31.7541 9.08077C31.7814 9.09781 31.8066 9.11486 31.8318 9.13403C31.8424 9.14256 31.8508 9.14895 31.8613 9.15534C31.9201 9.20008 32.0126 9.27253 32.0967 9.34284C32.1072 9.34923 32.1156 9.35562 32.1219 9.36202C32.1849 9.41528 32.2438 9.46216 32.3005 9.50477C32.311 9.51329 32.3194 9.51969 32.3257 9.52395C32.3278 9.52608 32.33 9.52821 32.3321 9.52821C32.3384 9.53247 32.3447 9.53673 32.351 9.54099C32.3657 9.55165 32.3825 9.5623 32.3972 9.57295C32.4035 9.57722 32.4098 9.57935 32.4161 9.58361C32.4308 9.59213 32.4455 9.60065 32.4603 9.60918C32.4666 9.61131 32.4708 9.61344 32.4771 9.61557C32.4939 9.62409 32.5086 9.63048 32.5254 9.63687C32.5296 9.639 32.5317 9.639 32.5359 9.64114C32.5548 9.64753 32.5738 9.65392 32.5927 9.65605C32.5927 9.65605 32.5927 9.65605 32.5948 9.65818C32.6368 9.66457 32.6767 9.6667 32.7188 9.65605C32.723 9.65605 32.7272 9.65392 32.7314 9.65392C32.7419 9.65179 32.7545 9.64753 32.765 9.6454C32.7692 9.64327 32.7713 9.64114 32.7755 9.639C32.7797 9.639 32.7839 9.63687 32.7881 9.63474C32.8049 9.62622 32.8218 9.6177 32.8386 9.60704C32.8428 9.60704 32.8449 9.60491 32.847 9.60278C32.8659 9.59 32.8827 9.57722 32.8995 9.5623C32.9016 9.56017 32.9016 9.56017 32.9016 9.56017C32.9163 9.54739 32.9289 9.53247 32.9416 9.51756C32.95 9.5069 32.9584 9.49412 32.9647 9.48133C32.9668 9.4792 32.9689 9.47707 32.9689 9.47494C33.0572 9.32579 33.0067 9.12977 32.8512 8.9167C32.8491 8.91244 32.847 8.90818 32.8428 8.90392C32.8365 8.8954 32.8323 8.889 32.826 8.88048C32.4687 8.41173 31.6553 7.89824 30.9008 7.73418C30.8966 7.73418 30.8924 7.73418 30.8882 7.73204C30.8566 7.72565 30.823 7.71926 30.7915 7.71287C30.7831 7.71287 30.7726 7.71074 30.7642 7.70861C30.7368 7.70435 30.7095 7.70008 30.6822 7.69795C30.6717 7.69582 30.6612 7.69369 30.6507 7.69369C30.6254 7.69156 30.5981 7.68943 30.5729 7.6873C30.5624 7.68517 30.5519 7.68517 30.5435 7.68304C30.5077 7.68304 30.4741 7.68091 30.4405 7.68091C30.3858 7.68091 30.3312 7.68091 30.2787 7.68304C30.2492 7.68304 30.2198 7.68517 30.1883 7.6873C30.1673 7.68943 30.142 7.68943 30.121 7.68943C30.079 7.69369 30.0391 7.69582 29.9991 7.70008C29.9886 7.70008 29.976 7.70008 29.9655 7.70222C29.9193 7.70648 29.873 7.71074 29.8289 7.71713C29.8226 7.71713 29.8184 7.71713 29.8142 7.71713C29.7658 7.72352 29.7196 7.72991 29.6734 7.73844C29.6713 7.73844 29.6671 7.73844 29.665 7.73844C29.6187 7.74483 29.5725 7.75335 29.5283 7.76187C29.5262 7.76187 29.5241 7.764 29.5199 7.764C29.4254 7.78105 29.3329 7.80236 29.2446 7.82579C29.2425 7.82579 29.2425 7.82792 29.2425 7.82792C29.1984 7.83858 29.1542 7.85136 29.1101 7.86415C29.0681 7.87693 29.0281 7.89185 28.9903 7.90463C28.9861 7.90463 28.984 7.90676 28.9798 7.90676C28.942 7.92168 28.9041 7.93446 28.8663 7.94937C28.8621 7.9515 28.8579 7.95364 28.8558 7.95364C28.818 7.96855 28.7843 7.98347 28.7486 8.00051C28.7444 8.00264 28.7381 8.00264 28.7339 8.0069C28.7024 8.01969 28.6687 8.03673 28.6393 8.05165C28.6309 8.05591 28.6246 8.05804 28.6183 8.0623C28.5868 8.07722 28.5573 8.09213 28.5279 8.10918C28.5195 8.11344 28.5132 8.1177 28.5048 8.12196C28.4775 8.13687 28.4502 8.15392 28.4228 8.17097C28.4144 8.17523 28.406 8.17949 28.3976 8.18588C28.3619 8.20719 28.3283 8.23062 28.2946 8.25193C28.2547 8.28176 28.2148 8.30946 28.179 8.33929C28.1748 8.33929 28.1727 8.34142 28.1727 8.34355C27.9941 8.47778 27.8407 8.62054 27.7145 8.78673C27.7103 8.79312 27.704 8.79952 27.6998 8.80591C27.6851 8.82935 27.6683 8.85065 27.6536 8.87196C27.6431 8.889 27.6326 8.90605 27.6221 8.9231C27.6137 8.93588 27.6053 8.94866 27.599 8.96145C27.5821 8.98915 27.5674 9.01685 27.5527 9.04668C27.5506 9.05094 27.5485 9.05307 27.5464 9.05733C27.4329 9.28531 27.3678 9.54739 27.3425 9.86486C27.3425 9.86912 27.3425 9.87338 27.3404 9.87764C27.3383 9.93304 27.3341 9.98844 27.332 10.0481C27.332 10.0928 27.332 10.1376 27.3341 10.1823C27.3341 10.1887 27.3341 10.1951 27.3341 10.2015C27.3573 10.8109 27.6305 11.269 28.1244 11.6248C28.1286 11.6269 28.1328 11.6312 28.137 11.6333C28.158 11.6482 28.179 11.6632 28.2 11.6781C28.2148 11.6887 28.2316 11.6972 28.2463 11.7079C28.2505 11.7122 28.2568 11.7143 28.261 11.7164C28.7486 12.0296 29.3455 12.2086 29.8436 12.3514C30.0874 12.4238 30.306 12.4856 30.3711 12.5048C30.3858 12.509 30.4006 12.5133 30.4132 12.5197C30.7116 12.6198 30.9407 12.7008 31.1299 12.7775C31.1446 12.7818 31.1572 12.7882 31.1719 12.7924C31.1761 12.7945 31.1824 12.7967 31.1887 12.8009C31.2959 12.8457 31.401 12.8926 31.5019 12.9437C31.5859 12.9863 31.6637 13.0311 31.7415 13.0779C31.9411 13.2036 32.0946 13.34 32.1975 13.4891C32.2017 13.4934 32.2038 13.4977 32.2059 13.5019C32.2165 13.5147 32.2249 13.5275 32.2312 13.5424C32.2375 13.5509 32.2417 13.5573 32.2459 13.5659C32.2522 13.5765 32.2585 13.5872 32.2627 13.5978C32.269 13.6085 32.2732 13.6212 32.2795 13.6319C32.2837 13.6404 32.2879 13.6489 32.2921 13.6575C32.2963 13.6703 32.3026 13.683 32.3068 13.698C32.3089 13.7043 32.3131 13.7129 32.3152 13.7214C32.3194 13.7363 32.3236 13.7512 32.3279 13.7661C32.33 13.7725 32.3321 13.7789 32.3342 13.7874C32.3384 13.8024 32.3426 13.8194 32.3447 13.8343C32.3468 13.8407 32.3489 13.8492 32.3489 13.8556C32.351 13.8727 32.3531 13.8897 32.3552 13.9068C32.3573 13.9132 32.3573 13.9195 32.3573 13.9259C32.3594 13.9515 32.3615 13.9749 32.3615 14.0005C32.3615 14.0389 32.3594 14.0751 32.3573 14.1113C32.3573 14.122 32.3552 14.1326 32.3552 14.1433C32.3531 14.171 32.3489 14.1987 32.3426 14.2264C32.3426 14.2349 32.3405 14.2434 32.3384 14.2519C32.3257 14.3265 32.3047 14.3968 32.2774 14.4671C32.2753 14.4693 32.2753 14.4714 32.2753 14.4735C32.2606 14.5055 32.2459 14.5396 32.2291 14.5694C32.227 14.5737 32.227 14.5758 32.2249 14.5779C32.1891 14.6461 32.1471 14.7122 32.0946 14.7739C32.0693 14.8059 32.042 14.8357 32.0147 14.8656C32.0126 14.8656 32.0126 14.8656 32.0126 14.8677C31.9558 14.9252 31.8928 14.9785 31.8276 15.0275C31.8255 15.0296 31.8234 15.0296 31.8234 15.0318C31.7919 15.0531 31.7604 15.0765 31.7289 15.0957C31.7247 15.0999 31.7204 15.1021 31.7162 15.1042C31.6616 15.1383 31.6028 15.1724 31.5439 15.2022C31.5229 15.2129 31.5019 15.2235 31.4788 15.2342C31.4556 15.2448 31.4304 15.2576 31.4052 15.2683C31.3842 15.2768 31.3653 15.2853 31.3442 15.2938C31.2875 15.3151 31.2328 15.3364 31.1761 15.3556C31.1677 15.3578 31.1593 15.3599 31.1509 15.3641C31.1173 15.3748 31.0836 15.3833 31.05 15.394C31.0416 15.3961 31.0311 15.4004 31.0227 15.4025C30.9113 15.4323 30.802 15.4558 30.699 15.4728C30.6969 15.4728 30.6948 15.4728 30.6927 15.4728C30.6402 15.4813 30.5897 15.4877 30.5414 15.4941C30.5225 15.4962 30.5056 15.4984 30.4867 15.4984C30.4699 15.5005 30.4531 15.5005 30.4342 15.5026C30.3943 15.5048 30.3522 15.5069 30.3144 15.5069C30.2366 15.5069 30.161 15.5048 30.0874 15.5005C30.058 15.5005 30.0286 15.4984 29.9991 15.4962C29.9592 15.492 29.9172 15.4899 29.8793 15.4856C29.8436 15.4835 29.8058 15.4792 29.7721 15.4749C29.7406 15.4707 29.7112 15.4664 29.6818 15.4622C29.6166 15.4515 29.5557 15.443 29.4947 15.4302C29.4674 15.4238 29.438 15.4195 29.4106 15.4132C29.3791 15.4046 29.3476 15.3982 29.3161 15.3897C29.2803 15.3812 29.2467 15.3727 29.2131 15.362C29.19 15.3556 29.1647 15.3492 29.1437 15.3428C29.087 15.3258 29.0302 15.3066 28.9756 15.2853C28.963 15.2811 28.9504 15.2768 28.9378 15.2725C28.8159 15.2257 28.6961 15.1745 28.5784 15.1149C28.5742 15.1127 28.5679 15.1085 28.5615 15.1063C28.4859 15.068 28.3577 14.9955 28.2358 14.9252C28.2253 14.9188 28.2127 14.9124 28.2021 14.9061C28.116 14.8549 28.0424 14.8123 27.9731 14.7782C27.9668 14.7739 27.9626 14.7718 27.9583 14.7697C27.9541 14.7676 27.9499 14.7654 27.9478 14.7654C27.9289 14.7569 27.9142 14.7484 27.8974 14.742C27.8911 14.7399 27.8869 14.7377 27.8827 14.7356C27.8385 14.7186 27.7986 14.7058 27.7587 14.7015C27.7461 14.6994 27.7335 14.6994 27.7209 14.6994C27.7167 14.6972 27.7124 14.6972 27.7082 14.6972C27.6284 14.6972 27.559 14.7249 27.4939 14.7867C27.4792 14.7995 27.4665 14.8123 27.4539 14.8272C27.4518 14.8315 27.4476 14.8357 27.4434 14.84C27.435 14.8507 27.4287 14.8592 27.4224 14.8677C27.4182 14.8741 27.414 14.8805 27.4119 14.8847C27.4056 14.8933 27.3993 14.9018 27.3951 14.9103C27.3909 14.9167 27.3888 14.9231 27.3867 14.9295C27.3825 14.938 27.3783 14.9465 27.3741 14.9551C27.372 14.9614 27.3699 14.9657 27.3678 14.9721C27.3636 14.9828 27.3615 14.9913 27.3594 14.9998C27.3573 15.0062 27.3552 15.0105 27.3552 15.0168C27.353 15.0275 27.3509 15.0382 27.3488 15.0488C27.3488 15.0531 27.3467 15.0573 27.3467 15.0616C27.3446 15.0765 27.3446 15.0893 27.3446 15.1021C27.3446 15.1042 27.3446 15.1063 27.3446 15.1085C27.3446 15.1255 27.3467 15.1404 27.3509 15.1575C27.3509 15.1596 27.3509 15.1639 27.3509 15.166C27.3552 15.1788 27.3573 15.1937 27.3615 15.2065C27.3636 15.2129 27.3657 15.2193 27.3678 15.2257C27.372 15.2363 27.3741 15.2491 27.3804 15.2597C27.3825 15.2661 27.3846 15.2704 27.3867 15.2747C27.414 15.3386 27.4581 15.4046 27.5149 15.4686C27.5758 15.5367 27.6536 15.6049 27.744 15.6752C27.7461 15.6752 27.7461 15.6752 27.7461 15.6774C27.7713 15.6944 27.7965 15.7136 27.8238 15.7328C27.8301 15.737 27.8343 15.7413 27.8407 15.7434C27.9142 15.7945 27.992 15.8436 28.0803 15.8947C28.1013 15.9075 28.1223 15.9203 28.1433 15.9309C28.1643 15.9437 28.1853 15.9543 28.2064 15.965C28.2316 15.9799 28.261 15.9948 28.2883 16.0097C28.3072 16.0183 28.3241 16.0289 28.343 16.0374C28.385 16.0587 28.4291 16.0801 28.4733 16.1014C28.4796 16.1056 28.4838 16.1078 28.4901 16.1099C28.5384 16.1333 28.5868 16.1546 28.6351 16.1738C28.6561 16.1823 28.675 16.1909 28.6961 16.1994C28.7003 16.2015 28.7045 16.2036 28.7087 16.2036C29.1584 16.3826 29.7133 16.5019 30.203 16.5232C30.2387 16.5254 30.2766 16.5275 30.3123 16.5275H30.3144C30.3312 16.5275 30.3459 16.5275 30.3627 16.5254C30.4006 16.5254 30.4384 16.5254 30.4762 16.5254C30.4804 16.5254 30.4846 16.5254 30.4888 16.5232C31.2854 16.4977 31.939 16.2889 32.496 15.8755C32.496 15.8734 32.496 15.8734 32.496 15.8734C33.1139 15.4004 33.4544 14.7335 33.4544 13.9984C33.4544 13.9515 33.4523 13.9046 33.4502 13.8599C33.4502 13.8428 33.4481 13.8258 33.4481 13.8109Z" fill="#29B5E8"/>
<path d="M38.5868 7.698C38.5847 7.698 38.5826 7.698 38.5805 7.698C37.6011 7.698 36.6763 8.10283 36.0079 8.81874V8.20936C36.0079 7.92811 35.7936 7.698 35.5224 7.698C35.5035 7.698 35.4867 7.70013 35.4699 7.70013C35.3501 7.71291 35.245 7.76618 35.1672 7.84501C35.1651 7.84501 35.1651 7.84501 35.163 7.84715C35.1567 7.85567 35.1483 7.86419 35.142 7.87271C35.1378 7.87484 35.1336 7.87911 35.1315 7.88337C35.1252 7.88976 35.121 7.89615 35.1168 7.90254C35.1126 7.90894 35.1084 7.91533 35.1021 7.92172C35.1 7.92598 35.0979 7.93024 35.0958 7.9345C35.0895 7.94516 35.0832 7.95581 35.0769 7.96433C35.0769 7.96646 35.0769 7.96859 35.0748 7.97073C35.0685 7.98351 35.0622 7.99629 35.0559 8.00908C35.0453 8.04104 35.0348 8.073 35.0285 8.10496C35.0285 8.10709 35.0285 8.10922 35.0264 8.10922C35.0243 8.12627 35.0222 8.14118 35.0201 8.15609C35.0201 8.17314 35.018 8.19019 35.018 8.20936V16.1227L35.0117 16.1568L35.0369 16.1781C35.0369 16.1888 35.039 16.2037 35.0453 16.2186C35.0453 16.2207 35.0474 16.225 35.0474 16.2271C35.0517 16.2378 35.058 16.2506 35.0685 16.2612C35.1336 16.3869 35.2534 16.4828 35.3942 16.5254L35.4047 16.5275H35.5224C35.5414 16.5275 35.5603 16.5275 35.5792 16.5254C35.5918 16.5233 35.6044 16.519 35.617 16.5169C35.6233 16.5169 35.6275 16.5169 35.6338 16.5148C35.6506 16.5105 35.6675 16.5062 35.6843 16.4998C35.6843 16.4998 35.6843 16.4998 35.6864 16.4998C35.7747 16.4679 35.8503 16.4125 35.9008 16.3379C35.9029 16.3358 35.905 16.3337 35.9071 16.3315C35.9407 16.2953 35.9596 16.2569 35.9785 16.2037C35.9806 16.1973 35.9827 16.193 35.9827 16.1888C35.9848 16.1866 35.9848 16.1866 35.9848 16.1845C35.9932 16.1589 35.9995 16.1334 36.0058 16.1078L36.0079 16.0993V11.3095C36.0416 9.88195 37.1933 8.72073 38.5763 8.71859C38.5784 8.71859 38.5784 8.71859 38.5805 8.71859C39.9886 8.71859 41.1341 9.87982 41.1341 11.3074V16.0162C41.1341 16.0354 41.1362 16.0524 41.1383 16.0694C41.1488 16.193 41.2013 16.2996 41.2791 16.3784C41.2791 16.3784 41.2812 16.3784 41.2812 16.3805C41.2896 16.389 41.298 16.3954 41.3064 16.404C41.3106 16.4082 41.3127 16.4104 41.3169 16.4125C41.3232 16.4189 41.3295 16.4231 41.3358 16.4274C41.3421 16.4338 41.3484 16.4381 41.3548 16.4423C41.3611 16.4444 41.3653 16.4466 41.3695 16.4508C41.3779 16.4572 41.3884 16.4615 41.3968 16.4679C41.3989 16.4679 41.401 16.47 41.4052 16.47C41.4157 16.4764 41.4283 16.4828 41.4409 16.4892H41.443C41.4724 16.502 41.504 16.5105 41.5355 16.5169C41.5397 16.5169 41.5418 16.519 41.5439 16.519C41.5586 16.5212 41.5712 16.5233 41.5859 16.5254C41.6028 16.5275 41.6196 16.5275 41.6385 16.5275C41.6553 16.5275 41.6721 16.5275 41.6889 16.5254C41.7036 16.5233 41.7183 16.5212 41.731 16.519C41.7331 16.519 41.7373 16.5169 41.7394 16.5169C41.773 16.5105 41.8024 16.502 41.8339 16.4892C41.8466 16.4828 41.8592 16.4764 41.8718 16.47C41.8739 16.47 41.876 16.4679 41.8781 16.4679C41.8886 16.4615 41.897 16.4572 41.9075 16.4508C41.9117 16.4466 41.9159 16.4444 41.9201 16.4423C41.9264 16.4381 41.9327 16.4338 41.939 16.4274C41.9453 16.4231 41.9537 16.4189 41.96 16.4125C41.9622 16.4104 41.9664 16.4082 41.9685 16.404C41.9769 16.3954 41.9874 16.389 41.9958 16.3805C41.9958 16.3784 41.9958 16.3784 41.9958 16.3784C42.0756 16.2996 42.1282 16.193 42.1387 16.0694C42.1408 16.0524 42.1408 16.0354 42.1408 16.0162V11.3074C42.1408 9.31945 40.5477 7.70226 38.5868 7.698Z" fill="#29B5E8"/>
<path d="M47.6539 7.68091C49.9364 7.68091 51.7922 9.66457 51.7922 12.1042C51.7922 14.5438 49.9364 16.5275 47.6539 16.5275C47.5825 16.5275 47.5131 16.5254 47.4438 16.5211C47.4333 16.5211 47.4248 16.5211 47.4143 16.519C47.3534 16.5168 47.2924 16.5105 47.2336 16.5041C47.2315 16.5041 47.2294 16.5041 47.2273 16.5041C46.3256 16.4039 45.4828 15.9863 44.8124 15.3024C44.7851 15.2747 44.7556 15.247 44.7304 15.2171C44.7283 15.2171 44.7283 15.215 44.7262 15.215C44.7115 15.2001 44.6989 15.183 44.6842 15.166C44.6527 15.1319 44.6211 15.0957 44.5896 15.0595C44.5644 15.0318 44.5413 14.9998 44.516 14.97C44.4992 14.9465 44.4803 14.9231 44.4614 14.8997C44.4236 14.8528 44.3878 14.8038 44.3542 14.7548C44.35 14.7484 44.3458 14.742 44.3416 14.7356C43.9318 14.1539 43.6648 13.4828 43.564 12.7711C43.5535 12.7051 43.5472 12.639 43.5408 12.573C43.5387 12.5666 43.5387 12.558 43.5366 12.5495C43.5303 12.4877 43.5261 12.4281 43.524 12.3663C43.5219 12.3535 43.5219 12.3407 43.5219 12.3258C43.5177 12.2534 43.5156 12.1788 43.5156 12.1042C43.5156 12.0296 43.5177 11.9551 43.5219 11.8826C43.5219 11.8677 43.5219 11.8549 43.524 11.8421C43.5261 11.7803 43.5303 11.7186 43.5366 11.6589C43.5387 11.6504 43.5387 11.6418 43.5408 11.6355C43.5472 11.5694 43.5535 11.5034 43.564 11.4373C43.6648 10.7257 43.9318 10.0545 44.3416 9.47281C44.3437 9.46642 44.3479 9.46003 44.3521 9.45577C44.3878 9.40463 44.4236 9.35562 44.4614 9.30662C44.4782 9.28531 44.4971 9.264 44.5139 9.24057C44.5392 9.20861 44.5644 9.17878 44.5896 9.14682C44.619 9.11273 44.6485 9.08077 44.68 9.04668C44.6947 9.02963 44.7115 9.01045 44.7262 8.99341C44.7283 8.99341 44.7283 8.99128 44.7304 8.99128C44.7535 8.96358 44.7809 8.93801 44.8061 8.91244C45.4765 8.22636 46.3214 7.80449 47.2273 7.70435C47.2294 7.70435 47.2315 7.70435 47.2336 7.70435C47.2924 7.69795 47.3534 7.69369 47.4143 7.68943C47.4248 7.68943 47.4333 7.6873 47.4438 7.6873C47.5131 7.68304 47.5825 7.68091 47.6539 7.68091ZM50.7687 11.7569C50.7687 11.7548 50.7687 11.7548 50.7687 11.7526C50.6951 10.9856 50.3841 10.2931 49.9196 9.75832C49.8986 9.73489 49.8797 9.71145 49.8587 9.68801C49.846 9.67523 49.8334 9.66244 49.8208 9.64966C49.7956 9.62409 49.7725 9.59852 49.7473 9.57295C49.7241 9.54952 49.6989 9.52821 49.6758 9.5069C49.6611 9.49412 49.6485 9.4792 49.6338 9.46642C49.5959 9.43233 49.5581 9.40037 49.5203 9.36841C49.5203 9.36841 49.5182 9.36841 49.5182 9.36628C49.0789 9.00619 48.5514 8.76969 47.9839 8.70364C47.9776 8.70364 47.9734 8.7015 47.9692 8.7015C47.9251 8.69511 47.883 8.69298 47.8389 8.69085C47.8284 8.68872 47.82 8.68872 47.8116 8.68872C47.759 8.68446 47.7065 8.68446 47.6539 8.68446C47.6014 8.68446 47.5488 8.68446 47.4963 8.68872C47.4879 8.68872 47.4795 8.68872 47.469 8.69085C47.4248 8.69298 47.3828 8.69511 47.3387 8.7015C47.3345 8.7015 47.3303 8.70364 47.324 8.70364C46.7565 8.76969 46.229 9.00619 45.7897 9.36628C45.7897 9.36841 45.7876 9.36841 45.7876 9.36841C45.7498 9.40037 45.7119 9.43233 45.6741 9.46642C45.6594 9.4792 45.6468 9.49199 45.6321 9.50477C45.609 9.52821 45.5837 9.54952 45.5606 9.57295C45.5375 9.59639 45.5144 9.62196 45.4892 9.64753C45.4765 9.66031 45.4639 9.6731 45.4492 9.68801C45.4303 9.70932 45.4114 9.73275 45.3904 9.75619C44.9259 10.291 44.6127 10.9856 44.5392 11.7526C44.5392 11.7548 44.5392 11.7548 44.5392 11.7569C44.535 11.8059 44.5308 11.8549 44.5287 11.9061C44.5287 11.9146 44.5266 11.9231 44.5266 11.9316C44.5245 11.9891 44.5224 12.0467 44.5224 12.1042C44.5224 13.9771 45.9431 15.5069 47.6539 15.5069C49.3647 15.5069 50.7855 13.9771 50.7855 12.1042C50.7855 12.0467 50.7834 11.9891 50.7813 11.9316C50.7813 11.9231 50.7792 11.9146 50.7792 11.9061C50.7771 11.8549 50.7729 11.8059 50.7687 11.7569Z" fill="#29B5E8"/>
<path d="M63.9531 7.90059C63.9489 7.89633 63.9468 7.89207 63.9426 7.88781C63.8921 7.82389 63.8249 7.77275 63.7492 7.74079C63.7492 7.74079 63.7492 7.74079 63.7471 7.74079C63.7387 7.7344 63.7282 7.73227 63.7198 7.72801C63.7156 7.72801 63.7114 7.72587 63.7051 7.72374C63.6378 7.70031 63.5642 7.69605 63.4928 7.7067H63.4907C63.3457 7.73014 63.2069 7.81962 63.1292 7.95173C63.1292 7.95173 63.1292 7.95173 63.1271 7.95173C63.1166 7.97303 63.104 7.99434 63.0956 8.01565L63.0935 8.01778V8.01991L60.6849 14.7039L58.7933 10.1399C58.7744 10.0973 58.7492 10.059 58.7197 10.0227C58.6168 9.9013 58.4591 9.8246 58.2973 9.8246C58.2721 9.8246 58.249 9.8246 58.2237 9.83099C58.2216 9.83099 58.2195 9.83099 58.2153 9.83099C58.0472 9.86082 57.8896 9.98014 57.8181 10.1399C57.8181 10.1421 57.8181 10.1421 57.8181 10.1421L55.9265 14.706L55.0102 12.1811L53.5011 8.01991C53.4927 7.99647 53.4843 7.9773 53.4738 7.95599C53.4717 7.95386 53.4717 7.95386 53.4696 7.95173C53.4234 7.86437 53.3498 7.79619 53.2615 7.75357C53.2615 7.75357 53.2594 7.75357 53.2594 7.75144C53.2153 7.73227 53.1691 7.71735 53.1207 7.70883C53.1165 7.70883 53.1144 7.70883 53.1102 7.7067C53.0871 7.70457 53.0619 7.70244 53.0388 7.70244H53.0367C53.0304 7.70244 53.0262 7.70244 53.0219 7.70244C53.0114 7.70244 53.0009 7.70244 52.9904 7.70457C52.9841 7.70457 52.9757 7.7067 52.9694 7.7067C52.9589 7.70883 52.9505 7.70883 52.9421 7.71096C52.9358 7.71309 52.9295 7.71309 52.9232 7.71522C52.9127 7.71735 52.9022 7.71948 52.8916 7.72374C52.8874 7.72587 52.8832 7.72587 52.879 7.72801C52.8685 7.73227 52.858 7.7344 52.8475 7.74079C52.8475 7.74079 52.8475 7.74079 52.8454 7.74079C52.7592 7.77914 52.6899 7.84519 52.6394 7.9219C52.6373 7.92616 52.6352 7.92829 52.6331 7.93255C52.631 7.93681 52.6289 7.94107 52.6268 7.94533C52.589 8.00926 52.5659 8.08383 52.5575 8.1584C52.5491 8.23724 52.5596 8.32033 52.5911 8.39704L54.3376 13.1549L55.4579 16.206C55.4579 16.206 55.4579 16.206 55.4579 16.2081C55.5041 16.3232 55.5714 16.402 55.6638 16.4446C55.6659 16.4468 55.6701 16.4489 55.6722 16.451C55.6743 16.4531 55.6764 16.4553 55.6806 16.4574C55.6806 16.4595 55.6827 16.4595 55.6848 16.4617C55.689 16.4638 55.6911 16.4659 55.6954 16.4702C55.6975 16.4702 55.6975 16.4702 55.6996 16.4702C55.7164 16.4808 55.7374 16.4894 55.7647 16.4915C55.7668 16.4915 55.7689 16.4936 55.771 16.4936C55.7794 16.4958 55.7878 16.5 55.7962 16.5022C55.8004 16.5022 55.8046 16.5043 55.8088 16.5043C55.8614 16.5213 55.895 16.5277 55.9371 16.5277C55.9602 16.5277 55.9812 16.5256 56.0043 16.5213C56.0211 16.5192 56.04 16.5149 56.0569 16.5085C56.0611 16.5064 56.0653 16.5064 56.0695 16.5043C56.0863 16.5 56.1031 16.4936 56.1199 16.4851C56.1262 16.483 56.1325 16.4808 56.1388 16.4766C56.1493 16.4702 56.1619 16.4638 56.1745 16.4574C56.183 16.451 56.1935 16.4446 56.204 16.4382C56.2103 16.434 56.2166 16.4276 56.2229 16.4233C56.2376 16.4127 56.2502 16.402 56.2649 16.3892C56.267 16.3871 56.2691 16.385 56.2712 16.3807C56.2859 16.3658 56.3007 16.3509 56.3154 16.3338C56.3154 16.3317 56.3175 16.3296 56.3196 16.3274C56.3322 16.3104 56.3448 16.2912 56.3553 16.272C56.3658 16.2507 56.3763 16.2273 56.3847 16.2039L56.3868 16.1975L56.3931 16.1889L56.3994 16.174L58.2973 11.5803L60.212 16.1911C60.2267 16.2379 60.2498 16.2806 60.2813 16.321C60.2855 16.3274 60.2897 16.3317 60.2939 16.3381C60.3045 16.3509 60.315 16.3637 60.3276 16.3764C60.3339 16.3807 60.3402 16.3871 60.3465 16.3914C60.357 16.402 60.3696 16.4127 60.3822 16.4233C60.3885 16.4276 60.3927 16.4318 60.399 16.434C60.4137 16.4446 60.4285 16.4553 60.4432 16.4638C60.4474 16.4659 60.4516 16.4681 60.4558 16.4702C60.4726 16.4787 60.4873 16.4872 60.5062 16.4936C60.5104 16.4958 60.5146 16.4979 60.5209 16.4979C60.5356 16.5043 60.5504 16.5107 60.5672 16.5149C60.5882 16.5192 60.6092 16.5235 60.6281 16.5277H60.6912C60.7164 16.5277 60.7395 16.5256 60.7626 16.5213C60.7689 16.5213 60.7731 16.5213 60.7794 16.5192C60.8005 16.5149 60.8194 16.5107 60.8383 16.5043C60.8446 16.5022 60.8488 16.5 60.853 16.4979C60.874 16.4915 60.895 16.4808 60.914 16.4702C60.9161 16.4702 60.9182 16.4681 60.9203 16.4681C60.9434 16.4531 60.9665 16.4382 60.9854 16.4233C61.0695 16.3594 61.1304 16.2763 61.1725 16.174V16.1719L62.3557 12.9418L64.0203 8.39704C64.0855 8.23724 64.0602 8.06252 63.9699 7.92616C63.9657 7.91764 63.9594 7.90911 63.9531 7.90059Z" fill="#29B5E8"/>
<path d="M90.681 8.04339C90.681 8.03487 90.6789 8.02421 90.6768 8.01569C90.6768 8.0093 90.6747 8.00291 90.6726 7.99652C90.6705 7.98586 90.6684 7.97521 90.6663 7.96669C90.6642 7.96029 90.6621 7.9539 90.66 7.94964C90.6579 7.93686 90.6537 7.9262 90.6474 7.91555C90.6474 7.91129 90.6453 7.90916 90.6432 7.9049C90.6369 7.88998 90.6306 7.8772 90.6222 7.86441C90.6222 7.86228 90.6222 7.86228 90.6222 7.86228C90.5969 7.81754 90.5654 7.77919 90.5297 7.7451C90.5276 7.74296 90.5276 7.74296 90.5276 7.74296C90.5255 7.74083 90.5255 7.74083 90.5255 7.74083C90.3468 7.55973 90.0946 7.53629 89.8971 7.67691C89.8908 7.68117 89.8865 7.68544 89.8802 7.68757C89.8718 7.69396 89.8634 7.70035 89.855 7.70674C89.8424 7.71953 89.8298 7.73018 89.8172 7.74296C89.8172 7.74296 89.8151 7.74296 89.8151 7.7451L84.8907 12.6116V4.47237C84.8907 4.45532 84.8907 4.43828 84.8886 4.42123C84.8697 4.23373 84.7457 4.07819 84.5776 4.00575C84.5755 4.00575 84.5755 4.00362 84.5734 4.00362C84.5629 3.99936 84.5524 3.9951 84.5418 3.99296C84.5376 3.99083 84.5313 3.9887 84.525 3.98657C84.5166 3.98444 84.5082 3.98231 84.4977 3.98018C84.4914 3.97805 84.483 3.97592 84.4746 3.97379C84.4662 3.97166 84.4557 3.96953 84.4473 3.96953C84.4389 3.9674 84.4326 3.9674 84.4241 3.96527C84.4052 3.96313 84.3884 3.96313 84.3716 3.96313C84.0963 3.96313 83.8672 4.19538 83.8672 4.47237V16.0164C83.8672 16.2955 84.0963 16.5278 84.3716 16.5278C84.3884 16.5278 84.4073 16.5278 84.4241 16.5256C84.4262 16.5256 84.4283 16.5235 84.4326 16.5235C84.4473 16.5214 84.462 16.5214 84.4746 16.5171C84.4788 16.5171 84.483 16.515 84.4872 16.515C84.4998 16.5107 84.5124 16.5086 84.525 16.5043C84.5271 16.5043 84.5292 16.5022 84.5313 16.5022C84.7247 16.4404 84.8676 16.2721 84.8886 16.0697C84.8907 16.0526 84.8907 16.0356 84.8907 16.0164V14.069L86.549 12.39L89.771 16.3317C89.792 16.3658 89.8151 16.3957 89.8445 16.4191C89.8508 16.4255 89.855 16.4298 89.8613 16.434C89.8697 16.4404 89.8781 16.4468 89.8865 16.4511C89.8971 16.4596 89.9076 16.4638 89.9181 16.4702C89.9223 16.4724 89.9286 16.4766 89.9328 16.4788C89.9475 16.4852 89.9601 16.4894 89.9748 16.4958C89.979 16.4979 89.9832 16.4979 89.9853 16.5001C90.0021 16.5043 90.0169 16.5086 90.0337 16.5129C90.0358 16.5129 90.04 16.515 90.0442 16.515C90.061 16.5192 90.0757 16.5214 90.0946 16.5235C90.0988 16.5235 90.103 16.5235 90.1072 16.5256C90.1282 16.5256 90.1493 16.5278 90.1724 16.5278C90.206 16.5278 90.2375 16.5256 90.267 16.5214C90.2691 16.5214 90.2691 16.5214 90.2691 16.5214C90.3279 16.5129 90.3826 16.4937 90.433 16.4681C90.4351 16.4681 90.4351 16.466 90.4351 16.466C90.4582 16.4532 90.4813 16.4383 90.5045 16.4212L90.5108 16.4148C90.702 16.2209 90.7314 15.9567 90.5927 15.7373C90.5801 15.7181 90.5675 15.6989 90.5528 15.6798L87.2804 11.6506L90.5297 8.4674C90.6158 8.37791 90.6684 8.26924 90.681 8.15205C90.681 8.14992 90.681 8.14779 90.6831 8.14566C90.6831 8.13501 90.6831 8.12223 90.6831 8.11157C90.6831 8.10518 90.6852 8.09879 90.6852 8.09453C90.6852 8.09027 90.6852 8.08813 90.6852 8.086C90.6852 8.07748 90.6831 8.07109 90.6831 8.06257C90.6831 8.05617 90.681 8.04978 90.681 8.04339Z" fill="#29B5E8"/>
</g>
<defs>
<clipPath id="clip0_5716_21907">
<rect width="99" height="24" fill="white" transform="translate(0.695312)"/>
</clipPath>
</defs>
</svg>
