<svg width="61" height="61" viewBox="0 0 61 61" fill="none" xmlns="http://www.w3.org/2000/svg">
<path d="M29.7181 29.557C30.0586 29.8925 30.6153 29.8925 30.9559 29.557L41.2623 19.4158C42.6018 18.0992 43.3389 16.3505 43.3389 14.49C43.3389 12.6295 42.6018 10.8783 41.2623 9.56171C38.4868 6.8294 33.9678 6.8294 31.1923 9.56171C30.717 10.0268 29.957 10.0268 29.4843 9.56171C28.094 8.19684 26.2716 7.51315 24.4467 7.51315C22.6218 7.51315 20.7994 8.19684 19.4116 9.56171C18.0722 10.8783 17.3326 12.6295 17.3326 14.49C17.3326 16.3505 18.0722 18.0992 19.4091 19.4158L29.7181 29.557H29.7181ZM42.9703 21.1517L32.6639 31.293C32.0234 31.9233 31.1796 32.2385 30.3383 32.2385C29.4945 32.2385 28.6531 31.9233 28.0101 31.293L17.7036 21.1517C15.8965 19.3725 14.9002 17.0088 14.9002 14.49C14.9002 11.9713 15.8965 9.60496 17.7036 7.82577C21.1476 4.43771 26.597 4.18865 30.3383 7.08108C34.0771 4.18865 39.5238 4.43521 42.9703 7.82577C44.7775 9.60496 45.7738 11.9712 45.7738 14.49C45.7738 17.0088 44.7775 19.3726 42.9703 21.1517ZM24.6993 35.5302C27.1495 35.5302 29.1422 37.5254 29.1422 39.9756V56.0338C29.1422 56.7074 28.5982 57.2488 27.9272 57.2488C27.2537 57.2488 26.7098 56.7074 26.7098 56.0338V39.9756C26.7098 38.8649 25.8075 37.9651 24.6993 37.9651H23.6369C23.6038 37.9651 23.5657 37.9626 23.5251 37.9601H12.1257C11.8029 37.9601 11.4928 37.8304 11.2641 37.6017L5.8554 32.193C5.09797 31.4381 3.77884 31.4381 3.02147 32.193C2.23865 32.9784 2.23865 34.2492 3.0189 35.0295L9.37559 41.3862C9.75941 41.77 10.2804 41.9708 10.8167 41.9683C10.837 41.9683 10.8625 41.9683 10.8828 41.9708H21.4688C22.1424 41.9708 22.6863 42.5148 22.6863 43.1858V56.0339C22.6863 56.7074 22.1423 57.2488 21.4688 57.2488C20.7978 57.2488 20.2514 56.7074 20.2514 56.0339V44.4058H10.8447C10.8218 44.4058 10.799 44.4032 10.7735 44.4032C9.60184 44.4032 8.49109 43.9431 7.65234 43.1069L1.29816 36.7503C-0.432719 35.0219 -0.432719 32.2058 1.29816 30.4774C3.03159 28.744 5.84772 28.7415 7.57609 30.4724L12.6289 35.5252H23.586C23.6165 35.5252 23.6572 35.5278 23.6953 35.5303H24.6993L24.6993 35.5302ZM59.5133 30.4977C61.2239 32.2311 61.2162 35.0295 59.4904 36.7502L53.1362 43.1069C52.3001 43.9431 51.1893 44.4031 49.9998 44.4031C49.982 44.4031 49.9617 44.4057 49.9439 44.4057H40.5372V56.0338C40.5372 56.7074 39.9907 57.2488 39.3197 57.2488C38.6487 57.2488 38.1023 56.7074 38.1023 56.0338V43.1857C38.1023 42.5147 38.6487 41.9708 39.3197 41.9708H49.9058C49.9337 41.9682 49.9592 41.9682 49.9846 41.9682C50.5362 41.9682 51.0369 41.7623 51.4131 41.3861L57.7697 35.0295C58.5526 34.2491 58.5526 32.9783 57.7697 32.1955L57.7519 32.1777C56.9691 31.4126 55.711 31.4178 54.9357 32.1929L49.5246 37.6016C49.2958 37.8304 48.9882 37.96 48.6655 37.96H37.2636C37.2229 37.9626 37.1847 37.9651 37.1542 37.9651H36.0918C34.9836 37.9651 34.0814 38.8648 34.0814 39.9755V56.0338C34.0814 56.7073 33.5349 57.2487 32.8639 57.2487C32.1904 57.2487 31.6465 56.7073 31.6465 56.0338V39.9755C31.6465 37.5253 33.6417 35.5301 36.0919 35.5301H37.0958C37.1339 35.5276 37.1721 35.5251 37.2051 35.5251H48.1622L53.2126 30.4723C54.9434 28.7414 57.7621 28.7439 59.4879 30.4723C59.4981 30.4799 59.5057 30.4901 59.5134 30.4977H59.5133Z" fill="black"/>
</svg>
