<svg width="61" height="61" viewBox="0 0 61 61" fill="none" xmlns="http://www.w3.org/2000/svg">
<path d="M5.08398 30.5C5.08398 20.9147 5.08398 16.1221 8.06172 13.1444C11.0395 10.1666 15.8321 10.1666 25.4173 10.1666H35.584C45.1691 10.1666 49.9619 10.1666 52.9395 13.1444C55.9173 16.1221 55.9173 20.9147 55.9173 30.5V35.5833C55.9173 45.1684 55.9173 49.9612 52.9395 52.9388C49.9619 55.9166 45.1691 55.9166 35.584 55.9166H25.4173C15.8321 55.9166 11.0395 55.9166 8.06172 52.9388C5.08398 49.9612 5.08398 45.1684 5.08398 35.5833V30.5Z" stroke="black" stroke-width="3.8125"/>
<path opacity="0.5" d="M17.791 10.1666V6.35413" stroke="black" stroke-width="3.8125" stroke-linecap="round"/>
<path opacity="0.5" d="M43.209 10.1666V6.35413" stroke="black" stroke-width="3.8125" stroke-linecap="round"/>
<path opacity="0.5" d="M6.35352 22.875H54.6452" stroke="black" stroke-width="3.8125" stroke-linecap="round"/>
<path d="M45.7493 43.2083C45.7493 44.6121 44.6114 45.75 43.2077 45.75C41.8039 45.75 40.666 44.6121 40.666 43.2083C40.666 41.8045 41.8039 40.6666 43.2077 40.6666C44.6114 40.6666 45.7493 41.8045 45.7493 43.2083Z" fill="black"/>
<path d="M45.7493 33.0417C45.7493 34.4454 44.6114 35.5833 43.2077 35.5833C41.8039 35.5833 40.666 34.4454 40.666 33.0417C40.666 31.6379 41.8039 30.5 43.2077 30.5C44.6114 30.5 45.7493 31.6379 45.7493 33.0417Z" fill="black"/>
<path d="M33.0423 43.2083C33.0423 44.6121 31.9044 45.75 30.5007 45.75C29.0969 45.75 27.959 44.6121 27.959 43.2083C27.959 41.8045 29.0969 40.6666 30.5007 40.6666C31.9044 40.6666 33.0423 41.8045 33.0423 43.2083Z" fill="black"/>
<path d="M33.0423 33.0417C33.0423 34.4454 31.9044 35.5833 30.5007 35.5833C29.0969 35.5833 27.959 34.4454 27.959 33.0417C27.959 31.6379 29.0969 30.5 30.5007 30.5C31.9044 30.5 33.0423 31.6379 33.0423 33.0417Z" fill="black"/>
<path d="M20.3333 43.2083C20.3333 44.6121 19.1954 45.75 17.7917 45.75C16.388 45.75 15.25 44.6121 15.25 43.2083C15.25 41.8045 16.388 40.6666 17.7917 40.6666C19.1954 40.6666 20.3333 41.8045 20.3333 43.2083Z" fill="black"/>
<path d="M20.3333 33.0417C20.3333 34.4454 19.1954 35.5833 17.7917 35.5833C16.388 35.5833 15.25 34.4454 15.25 33.0417C15.25 31.6379 16.388 30.5 17.7917 30.5C19.1954 30.5 20.3333 31.6379 20.3333 33.0417Z" fill="black"/>
</svg>
