<svg width="57" height="57" viewBox="0 0 57 57" fill="none" xmlns="http://www.w3.org/2000/svg">
<path d="M8.57129 0.25H48.4277C49.2287 0.25 49.8781 0.899472 49.8779 1.7002V52.0977C49.8779 53.5362 49.0194 54.8205 47.6904 55.3711C46.3615 55.9218 44.8456 55.621 43.8281 54.6035C43.3029 54.0784 42.6032 53.7881 41.8604 53.7881C41.1177 53.7882 40.4177 54.0784 39.8926 54.6035L38.5469 55.9502C37.9803 56.5164 37.0614 56.5163 36.4951 55.9502C35.9287 55.3836 35.9288 54.4648 36.4951 53.8984L37.8418 52.5518C40.0576 50.3365 43.6634 50.3368 45.8789 52.5518C45.9687 52.6417 46.0784 52.7087 46.207 52.7344C46.3358 52.76 46.4629 52.7399 46.5801 52.6914C46.6975 52.6427 46.8011 52.5671 46.874 52.458C46.9469 52.349 46.9775 52.2246 46.9775 52.0977V16.5596H10.0215V52.0977C10.0215 52.2246 10.0521 52.349 10.125 52.458C10.1979 52.5671 10.3016 52.6428 10.4189 52.6914C10.5362 52.74 10.6626 52.7599 10.791 52.7344C10.9195 52.7088 11.0292 52.6423 11.1191 52.5527H11.1201C13.3358 50.3368 16.9414 50.3363 19.1572 52.5518C20.889 54.2835 23.7068 54.2835 25.4385 52.5518C26.005 51.9861 26.9231 51.9859 27.4893 52.5518C28.0556 53.1183 28.0556 54.0372 27.4893 54.6035C26.0583 56.0345 24.1786 56.7499 22.2979 56.75C20.4172 56.75 18.5376 56.0344 17.1064 54.6035C16.5814 54.0784 15.8814 53.7881 15.1387 53.7881C14.3959 53.7881 13.696 54.0784 13.1709 54.6035C12.1535 55.6209 10.6379 55.9213 9.30859 55.3711C7.97953 54.8205 7.12118 53.5364 7.12109 52.0977V1.7002C7.1211 0.899421 7.77034 0.250004 8.57129 0.25ZM10.0215 13.6592H46.9775V3.15039H10.0215V13.6592Z" fill="black" stroke="white" stroke-width="0.5"/>
<path d="M32.165 27.1478H41.5742C42.3751 27.1479 43.0244 27.7972 43.0244 28.598C43.0244 29.3987 42.3751 30.0481 41.5742 30.0482H32.165C31.3641 30.0482 30.7148 29.3987 30.7148 28.598C30.7148 27.7972 31.3641 27.1478 32.165 27.1478Z" fill="black" stroke="white" stroke-width="0.5"/>
<path d="M32.165 36.4992H41.5742C42.3751 36.4993 43.0244 37.1487 43.0244 37.9494C43.0244 38.7501 42.3751 39.3995 41.5742 39.3996H32.165C31.3641 39.3996 30.7148 38.7502 30.7148 37.9494C30.7148 37.1486 31.3641 36.4992 32.165 36.4992Z" fill="black" stroke="white" stroke-width="0.5"/>
<path d="M21.833 34.7427V39.356L22.1299 39.2983C22.8995 39.1502 23.4632 38.7825 23.7998 38.1704C24.0278 37.7583 24.1357 37.3022 24.1357 36.7847C24.1356 35.9829 23.8603 35.3854 23.2578 34.9585C23.0642 34.8215 22.734 34.6444 22.165 34.4458L21.583 34.2427L21.833 34.7427ZM19.7852 26.8042C19.2832 26.9112 18.881 27.1265 18.6221 27.4722L18.6211 27.4731C18.2568 27.966 18.0674 28.4731 18.0674 29.0142C18.0674 29.6305 18.2574 30.108 18.6846 30.4702L18.6865 30.4722C18.977 30.7136 19.3371 30.9074 19.7539 31.0552L20.0869 31.1733V26.7397L19.7852 26.8042ZM20.0869 33.897L19.8926 33.853C18.4377 33.5202 17.3546 33.0082 16.6445 32.3462L16.6436 32.3452L16.4932 32.1987C15.7647 31.4504 15.3848 30.4307 15.3848 29.1411C15.3848 27.9305 15.8257 26.8321 16.709 25.8706C17.4871 25.0251 18.5393 24.5316 19.8604 24.4097L20.0869 24.3882V23.2485C20.0871 23.0583 20.2414 22.9041 20.4316 22.9038H21.4873C21.6778 22.9038 21.8328 23.0581 21.833 23.2485V24.3853L22.0498 24.4136C23.362 24.5878 24.3833 25.043 25.1123 25.7515C25.9084 26.5259 26.3576 27.5338 26.4395 28.7661L26.4512 29.0161C26.4536 29.1091 26.4175 29.1995 26.3525 29.2661C26.2875 29.3327 26.1984 29.3706 26.1055 29.3706H24.1758C23.9982 29.3706 23.8492 29.2351 23.832 29.0581C23.7847 28.5669 23.647 28.1248 23.417 27.7505L23.416 27.7485L23.2988 27.5806C23.0119 27.2061 22.6261 26.9568 22.1436 26.8345L21.832 26.7554V31.5483L22.0127 31.6001C23.5548 32.0456 24.5819 32.4671 25.1738 32.8765C26.2605 33.6297 26.8173 34.7513 26.8174 36.2476V36.2495C26.829 38.3529 26.1178 39.8423 24.7422 40.7339C24.0969 41.1492 23.1962 41.4534 22.0449 41.6274L21.832 41.6597V43.2983C21.832 43.4889 21.6779 43.6431 21.4873 43.6431H20.4316C20.2412 43.6429 20.0869 43.4888 20.0869 43.2983V41.6733L19.8662 41.647C17.8645 41.408 16.4985 40.586 15.7441 39.231V39.23L15.5889 38.9253C15.2518 38.1857 15.0801 37.2407 15.0801 36.0376C15.0801 35.8471 15.2344 35.6921 15.4248 35.6919H17.374C17.5562 35.692 17.7061 35.8336 17.7178 36.0151C17.7913 37.1653 17.9888 37.7684 18.1621 38.0854H18.1631C18.4853 38.6717 19.0317 39.0398 19.7793 39.2163L20.0869 39.2886V33.897Z" fill="black" stroke="white" stroke-width="0.5"/>
</svg>
