<svg width="59" height="59" viewBox="0 0 59 59" fill="none" xmlns="http://www.w3.org/2000/svg">
<path d="M59 8.42859C59 5.00993 56.3124 2.36081 52.6786 2.12608V2.10718H17.9108C14.434 2.10718 11.5894 4.95185 11.5894 8.42859V42.1428H0V50.5714C0 54.0481 2.52859 56.5767 6.32141 56.8928H40.0356C44.1446 56.8928 47.4106 53.6267 47.4106 49.5178V18.9642H59V8.42859ZM2.10718 50.5714V44.25H11.5894H33.3983H33.7144V48.9911V48.9912V50.5714C33.7144 52.2423 34.2997 53.6931 35.3274 54.7856H6.42674C3.89826 54.575 2.10718 52.8892 2.10718 50.5714ZM31.6072 37.9286C31.6072 34.9786 33.925 32.6608 36.875 32.6608C39.825 32.6608 42.1428 34.9786 42.1428 37.9286C42.1428 39.3811 41.5801 40.6796 40.6575 41.6244C40.5482 41.6681 40.4453 41.7333 40.3517 41.8269C39.1587 42.928 37.4862 43.3891 35.8214 43.0722V42.1429H34.7678H33.7142C32.3447 41.1947 31.6072 39.6142 31.6072 37.9286ZM35.8214 45.2384C36.1676 45.2833 36.521 45.3036 36.875 45.3036C38.0102 45.3036 39.0804 45.0533 40.0358 44.6058V48.4642L37.5072 46.5678C37.2964 46.4625 37.0858 46.3571 36.875 46.3571C36.6642 46.3571 36.4536 46.4624 36.2428 46.5678L35.8214 46.8839V45.2384ZM45.3036 49.5178C45.3036 52.4678 42.9858 54.7856 40.1411 54.7856C37.6125 54.5749 35.8214 52.8892 35.8214 50.5714V49.5329L36.875 48.7803L40.4572 51.4142C40.6679 51.5196 40.8786 51.625 41.0894 51.625C41.3001 51.625 41.4054 51.625 41.5108 51.5197C41.9322 51.3089 42.1429 50.9929 42.1429 50.5714V43.1154C43.4491 41.7886 44.25 39.9622 44.25 37.9286C44.25 33.8197 40.9839 30.5536 36.875 30.5536C32.7661 30.5536 29.5 33.8197 29.5 37.9286C29.5 39.4431 29.9528 40.9165 30.8066 42.1428H13.6964V8.42859C13.6964 6.11077 15.5928 4.21435 17.9106 4.21435H46.9747C46.8376 4.35897 46.7075 4.50947 46.5855 4.66607C45.8439 5.58875 45.3853 6.75804 45.3142 8.0694C45.3136 8.07943 45.3126 8.08923 45.3121 8.09925C45.3067 8.20815 45.3036 8.31785 45.3036 8.42859V18.9644V49.5178ZM56.8928 16.8572H47.4106V8.42859C47.4106 8.34424 47.4131 8.26104 47.4176 8.17911C47.4185 8.16263 47.4204 8.14684 47.4215 8.13059C47.4259 8.0648 47.4308 7.99923 47.438 7.93493C47.4396 7.92064 47.442 7.90692 47.4437 7.89275C47.4518 7.82707 47.4607 7.76173 47.4716 7.69766C47.4737 7.68533 47.4764 7.67334 47.4786 7.66101C47.4904 7.59602 47.5031 7.53161 47.5178 7.46834C47.5206 7.45624 47.5239 7.44449 47.5269 7.43239C47.5419 7.37028 47.5579 7.30874 47.5758 7.24836C47.58 7.23396 47.5848 7.22001 47.5891 7.20572C47.6064 7.14937 47.6246 7.09348 47.6442 7.03863C47.6511 7.0195 47.6585 7.00072 47.6657 6.98182C47.6836 6.93412 47.7022 6.88675 47.7219 6.84031C47.7332 6.81358 47.7452 6.78742 47.757 6.76115C47.7733 6.72508 47.7899 6.68924 47.8071 6.65398C47.825 6.61734 47.8437 6.58127 47.8627 6.54554C47.8742 6.52365 47.886 6.50187 47.898 6.48032C47.9252 6.43169 47.9531 6.38353 47.9823 6.33651C47.9857 6.33109 47.989 6.32556 47.9925 6.32015C48.6354 5.29433 49.7345 4.64706 50.8952 4.35966C51.3075 4.2639 51.7312 4.2147 52.1516 4.2147C54.4694 4.2147 56.8927 5.6897 56.8927 8.42894L56.8928 16.8572Z" fill="black"/>
<path d="M18.9637 14.75H29.4995C30.1317 14.75 30.5531 14.3286 30.5531 13.6964C30.5531 13.0642 30.1317 12.6428 29.4995 12.6428H18.9637C18.3316 12.6428 17.9102 13.0642 17.9102 13.6964C17.9102 14.3286 18.3317 14.75 18.9637 14.75Z" fill="black"/>
<path d="M40.0353 17.9108H18.9637C18.3316 17.9108 17.9102 18.3322 17.9102 18.9644C17.9102 19.5965 18.3316 20.0179 18.9637 20.0179H40.0352C40.6673 20.0179 41.0887 19.5965 41.0887 18.9644C41.0887 18.3322 40.6673 17.9108 40.0353 17.9108Z" fill="black"/>
<path d="M36.8745 23.1786H18.9637C18.3316 23.1786 17.9102 23.6 17.9102 24.2322C17.9102 24.8644 18.3316 25.2858 18.9637 25.2858H36.8745C37.5067 25.2858 37.9281 24.8644 37.9281 24.2322C37.9281 23.6 37.5067 23.1786 36.8745 23.1786Z" fill="black"/>
<path d="M30.5531 28.4464H18.9637C18.3316 28.4464 17.9102 28.8678 17.9102 29.5C17.9102 30.1322 18.3316 30.5536 18.9637 30.5536H30.553C31.1852 30.5536 31.6066 30.1322 31.6066 29.5C31.6067 28.8678 31.1853 28.4464 30.5531 28.4464Z" fill="black"/>
<path d="M26.3387 33.7142H18.9637C18.3316 33.7142 17.9102 34.1356 17.9102 34.7678C17.9102 35.4 18.3316 35.8214 18.9637 35.8214H26.3387C26.9709 35.8214 27.3923 35.4 27.3923 34.7678C27.3923 34.1356 26.9709 33.7142 26.3387 33.7142Z" fill="black"/>
</svg>
