<svg width="56" height="56" viewBox="0 0 56 56" fill="none" xmlns="http://www.w3.org/2000/svg">
<path d="M46.4799 49.994C48.3355 49.994 49.8399 48.4896 49.8399 46.634V20.6791C49.8399 18.8236 48.3355 17.3191 46.4799 17.3191H9.51992C7.66438 17.3191 6.15992 18.8236 6.15992 20.6791V46.634C6.15992 48.4896 7.66438 49.994 9.51992 49.994H46.4799ZM46.4799 52.234H9.51992C6.42729 52.234 3.91992 49.7266 3.91992 46.634V20.6791C3.91992 17.5865 6.42729 15.0791 9.51992 15.0791H46.4799C49.5726 15.0791 52.0799 17.5865 52.0799 20.6791V46.634C52.0799 49.7266 49.5726 52.234 46.4799 52.234Z" fill="black"/>
<path d="M12.8379 16.2665V50.3122C12.8379 50.9308 13.3393 51.4322 13.9579 51.4322C14.5765 51.4322 15.0779 50.9308 15.0779 50.3122V16.2665C15.0779 15.6479 14.5765 15.1465 13.9579 15.1465C13.3393 15.1465 12.8379 15.6479 12.8379 16.2665ZM40.8939 16.8088V50.8546C40.8939 51.4732 41.3953 51.9746 42.0139 51.9746C42.6325 51.9746 43.1339 51.4732 43.1339 50.8546V16.8088C43.1339 16.1903 42.6325 15.6888 42.0139 15.6888C41.3953 15.6888 40.8939 16.1903 40.8939 16.8088ZM21.2799 15.68V8.95998C21.2799 7.10444 22.7843 5.59999 24.6399 5.59999H32.4799C34.3354 5.59999 35.8399 7.10444 35.8399 8.95998V15.68C35.8399 16.2986 36.3413 16.8 36.9599 16.8C37.5785 16.8 38.0799 16.2986 38.0799 15.68V8.95998C38.0799 5.86735 35.5725 3.35999 32.4799 3.35999H24.6399C21.5473 3.35999 19.0399 5.86735 19.0399 8.95998V15.68C19.0399 16.2986 19.5413 16.8 20.1599 16.8C20.7785 16.8 21.2799 16.2986 21.2799 15.68Z" fill="black"/>
</svg>
