<svg width="59" height="59" viewBox="0 0 59 59" fill="none" xmlns="http://www.w3.org/2000/svg">
<path d="M54.8211 37.3666C54.5752 32.2041 45.7252 28.025 32.9419 27.2875C32.2044 27.2875 31.7128 27.7791 31.7128 28.5166C31.7128 29.2541 32.2044 29.7458 32.9419 29.7458C33.9253 29.7458 35.1544 29.9916 36.1378 29.9916C46.4628 31.2208 51.8711 34.6625 51.8711 37.3666C51.8711 41.0541 42.5295 44.9875 29.0086 44.9875C17.2086 44.9875 8.6045 41.7916 6.6378 38.5958C6.6378 38.35 6.39195 38.35 6.39195 38.1042V36.875C6.39195 36.6291 6.39195 36.3833 6.6378 36.1375C6.6378 36.1375 6.6378 35.8916 6.88365 35.8916C7.1295 35.6458 7.1295 35.4 7.3753 35.1541C7.12945 35.4 7.3753 35.1541 7.3753 34.9083C7.62115 34.9083 7.62115 34.6624 7.86695 34.6624C8.35859 34.4166 8.60445 34.1708 9.09609 33.6791C12.2919 31.7124 18.1919 30.2374 25.5669 29.7457C26.3044 29.7457 26.7961 29.0082 26.7961 28.5166C26.7961 27.7791 26.0586 27.2874 25.5669 27.2874C24.3378 27.2874 23.1086 27.5333 21.8794 27.5333H21.6336C11.3086 28.7624 4.42524 32.2041 3.93359 36.6291V45.725C3.93359 52.3625 16.9627 56.05 29.5002 56.05C41.7919 56.05 54.8211 52.6083 55.0669 45.9708V37.3667L54.8211 37.3666ZM29.2544 53.8375C15.7335 53.8375 6.14604 49.6583 6.14604 45.9708V41.7917C10.571 45.4792 20.1585 47.4458 29.2544 47.4458C38.3502 47.4458 47.9377 45.4792 52.3627 41.7917V45.9708C52.3627 49.6583 42.7752 53.8375 29.2544 53.8375Z" fill="black"/>
<path d="M22.8634 24.0916H27.2884C27.5342 24.0916 27.78 24.0916 28.0259 23.8458V36.8749C28.0259 37.6124 28.5175 38.1041 29.255 38.1041C29.9925 38.1041 30.4842 37.6124 30.4842 36.8749V24.0916H35.4008C44.005 24.0916 50.8883 17.2082 50.8883 8.60406C50.8883 4.42492 47.4467 1.22906 43.5133 1.22906C37.1217 1.22906 31.7133 5.16242 29.255 10.5707C26.7966 4.91656 21.3883 1.22906 14.9966 1.22906C10.8175 1.22906 7.62162 4.67071 7.62162 8.60406C7.37577 17.2082 14.2591 24.0916 22.8633 24.0916L22.8634 24.0916ZM30.4842 16.7166C30.4842 9.58747 36.3842 3.68747 43.5134 3.68747C46.2175 3.68747 48.43 5.89997 48.43 8.60412C48.43 15.7333 42.53 21.6333 35.4009 21.6333H30.9759C30.73 21.6333 30.4842 21.3874 30.4842 21.1416V16.7166ZM14.9967 3.68747C22.1259 3.68747 28.0259 9.58747 28.0259 16.7166V21.1416C28.0259 21.3875 27.78 21.6333 27.5342 21.6333H22.8634C15.7342 21.6333 9.83424 15.9791 9.83424 8.60412C9.83424 5.89997 12.0467 3.68747 14.9967 3.68747Z" fill="black"/>
</svg>
