<svg width="125" height="27" viewBox="0 0 125 27" fill="none" xmlns="http://www.w3.org/2000/svg">
<path d="M118.722 22.8262C117.436 22.8262 116.264 22.5177 115.206 21.9009C114.149 21.284 113.312 20.4468 112.695 19.3893C112.096 18.3318 111.796 17.151 111.796 15.8467C111.796 14.5425 112.104 13.3704 112.721 12.3305C113.338 11.273 114.166 10.4359 115.206 9.81899C116.264 9.1845 117.436 8.86725 118.722 8.86725C119.745 8.86725 120.723 9.06112 121.657 9.44887C122.609 9.83662 123.428 10.383 124.116 11.088L122.477 12.9122C121.965 12.3482 121.393 11.9252 120.758 11.6432C120.124 11.3612 119.463 11.2202 118.775 11.2202C117.965 11.2202 117.224 11.4229 116.555 11.8282C115.902 12.2336 115.383 12.7888 114.995 13.4938C114.607 14.1988 114.413 14.9831 114.413 15.8467C114.413 16.7103 114.607 17.4946 114.995 18.1996C115.383 18.9046 115.911 19.4686 116.581 19.8916C117.251 20.297 118 20.4997 118.828 20.4997C119.516 20.4997 120.159 20.3675 120.758 20.1031C121.357 19.8211 121.921 19.4158 122.45 18.887L124.063 20.579C123.358 21.3016 122.538 21.8568 121.604 22.2445C120.688 22.6323 119.727 22.8262 118.722 22.8262Z" fill="black"/>
<path d="M106.647 22.5882V9.13162H109.291V22.5882H106.647ZM107.969 6.96375C107.529 6.96375 107.15 6.80513 106.832 6.48788C106.515 6.15301 106.356 5.76526 106.356 5.32464C106.356 4.86639 106.515 4.48746 106.832 4.18783C107.15 3.87058 107.529 3.71196 107.969 3.71196C108.427 3.71196 108.815 3.87058 109.132 4.18783C109.45 4.48746 109.608 4.86639 109.608 5.32464C109.608 5.76526 109.45 6.15301 109.132 6.48788C108.815 6.80513 108.427 6.96375 107.969 6.96375Z" fill="black"/>
<path d="M102.134 22.8262C100.83 22.8262 99.8344 22.5265 99.147 21.9273C98.4597 21.3104 98.116 20.4204 98.116 19.2571V11.3523H95.2607V9.13161H98.116V5.69475L100.733 5.06026V9.13161H104.699V11.3523H100.733V18.6491C100.733 19.3364 100.883 19.8299 101.183 20.1295C101.5 20.4115 102.011 20.5525 102.716 20.5525C103.086 20.5525 103.412 20.5261 103.694 20.4732C103.994 20.4204 104.311 20.341 104.646 20.2353V22.456C104.294 22.5794 103.879 22.6675 103.403 22.7204C102.945 22.7909 102.522 22.8262 102.134 22.8262Z" fill="black"/>
<path d="M86.5605 22.5882V9.13161H89.2043V10.85C89.6273 10.2155 90.1472 9.72204 90.7641 9.36955C91.3986 8.99942 92.1124 8.81436 92.9055 8.81436C93.4519 8.83199 93.9013 8.9113 94.2538 9.0523V11.4317C94.0071 11.3259 93.7515 11.2554 93.4871 11.2202C93.2228 11.1673 92.9584 11.1408 92.694 11.1408C91.9185 11.1408 91.2311 11.3523 90.6319 11.7753C90.0327 12.1807 89.5568 12.78 89.2043 13.5731V22.5882H86.5605Z" fill="black"/>
<path d="M76.7465 22.8262C75.7771 22.8262 74.9223 22.6587 74.1821 22.3239C73.4418 21.9714 72.8602 21.4867 72.4372 20.8698C72.0142 20.2529 71.8027 19.5391 71.8027 18.7284C71.8027 17.4594 72.2874 16.4636 73.2568 15.741C74.2262 15.0007 75.5568 14.6306 77.2488 14.6306C78.5707 14.6306 79.7956 14.8862 80.9236 15.3973V13.9697C80.9236 13.0003 80.6416 12.2777 80.0776 11.8018C79.5313 11.3259 78.7205 11.088 77.6454 11.088C77.0285 11.088 76.3852 11.1849 75.7155 11.3788C75.0457 11.555 74.2967 11.837 73.4683 12.2248L72.4901 10.242C73.5123 9.76612 74.4641 9.42243 75.3453 9.21093C76.2266 8.98181 77.1166 8.86725 78.0155 8.86725C79.7604 8.86725 81.1087 9.28143 82.0604 10.1098C83.0298 10.9382 83.5145 12.119 83.5145 13.6524V22.5882H80.9236V21.425C80.3244 21.9009 79.6811 22.2534 78.9937 22.4825C78.3063 22.7116 77.5573 22.8262 76.7465 22.8262ZM74.3407 18.6755C74.3407 19.3276 74.6139 19.8564 75.1603 20.2617C75.7243 20.6495 76.4557 20.8434 77.3546 20.8434C78.0596 20.8434 78.7029 20.7464 79.2845 20.5526C79.8838 20.3411 80.4301 20.015 80.9236 19.5744V17.3008C80.4125 17.0011 79.8749 16.7896 79.3109 16.6663C78.7646 16.5253 78.1477 16.4548 77.4603 16.4548C76.491 16.4548 75.7243 16.6575 75.1603 17.0628C74.6139 17.4506 74.3407 17.9881 74.3407 18.6755Z" fill="black"/>
<path d="M62.6985 22.8526C61.6587 22.8526 60.7422 22.6323 59.949 22.1917C59.1559 21.751 58.5391 21.1342 58.0984 20.3411C57.6578 19.5303 57.4375 18.605 57.4375 17.5651V9.13162H60.0548V17.1157C60.0548 18.1732 60.3544 19.0104 60.9537 19.6272C61.5705 20.2441 62.3901 20.5526 63.4123 20.5526C64.135 20.5526 64.7783 20.4027 65.3423 20.1031C65.9063 19.7859 66.3645 19.3453 66.717 18.7813V9.13162H69.3607V22.5882H66.717V21.2135C65.6771 22.3062 64.3376 22.8526 62.6985 22.8526Z" fill="black"/>
<path d="M51.2358 23.1963L49.9668 21.6629C49.2794 22.033 48.5392 22.3327 47.7461 22.5618C46.953 22.7733 46.1246 22.879 45.261 22.879C43.9038 22.879 42.6349 22.6411 41.454 22.1652C40.2907 21.6717 39.2685 20.9932 38.3872 20.1296C37.506 19.2483 36.8186 18.2349 36.3251 17.0893C35.8493 15.926 35.6113 14.6747 35.6113 13.3352C35.6113 11.9957 35.8493 10.7531 36.3251 9.60749C36.8186 8.44425 37.506 7.43082 38.3872 6.5672C39.2685 5.68595 40.2907 5.00739 41.454 4.53152C42.6349 4.03802 43.9038 3.79128 45.261 3.79128C46.6005 3.79128 47.8518 4.03802 49.0151 4.53152C50.1783 5.00739 51.2006 5.68595 52.0818 6.5672C52.963 7.43082 53.6504 8.44425 54.1439 9.60749C54.6374 10.7531 54.8842 11.9957 54.8842 13.3352C54.8842 14.6923 54.6198 15.9701 54.091 17.1686C53.5623 18.3671 52.8397 19.3981 51.9232 20.2617L53.8267 22.5882L51.2358 23.1963ZM45.261 20.3146C45.8073 20.3146 46.3273 20.2529 46.8208 20.1296C47.3319 20.0062 47.8078 19.8211 48.2484 19.5744L45.869 16.6927L48.4863 16.0582L50.2047 18.1468C50.7864 17.5299 51.2358 16.8073 51.5531 15.9789C51.8879 15.1505 52.0554 14.2693 52.0554 13.3352C52.0554 12.3305 51.8791 11.4052 51.5266 10.5592C51.1741 9.71324 50.6894 8.98181 50.0726 8.36494C49.4557 7.73044 48.7331 7.23694 47.9047 6.88444C47.094 6.53195 46.2127 6.3557 45.261 6.3557C44.2916 6.3557 43.3927 6.53195 42.5644 6.88444C41.736 7.23694 41.0134 7.73044 40.3965 8.36494C39.7796 8.98181 39.2949 9.71324 38.9424 10.5592C38.6076 11.4052 38.4401 12.3305 38.4401 13.3352C38.4401 14.3222 38.6076 15.2475 38.9424 16.1111C39.2949 16.9571 39.7796 17.6973 40.3965 18.3318C41.0134 18.9487 41.736 19.4334 42.5644 19.7859C43.3927 20.1384 44.2916 20.3146 45.261 20.3146Z" fill="black"/>
<path d="M27 9L9 27L0 18L18 0H27V9Z" fill="url(#paint0_linear_5706_18330)" fill-opacity="0.7"/>
<rect x="17.999" width="9.00003" height="9.00003" fill="#F15A29"/>
<rect width="9.00003" height="9.00003" fill="black"/>
<rect y="17.9999" width="9.00003" height="9.00003" fill="black"/>
<rect x="17.999" y="17.9999" width="9.00003" height="9.00003" fill="black"/>
<defs>
<linearGradient id="paint0_linear_5706_18330" x1="7.80882" y1="19.3235" x2="23.4265" y2="3.97059" gradientUnits="userSpaceOnUse">
<stop stop-color="white"/>
<stop offset="1" stop-color="#F15A29"/>
</linearGradient>
</defs>
</svg>
