<svg width="26" height="28" viewBox="0 0 26 28" fill="none" xmlns="http://www.w3.org/2000/svg">
<path d="M24.2596 20.3085C23.7675 20.0455 23.1905 20.0031 22.6687 20.1897L17.5142 22.0394C17.5396 21.9631 17.5566 21.8825 17.5693 21.8019C17.6626 21.2291 17.5014 20.6522 17.1323 20.2194C16.7633 19.7825 16.2202 19.5322 15.6517 19.5322H12.7966C12.139 19.5322 11.5069 19.3031 10.9639 18.8703C9.72083 17.8776 7.20083 16.5709 3.90446 18.3994V17.7885C3.90446 17.3176 3.52265 16.9358 3.05174 16.9358H1.12568C0.654768 16.9358 0.272949 17.3176 0.272949 17.7885V26.0315C0.272949 26.5025 0.654768 26.8843 1.12568 26.8843H3.05174C3.52265 26.8843 3.90446 26.5025 3.90446 26.0315V25.6667C4.54507 25.6625 6.11053 25.76 8.37174 26.6425C9.83962 27.2152 11.3669 27.5079 12.8899 27.5079C13.7342 27.5079 14.5784 27.4188 15.4057 27.2364C17.6881 26.74 21.0948 25.7261 24.3699 23.7194C24.8111 23.4522 25.1293 23.0025 25.2523 22.4891C25.456 21.6322 25.0529 20.737 24.2596 20.3085ZM3.16204 26.0358C3.16204 26.0952 3.11113 26.1461 3.05174 26.1461H1.12568C1.06628 26.1461 1.01537 26.0952 1.01537 26.0358V17.797C1.01537 17.7376 1.06628 17.6867 1.12568 17.6867H3.05174C3.11113 17.6867 3.16204 17.7376 3.16204 17.797V26.0358ZM24.5311 22.3237C24.4548 22.6461 24.2596 22.9261 23.9839 23.0915C20.7936 25.0431 17.4717 26.0315 15.2487 26.5152C13.0723 26.9903 10.7899 26.7952 8.64325 25.9552C6.3481 25.0558 4.71477 24.9243 3.95962 24.9243C3.94265 24.9243 3.92143 24.9243 3.90446 24.9243V19.2564C7.00992 17.3346 9.36446 18.5479 10.5014 19.4558C11.1675 19.9861 11.982 20.2788 12.7966 20.2788H15.6517C16.0039 20.2788 16.339 20.4315 16.5681 20.7031C16.8014 20.9746 16.8948 21.3267 16.8354 21.6873C16.7802 22.0225 16.5681 22.3109 16.2754 22.4891C16.2542 22.4976 16.2287 22.5103 16.2117 22.5273C16.0208 22.6291 15.8002 22.6885 15.5669 22.6885H12.0796C11.876 22.6885 11.7063 22.854 11.7063 23.0619C11.7063 23.2697 11.8717 23.4352 12.0796 23.4352H15.5669C15.936 23.4352 16.2839 23.3419 16.5851 23.1722L22.919 20.9025C23.2414 20.7879 23.602 20.8134 23.9202 20.9831C24.4081 21.2334 24.6584 21.7891 24.5311 22.3237Z" fill="black"/>
<path d="M8.20634 16.8041H10.7518C10.9554 16.8041 11.1251 16.6387 11.1251 16.4308V11.3399C11.1251 11.1362 10.9597 10.9666 10.7518 10.9666H8.20634C8.00271 10.9666 7.83301 11.132 7.83301 11.3399V16.4308C7.83301 16.6387 7.99846 16.8041 8.20634 16.8041ZM8.57543 11.7132H10.3785V16.0617H8.57543V11.7132Z" fill="black"/>
<path d="M14.9984 16.8042C15.202 16.8042 15.3717 16.6387 15.3717 16.4308V13.4654C15.3717 13.2617 15.2063 13.092 14.9984 13.092H12.4529C12.2493 13.092 12.0796 13.2575 12.0796 13.4654V16.4308C12.0796 16.6345 12.245 16.8042 12.4529 16.8042H14.9984ZM12.822 13.8387H14.625V16.0617H12.822V13.8387Z" fill="black"/>
<path d="M19.2411 16.8042C19.4447 16.8042 19.6144 16.6388 19.6144 16.4309V9.21879C19.6144 9.01516 19.4489 8.84546 19.2411 8.84546H16.6956C16.492 8.84546 16.3223 9.01091 16.3223 9.21879V16.4309C16.3223 16.6345 16.4877 16.8042 16.6956 16.8042H19.2411ZM17.0689 9.59213H18.872V16.0618H17.0689V9.59213Z" fill="black"/>
<path d="M23.4876 16.8041C23.6913 16.8041 23.861 16.6387 23.861 16.4308V7.09745C23.861 6.89382 23.6955 6.72412 23.4876 6.72412H20.9422C20.7385 6.72412 20.5688 6.88958 20.5688 7.09745V16.4308C20.5688 16.6344 20.7343 16.8041 20.9422 16.8041H23.4876ZM21.3155 7.47079H23.1185V16.0617H21.3155V7.47079Z" fill="black"/>
<path d="M25.6174 0.598172C25.4731 0.45393 25.2356 0.45393 25.0913 0.598172L22.9871 2.70241C22.7622 2.55817 22.4992 2.47332 22.215 2.47332C21.5192 2.47332 20.9422 2.96969 20.8107 3.62726H19.5804C19.4531 2.96969 18.8719 2.47332 18.1804 2.47332C17.3913 2.47332 16.7465 3.11393 16.7465 3.90726C16.7465 4.13635 16.8059 4.34848 16.9034 4.54363L14.358 7.08484C14.1671 6.98726 13.9507 6.92787 13.7216 6.92787C13.4331 6.92787 13.1616 7.01696 12.9368 7.16544L10.718 4.94666C10.8368 4.73878 10.9089 4.5012 10.9089 4.24666C10.9089 3.45757 10.2683 2.81272 9.47496 2.81272C8.68162 2.81272 8.04102 3.45332 8.04102 4.24666C8.04102 5.03999 8.68162 5.6806 9.47496 5.6806C9.73799 5.6806 9.98405 5.60423 10.1962 5.47696L12.4447 7.72544C12.3471 7.91635 12.2877 8.13272 12.2877 8.36181C12.2877 9.1509 12.9283 9.79575 13.7216 9.79575C14.515 9.79575 15.1556 9.15514 15.1556 8.36181C15.1556 8.07332 15.0665 7.80181 14.918 7.57696L17.3913 5.10363C17.6162 5.25211 17.8877 5.3412 18.1762 5.3412C18.804 5.3412 19.3301 4.93393 19.5253 4.37393H20.8659C21.061 4.93393 21.5871 5.3412 22.215 5.3412C23.004 5.3412 23.6489 4.7006 23.6489 3.90726C23.6489 3.66969 23.5853 3.45332 23.4834 3.25817L25.6174 1.12423C25.7616 0.975748 25.7616 0.742414 25.6174 0.598172ZM9.4792 4.93393C9.09738 4.93393 8.78768 4.62423 8.78768 4.24241C8.78768 3.8606 9.09738 3.5509 9.4792 3.5509C9.86102 3.5509 10.1707 3.8606 10.1707 4.24241C10.1707 4.62423 9.85677 4.93393 9.4792 4.93393ZM13.7259 9.04908C13.344 9.04908 13.0344 8.73938 13.0344 8.35757C13.0344 7.97575 13.344 7.66605 13.7259 7.66605C14.1077 7.66605 14.4174 7.97575 14.4174 8.35757C14.4174 8.73938 14.1034 9.04908 13.7259 9.04908ZM18.1804 4.59454C17.7986 4.59454 17.4889 4.28484 17.4889 3.90302C17.4889 3.5212 17.7986 3.21151 18.1804 3.21151C18.5622 3.21151 18.8719 3.5212 18.8719 3.90302C18.8719 4.28484 18.558 4.59454 18.1804 4.59454ZM22.215 4.59454C21.8331 4.59454 21.5234 4.28484 21.5234 3.90302C21.5234 3.5212 21.8331 3.21151 22.215 3.21151C22.5968 3.21151 22.9065 3.5212 22.9065 3.90302C22.9065 4.28484 22.5968 4.59454 22.215 4.59454Z" fill="#F15A29"/>
</svg>
