<svg width="28" height="28" viewBox="0 0 28 28" fill="none" xmlns="http://www.w3.org/2000/svg">
<g clip-path="url(#clip0_8069_68)">
<path fill-rule="evenodd" clip-rule="evenodd" d="M13.9752 28C13.926 28 13.8768 28 13.8439 27.9671C7.97166 25.6707 4.23176 20.7006 3.08355 13.6145C2.19778 8.2999 3.03434 3.73985 3.08355 3.54301C3.09995 3.42819 3.16556 3.34618 3.26398 3.29697C3.346 3.24776 3.46082 3.23136 3.57564 3.24776C3.64125 3.26416 9.61196 4.65842 13.6963 0.180389C13.8603 0.0163584 14.1064 -4.46143e-05 14.2704 0.147583C14.4345 0.311613 14.4509 0.557659 14.2868 0.721689C10.4977 4.82245 5.28156 4.31396 3.78888 4.06791C3.60845 5.29814 3.14916 9.18566 3.85449 13.4833C4.9863 20.3725 8.44734 24.9982 14.1064 27.229C14.3196 27.311 14.4016 27.5407 14.336 27.7375C14.2868 27.9015 14.1392 28 13.9752 28Z" fill="black"/>
<path fill-rule="evenodd" clip-rule="evenodd" d="M13.975 27.9999C13.8109 27.9999 13.6633 27.9015 13.6141 27.7375C13.5157 27.5407 13.6305 27.311 13.8437 27.229C19.5028 24.9982 22.9638 20.3725 24.112 13.4832C24.8174 9.18565 24.3745 5.26532 24.1941 4.0679C22.6686 4.31394 17.4524 4.82244 13.6797 0.672466C13.5157 0.524838 13.5485 0.26239 13.6961 0.114762C13.8601 -0.0492683 14.1062 -0.0328653 14.2702 0.131165C18.371 4.642 24.3417 3.24774 24.4073 3.23134C24.5221 3.19853 24.6369 3.23134 24.7354 3.26415C24.8174 3.34616 24.8994 3.42818 24.9158 3.5266C24.965 3.70703 25.8016 8.26708 24.9158 13.5981C23.7348 20.7006 20.0277 25.6543 14.139 27.9507C14.057 27.9999 14.0242 27.9999 13.975 27.9999Z" fill="black"/>
<path fill-rule="evenodd" clip-rule="evenodd" d="M13.9752 25.3099C13.926 25.3099 13.8768 25.3099 13.844 25.2935C9.1035 23.4235 6.10174 19.4212 5.16677 13.7129C4.46144 9.43175 5.15036 5.77387 5.16677 5.60984C5.19957 5.49502 5.26519 5.413 5.3472 5.36379C5.44562 5.29818 5.56044 5.29818 5.67526 5.31458C5.72447 5.34739 10.465 6.4628 13.7292 2.88693C13.8768 2.7229 14.1392 2.7065 14.2869 2.85413C14.4509 3.00175 14.4673 3.2642 14.3197 3.42823C11.2523 6.70884 7.20074 6.36438 5.8721 6.13473C5.72447 7.20093 5.39641 10.2355 5.93771 13.5817C6.85628 19.0603 9.61199 22.7346 14.1392 24.5225C14.3361 24.6046 14.4345 24.8342 14.3689 25.031C14.2869 25.2115 14.1392 25.3099 13.9752 25.3099Z" fill="#F15A29"/>
<path fill-rule="evenodd" clip-rule="evenodd" d="M13.9751 25.3098C13.8111 25.3098 13.6635 25.2114 13.6142 25.0638C13.5158 24.8506 13.6306 24.6209 13.8439 24.5389C18.3711 22.7674 21.1104 19.0767 22.029 13.5981C22.5703 10.2518 22.2586 7.20088 22.0946 6.15108C20.7824 6.38072 16.7308 6.72519 13.6963 3.41177C13.5486 3.24774 13.565 3.0017 13.7291 2.83767C13.8767 2.67363 14.1391 2.70644 14.2868 2.85407C17.5674 6.42993 22.2751 5.31453 22.3407 5.29812C22.4555 5.26532 22.5703 5.29812 22.6687 5.34733C22.7507 5.41294 22.8164 5.49496 22.8492 5.59338C22.8656 5.75741 23.5545 9.41529 22.8492 13.6801C21.865 19.4211 18.8632 23.4235 14.1063 25.2934C14.0571 25.3098 14.0243 25.3098 13.9751 25.3098Z" fill="#F15A29"/>
<path fill-rule="evenodd" clip-rule="evenodd" d="M17.3707 18.6994C17.2887 18.6994 17.2231 18.6666 17.1739 18.6502L13.9753 16.895L10.7931 18.6502C10.6455 18.7158 10.4978 18.7158 10.3502 18.6174C10.2518 18.5353 10.1698 18.3713 10.2026 18.2401L10.8751 14.6642L8.21781 12.171C8.10299 12.0561 8.05378 11.8921 8.10299 11.7609C8.15219 11.6133 8.28342 11.4984 8.43105 11.482L12.0397 11.0227L13.5816 7.72574C13.6636 7.59451 13.7948 7.49609 13.9589 7.49609C14.1065 7.49609 14.2541 7.59451 14.3197 7.72574L15.878 11.0227L19.5031 11.482C19.6671 11.4984 19.782 11.5969 19.8148 11.7609C19.864 11.9085 19.8148 12.0725 19.6999 12.171L17.0755 14.6642L17.748 18.2401C17.7808 18.3877 17.7316 18.5353 17.5839 18.6174C17.5183 18.6666 17.4527 18.6994 17.3707 18.6994ZM13.9753 16.0257C14.0409 16.0257 14.1065 16.0585 14.1557 16.0749L16.7966 17.5348L16.2225 14.5822C16.2061 14.4346 16.2553 14.3034 16.3373 14.2049L18.5517 12.1382L15.5664 11.7773C15.4351 11.7609 15.3203 11.6789 15.2547 11.5476L13.9589 8.82474L12.6794 11.5476C12.6138 11.6625 12.499 11.7609 12.3514 11.7773L9.38242 12.1382L11.5804 14.2049C11.6789 14.3034 11.7281 14.4346 11.6953 14.5822L11.1375 17.5348L13.762 16.0749C13.8441 16.0585 13.9097 16.0257 13.9753 16.0257Z" fill="black"/>
</g>
<defs>
<clipPath id="clip0_8069_68">
<rect width="28" height="28" fill="white"/>
</clipPath>
</defs>
</svg>
