<svg width="26" height="28" viewBox="0 0 26 28" fill="none" xmlns="http://www.w3.org/2000/svg">
<path d="M20.5427 11.9043C20.5559 11.8037 20.5559 11.7512 20.5646 11.6593L20.569 11.6068C20.6784 9.42373 19.9871 7.50747 18.6221 6.20372C17.2571 4.89997 15.284 4.29622 13.0702 4.50622C8.73899 4.92185 5.83398 7.8181 5.83398 11.7118C5.83398 13.6806 6.56898 15.8768 7.79398 17.5787C8.63836 18.7512 9.08461 20.1731 9.08461 21.6956V23.0562C9.08461 23.2837 9.26398 23.4675 9.49148 23.4762C9.45648 23.59 9.43023 23.7037 9.43023 23.8306C9.43023 24.1281 9.54398 24.395 9.71898 24.605C9.53961 24.815 9.43023 25.0818 9.43023 25.3793C9.43023 25.9743 9.87211 26.4687 10.4409 26.5562C10.6246 27.3787 11.3596 28 12.239 28H14.4352C15.3146 28 16.0496 27.3831 16.2334 26.5562C16.8065 26.4643 17.244 25.9743 17.244 25.3793C17.244 25.0818 17.1302 24.815 16.9552 24.605C17.1346 24.395 17.244 24.1281 17.244 23.8306C17.244 23.7081 17.2221 23.5943 17.1871 23.4806H17.279C17.5152 23.4806 17.7034 23.2925 17.7034 23.0562V20.0243C17.7034 19.8931 17.8084 19.7881 17.9396 19.7881H19.2127C20.0702 19.7881 20.7659 19.0925 20.7659 18.235V16.3756L21.4221 16.2968C21.6715 16.2662 21.8902 16.1175 22.004 15.8944C22.1221 15.6712 22.1177 15.4043 22.0127 15.2162L20.5427 11.9043ZM14.4352 27.1512H12.239C11.8409 27.1512 11.4996 26.915 11.3377 26.5781H15.3365C15.1746 26.915 14.8334 27.1512 14.4352 27.1512ZM16.0496 25.7294H10.6246C10.4321 25.7294 10.2746 25.5718 10.2746 25.3793C10.2746 25.1868 10.4321 25.0293 10.6246 25.0293H16.0496C16.2421 25.0293 16.3996 25.1868 16.3996 25.3793C16.3952 25.5718 16.2421 25.7294 16.0496 25.7294ZM16.3952 23.835C16.3952 24.0275 16.2377 24.185 16.0452 24.185H10.6202C10.4277 24.185 10.2702 24.0275 10.2702 23.835C10.2702 23.6425 10.4277 23.485 10.6202 23.485H16.0452C16.2421 23.485 16.3952 23.6381 16.3952 23.835ZM20.2934 15.5793C20.079 15.6056 19.9171 15.785 19.9171 15.9993V18.235C19.9171 18.6243 19.6021 18.9394 19.2127 18.9394H17.944C17.3446 18.9394 16.859 19.425 16.859 20.0243V22.6318H16.0496H10.6246H9.92898V21.7C9.92898 19.9981 9.42586 18.4012 8.48086 17.0843C7.35211 15.5181 6.67836 13.51 6.67836 11.7118C6.67836 8.27747 9.27711 5.72247 13.149 5.3506C15.1396 5.16247 16.8284 5.6656 18.0315 6.81622C19.2127 7.94497 19.8121 9.63372 19.7159 11.5631L19.7115 11.6156C19.7071 11.7118 19.7027 11.7512 19.6809 11.9C19.6677 11.9787 19.6809 12.0618 19.7115 12.1362L21.1946 15.47L20.2934 15.5793Z" fill="black"/>
<path d="M13.0264 3.35563C13.2627 3.35563 13.4508 3.1675 13.4508 2.93125V0.424375C13.4508 0.188125 13.2627 0 13.0264 0C12.7902 0 12.6021 0.188125 12.6021 0.424375V2.93125C12.6021 3.1675 12.7902 3.35563 13.0264 3.35563Z" fill="black"/>
<path d="M17.4014 4.54123C17.467 4.5806 17.5414 4.5981 17.6114 4.5981C17.7601 4.5981 17.9001 4.52373 17.9789 4.3881L19.2345 2.21373C19.3526 2.01248 19.2826 1.74998 19.077 1.63623C18.8758 1.5181 18.6133 1.5881 18.4995 1.79373L17.2439 3.96373C17.1258 4.16498 17.1958 4.4231 17.4014 4.54123Z" fill="black"/>
<path d="M20.9625 7.96697C21.0325 7.96697 21.1069 7.94947 21.1725 7.9101L23.3425 6.65447C23.5438 6.53635 23.6138 6.27822 23.5 6.07697C23.3819 5.87572 23.1238 5.80572 22.9225 5.91947L20.7525 7.1751C20.5513 7.29322 20.4813 7.55135 20.595 7.7526C20.6738 7.8926 20.8181 7.96697 20.9625 7.96697Z" fill="black"/>
<path d="M24.6856 11.7119H22.1788C21.9425 11.7119 21.7544 11.9 21.7544 12.1363C21.7544 12.3725 21.9425 12.5607 22.1788 12.5607H24.6856C24.9219 12.5607 25.11 12.3725 25.11 12.1363C25.11 11.9044 24.9219 11.7119 24.6856 11.7119Z" fill="black"/>
<path d="M4.82741 16.31L2.65304 17.5656C2.45179 17.6837 2.38179 17.9419 2.49991 18.1431C2.57866 18.2787 2.72304 18.3531 2.86741 18.3531C2.93741 18.3531 3.01178 18.3356 3.07741 18.2962L5.24741 17.0406C5.44866 16.9225 5.51866 16.6644 5.40491 16.4631C5.28679 16.2619 5.02866 16.1962 4.82741 16.31Z" fill="black"/>
<path d="M4.24576 12.0882C4.24576 11.8519 4.05764 11.6638 3.82139 11.6638H1.31451C1.07826 11.6638 0.890137 11.8519 0.890137 12.0882C0.890137 12.3244 1.07826 12.5126 1.31451 12.5126H3.82139C4.05326 12.5082 4.24576 12.3201 4.24576 12.0882Z" fill="black"/>
<path d="M5.27409 7.13135L3.09971 5.87573C2.89846 5.7576 2.63596 5.8276 2.52221 6.03323C2.40409 6.23448 2.47409 6.49698 2.67971 6.61073L4.84971 7.86635C4.91534 7.90573 4.98971 7.92323 5.05971 7.92323C5.20846 7.92323 5.34846 7.84885 5.42721 7.71323C5.54971 7.5076 5.47971 7.24948 5.27409 7.13135Z" fill="black"/>
<path d="M8.06496 4.36199C8.14371 4.49761 8.28808 4.57199 8.43246 4.57199C8.50246 4.57199 8.57683 4.55449 8.64246 4.51511C8.84371 4.39699 8.91371 4.13886 8.79996 3.93761L7.54433 1.76761C7.42621 1.56199 7.16808 1.49636 6.96683 1.61011C6.76121 1.72824 6.69558 1.98636 6.80933 2.18761L8.06496 4.36199Z" fill="black"/>
<path d="M18.3768 10.4344C18.2675 10.3731 18.1318 10.3644 18.0181 10.4125L17.9437 10.4431C17.7162 10.5306 17.4581 10.4169 17.3706 10.1938C17.3268 10.08 17.3312 9.96625 17.3793 9.85688C17.4275 9.7475 17.5106 9.66438 17.62 9.625L17.6943 9.59438C17.8125 9.55063 17.9043 9.45438 17.9437 9.33625C17.9831 9.21813 17.97 9.08688 17.9043 8.9775C17.515 8.34313 16.9812 7.7875 16.36 7.37188C16.255 7.30188 16.1237 7.28 16.0056 7.315C15.8831 7.35 15.7868 7.4375 15.7343 7.55125L15.7037 7.62563C15.6075 7.84438 15.3318 7.945 15.1218 7.85313C14.8987 7.75688 14.7981 7.49438 14.8943 7.27125L14.925 7.19688C14.9775 7.08313 14.9731 6.95188 14.9162 6.83813C14.8593 6.72438 14.7587 6.64125 14.6362 6.615C13.9143 6.44 13.1443 6.42688 12.4093 6.57125C12.2868 6.5975 12.1775 6.67188 12.1206 6.78563C12.0593 6.895 12.0506 7.02625 12.0987 7.14438L12.125 7.21875C12.2125 7.44625 12.1031 7.7 11.8756 7.7875C11.6525 7.875 11.39 7.76125 11.3025 7.53813L11.2718 7.46375C11.2281 7.34563 11.1318 7.25375 11.0093 7.21438C10.8912 7.175 10.76 7.18813 10.6506 7.25375C10.0162 7.64313 9.46497 8.17688 9.04497 8.79813C8.97497 8.90313 8.9531 9.03438 8.9881 9.1525C9.0231 9.275 9.1106 9.37125 9.22435 9.42375L9.29872 9.45438C9.4081 9.5025 9.49122 9.58563 9.5306 9.69938C9.57435 9.80875 9.56997 9.93125 9.52622 10.0363C9.42997 10.2506 9.17185 10.3644 8.94435 10.2638L8.86997 10.2331C8.75622 10.185 8.62497 10.185 8.51122 10.2419C8.39747 10.2988 8.31872 10.3994 8.2881 10.5219C8.1131 11.2481 8.09997 12.0181 8.24435 12.7488C8.2706 12.8713 8.34497 12.9763 8.45872 13.0375C8.5681 13.0988 8.69935 13.1075 8.81747 13.0594L8.89185 13.0288C9.12372 12.9369 9.37747 13.055 9.46497 13.2781C9.55247 13.5056 9.4431 13.7594 9.2156 13.8513L9.14122 13.8819C9.0231 13.93 8.9356 14.0219 8.89622 14.1444C8.85685 14.2625 8.86997 14.3938 8.93997 14.5031C9.32935 15.1375 9.8631 15.6931 10.4843 16.1088C10.5893 16.1788 10.7162 16.1963 10.8387 16.1656C10.9612 16.1306 11.0575 16.0431 11.11 15.9294L11.1406 15.855C11.2325 15.6363 11.495 15.5313 11.7225 15.6275C11.8318 15.6756 11.915 15.7588 11.9543 15.8681C11.9981 15.9775 11.9937 16.0956 11.9456 16.205L11.915 16.2794C11.8668 16.3931 11.8668 16.5244 11.9237 16.6381C11.9806 16.7519 12.0812 16.8306 12.2037 16.8613C12.6018 16.9575 13.0087 17.0056 13.4156 17.0056C13.7525 17.0056 14.0937 16.9706 14.4306 16.905C14.5531 16.8788 14.6625 16.8044 14.7193 16.6906C14.7806 16.5813 14.7893 16.45 14.7412 16.3319L14.7106 16.2575C14.6668 16.1481 14.6712 16.03 14.7193 15.9206C14.7675 15.8113 14.8506 15.7281 14.96 15.6844C15.1831 15.5969 15.4456 15.715 15.5331 15.9338L15.5637 16.0081C15.6118 16.1263 15.7037 16.2138 15.8262 16.2531C15.9443 16.2925 16.0756 16.2794 16.185 16.2138C16.8193 15.8244 17.375 15.2906 17.7906 14.6694C17.8606 14.5644 17.8825 14.4331 17.8431 14.315C17.8081 14.1925 17.7206 14.0963 17.6068 14.0438L17.5325 14.0131C17.4275 13.965 17.3443 13.8819 17.3006 13.7725C17.2568 13.6631 17.2612 13.545 17.305 13.4356C17.4012 13.2169 17.6681 13.1119 17.8868 13.2081L17.9612 13.2388C18.075 13.2869 18.2106 13.2869 18.32 13.23C18.4337 13.1731 18.5125 13.0725 18.5431 12.95C18.7137 12.2238 18.7268 11.4538 18.5825 10.7231C18.565 10.6006 18.4862 10.4956 18.3768 10.4344ZM17.7993 12.3288C17.2656 12.2894 16.7493 12.6044 16.5306 13.0988C16.3906 13.4138 16.3862 13.7638 16.5131 14.0831C16.5831 14.2625 16.6925 14.42 16.8281 14.5513C16.6137 14.8094 16.3687 15.0456 16.1018 15.2513C15.7606 14.8575 15.17 14.7 14.6581 14.8969C14.3387 15.0238 14.085 15.2644 13.945 15.5794C13.8662 15.7588 13.8312 15.9469 13.8356 16.135C13.5031 16.1656 13.1618 16.1613 12.8293 16.1131C12.8425 15.925 12.8118 15.7369 12.7418 15.5531C12.615 15.2338 12.3743 14.98 12.055 14.8444C11.5562 14.63 10.9568 14.7613 10.6025 15.1419C10.3443 14.9275 10.1081 14.6825 9.90247 14.4156C10.3006 14.0656 10.4581 13.4925 10.2568 12.9719C10.0556 12.4644 9.57872 12.1319 9.01872 12.1538C8.9881 11.8213 8.99247 11.48 9.0406 11.1475C9.57435 11.1825 10.0906 10.8719 10.3093 10.3775C10.445 10.0625 10.4537 9.7125 10.3268 9.38875C10.2568 9.20938 10.1475 9.05188 10.0118 8.92063C10.2262 8.6625 10.4712 8.42625 10.7381 8.225C11.0793 8.61438 11.6743 8.77188 12.1818 8.575C12.7025 8.36938 13.0131 7.86625 13 7.33688C13.3368 7.30625 13.6781 7.31063 14.0062 7.35438C13.9712 7.87938 14.2643 8.4 14.7762 8.62313C15.275 8.8375 15.87 8.70625 16.2287 8.32563C16.4868 8.54 16.7231 8.785 16.9287 9.05188C16.7887 9.17438 16.675 9.33188 16.5962 9.50688C16.4606 9.82188 16.4518 10.1719 16.5787 10.4956C16.78 11.0031 17.2656 11.3356 17.8168 11.3138C17.8518 11.655 17.8475 11.9919 17.7993 12.3288Z" fill="#F15A29"/>
<path d="M13.4246 9.06494C11.9502 9.06494 10.7471 10.2637 10.7471 11.7424C10.7471 13.2168 11.9458 14.4199 13.4246 14.4199C14.8989 14.4199 16.1021 13.2212 16.1021 11.7424C16.1021 10.2637 14.8989 9.06494 13.4246 9.06494ZM13.4246 13.5668C12.4183 13.5668 11.5958 12.7443 11.5958 11.7381C11.5958 10.7318 12.4139 9.90932 13.4246 9.90932C14.4308 9.90932 15.2533 10.7274 15.2533 11.7381C15.2533 12.7487 14.4308 13.5668 13.4246 13.5668Z" fill="#F15A29"/>
</svg>
