<svg width="28" height="28" viewBox="0 0 28 28" fill="none" xmlns="http://www.w3.org/2000/svg">
<g clip-path="url(#clip0_8069_85)">
<path d="M26.8364 12.1977C26.6939 12.1141 26.5179 12.1119 26.3734 12.1921L25.0892 12.9057L24.7331 0.4536C24.726 0.200958 24.5191 -0.000116616 24.2664 5.0743e-08H20.9998C20.7471 -0.000116616 20.5402 0.200958 20.5331 0.4536L20.0982 15.68L18.6664 16.4733V12.6C18.6663 12.3423 18.4573 12.1334 18.1995 12.1336C18.1204 12.1336 18.0426 12.1537 17.9734 12.1921L10.2664 16.4733V12.6C10.2663 12.3423 10.0573 12.1334 9.79954 12.1336C9.72044 12.1336 9.64262 12.1537 9.57344 12.1921L1.17344 16.8588C1.02521 16.941 0.933164 17.0972 0.933105 17.2667V27.5333C0.933105 27.791 1.14206 28 1.39977 28H26.5998C26.8575 28 27.0664 27.791 27.0664 27.5333V12.6C27.0664 12.4346 26.9789 12.2816 26.8364 12.1977ZM21.4534 0.933333H23.8128L23.8399 1.86667H21.4268L21.4534 0.933333ZM21.3997 2.8H23.8665L24.1698 13.4162L21.0464 15.1508L21.3997 2.8ZM13.5331 27.0667H10.7331V24.7333H13.5331V27.0667ZM17.2664 27.0667H14.4664V24.7333H17.2664V27.0667ZM26.1331 27.0667H18.1998V24.2667C18.1998 24.0089 17.9908 23.8 17.7331 23.8H10.2664C10.0087 23.8 9.79977 24.0089 9.79977 24.2667V27.0667H1.86644V17.5415L9.33311 13.3933V17.2667C9.33322 17.5244 9.54229 17.7332 9.8 17.7331C9.87911 17.733 9.95692 17.7129 10.0261 17.6745L17.7331 13.3933V17.2667C17.7332 17.5244 17.9423 17.7332 18.2 17.7331C18.2791 17.733 18.3569 17.7129 18.4261 17.6745L22.8272 15.2297L24.8731 14.0933L26.1331 13.3933V27.0667Z" fill="black"/>
<path d="M7.4666 18.6666H3.73327C3.47555 18.6666 3.2666 18.8756 3.2666 19.1333V21C3.2666 21.2577 3.47555 21.4666 3.73327 21.4666H7.4666C7.72432 21.4666 7.93327 21.2577 7.93327 21V19.1333C7.93327 18.8756 7.72432 18.6666 7.4666 18.6666ZM6.99993 20.5333H4.19993V19.6H6.99993V20.5333Z" fill="#F15A29"/>
<path d="M15.8665 18.6666H12.1332C11.8755 18.6666 11.6665 18.8756 11.6665 19.1333V21C11.6665 21.2577 11.8755 21.4666 12.1332 21.4666H15.8665C16.1242 21.4666 16.3332 21.2577 16.3332 21V19.1333C16.3332 18.8756 16.1242 18.6666 15.8665 18.6666ZM15.3998 20.5333H12.5998V19.6H15.3998V20.5333Z" fill="#F15A29"/>
<path d="M24.2669 18.6666H20.5336C20.2758 18.6666 20.0669 18.8756 20.0669 19.1333V21C20.0669 21.2577 20.2758 21.4666 20.5336 21.4666H24.2669C24.5246 21.4666 24.7336 21.2577 24.7336 21V19.1333C24.7336 18.8756 24.5246 18.6666 24.2669 18.6666ZM23.8002 20.5333H21.0002V19.6H23.8002V20.5333Z" fill="#F15A29"/>
</g>
<defs>
<clipPath id="clip0_8069_85">
<rect width="28" height="28" fill="white"/>
</clipPath>
</defs>
</svg>
