<svg width="46" height="46" viewBox="0 0 46 46" fill="none" xmlns="http://www.w3.org/2000/svg">
<path d="M35.2666 25.4219C35.5676 25.4219 35.8288 25.6304 35.8955 25.9238L36.7441 29.6543C37.2123 31.7134 38.8198 33.3219 40.8789 33.79L44.6094 34.6377C44.9028 34.7044 45.1113 34.9656 45.1113 35.2666C45.1113 35.5676 44.9028 35.8288 44.6094 35.8955L40.8789 36.7441C38.8198 37.2123 37.2123 38.8198 36.7441 40.8789L35.8955 44.6094C35.8288 44.9028 35.5676 45.1113 35.2666 45.1113C34.9656 45.1113 34.7044 44.9028 34.6377 44.6094L33.79 40.8789C33.3219 38.8198 31.7134 37.2123 29.6543 36.7441L25.9238 35.8955C25.6304 35.8288 25.4219 35.5676 25.4219 35.2666C25.4219 34.9656 25.6304 34.7044 25.9238 34.6377L29.6543 33.79C31.7134 33.3219 33.3219 31.7134 33.79 29.6543L34.6377 25.9238C34.7044 25.6304 34.9656 25.4219 35.2666 25.4219ZM0.998047 31.1406C1.08782 31.0859 1.19312 31.078 1.27832 31.1143C2.00073 31.4222 2.77756 31.7013 3.59277 31.9521C7.48853 33.1508 12.7236 33.8555 18.4004 33.8555C19.1725 33.8555 19.9359 33.8419 20.6885 33.8164C20.7185 33.8154 20.8771 33.8401 21.0771 34.1357C21.2686 34.4187 21.3645 34.772 21.3516 35.0166C21.3472 35.0995 21.3447 35.1829 21.3447 35.2666C21.3447 37.471 22.87 39.3823 25.0195 39.8711L25.5791 39.998C23.3862 40.328 20.9538 40.5117 18.4004 40.5117C13.6942 40.5117 9.4068 39.893 6.27441 38.876C4.71182 38.3686 3.40004 37.7504 2.46582 37.0332C1.5386 36.3214 0.888767 35.4341 0.888672 34.3906V31.3076C0.888672 31.2539 0.913177 31.1923 0.998047 31.1406ZM35.5215 20.3809C35.6067 20.3446 35.712 20.3526 35.8018 20.4072C35.8866 20.4589 35.9111 20.5205 35.9111 20.5742V20.9756C35.9111 21.0065 35.8997 21.0804 35.7734 21.1768C35.6408 21.2779 35.4476 21.3447 35.2666 21.3447C33.0622 21.3448 31.1509 22.87 30.6621 25.0195L30.0508 27.708C30.0369 27.7688 29.9936 27.8057 29.9521 27.8154C26.8162 28.5542 22.8106 29.0117 18.4004 29.0117C13.0686 29.0117 8.33623 28.3433 5.01758 27.3223C3.34332 26.8071 2.16471 26.2427 1.45801 25.7285C1.07365 25.4489 0.933806 25.2665 0.888672 25.1943V20.5742C0.888672 20.5206 0.913176 20.459 0.998047 20.4072C1.08781 20.3525 1.19313 20.3446 1.27832 20.3809C2.00073 20.6888 2.77756 20.9679 3.59277 21.2188C7.48855 22.4175 12.7236 23.1221 18.4004 23.1221C24.077 23.122 29.3114 22.4174 33.207 21.2188C34.0223 20.9679 34.7991 20.6888 35.5215 20.3809ZM18.4004 0.888672C23.1063 0.888706 27.393 1.50745 30.5254 2.52441C32.0879 3.03175 33.3997 3.64907 34.334 4.36621C35.2615 5.07816 35.9111 5.96611 35.9111 7.00977V14.4609C35.866 14.5332 35.7262 14.7155 35.3418 14.9951C34.7235 15.4449 33.7444 15.9335 32.3877 16.3936L31.7822 16.5889C28.4637 17.6099 23.732 18.2783 18.4004 18.2783C13.0686 18.2783 8.33624 17.6099 5.01758 16.5889C3.34332 16.0737 2.16471 15.5093 1.45801 14.9951C1.07355 14.7154 0.933751 14.5331 0.888672 14.4609V7.00977C0.888672 5.96613 1.53841 5.07814 2.46582 4.36621C3.40004 3.64909 4.71186 3.03174 6.27441 2.52441C9.4068 1.5074 13.6942 0.888672 18.4004 0.888672ZM18.4004 2.17773C13.7916 2.17773 9.64491 2.78511 6.67285 3.75C5.18329 4.23362 4.02384 4.79639 3.25098 5.38965C2.55887 5.92101 2.25621 6.41139 2.19141 6.83301L2.17773 7.00977L2.19141 7.18555C2.25605 7.6073 2.55844 8.09824 3.25098 8.62988C4.02384 9.22315 5.18333 9.78489 6.67285 10.2686C9.64491 11.2334 13.7915 11.8408 18.4004 11.8408C23.009 11.8408 27.155 11.2334 30.127 10.2686C31.6165 9.78489 32.776 9.22316 33.5488 8.62988C34.3399 8.0226 34.622 7.46851 34.6221 7.00977C34.6221 6.55097 34.3399 5.99697 33.5488 5.38965C32.776 4.79638 31.6165 4.23362 30.127 3.75C27.155 2.78517 23.0089 2.17777 18.4004 2.17773Z" stroke="#F15A29" stroke-width="1.77727"/>
</svg>
