<svg width="52" height="52" viewBox="0 0 52 52" fill="none" xmlns="http://www.w3.org/2000/svg">
<path fill-rule="evenodd" clip-rule="evenodd" d="M10.9172 23.339C10.9172 22.5149 11.5887 21.8439 12.4123 21.8439C12.8898 21.8439 13.3138 22.0679 13.5884 22.4169C13.6263 22.4842 13.6617 22.5539 13.6899 22.6271C13.9866 23.3972 13.6016 24.2639 12.8327 24.5607C12.2098 24.8011 11.5239 24.5951 11.1273 24.1007C10.994 23.8772 10.9172 23.6177 10.9172 23.339ZM9.938 24.8894C10.4552 25.713 11.3707 26.2614 12.4123 26.2612C14.0239 26.2612 15.3346 24.9504 15.3346 23.3389C15.3346 22.7027 15.1291 22.1134 14.7824 21.6336C14.476 21.1326 14.0268 20.7373 13.4789 20.494C12.0039 19.8395 10.2784 20.5034 9.62309 21.9808C9.19513 22.9459 9.32045 24.0452 9.938 24.8894ZM30.5413 8.08694C30.1638 8.47704 29.5453 8.48256 29.1603 8.10982C28.5311 7.50048 28.9647 6.43209 29.8397 6.43209C30.6973 6.43209 31.1394 7.46866 30.5413 8.08694ZM31.509 5.68121C30.5562 4.75977 29.0329 4.78567 28.1115 5.73841C26.6517 7.24818 27.7039 9.8278 29.8794 9.81043C30.5216 9.80024 31.1204 9.53951 31.5662 9.07816C32.487 8.12594 32.4617 6.6014 31.509 5.68121ZM39.5207 20.4627C38.5415 19.4578 38.5649 17.8437 39.5704 16.8645C41.1819 15.2958 43.9182 16.4535 43.8882 18.7242C43.8792 19.4023 43.6059 20.0385 43.1188 20.5118H43.1182C42.1133 21.4905 40.4992 21.4683 39.5207 20.4627ZM32.1182 11.789C33.2406 11.2047 34.0899 10.2138 34.5005 9.03178L39.4827 15.1804C38.8113 15.5382 38.2626 16.0745 37.8898 16.7338L32.1182 11.789ZM29.8986 10.9193C30.8357 10.9037 31.7114 10.5233 32.3632 9.84818C33.7094 8.45697 33.6714 6.2296 32.2796 4.88353C30.8889 3.53902 28.6604 3.57469 27.3148 4.96715C25.9688 6.36012 26.006 8.58697 27.3985 9.93242C28.0726 10.5841 28.9586 10.9379 29.8986 10.9193ZM18.4479 21.7704C18.2647 21.064 17.9595 20.4075 17.557 19.8205C16.695 18.4636 15.3518 17.5193 13.8472 17.1308L25.2234 9.15752C25.6087 10.1788 26.323 11.0466 27.2713 11.6251L18.4479 21.7704ZM21.4799 34.7753H20.4876C20.1783 34.7753 19.9043 34.9742 19.8094 35.2679L19.0147 37.7133C18.2266 37.944 17.4661 38.2594 16.7442 38.6552L14.4519 37.4869C14.1762 37.3469 13.8428 37.3992 13.6242 37.6178L13.2853 37.9566L11.1473 29.4448C13.5569 29.9401 15.9547 28.9857 17.3854 27.0953L21.4799 34.7753ZM24.3105 38.5181L23.5577 36.2013L21.0054 36.2014L20.2527 38.5183C20.1765 38.7513 19.9885 38.9279 19.7518 38.9886C18.8303 39.2253 17.9474 39.5918 17.125 40.0783C16.9148 40.202 16.6565 40.2105 16.4384 40.0988L14.2658 38.9929L12.4614 40.7981L13.5679 42.9701C13.6797 43.1876 13.6707 43.447 13.5463 43.6573C13.0603 44.4785 12.6945 45.3627 12.4579 46.283C12.3973 46.5197 12.2201 46.7089 11.9876 46.784L9.66958 47.5367V48.1007L14.1237 48.1006C14.4852 43.9156 18.0058 40.6207 22.2815 40.6206C26.5578 40.6205 30.0785 43.9153 30.4409 48.1002L34.8944 48.1001V47.5361L32.5768 46.7835C32.3438 46.7084 32.1672 46.5192 32.1059 46.2825C31.8692 45.3611 31.5033 44.4781 31.0168 43.6569C30.8931 43.4467 30.8841 43.1871 30.9958 42.9697L32.1023 40.7975L30.2978 38.9925L28.1251 40.0997C27.907 40.2103 27.6488 40.2024 27.4385 40.0781C26.6162 39.5916 25.7319 39.2252 24.8117 38.9885C24.5749 38.9277 24.3868 38.7511 24.3105 38.5181ZM25.1931 48.1003L19.3707 48.1004C19.6908 46.7903 20.8747 45.8148 22.2816 45.8147C23.689 45.8147 24.8729 46.7902 25.1931 48.1003ZM22.2815 44.3893C20.0854 44.3894 18.2586 45.9986 17.9164 48.1004L15.5539 48.1005C15.9112 44.7036 18.7914 42.0467 22.2815 42.0466C25.7721 42.0465 28.6525 44.7033 29.0099 48.1002L26.6475 48.1003C26.3055 45.9985 24.4782 44.3893 22.2815 44.3893ZM7.60372 23.3391C7.60372 24.3194 7.89929 25.2319 8.4039 25.9923C9.31275 27.2411 10.773 27.9739 12.2994 27.9739C15.6588 27.9738 18.0005 24.5876 16.7816 21.4347C16.6663 21.1374 16.5245 20.858 16.3605 20.5974C15.4907 19.3492 14.046 18.5299 12.4122 18.53C9.76131 18.5299 7.60362 20.6882 7.60372 23.3391ZM47.0445 23.8859L44.295 21.3438C45.6923 19.7956 45.6505 17.4193 44.1904 15.9196C43.3477 15.054 42.1603 14.6174 40.9592 14.7375L34.7642 7.09156C34.6891 5.90762 34.1899 4.74646 33.2713 3.85872H33.2701C31.3142 1.96602 28.1816 2.01948 26.2889 3.97665C25.3073 4.9919 24.8509 6.32414 24.9104 7.6361L11.5921 16.9694C11.0756 17.0282 10.5589 17.152 10.0514 17.3478C6.84369 18.5841 5.24053 22.2003 6.47688 25.4086C6.67271 25.9161 6.92866 26.3822 7.23203 26.8052C7.81297 27.6695 8.60347 28.3801 9.53157 28.866L12.1106 39.1318L11.087 40.1553C10.8684 40.3739 10.8149 40.7086 10.9561 40.9831L12.1233 43.2753C11.7286 43.9974 11.4132 44.759 11.1821 45.546L8.73607 46.3407C8.44238 46.4363 8.24405 46.7101 8.24415 47.0189V48.1007L5.43959 48.1008C5.04491 48.1008 4.72656 48.4198 4.72656 48.8139C4.72656 49.2073 5.04491 49.5269 5.43959 49.5269L39.1245 49.5261C39.519 49.5261 39.8375 49.2065 39.8375 48.813C39.8375 48.419 39.5191 48.1 39.1245 48.1L36.3204 48.1001V47.0183C36.3204 46.7095 36.1204 46.4357 35.8266 46.3401L33.3818 45.5455C33.1499 44.7586 32.8351 43.9969 32.4405 43.2748L33.6076 40.9826C33.7487 40.7081 33.6952 40.3734 33.4766 40.1548L30.9392 37.6175C30.7212 37.3988 30.3872 37.3466 30.1115 37.4866L27.8192 38.655C27.0972 38.2592 26.3356 37.9439 25.5486 37.7132L24.7538 35.2679C24.6589 34.9742 24.385 34.7753 24.0757 34.7753H23.096L18.2145 25.6191C18.4482 25.028 18.5935 24.3919 18.6344 23.7286L28.6572 12.2042C29.2692 12.3533 29.8962 12.3848 30.5205 12.2973L37.407 18.1977C37.27 19.3048 37.5974 20.4599 38.3934 21.3441L35.6447 23.8863C35.4129 24.1008 35.3492 24.442 35.4885 24.7242L38.0326 29.8884C38.2093 30.2456 38.6372 30.3847 38.9871 30.2132C39.3409 30.039 39.4863 29.6114 39.3121 29.2581L37.0029 24.5722L39.5419 22.2252C40.6723 22.8006 42.0158 22.8009 43.1478 22.2264L45.6858 24.572L43.3769 29.258C43.1413 29.737 43.499 30.2864 44.0167 30.2864C44.2792 30.2864 44.532 30.1398 44.6564 29.888L47.2003 24.7238C47.34 24.4416 47.2763 24.1003 47.0445 23.8859Z" fill="#F15A29"/>
</svg>
