<svg width="52" height="52" viewBox="0 0 52 52" fill="none" xmlns="http://www.w3.org/2000/svg">
<path d="M51.2023 14.7054C50.0509 12.6758 48.4345 9.46472 47.7229 7.60429C47.5986 7.2796 47.5357 6.93997 47.5357 6.59466V6.05861H47.5601C48.4685 6.05861 49.2077 5.31944 49.2077 4.41097V1.71448C49.2077 0.806005 48.4685 0.0668335 47.5601 0.0668335H35.2784C34.3699 0.0668335 33.6309 0.806005 33.6309 1.71448V4.41097C33.6309 5.09357 34.0481 5.6804 34.6409 5.93004L32.9108 9.41688C32.2035 10.8626 31.9285 12.472 32.1153 14.0709L32.2703 15.3968H26.5989C26.3841 15.3968 26.1815 15.4482 26.0006 15.5373C25.8198 15.4483 25.6172 15.3968 25.4023 15.3968H20.9061C20.5364 13.0445 18.4955 11.2894 16.0963 11.2894C13.6971 11.2894 11.6562 13.0445 11.2865 15.3968H6.79033C6.04039 15.3968 5.43041 16.0069 5.43041 16.7567V20.7754C4.04672 21.8936 2.69777 23.0795 2.17949 23.4867C1.44844 24.0615 1.03752 24.919 0.923468 26.1083L0.0294138 33.6858C0.0287029 33.6917 0.0280935 33.6976 0.0274841 33.7034C-0.0910393 34.9581 0.175258 36.2012 0.797734 37.2983C1.1076 37.8447 1.46388 38.5011 1.82788 39.1964C2.02298 39.5692 2.48327 39.7132 2.8559 39.518C3.22863 39.3229 3.37255 38.8626 3.17744 38.49C2.80562 37.7796 2.44091 37.1077 2.12272 36.5467C1.65655 35.7249 1.45627 34.7944 1.5433 33.8551L2.43726 26.2782C2.43797 26.2723 2.43858 26.2665 2.43919 26.2606C2.51272 25.4834 2.72295 24.9972 3.12098 24.6843C3.56003 24.3389 4.41702 23.592 5.4303 22.747V29.4331C5.4303 30.6155 5.89079 31.7272 6.72705 32.5633L9.90464 35.7404C10.8663 36.7021 13.9141 36.2064 13.9136 33.7852C13.9134 32.9068 13.9132 31.3135 13.9132 29.9107C13.9132 28.1132 14.9444 25.6688 16.1649 24.5727C16.7175 24.0764 16.9942 24.0987 17.2426 24.0987C17.4361 24.0987 17.9499 24.0987 17.9499 25.2568C17.9517 35.1324 17.8071 34.0132 18.3716 38.1096C18.5245 39.4176 18.2995 40.7343 17.7227 41.9135L15.7223 45.9452H5.98778C5.96696 45.6023 6.08173 44.8526 5.70005 43.8551C5.47672 43.2713 5.16634 42.5515 4.77766 41.7159C4.60023 41.3344 4.14726 41.169 3.7658 41.3465C3.38433 41.5239 3.21898 41.977 3.39641 42.3584C3.77027 43.1619 4.06662 43.8487 4.27727 44.3995C4.53747 45.0795 4.44484 45.565 4.46445 45.9452H4.44007C3.53159 45.9452 2.79242 46.6843 2.79242 47.5928V50.2852C2.79242 51.1937 3.53159 51.9329 4.44007 51.9329H16.7217C17.6302 51.9329 18.3694 51.1937 18.3694 50.2852V47.5928C18.3694 46.9102 17.952 46.3234 17.3592 46.0736L19.0893 42.5868C19.7966 41.1408 20.0717 39.5315 19.8848 37.9328L19.744 36.7283H25.4023C25.6171 36.7283 25.8197 36.6769 26.0006 36.5877C26.1813 36.6768 26.384 36.7283 26.5989 36.7283H31.0963C31.4629 39.0525 33.48 40.8356 35.9059 40.8356C38.3317 40.8356 40.3487 39.0526 40.7155 36.7283H45.2108C45.9607 36.7283 46.5707 36.1182 46.5707 35.3683V31.2272C47.982 30.0867 49.291 28.933 49.8206 28.5167C50.5517 27.942 50.9626 27.0845 51.0768 25.8953L51.9709 18.3177C51.9716 18.3118 51.9722 18.3059 51.9728 18.3001C52.0911 17.0459 51.8248 15.8027 51.2023 14.7054ZM16.8459 50.2855C16.8459 50.354 16.7902 50.4097 16.7217 50.4097H4.44007C4.37162 50.4097 4.31586 50.354 4.31586 50.2855V47.5931C4.31586 47.5247 4.37162 47.4689 4.44007 47.4689H16.7217C16.7902 47.4689 16.8459 47.5247 16.8459 47.5931V50.2855ZM19.4734 34.4132V25.2572C19.4734 22.4357 16.9507 21.8199 15.1471 23.4397C13.601 24.8281 12.3898 27.6706 12.3898 29.9111C12.3898 31.3142 12.3899 32.9075 12.3902 33.786C12.3904 34.5482 11.5145 34.8375 10.8966 34.5783L7.80423 31.4864C7.25579 30.9381 6.95384 30.2091 6.95384 29.4334C6.95384 28.2238 6.95384 18.1283 6.95384 16.9203H11.4287C12.113 16.9203 12.6925 16.4125 12.7766 15.739C12.9848 14.0709 14.412 12.8129 16.0963 12.8129C17.7806 12.8129 19.2078 14.0709 19.416 15.739C19.5001 16.4125 20.0796 16.9203 20.7639 16.9203H25.2387V21.2498C22.9036 21.6072 21.1094 23.6293 21.1094 26.0628C21.1094 28.4962 22.9036 30.5184 25.2387 30.8757V35.2052H19.5659L19.4734 34.4132ZM45.0472 35.2052H40.013C39.5923 35.2052 39.2513 35.5463 39.2513 35.9669C39.2513 37.8117 37.7504 39.3126 35.9057 39.3126C34.0609 39.3126 32.56 37.8117 32.56 35.9669C32.56 35.5463 32.218 35.2052 31.7972 35.2052H26.7622V30.1696C26.7622 29.9384 26.6569 29.7187 26.4763 29.5753C26.2364 29.383 25.983 29.4102 25.9727 29.4084C24.1306 29.4053 22.6328 27.9056 22.6328 26.0628C22.6328 24.2209 24.1287 22.7219 25.9695 22.7171C26.4065 22.7321 26.7621 22.3864 26.7621 21.956V16.9203H32.4482L32.5266 17.5908V26.7469C32.5266 28.3851 33.365 29.4086 34.7178 29.4281C35.4177 29.4894 36.155 29.1911 36.8527 28.5645C38.3988 27.1761 39.61 24.3336 39.61 22.0931L39.6096 18.2181C39.6093 17.4573 40.4837 17.1659 41.1033 17.4259L44.1956 20.5178C44.744 21.0661 45.0461 21.7952 45.0461 22.5707C45.0463 24.0369 45.0471 33.6205 45.0472 35.2052ZM50.4567 18.1487L49.5627 25.7256C49.562 25.7315 49.5613 25.7373 49.5607 25.7432C49.4872 26.5204 49.277 27.0066 48.8789 27.3195C48.4372 27.6667 47.5888 28.4069 46.5695 29.2568V22.5706C46.5695 21.3883 46.109 20.2764 45.2728 19.4404C41.9235 16.1042 42.093 16.2323 41.9383 16.1427C40.4223 15.2652 38.0861 16.1577 38.0864 18.2184L38.0868 22.093C38.0868 23.8905 37.0556 26.3349 35.8351 27.4309C35.4595 27.7681 35.1056 27.9383 34.8391 27.9094C34.8119 27.9064 34.7847 27.905 34.7574 27.905C34.564 27.905 34.0501 27.905 34.0501 26.7469C34.0483 16.9203 34.1933 17.9575 33.6284 13.8941C33.4756 12.5858 33.7006 11.2692 34.2774 10.0901L36.2778 6.05851H36.7097C37.1305 6.05851 37.4714 5.71747 37.4714 5.29679C37.4714 4.87612 37.1305 4.53508 36.7097 4.53508C36.2433 4.53508 35.546 4.53508 35.2784 4.53508C35.2099 4.53508 35.1542 4.47932 35.1542 4.41086V1.71438C35.1542 1.64593 35.2099 1.59017 35.2784 1.59017H47.5601C47.6286 1.59017 47.6844 1.64593 47.6844 1.71438V4.41086C47.6844 4.47932 47.6286 4.53508 47.5601 4.53508H40.2637C39.8429 4.53508 39.502 4.87612 39.502 5.29679C39.502 5.71747 39.8429 6.05851 40.2637 6.05851H46.0122V6.59456C46.0122 7.12654 46.109 7.64939 46.3 8.14847C47.1126 10.2726 48.8811 13.701 49.8772 15.457C50.3435 16.2789 50.5438 17.2095 50.4567 18.1487Z" fill="#F15A29"/>
</svg>
