<svg width="19" height="18" viewBox="0 0 19 18" fill="none" xmlns="http://www.w3.org/2000/svg">
<path d="M15.5354 15.339H12.8699V11.1622C12.8699 10.1662 12.8497 8.8845 11.4809 8.8845C10.0912 8.8845 9.87892 9.9683 9.87892 11.0887V15.339H7.21342V6.75H9.77392V7.9207H9.80841C10.1662 7.2457 11.0362 6.53325 12.3359 6.53325C15.0367 6.53325 15.5362 8.3108 15.5362 10.6245L15.5354 15.339ZM4.20295 5.57475C3.34495 5.57475 2.6557 4.88025 2.6557 4.026C2.6557 3.1725 3.3457 2.47875 4.20295 2.47875C5.05795 2.47875 5.75095 3.1725 5.75095 4.026C5.75095 4.88025 5.0572 5.57475 4.20295 5.57475ZM5.53945 15.339H2.86645V6.75H5.53945V15.339ZM16.8689 0H1.52845C0.794195 0 0.200195 0.5805 0.200195 1.29675V16.7033C0.200195 17.4202 0.794195 18 1.52845 18H16.8667C17.6002 18 18.2002 17.4202 18.2002 16.7033V1.29675C18.2002 0.5805 17.6002 0 16.8667 0H16.8689Z" fill="#0077B5"/>
</svg>
