<svg width="18" height="18" viewBox="0 0 18 18" fill="none" xmlns="http://www.w3.org/2000/svg">
<path d="M9 0.675171C9.77495 0.675176 10.4654 1.09574 10.8477 1.78748L16.9639 12.8558C17.3453 13.5464 17.3453 14.3723 16.9639 15.0629C16.5816 15.7546 15.8902 16.1752 15.1152 16.1752H2.88477C2.10981 16.1752 1.41838 15.7546 1.03613 15.0629C0.654674 14.3723 0.654714 13.5464 1.03613 12.8558L7.15137 1.78748C7.53358 1.09573 8.22508 0.675171 9 0.675171ZM9 2.15466C8.75349 2.15467 8.52983 2.2864 8.40137 2.51892L2.28613 13.5873C2.15708 13.8209 2.15708 14.0978 2.28613 14.3314C2.4146 14.5639 2.63822 14.6957 2.88477 14.6957H15.1152C15.3617 14.6957 15.5854 14.5639 15.7139 14.3314C15.8429 14.0978 15.8429 13.8209 15.7139 13.5873L9.59863 2.51892C9.47017 2.2864 9.24649 2.15466 9 2.15466Z" fill="#F15A29" stroke="#F15A29" stroke-width="0.5"/>
<path d="M9.74219 5.5127V10.25H8.25781V5.5127H9.74219Z" fill="#F15A29" stroke="#F15A29" stroke-width="0.5"/>
<path d="M9 11.4189C9.49993 11.4189 9.90624 11.8253 9.90625 12.3252C9.90625 12.8251 9.4999 13.2314 9 13.2314C8.50007 13.2314 8.09375 12.8251 8.09375 12.3252C8.09376 11.8253 8.50007 11.419 9 11.4189Z" fill="#F15A29" stroke="#F15A29" stroke-width="0.5"/>
</svg>
