<svg width="18" height="18" viewBox="0 0 18 18" fill="none" xmlns="http://www.w3.org/2000/svg">
<path d="M11.6942 6.51239C12.0137 6.19287 12.5317 6.19287 12.8513 6.51239C13.1708 6.83191 13.1708 7.34995 12.8513 7.66947L8.66945 11.8513C8.34993 12.1708 7.83188 12.1708 7.51236 11.8513L5.14873 9.48765C4.82921 9.16813 4.82921 8.65009 5.14873 8.33057C5.46825 8.01105 5.98629 8.01105 6.30581 8.33057L8.0909 10.1157L11.6942 6.51239Z" fill="#F15A29"/>
<path fill-rule="evenodd" clip-rule="evenodd" d="M9 0C13.9701 0 18 4.02989 18 9C18 13.9701 13.9701 18 9 18C4.02989 18 0 13.9701 0 9C0 4.02989 4.02989 0 9 0ZM9 1.63636C4.93272 1.63636 1.63636 4.93272 1.63636 9C1.63636 13.0673 4.93272 16.3636 9 16.3636C13.0673 16.3636 16.3636 13.0673 16.3636 9C16.3636 4.93272 13.0673 1.63636 9 1.63636Z" fill="#F15A29"/>
</svg>
