<svg width="14" height="15" viewBox="0 0 14 15" fill="none" xmlns="http://www.w3.org/2000/svg">
<path d="M8.97612 5.67572C9.21044 5.4414 9.59034 5.4414 9.82465 5.67572C10.059 5.91003 10.059 6.28993 9.82465 6.52424L6.75798 9.59091C6.52367 9.82523 6.14377 9.82523 5.90946 9.59091L4.17612 7.85758C3.94181 7.62326 3.94181 7.24336 4.17612 7.00905C4.41044 6.77473 4.79034 6.77473 5.02465 7.00905L6.33372 8.31812L8.97612 5.67572Z" fill="#F15A29"/>
<path fill-rule="evenodd" clip-rule="evenodd" d="M7.00039 0.899963C10.6451 0.899963 13.6004 3.85521 13.6004 7.49996C13.6004 11.1447 10.6451 14.1 7.00039 14.1C3.35564 14.1 0.400391 11.1447 0.400391 7.49996C0.400391 3.85522 3.35564 0.899963 7.00039 0.899963ZM7.00039 2.09996C4.01772 2.09996 1.60039 4.51729 1.60039 7.49996C1.60039 10.4826 4.01772 12.9 7.00039 12.9C9.98306 12.9 12.4004 10.4826 12.4004 7.49996C12.4004 4.51729 9.98306 2.09996 7.00039 2.09996Z" fill="#F15A29"/>
</svg>
