<svg width="14" height="14" viewBox="0 0 14 14" fill="none" xmlns="http://www.w3.org/2000/svg">
<path d="M8.57573 4.77575C8.81005 4.54144 9.18995 4.54144 9.42426 4.77575C9.65858 5.01007 9.65858 5.38997 9.42426 5.62428L6.35759 8.69095C6.12328 8.92526 5.74338 8.92526 5.50907 8.69095L3.77573 6.95761C3.54142 6.7233 3.54142 6.3434 3.77573 6.10909C4.01005 5.87477 4.38995 5.87477 4.62426 6.10909L5.93333 7.41816L8.57573 4.77575Z" fill="#383E45"/>
<path fill-rule="evenodd" clip-rule="evenodd" d="M6.6 0C10.2447 0 13.2 2.95525 13.2 6.6C13.2 10.2447 10.2447 13.2 6.6 13.2C2.95525 13.2 0 10.2447 0 6.6C0 2.95525 2.95525 0 6.6 0ZM6.6 1.2C3.61733 1.2 1.2 3.61733 1.2 6.6C1.2 9.58267 3.61733 12 6.6 12C9.58267 12 12 9.58267 12 6.6C12 3.61733 9.58267 1.2 6.6 1.2Z" fill="#383E45"/>
</svg>
