<svg width="14" height="15" viewBox="0 0 14 15" fill="none" xmlns="http://www.w3.org/2000/svg">
<path d="M8.97612 5.6759C9.21044 5.44158 9.59034 5.44158 9.82465 5.6759C10.059 5.91021 10.059 6.29011 9.82465 6.52443L6.75798 9.59109C6.52367 9.82541 6.14377 9.82541 5.90946 9.59109L4.17612 7.85776C3.94181 7.62345 3.94181 7.24355 4.17612 7.00923C4.41044 6.77492 4.79034 6.77492 5.02465 7.00923L6.33372 8.3183L8.97612 5.6759Z" fill="#F15A29"/>
<path fill-rule="evenodd" clip-rule="evenodd" d="M7.00039 0.900146C10.6451 0.900146 13.6004 3.8554 13.6004 7.50015C13.6004 11.1449 10.6451 14.1001 7.00039 14.1001C3.35564 14.1001 0.400391 11.1449 0.400391 7.50015C0.400391 3.8554 3.35564 0.900146 7.00039 0.900146ZM7.00039 2.10015C4.01772 2.10015 1.60039 4.51748 1.60039 7.50015C1.60039 10.4828 4.01772 12.9001 7.00039 12.9001C9.98306 12.9001 12.4004 10.4828 12.4004 7.50015C12.4004 4.51748 9.98306 2.10015 7.00039 2.10015Z" fill="#F15A29"/>
</svg>
