<svg width="14" height="15" viewBox="0 0 14 15" fill="none" xmlns="http://www.w3.org/2000/svg">
<path d="M0.635961 1.13603C0.987418 0.78457 1.55724 0.78457 1.9087 1.13603L6.99989 6.22722L12.0911 1.13605C12.4426 0.784602 13.0124 0.784602 13.3639 1.13605C13.7153 1.48751 13.7153 2.05732 13.3639 2.40878L8.27198 7.49931L13.3639 12.5913C13.7154 12.9427 13.7154 13.5126 13.3639 13.864C13.0125 14.2155 12.4427 14.2155 12.0912 13.864L6.99919 8.7721L1.90866 13.864C1.5572 14.2154 0.987386 14.2154 0.635934 13.864C0.284481 13.5125 0.284481 12.9427 0.635934 12.5913L5.7271 7.50002L0.635961 2.40876C0.284505 2.05731 0.284504 1.48748 0.635961 1.13603Z" fill="black"/>
</svg>
