<svg width="39" height="43" viewBox="0 0 39 43" fill="none" xmlns="http://www.w3.org/2000/svg">
<g clip-path="url(#clip0_6434_5062)">
<path d="M28.2783 21.75C34.0365 21.75 38.75 26.475 38.75 32.25C38.75 38.025 34.0365 42.75 28.2783 42.75C22.5201 42.75 17.8066 38.0251 17.8066 32.25C17.8066 26.4749 22.5201 21.75 28.2783 21.75ZM28.2783 23.9375C23.7169 23.9375 19.9873 27.6782 19.9873 32.25C19.9873 36.8218 23.7169 40.5625 28.2783 40.5625C32.8397 40.5625 36.5693 36.8218 36.5693 32.25C36.5693 27.6782 32.8397 23.9375 28.2783 23.9375Z" fill="white" stroke="#F3F3F3" stroke-width="0.5"/>
<path d="M29.3682 27.125V31.1562H33.3887V33.3438H27.1875V27.125H29.3682Z" fill="white" stroke="#F3F3F3" stroke-width="0.5"/>
<path d="M6.70117 5.375H9.38158V8.0625H6.70117V5.375Z" fill="white"/>
<path d="M6.70117 16.125H9.38158V18.8125H6.70117V16.125Z" fill="white"/>
<path d="M6.70117 26.875H9.38158V29.5625H6.70117V26.875Z" fill="white"/>
<path d="M32.415 13.8721L32.3418 13.7988L31.8057 13.2607L31.7324 13.1875H3.1123L3.03906 13.2607L2.50293 13.7988L2.43066 13.8721V21.0654L2.50293 21.1387L3.03906 21.6768L3.1123 21.75H14.4922V23.9375H3.1123L3.03906 24.0107L2.50293 24.5488L2.43066 24.6221V31.8154L2.50293 31.8887L3.03906 32.4268L3.1123 32.5H14.4922V34.6875H2.24805L0.25 32.6846V23.752L0.981445 23.0205L1.15723 22.8438L0.981445 22.667L0.25 21.9346V13.002L0.981445 12.2705L1.15723 12.0938L0.981445 11.917L0.25 11.1846V2.25195L2.24805 0.25H32.5977L34.5957 2.25293V11.1836L33.8643 11.917L33.6885 12.0938L33.8643 12.2705L34.5957 13.0029V18.5625H32.415V13.8721ZM32.415 3.12207L32.3418 3.04883L31.8057 2.51074L31.7324 2.4375H3.1123L3.03906 2.51074L2.50293 3.04883L2.43066 3.12207V10.3154L2.50293 10.3887L3.03906 10.9268L3.1123 11H31.7324L31.8057 10.9268L32.3418 10.3887L32.415 10.3154V3.12207Z" fill="white" stroke="#F3F3F3" stroke-width="0.5"/>
</g>
<defs>
<clipPath id="clip0_6434_5062">
<rect width="39" height="43" fill="white"/>
</clipPath>
</defs>
</svg>
