<svg width="14" height="14" viewBox="0 0 14 14" fill="none" xmlns="http://www.w3.org/2000/svg">
<g clip-path="url(#clip0_4657_8329)">
<path d="M1.866 0.00976562C0.837851 0.00976562 0.000752786 0.846703 0 1.87565C0 2.90461 0.837098 3.7417 1.866 3.7417C2.89452 3.7417 3.73119 2.90461 3.73119 1.87565C3.73119 0.84681 2.89446 0.00976562 1.866 0.00976562Z" fill="white"/>
<path d="M3.269 4.49121H0.467884C0.334641 4.49121 0.226562 4.59924 0.226562 4.73259V13.7485C0.226562 13.8818 0.334641 13.9899 0.467884 13.9899H3.26895C3.40225 13.9899 3.51032 13.8818 3.51032 13.7485V4.73259C3.51038 4.59918 3.4023 4.49121 3.269 4.49121Z" fill="white"/>
<path d="M10.4266 4.38574C9.40148 4.38574 8.50066 4.69788 7.95097 5.20687V4.73326C7.95097 4.59991 7.84289 4.49189 7.70959 4.49189H5.02263C4.88933 4.49189 4.78125 4.59991 4.78125 4.73326V13.7492C4.78125 13.8825 4.88933 13.9905 5.02263 13.9905H7.82106C7.95435 13.9905 8.06243 13.8825 8.06243 13.7492V9.28859C8.06243 8.00874 8.29784 7.21547 9.47267 7.21547C10.6301 7.21686 10.7168 8.06751 10.7168 9.36505V13.7492C10.7168 13.8825 10.8248 13.9905 10.9582 13.9905H13.7579C13.8911 13.9905 13.9992 13.8825 13.9992 13.7492V8.80358C13.9992 6.7467 13.5931 4.38574 10.4266 4.38574Z" fill="white"/>
</g>
<defs>
<clipPath id="clip0_4657_8329">
<rect width="14" height="14" fill="white"/>
</clipPath>
</defs>
</svg>
