<svg width="52" height="52" viewBox="0 0 52 52" fill="none" xmlns="http://www.w3.org/2000/svg">
<path d="M20.8169 36.3669L36.3673 26L20.8169 15.6331V36.3669ZM26.0004 51.9174C22.4151 51.9174 19.0459 51.237 15.8926 49.8764C12.7393 48.5157 9.9964 46.6691 7.66383 44.3365C5.33127 42.004 3.48466 39.261 2.124 36.1078C0.763338 32.9545 0.0830078 29.5852 0.0830078 26C0.0830078 24.1426 0.277388 22.3176 0.666148 20.525C1.05491 18.7323 1.61645 16.9937 2.35078 15.3091L6.36797 19.3263C6.0224 20.4494 5.75243 21.5616 5.55805 22.6631C5.36367 23.7646 5.26648 24.8769 5.26648 26C5.26648 31.7882 7.27507 36.6909 11.2923 40.7081C15.3095 44.7253 20.2122 46.7339 26.0004 46.7339C31.7886 46.7339 36.6913 44.7253 40.7085 40.7081C44.7257 36.6909 46.7342 31.7882 46.7342 26C46.7342 20.2118 44.7257 15.3091 40.7085 11.2919C36.6913 7.27471 31.7886 5.26611 26.0004 5.26611C24.8341 5.26611 23.7002 5.3633 22.5987 5.55768C21.4972 5.75206 20.4065 6.02204 19.3266 6.3676L15.3742 2.4152C17.1021 1.63768 18.8299 1.05454 20.5577 0.665782C22.2855 0.277022 24.0998 0.0826416 26.0004 0.0826416C29.5856 0.0826416 32.9549 0.762972 36.1081 2.12363C39.2614 3.48429 42.0043 5.33091 44.3369 7.66347C46.6695 9.99603 48.5161 12.7389 49.8767 15.8922C51.2374 19.0455 51.9177 22.4148 51.9177 26C51.9177 29.5852 51.2374 32.9545 49.8767 36.1078C48.5161 39.261 46.6695 42.004 44.3369 44.3365C42.0043 46.6691 39.2614 48.5157 36.1081 49.8764C32.9549 51.237 29.5856 51.9174 26.0004 51.9174ZM9.15408 13.0413C8.07419 13.0413 7.15629 12.6634 6.40036 11.9074C5.64444 11.1515 5.26648 10.2336 5.26648 9.15372C5.26648 8.07383 5.64444 7.15592 6.40036 6.4C7.15629 5.64407 8.07419 5.26611 9.15408 5.26611C10.234 5.26611 11.1519 5.64407 11.9078 6.4C12.6637 7.15592 13.0417 8.07383 13.0417 9.15372C13.0417 10.2336 12.6637 11.1515 11.9078 11.9074C11.1519 12.6634 10.234 13.0413 9.15408 13.0413Z" fill="white"/>
</svg>
