<svg width="38" height="42" viewBox="0 0 38 42" fill="none" xmlns="http://www.w3.org/2000/svg">
<mask id="path-1-outside-1_6434_5069" maskUnits="userSpaceOnUse" x="-0.460938" y="-0.753906" width="39" height="43" fill="black">
<rect fill="white" x="-0.460938" y="-0.753906" width="39" height="43"/>
<path d="M37.4588 16.4363V20.9757C37.4588 21.7024 36.9609 22.308 36.2481 22.4485L34.1432 22.8635L32.6472 26.4745L33.8424 28.2566C34.247 28.8602 34.1707 29.6404 33.657 30.1542L30.4472 33.3641C30.1538 33.6573 29.7736 33.808 29.3891 33.8081C29.1001 33.8081 28.8086 33.723 28.5496 33.5492L26.4756 32.1584C26.1746 31.9565 26.0942 31.5488 26.2961 31.2478C26.498 30.9469 26.9057 30.8666 27.2067 31.0683L29.2808 32.4592C29.3593 32.5118 29.4529 32.5026 29.5191 32.4361L32.7289 29.2262C32.7956 29.1596 32.8048 29.0659 32.7523 28.9877L31.3613 26.9136C31.2391 26.7313 31.216 26.4998 31.3001 26.2969L33.0653 22.0365C33.1493 21.8336 33.3292 21.6863 33.5446 21.6438L35.9943 21.1608C36.0867 21.1426 36.1464 21.0699 36.1464 20.9756V16.4362C36.1464 16.342 36.0866 16.2694 35.9943 16.2512L33.5445 15.7681C33.3291 15.7256 33.1493 15.5783 33.0652 15.3754L31.3 11.115C31.216 10.9121 31.239 10.6806 31.3612 10.4983L32.7522 8.4242C32.8047 8.34602 32.7955 8.25243 32.7289 8.18582L29.5191 4.97602C29.4525 4.90949 29.3591 4.90014 29.2808 4.95264L27.2067 6.34364C27.0243 6.46595 26.7928 6.489 26.59 6.40492L22.3294 4.63985C22.1266 4.55585 21.9792 4.37596 21.9367 4.16054L21.4537 1.71068C21.4355 1.61831 21.3629 1.55859 21.2687 1.55859H16.7292C16.6351 1.55859 16.5624 1.61831 16.5441 1.71068L16.0611 4.16046C16.0186 4.37587 15.8713 4.55577 15.6684 4.63977L11.408 6.40484C11.2052 6.489 10.9737 6.46587 10.7912 6.34356L8.71717 4.95264C8.63908 4.90022 8.54531 4.90949 8.47887 4.97593L5.26898 8.18573C5.20237 8.25234 5.19319 8.34594 5.24569 8.42412L6.63661 10.4983C6.75884 10.6806 6.78189 10.912 6.6978 11.115L4.93274 15.3754C4.84874 15.5783 4.66884 15.7256 4.45343 15.7681L2.00373 16.2512C1.9112 16.2694 1.85156 16.342 1.85156 16.4362V20.9756C1.85156 21.0698 1.91136 21.1425 2.00373 21.1608L4.45343 21.6438C4.66876 21.6863 4.84866 21.8336 4.93274 22.0365L6.6978 26.2969C6.78181 26.4998 6.75884 26.7312 6.63661 26.9136L5.24569 28.9878C5.19319 29.0661 5.20237 29.1596 5.26898 29.2262L8.47887 32.4361C8.54539 32.5026 8.63883 32.5117 8.71725 32.4592L10.7912 31.0684C11.0923 30.8666 11.4999 30.9469 11.7019 31.2478C11.9038 31.5488 11.8233 31.9565 11.5224 32.1584L9.44831 33.5493C8.84481 33.954 8.06469 33.8778 7.55077 33.3641L4.34088 30.1542C3.82712 29.6404 3.751 28.8602 4.15557 28.2567L5.35069 26.4745L3.85477 22.8635L1.74984 22.4485C1.03699 22.308 0.539062 21.7024 0.539062 20.9757V16.4363C0.539062 15.7096 1.03699 15.1041 1.74993 14.9636L3.85477 14.5485L5.35069 10.9375L4.15557 9.15526C3.75091 8.55184 3.82712 7.77156 4.34088 7.2578L7.55085 4.048C8.06436 3.53432 8.84465 3.45795 9.44823 3.86261L11.2304 5.0578L14.8415 3.5618L15.2565 1.45679C15.3971 0.743941 16.0029 0.246094 16.7293 0.246094H21.2688C21.9954 0.246094 22.601 0.743941 22.7415 1.45679L23.1566 3.5618L26.7677 5.0578L28.5498 3.86269C29.1531 3.45795 29.9335 3.53415 30.4473 4.04808L33.6571 7.2578C34.1708 7.77148 34.247 8.55168 33.8426 9.15518L32.6473 10.9375L34.1433 14.5485L36.2483 14.9636C36.961 15.1041 37.459 15.7096 37.459 16.4363H37.4588ZM27.4117 27.1243C26.176 28.8482 25.1089 30.337 25.1089 32.5727V34.3224C25.1089 35.1451 24.5738 35.8449 23.8335 36.093V37.2332C23.8335 38.2629 22.9958 39.1006 21.9661 39.1006H21.835V39.8865C21.835 40.9162 20.9973 41.7539 19.9677 41.7539H18.0301C17.0004 41.7539 16.1627 40.9162 16.1627 39.8865V39.1006H16.0317C15.002 39.1006 14.1643 38.2629 14.1643 37.2332V36.0929C13.424 35.8447 12.889 35.1451 12.889 34.3223V32.5726C12.889 30.3369 11.8218 28.8481 10.5862 27.1242C9.10928 25.0637 7.43535 22.7285 7.43535 18.7058C7.43535 15.5026 8.72512 12.6049 11.067 10.5468C13.1957 8.67587 16.0868 7.60282 18.999 7.60282C21.9112 7.60282 24.8023 8.67587 26.931 10.5468C29.2728 12.6049 30.5626 15.5026 30.5626 18.7058C30.5626 22.7285 28.8887 25.0637 27.4117 27.1242V27.1243ZM20.5226 39.1007H17.4754V39.8866C17.4754 40.1926 17.7243 40.4415 18.0303 40.4415H19.9678C20.2737 40.4415 20.5227 40.1926 20.5227 39.8866V39.1007H20.5226ZM22.521 36.1898H15.477V37.2333C15.477 37.5393 15.7258 37.7882 16.0319 37.7882H21.9662C22.2721 37.7882 22.5211 37.5393 22.5211 37.2333V36.1898H22.521ZM23.7964 33.2291H14.2016V34.3224C14.2016 34.6284 14.4506 34.8774 14.7565 34.8774H23.2415C23.5475 34.8774 23.7965 34.6285 23.7965 34.3225V33.2291L23.7964 33.2291ZM18.999 15.0619C19.4882 15.0619 19.8861 14.664 19.8861 14.1749C19.8861 13.6858 19.4881 13.2879 18.999 13.2879C18.51 13.2879 18.112 13.6858 18.112 14.1749C18.112 14.664 18.51 15.0619 18.999 15.0619ZM26.345 26.3598C27.7733 24.3672 29.2502 22.3068 29.2502 18.706C29.2502 12.5776 24.0381 8.91548 18.999 8.91548C13.96 8.91548 8.74793 12.5776 8.74793 18.706C8.74793 22.3068 10.2248 24.3672 11.653 26.3598C12.8524 28.033 13.9902 29.6222 14.1749 31.9166H15.8736V27.9042L12.6087 24.6395C12.4857 24.5164 12.4165 24.3495 12.4165 24.1754V20.1018C11.5232 19.8219 10.8733 18.9866 10.8733 18.0023C10.8733 16.7894 11.86 15.8027 13.0728 15.8027C14.2856 15.8027 15.2723 16.7894 15.2723 18.0023C15.2723 18.9866 14.6223 19.8219 13.729 20.1018V23.9036L16.9939 27.1683C17.1169 27.2914 17.1861 27.4583 17.1861 27.6324V31.9166H18.3429V16.2744C17.4496 15.9946 16.7995 15.1593 16.7995 14.1749C16.7995 12.9621 17.7863 11.9754 18.9991 11.9754C20.212 11.9754 21.1986 12.9621 21.1986 14.1749C21.1986 15.1593 20.5486 15.9946 19.6554 16.2744V31.9166H20.8122V27.6324C20.8122 27.4583 20.8813 27.2915 21.0044 27.1683L24.2691 23.9036V20.1018C23.3758 19.8219 22.7259 18.9866 22.7259 18.0023C22.7259 16.7894 23.7126 15.8027 24.9254 15.8027C26.1382 15.8027 27.1249 16.7894 27.1249 18.0023C27.1249 18.9866 26.4749 19.8219 25.5816 20.1018V24.1754C25.5816 24.3495 25.5125 24.5164 25.3894 24.6395L22.1247 27.9042V31.9166H23.8232C24.0077 29.6221 25.1456 28.0332 26.3451 26.3598L26.345 26.3598ZM24.9252 18.8893C25.4144 18.8893 25.8122 18.4914 25.8122 18.0023C25.8122 17.5133 25.4143 17.1153 24.9252 17.1153C24.4362 17.1153 24.0382 17.5133 24.0382 18.0023C24.0382 18.4914 24.4362 18.8893 24.9252 18.8893ZM13.9598 18.0023C13.9598 17.5133 13.5619 17.1153 13.0728 17.1153C12.5837 17.1153 12.1858 17.5133 12.1858 18.0023C12.1858 18.4914 12.5837 18.8893 13.0728 18.8893C13.5619 18.8893 13.9598 18.4914 13.9598 18.0023Z"/>
</mask>
<path d="M37.4588 16.4363V20.9757C37.4588 21.7024 36.9609 22.308 36.2481 22.4485L34.1432 22.8635L32.6472 26.4745L33.8424 28.2566C34.247 28.8602 34.1707 29.6404 33.657 30.1542L30.4472 33.3641C30.1538 33.6573 29.7736 33.808 29.3891 33.8081C29.1001 33.8081 28.8086 33.723 28.5496 33.5492L26.4756 32.1584C26.1746 31.9565 26.0942 31.5488 26.2961 31.2478C26.498 30.9469 26.9057 30.8666 27.2067 31.0683L29.2808 32.4592C29.3593 32.5118 29.4529 32.5026 29.5191 32.4361L32.7289 29.2262C32.7956 29.1596 32.8048 29.0659 32.7523 28.9877L31.3613 26.9136C31.2391 26.7313 31.216 26.4998 31.3001 26.2969L33.0653 22.0365C33.1493 21.8336 33.3292 21.6863 33.5446 21.6438L35.9943 21.1608C36.0867 21.1426 36.1464 21.0699 36.1464 20.9756V16.4362C36.1464 16.342 36.0866 16.2694 35.9943 16.2512L33.5445 15.7681C33.3291 15.7256 33.1493 15.5783 33.0652 15.3754L31.3 11.115C31.216 10.9121 31.239 10.6806 31.3612 10.4983L32.7522 8.4242C32.8047 8.34602 32.7955 8.25243 32.7289 8.18582L29.5191 4.97602C29.4525 4.90949 29.3591 4.90014 29.2808 4.95264L27.2067 6.34364C27.0243 6.46595 26.7928 6.489 26.59 6.40492L22.3294 4.63985C22.1266 4.55585 21.9792 4.37596 21.9367 4.16054L21.4537 1.71068C21.4355 1.61831 21.3629 1.55859 21.2687 1.55859H16.7292C16.6351 1.55859 16.5624 1.61831 16.5441 1.71068L16.0611 4.16046C16.0186 4.37587 15.8713 4.55577 15.6684 4.63977L11.408 6.40484C11.2052 6.489 10.9737 6.46587 10.7912 6.34356L8.71717 4.95264C8.63908 4.90022 8.54531 4.90949 8.47887 4.97593L5.26898 8.18573C5.20237 8.25234 5.19319 8.34594 5.24569 8.42412L6.63661 10.4983C6.75884 10.6806 6.78189 10.912 6.6978 11.115L4.93274 15.3754C4.84874 15.5783 4.66884 15.7256 4.45343 15.7681L2.00373 16.2512C1.9112 16.2694 1.85156 16.342 1.85156 16.4362V20.9756C1.85156 21.0698 1.91136 21.1425 2.00373 21.1608L4.45343 21.6438C4.66876 21.6863 4.84866 21.8336 4.93274 22.0365L6.6978 26.2969C6.78181 26.4998 6.75884 26.7312 6.63661 26.9136L5.24569 28.9878C5.19319 29.0661 5.20237 29.1596 5.26898 29.2262L8.47887 32.4361C8.54539 32.5026 8.63883 32.5117 8.71725 32.4592L10.7912 31.0684C11.0923 30.8666 11.4999 30.9469 11.7019 31.2478C11.9038 31.5488 11.8233 31.9565 11.5224 32.1584L9.44831 33.5493C8.84481 33.954 8.06469 33.8778 7.55077 33.3641L4.34088 30.1542C3.82712 29.6404 3.751 28.8602 4.15557 28.2567L5.35069 26.4745L3.85477 22.8635L1.74984 22.4485C1.03699 22.308 0.539062 21.7024 0.539062 20.9757V16.4363C0.539062 15.7096 1.03699 15.1041 1.74993 14.9636L3.85477 14.5485L5.35069 10.9375L4.15557 9.15526C3.75091 8.55184 3.82712 7.77156 4.34088 7.2578L7.55085 4.048C8.06436 3.53432 8.84465 3.45795 9.44823 3.86261L11.2304 5.0578L14.8415 3.5618L15.2565 1.45679C15.3971 0.743941 16.0029 0.246094 16.7293 0.246094H21.2688C21.9954 0.246094 22.601 0.743941 22.7415 1.45679L23.1566 3.5618L26.7677 5.0578L28.5498 3.86269C29.1531 3.45795 29.9335 3.53415 30.4473 4.04808L33.6571 7.2578C34.1708 7.77148 34.247 8.55168 33.8426 9.15518L32.6473 10.9375L34.1433 14.5485L36.2483 14.9636C36.961 15.1041 37.459 15.7096 37.459 16.4363H37.4588ZM27.4117 27.1243C26.176 28.8482 25.1089 30.337 25.1089 32.5727V34.3224C25.1089 35.1451 24.5738 35.8449 23.8335 36.093V37.2332C23.8335 38.2629 22.9958 39.1006 21.9661 39.1006H21.835V39.8865C21.835 40.9162 20.9973 41.7539 19.9677 41.7539H18.0301C17.0004 41.7539 16.1627 40.9162 16.1627 39.8865V39.1006H16.0317C15.002 39.1006 14.1643 38.2629 14.1643 37.2332V36.0929C13.424 35.8447 12.889 35.1451 12.889 34.3223V32.5726C12.889 30.3369 11.8218 28.8481 10.5862 27.1242C9.10928 25.0637 7.43535 22.7285 7.43535 18.7058C7.43535 15.5026 8.72512 12.6049 11.067 10.5468C13.1957 8.67587 16.0868 7.60282 18.999 7.60282C21.9112 7.60282 24.8023 8.67587 26.931 10.5468C29.2728 12.6049 30.5626 15.5026 30.5626 18.7058C30.5626 22.7285 28.8887 25.0637 27.4117 27.1242V27.1243ZM20.5226 39.1007H17.4754V39.8866C17.4754 40.1926 17.7243 40.4415 18.0303 40.4415H19.9678C20.2737 40.4415 20.5227 40.1926 20.5227 39.8866V39.1007H20.5226ZM22.521 36.1898H15.477V37.2333C15.477 37.5393 15.7258 37.7882 16.0319 37.7882H21.9662C22.2721 37.7882 22.5211 37.5393 22.5211 37.2333V36.1898H22.521ZM23.7964 33.2291H14.2016V34.3224C14.2016 34.6284 14.4506 34.8774 14.7565 34.8774H23.2415C23.5475 34.8774 23.7965 34.6285 23.7965 34.3225V33.2291L23.7964 33.2291ZM18.999 15.0619C19.4882 15.0619 19.8861 14.664 19.8861 14.1749C19.8861 13.6858 19.4881 13.2879 18.999 13.2879C18.51 13.2879 18.112 13.6858 18.112 14.1749C18.112 14.664 18.51 15.0619 18.999 15.0619ZM26.345 26.3598C27.7733 24.3672 29.2502 22.3068 29.2502 18.706C29.2502 12.5776 24.0381 8.91548 18.999 8.91548C13.96 8.91548 8.74793 12.5776 8.74793 18.706C8.74793 22.3068 10.2248 24.3672 11.653 26.3598C12.8524 28.033 13.9902 29.6222 14.1749 31.9166H15.8736V27.9042L12.6087 24.6395C12.4857 24.5164 12.4165 24.3495 12.4165 24.1754V20.1018C11.5232 19.8219 10.8733 18.9866 10.8733 18.0023C10.8733 16.7894 11.86 15.8027 13.0728 15.8027C14.2856 15.8027 15.2723 16.7894 15.2723 18.0023C15.2723 18.9866 14.6223 19.8219 13.729 20.1018V23.9036L16.9939 27.1683C17.1169 27.2914 17.1861 27.4583 17.1861 27.6324V31.9166H18.3429V16.2744C17.4496 15.9946 16.7995 15.1593 16.7995 14.1749C16.7995 12.9621 17.7863 11.9754 18.9991 11.9754C20.212 11.9754 21.1986 12.9621 21.1986 14.1749C21.1986 15.1593 20.5486 15.9946 19.6554 16.2744V31.9166H20.8122V27.6324C20.8122 27.4583 20.8813 27.2915 21.0044 27.1683L24.2691 23.9036V20.1018C23.3758 19.8219 22.7259 18.9866 22.7259 18.0023C22.7259 16.7894 23.7126 15.8027 24.9254 15.8027C26.1382 15.8027 27.1249 16.7894 27.1249 18.0023C27.1249 18.9866 26.4749 19.8219 25.5816 20.1018V24.1754C25.5816 24.3495 25.5125 24.5164 25.3894 24.6395L22.1247 27.9042V31.9166H23.8232C24.0077 29.6221 25.1456 28.0332 26.3451 26.3598L26.345 26.3598ZM24.9252 18.8893C25.4144 18.8893 25.8122 18.4914 25.8122 18.0023C25.8122 17.5133 25.4143 17.1153 24.9252 17.1153C24.4362 17.1153 24.0382 17.5133 24.0382 18.0023C24.0382 18.4914 24.4362 18.8893 24.9252 18.8893ZM13.9598 18.0023C13.9598 17.5133 13.5619 17.1153 13.0728 17.1153C12.5837 17.1153 12.1858 17.5133 12.1858 18.0023C12.1858 18.4914 12.5837 18.8893 13.0728 18.8893C13.5619 18.8893 13.9598 18.4914 13.9598 18.0023Z" fill="white"/>
<path d="M37.4588 16.4363V20.9757C37.4588 21.7024 36.9609 22.308 36.2481 22.4485L34.1432 22.8635L32.6472 26.4745L33.8424 28.2566C34.247 28.8602 34.1707 29.6404 33.657 30.1542L30.4472 33.3641C30.1538 33.6573 29.7736 33.808 29.3891 33.8081C29.1001 33.8081 28.8086 33.723 28.5496 33.5492L26.4756 32.1584C26.1746 31.9565 26.0942 31.5488 26.2961 31.2478C26.498 30.9469 26.9057 30.8666 27.2067 31.0683L29.2808 32.4592C29.3593 32.5118 29.4529 32.5026 29.5191 32.4361L32.7289 29.2262C32.7956 29.1596 32.8048 29.0659 32.7523 28.9877L31.3613 26.9136C31.2391 26.7313 31.216 26.4998 31.3001 26.2969L33.0653 22.0365C33.1493 21.8336 33.3292 21.6863 33.5446 21.6438L35.9943 21.1608C36.0867 21.1426 36.1464 21.0699 36.1464 20.9756V16.4362C36.1464 16.342 36.0866 16.2694 35.9943 16.2512L33.5445 15.7681C33.3291 15.7256 33.1493 15.5783 33.0652 15.3754L31.3 11.115C31.216 10.9121 31.239 10.6806 31.3612 10.4983L32.7522 8.4242C32.8047 8.34602 32.7955 8.25243 32.7289 8.18582L29.5191 4.97602C29.4525 4.90949 29.3591 4.90014 29.2808 4.95264L27.2067 6.34364C27.0243 6.46595 26.7928 6.489 26.59 6.40492L22.3294 4.63985C22.1266 4.55585 21.9792 4.37596 21.9367 4.16054L21.4537 1.71068C21.4355 1.61831 21.3629 1.55859 21.2687 1.55859H16.7292C16.6351 1.55859 16.5624 1.61831 16.5441 1.71068L16.0611 4.16046C16.0186 4.37587 15.8713 4.55577 15.6684 4.63977L11.408 6.40484C11.2052 6.489 10.9737 6.46587 10.7912 6.34356L8.71717 4.95264C8.63908 4.90022 8.54531 4.90949 8.47887 4.97593L5.26898 8.18573C5.20237 8.25234 5.19319 8.34594 5.24569 8.42412L6.63661 10.4983C6.75884 10.6806 6.78189 10.912 6.6978 11.115L4.93274 15.3754C4.84874 15.5783 4.66884 15.7256 4.45343 15.7681L2.00373 16.2512C1.9112 16.2694 1.85156 16.342 1.85156 16.4362V20.9756C1.85156 21.0698 1.91136 21.1425 2.00373 21.1608L4.45343 21.6438C4.66876 21.6863 4.84866 21.8336 4.93274 22.0365L6.6978 26.2969C6.78181 26.4998 6.75884 26.7312 6.63661 26.9136L5.24569 28.9878C5.19319 29.0661 5.20237 29.1596 5.26898 29.2262L8.47887 32.4361C8.54539 32.5026 8.63883 32.5117 8.71725 32.4592L10.7912 31.0684C11.0923 30.8666 11.4999 30.9469 11.7019 31.2478C11.9038 31.5488 11.8233 31.9565 11.5224 32.1584L9.44831 33.5493C8.84481 33.954 8.06469 33.8778 7.55077 33.3641L4.34088 30.1542C3.82712 29.6404 3.751 28.8602 4.15557 28.2567L5.35069 26.4745L3.85477 22.8635L1.74984 22.4485C1.03699 22.308 0.539062 21.7024 0.539062 20.9757V16.4363C0.539062 15.7096 1.03699 15.1041 1.74993 14.9636L3.85477 14.5485L5.35069 10.9375L4.15557 9.15526C3.75091 8.55184 3.82712 7.77156 4.34088 7.2578L7.55085 4.048C8.06436 3.53432 8.84465 3.45795 9.44823 3.86261L11.2304 5.0578L14.8415 3.5618L15.2565 1.45679C15.3971 0.743941 16.0029 0.246094 16.7293 0.246094H21.2688C21.9954 0.246094 22.601 0.743941 22.7415 1.45679L23.1566 3.5618L26.7677 5.0578L28.5498 3.86269C29.1531 3.45795 29.9335 3.53415 30.4473 4.04808L33.6571 7.2578C34.1708 7.77148 34.247 8.55168 33.8426 9.15518L32.6473 10.9375L34.1433 14.5485L36.2483 14.9636C36.961 15.1041 37.459 15.7096 37.459 16.4363H37.4588ZM27.4117 27.1243C26.176 28.8482 25.1089 30.337 25.1089 32.5727V34.3224C25.1089 35.1451 24.5738 35.8449 23.8335 36.093V37.2332C23.8335 38.2629 22.9958 39.1006 21.9661 39.1006H21.835V39.8865C21.835 40.9162 20.9973 41.7539 19.9677 41.7539H18.0301C17.0004 41.7539 16.1627 40.9162 16.1627 39.8865V39.1006H16.0317C15.002 39.1006 14.1643 38.2629 14.1643 37.2332V36.0929C13.424 35.8447 12.889 35.1451 12.889 34.3223V32.5726C12.889 30.3369 11.8218 28.8481 10.5862 27.1242C9.10928 25.0637 7.43535 22.7285 7.43535 18.7058C7.43535 15.5026 8.72512 12.6049 11.067 10.5468C13.1957 8.67587 16.0868 7.60282 18.999 7.60282C21.9112 7.60282 24.8023 8.67587 26.931 10.5468C29.2728 12.6049 30.5626 15.5026 30.5626 18.7058C30.5626 22.7285 28.8887 25.0637 27.4117 27.1242V27.1243ZM20.5226 39.1007H17.4754V39.8866C17.4754 40.1926 17.7243 40.4415 18.0303 40.4415H19.9678C20.2737 40.4415 20.5227 40.1926 20.5227 39.8866V39.1007H20.5226ZM22.521 36.1898H15.477V37.2333C15.477 37.5393 15.7258 37.7882 16.0319 37.7882H21.9662C22.2721 37.7882 22.5211 37.5393 22.5211 37.2333V36.1898H22.521ZM23.7964 33.2291H14.2016V34.3224C14.2016 34.6284 14.4506 34.8774 14.7565 34.8774H23.2415C23.5475 34.8774 23.7965 34.6285 23.7965 34.3225V33.2291L23.7964 33.2291ZM18.999 15.0619C19.4882 15.0619 19.8861 14.664 19.8861 14.1749C19.8861 13.6858 19.4881 13.2879 18.999 13.2879C18.51 13.2879 18.112 13.6858 18.112 14.1749C18.112 14.664 18.51 15.0619 18.999 15.0619ZM26.345 26.3598C27.7733 24.3672 29.2502 22.3068 29.2502 18.706C29.2502 12.5776 24.0381 8.91548 18.999 8.91548C13.96 8.91548 8.74793 12.5776 8.74793 18.706C8.74793 22.3068 10.2248 24.3672 11.653 26.3598C12.8524 28.033 13.9902 29.6222 14.1749 31.9166H15.8736V27.9042L12.6087 24.6395C12.4857 24.5164 12.4165 24.3495 12.4165 24.1754V20.1018C11.5232 19.8219 10.8733 18.9866 10.8733 18.0023C10.8733 16.7894 11.86 15.8027 13.0728 15.8027C14.2856 15.8027 15.2723 16.7894 15.2723 18.0023C15.2723 18.9866 14.6223 19.8219 13.729 20.1018V23.9036L16.9939 27.1683C17.1169 27.2914 17.1861 27.4583 17.1861 27.6324V31.9166H18.3429V16.2744C17.4496 15.9946 16.7995 15.1593 16.7995 14.1749C16.7995 12.9621 17.7863 11.9754 18.9991 11.9754C20.212 11.9754 21.1986 12.9621 21.1986 14.1749C21.1986 15.1593 20.5486 15.9946 19.6554 16.2744V31.9166H20.8122V27.6324C20.8122 27.4583 20.8813 27.2915 21.0044 27.1683L24.2691 23.9036V20.1018C23.3758 19.8219 22.7259 18.9866 22.7259 18.0023C22.7259 16.7894 23.7126 15.8027 24.9254 15.8027C26.1382 15.8027 27.1249 16.7894 27.1249 18.0023C27.1249 18.9866 26.4749 19.8219 25.5816 20.1018V24.1754C25.5816 24.3495 25.5125 24.5164 25.3894 24.6395L22.1247 27.9042V31.9166H23.8232C24.0077 29.6221 25.1456 28.0332 26.3451 26.3598L26.345 26.3598ZM24.9252 18.8893C25.4144 18.8893 25.8122 18.4914 25.8122 18.0023C25.8122 17.5133 25.4143 17.1153 24.9252 17.1153C24.4362 17.1153 24.0382 17.5133 24.0382 18.0023C24.0382 18.4914 24.4362 18.8893 24.9252 18.8893ZM13.9598 18.0023C13.9598 17.5133 13.5619 17.1153 13.0728 17.1153C12.5837 17.1153 12.1858 17.5133 12.1858 18.0023C12.1858 18.4914 12.5837 18.8893 13.0728 18.8893C13.5619 18.8893 13.9598 18.4914 13.9598 18.0023Z" stroke="white" stroke-width="0.4" mask="url(#path-1-outside-1_6434_5069)"/>
</svg>
