<svg width="48" height="36" viewBox="0 0 48 36" fill="none" xmlns="http://www.w3.org/2000/svg">
<path d="M36.0261 0.94873C42.2796 0.94873 47.3491 6.01825 47.3491 12.2718C47.3491 16.8908 44.9446 21.36 41.3559 22.2223C39.9716 22.555 38.8691 24.3314 39.106 26.3594C39.4231 29.0739 41.8777 31.8163 46.738 33.9774C47.8202 34.4586 47.367 36.0865 46.1919 35.9394C33.5253 34.3535 24.7452 26.0958 24.7031 14.4126C24.703 6.37773 29.45 0.94873 36.0261 0.94873Z" fill="#F15A29"/>
<path d="M11.3229 0.94873C17.5765 0.94873 22.646 6.01825 22.646 12.2718C22.646 16.8908 20.2415 21.36 16.6527 22.2223C15.2684 22.555 14.166 24.3314 14.4029 26.3594C14.7199 29.0739 17.1746 31.8163 22.0349 33.9774C23.117 34.4586 22.6639 36.0865 21.4888 35.9394C8.82222 34.3535 0.0421219 26.0958 3.6362e-09 14.4126C-0.000151705 6.37773 4.74688 0.94873 11.3229 0.94873Z" fill="#F15A29"/>
</svg>
