<svg width="48" height="35" viewBox="0 0 48 35" fill="none" xmlns="http://www.w3.org/2000/svg">
<path d="M36.028 0C42.2816 0 47.3511 5.06952 47.3511 11.3231C47.3511 15.9421 44.9466 20.4112 41.3578 21.2736C39.9735 21.6062 38.8711 23.3827 39.108 25.4107C39.425 28.1251 41.8797 30.8675 46.74 33.0287C47.8221 33.5099 47.369 35.1378 46.1938 34.9906C33.5273 33.4048 24.7472 25.1471 24.7051 13.4638C24.7049 5.429 29.452 0 36.028 0Z" fill="#929292"/>
<path d="M11.3229 0C17.5765 0 22.646 5.06952 22.646 11.3231C22.646 15.9421 20.2415 20.4112 16.6527 21.2736C15.2684 21.6062 14.166 23.3827 14.4029 25.4107C14.7199 28.1251 17.1746 30.8675 22.0349 33.0287C23.117 33.5099 22.6639 35.1378 21.4888 34.9906C8.82222 33.4048 0.0421219 25.1471 3.6362e-09 13.4638C-0.000151705 5.429 4.74688 0 11.3229 0Z" fill="#929292"/>
</svg>
