<svg width="78" height="57" viewBox="0 0 78 57" fill="none" xmlns="http://www.w3.org/2000/svg">
<path d="M58.6707 0C68.855 0 77.1111 8.25607 77.1111 18.4404C77.1111 25.9628 73.1952 33.2411 67.3507 34.6456C65.0962 35.1873 63.3008 38.0804 63.6866 41.3832C64.2029 45.8038 68.2006 50.27 76.1158 53.7895C77.8782 54.5732 77.1403 57.2244 75.2265 56.9847C54.5981 54.4021 40.2991 40.9538 40.2305 21.9268C40.2302 8.84151 47.9611 0 58.6707 0Z" fill="#F15A29"/>
<path d="M18.4402 0C28.6246 0 36.8806 8.25607 36.8806 18.4404C36.8806 25.9628 32.9647 33.2411 27.1202 34.6456C24.8657 35.1873 23.0703 38.0804 23.4561 41.3832C23.9725 45.8038 27.9701 50.27 35.8854 53.7895C37.6478 54.5732 36.9098 57.2244 34.996 56.9847C14.3676 54.4021 0.0685985 40.9538 5.92181e-09 21.9268C-0.000247062 8.84151 7.73063 0 18.4402 0Z" fill="#F15A29"/>
</svg>
