<svg width="186" height="138" viewBox="0 0 186 138" fill="none" xmlns="http://www.w3.org/2000/svg">
<g filter="url(#filter0_d_7814_913)">
<path d="M115.65 88.6504H71.007C69.1035 88.6504 67.5625 87.1095 67.5625 85.2059V23.9748C67.5625 22.0712 69.1035 20.5303 71.007 20.5303H115.65C117.554 20.5303 119.095 22.0712 119.095 23.9748V85.2059C119.095 87.1095 117.554 88.6504 115.65 88.6504Z" fill="url(#paint0_linear_7814_913)"/>
</g>
<path d="M99.1301 72.1302H87.5275C86.2358 72.1302 85.1934 71.0877 85.1934 69.796C85.1934 68.5043 86.2358 67.4619 87.5275 67.4619H99.1301C100.422 67.4619 101.464 68.5043 101.464 69.796C101.464 71.0877 100.422 72.1302 99.1301 72.1302Z" fill="#D5DAE5"/>
<path d="M104.455 77.1838H82.1788C81.499 77.1838 80.9551 76.6399 80.9551 75.96C80.9551 75.2802 81.499 74.7363 82.1788 74.7363H104.455C105.135 74.7363 105.679 75.2802 105.679 75.96C105.679 76.6172 105.135 77.1838 104.455 77.1838Z" fill="#D5DAE5"/>
<path d="M108.557 44.8234C108.557 49.401 106.54 53.5027 103.344 56.2901C100.67 58.6242 97.1578 60.0292 93.3281 60.0292C89.4983 60.0292 85.9858 58.6242 83.3117 56.2674C80.1165 53.48 78.0996 49.3783 78.0996 44.8007C78.0996 36.3933 84.9207 29.5723 93.3281 29.5723C101.735 29.5723 108.557 36.416 108.557 44.8234Z" fill="#D5DAE5"/>
<path d="M103.345 56.2898C100.671 58.6239 97.1586 60.029 93.3288 60.029C89.4991 60.029 85.9865 58.6239 83.3125 56.2672C84.4229 55.8366 85.8732 55.2701 87.8221 54.4769C88.2754 54.2956 88.6153 53.9557 88.8192 53.5251C88.9325 53.2759 88.9778 53.0266 88.9778 52.7546V49.1062C88.9099 49.0382 88.8645 48.9475 88.8192 48.8795C88.502 48.4037 88.298 47.8598 88.23 47.2932L87.9128 47.1346C86.9837 47.3612 87.0516 46.3641 86.8024 44.4379C86.7117 43.6448 86.825 43.4861 87.1876 43.3502L87.4822 42.9423C85.6693 38.8632 86.5757 36.3025 88.366 35.396C87.7768 34.1043 87.7315 33.6284 87.7315 33.6284C87.7315 33.6284 91.5386 34.2629 92.8303 34.0137C94.4846 33.6737 97.0453 34.0816 97.9971 36.2798C99.5834 36.8917 100.195 37.9114 100.331 38.9765C100.467 39.9736 100.173 41.0614 99.878 41.8998C99.8553 41.9678 99.8327 42.0131 99.81 42.0585C99.81 42.0811 99.7873 42.1038 99.7873 42.1264C99.742 42.2397 99.7194 42.3304 99.674 42.421C99.6514 42.4664 99.6514 42.5117 99.6287 42.557C99.606 42.6477 99.5607 42.7383 99.5381 42.8063C99.5381 42.8289 99.5381 42.8289 99.5154 42.8516C99.4927 42.9196 99.4701 42.9876 99.4474 43.0556C99.4248 43.1462 99.4021 43.2142 99.3794 43.2822C99.4021 43.3048 99.4021 43.3502 99.4248 43.3728C99.674 43.4861 99.7647 43.7127 99.674 44.4152C99.4474 46.2508 99.5154 47.3612 98.5636 47.112L97.7252 48.5623C97.7025 48.7209 97.6798 48.8116 97.6572 48.9022C97.6345 49.1741 97.6345 49.718 97.6345 52.7093C97.6345 53.0719 97.7478 53.4118 97.9291 53.7064C98.1331 54.0237 98.4277 54.2956 98.7902 54.4542C98.7902 54.4542 98.8129 54.4542 98.8129 54.4769C100.784 55.3154 102.235 55.8593 103.345 56.2898Z" fill="white"/>
<path d="M99.4027 43.3048C99.4707 42.8516 99.2667 42.2624 99.1081 41.8772C99.0855 41.8092 99.0401 41.7412 99.0175 41.6732C98.2923 40.2229 96.6607 39.611 95.1197 39.5204C91.1766 39.3164 90.7914 40.0643 89.5677 38.9312C89.9529 39.4977 89.9756 40.4268 89.3864 41.5599C88.9785 42.3531 88.1853 42.7156 87.4602 42.9423C85.6472 38.8632 86.5537 36.3025 88.344 35.396C87.7548 34.1043 87.7094 33.6284 87.7094 33.6284C87.7094 33.6284 91.5166 34.2629 92.8083 34.0137C94.4625 33.6737 97.0233 34.0816 97.975 36.2798C99.5613 36.8917 100.173 37.9114 100.309 38.9765C100.581 40.6761 99.584 42.557 99.4027 43.3048Z" fill="url(#paint1_linear_7814_913)"/>
<path d="M97.9521 53.7516V54.4542H88.7969V53.525C88.9102 53.2758 88.9555 53.0265 88.9555 52.7545V49.1061C88.8875 49.0381 88.8422 48.9474 88.7969 48.8794V48.6528C89.0008 48.9928 89.2501 49.2874 89.5447 49.5593L92.4 51.5762C93.0572 52.1427 94.0317 52.1427 94.7115 51.5988L97.3855 49.1967C97.4762 49.1287 97.5668 49.0381 97.6575 48.9474C97.6348 49.2194 97.6348 49.7632 97.6348 52.7545C97.6801 53.1171 97.7708 53.457 97.9521 53.7516Z" fill="url(#paint2_linear_7814_913)"/>
<g filter="url(#filter1_d_7814_913)">
<path d="M55.0081 78.1129H26.2961C24.3925 78.1129 22.8516 76.572 22.8516 74.6684V34.5124C22.8516 32.6088 24.3925 31.0679 26.2961 31.0679H55.0081C56.9116 31.0679 58.4526 32.6088 58.4526 34.5124V74.6911C58.4526 76.5946 56.9116 78.1129 55.0081 78.1129Z" fill="url(#paint3_linear_7814_913)"/>
</g>
<path d="M44.6526 66.714H36.6304C35.7466 66.714 35.0215 65.9888 35.0215 65.1051C35.0215 64.2213 35.7466 63.4961 36.6304 63.4961H44.6526C45.5364 63.4961 46.2615 64.2213 46.2615 65.1051C46.2615 65.9888 45.5364 66.714 44.6526 66.714Z" fill="#D5DAE5"/>
<path d="M48.3447 70.2038H32.9576C32.4817 70.2038 32.1191 69.8186 32.1191 69.3653C32.1191 68.8894 32.5044 68.5269 32.9576 68.5269H48.3447C48.8206 68.5269 49.1832 68.9121 49.1832 69.3653C49.1832 69.8186 48.7979 70.2038 48.3447 70.2038Z" fill="#D5DAE5"/>
<path d="M51.1548 47.8372C51.1548 51.0097 49.7498 53.8424 47.5516 55.7686C45.6934 57.3776 43.2913 58.352 40.6399 58.352C37.9885 58.352 35.5637 57.3776 33.7282 55.7686C31.53 53.8424 30.125 51.0097 30.125 47.8372C30.125 42.0358 34.8386 37.3223 40.6399 37.3223C46.4412 37.3223 51.1548 42.0358 51.1548 47.8372Z" fill="#D5DAE5"/>
<path d="M47.552 55.7697C45.6937 57.3786 43.2916 58.3531 40.6402 58.3531C37.9889 58.3531 35.5641 57.3786 33.7285 55.7697C34.499 55.4751 35.4961 55.0898 36.8331 54.5233C37.1504 54.3873 37.377 54.1607 37.513 53.8661C37.581 53.7075 37.6263 53.5262 37.6263 53.3222V50.8068C37.581 50.7615 37.5356 50.6935 37.513 50.6482C37.2864 50.3309 37.1504 49.9457 37.1051 49.5604L36.8785 49.4471C36.2439 49.6058 36.2893 48.9033 36.108 47.5889C36.04 47.045 36.1306 46.9317 36.3572 46.8411L36.5612 46.5691C35.3148 43.7365 35.9493 41.9689 37.173 41.357C36.7651 40.4732 36.7425 40.1333 36.7425 40.1333C36.7425 40.1333 39.3712 40.5639 40.2777 40.4052C41.4334 40.1786 43.1783 40.4506 43.8355 41.9689C44.9232 42.3994 45.3538 43.1019 45.4445 43.8271C45.5351 44.5296 45.3312 45.2548 45.1499 45.844C45.1272 45.8893 45.1272 45.912 45.1045 45.9573C45.1045 45.9799 45.0819 45.9799 45.0819 46.0026C45.0592 46.0706 45.0366 46.1386 45.0139 46.2066C44.9912 46.2292 44.9912 46.2745 44.9686 46.2972C44.9459 46.3652 44.9232 46.4105 44.9006 46.4785V46.5012C44.8779 46.5465 44.8553 46.5918 44.8553 46.6371C44.8326 46.7051 44.8099 46.7504 44.8099 46.7958C44.8326 46.8184 44.8326 46.8411 44.8326 46.8637C45.0139 46.9544 45.0592 47.0904 44.9912 47.5662C44.8326 48.8353 44.8779 49.6058 44.2207 49.4245L43.6542 50.4442C43.6315 50.5575 43.6089 50.6029 43.6089 50.6935C43.5862 50.8748 43.5862 51.26 43.5862 53.3222C43.5862 53.5715 43.6542 53.7981 43.7902 54.0021C43.9261 54.2287 44.1301 54.41 44.3794 54.5006H44.402C45.807 55.0898 46.8041 55.4751 47.552 55.7697Z" fill="white"/>
<path d="M44.8562 46.795C44.9015 46.4777 44.7655 46.0925 44.6522 45.7979C44.6295 45.7525 44.6069 45.7072 44.5842 45.6619C44.0857 44.6648 42.9526 44.2342 41.8875 44.1889C39.1682 44.0529 38.8962 44.5742 38.0577 43.781C38.3297 44.1889 38.3523 44.8008 37.9444 45.5939C37.6498 46.1378 37.106 46.3871 36.6301 46.5457C35.3837 43.713 36.0182 41.9454 37.2419 41.3336C36.834 40.4498 36.8114 40.1099 36.8114 40.1099C36.8114 40.1099 39.4401 40.5404 40.3465 40.3818C41.5023 40.1552 43.2472 40.4271 43.9044 41.9454C44.9921 42.376 45.4227 43.0785 45.5133 43.8037C45.6493 44.9821 44.9695 46.2738 44.8562 46.795Z" fill="url(#paint4_linear_7814_913)"/>
<path d="M43.8577 54.0237V54.5223H37.5352V53.8651C37.6031 53.7065 37.6485 53.5252 37.6485 53.3212V50.8058C37.6031 50.7605 37.5578 50.6925 37.5352 50.6472V50.5112C37.6711 50.7378 37.8524 50.9645 38.0564 51.1231L40.0279 52.5054C40.4811 52.8907 41.161 52.9133 41.6369 52.5281L43.4951 50.8738C43.5631 50.8285 43.6311 50.7605 43.6764 50.6925C43.6537 50.8738 43.6537 51.2591 43.6537 53.3212C43.6537 53.5705 43.7217 53.8198 43.8577 54.0237Z" fill="url(#paint5_linear_7814_913)"/>
<g filter="url(#filter2_d_7814_913)">
<path d="M159.682 78.1129H130.97C129.066 78.1129 127.525 76.572 127.525 74.6684V34.5124C127.525 32.6088 129.066 31.0679 130.97 31.0679H159.682C161.585 31.0679 163.126 32.6088 163.126 34.5124V74.6911C163.126 76.5946 161.585 78.1129 159.682 78.1129Z" fill="url(#paint6_linear_7814_913)"/>
</g>
<path d="M149.324 66.714H141.302C140.419 66.714 139.693 65.9888 139.693 65.1051C139.693 64.2213 140.419 63.4961 141.302 63.4961H149.324C150.208 63.4961 150.933 64.2213 150.933 65.1051C150.956 65.9888 150.231 66.714 149.324 66.714Z" fill="#D5DAE5"/>
<path d="M153.019 70.2038H137.631C137.156 70.2038 136.793 69.8186 136.793 69.3653C136.793 68.8894 137.178 68.5269 137.631 68.5269H153.019C153.494 68.5269 153.857 68.9121 153.857 69.3653C153.857 69.8186 153.494 70.2038 153.019 70.2038Z" fill="#D5DAE5"/>
<path d="M155.852 47.8372C155.852 51.0097 154.447 53.8424 152.249 55.7686C150.391 57.3776 147.989 58.352 145.337 58.352C142.686 58.352 140.261 57.3776 138.425 55.7686C136.227 53.8424 134.822 51.0097 134.822 47.8372C134.822 42.0358 139.536 37.3223 145.337 37.3223C151.138 37.3223 155.852 42.0358 155.852 47.8372Z" fill="#D5DAE5"/>
<path d="M152.247 55.7697C150.389 57.3786 147.987 58.3531 145.336 58.3531C142.684 58.3531 140.259 57.3786 138.424 55.7697C139.194 55.4751 140.191 55.0898 141.528 54.5233C141.846 54.3873 142.072 54.1607 142.208 53.8661C142.276 53.7075 142.322 53.5262 142.322 53.3222V50.8068C142.276 50.7615 142.231 50.6935 142.208 50.6482C141.982 50.3309 141.846 49.9457 141.8 49.5604L141.574 49.4471C140.939 49.6058 140.985 48.9033 140.803 47.5889C140.735 47.045 140.826 46.9317 141.053 46.8411L141.257 46.5691C140.01 43.7365 140.645 41.9689 141.868 41.357C141.46 40.4732 141.438 40.1333 141.438 40.1333C141.438 40.1333 144.067 40.5639 144.973 40.4052C146.129 40.1786 147.874 40.4506 148.531 41.9689C149.619 42.3994 150.049 43.1019 150.14 43.8271C150.23 44.5296 150.026 45.2548 149.845 45.844C149.823 45.8893 149.823 45.912 149.8 45.9573C149.8 45.9799 149.777 45.9799 149.777 46.0026C149.755 46.0706 149.732 46.1386 149.709 46.2066C149.687 46.2292 149.687 46.2745 149.664 46.2972C149.641 46.3652 149.619 46.4105 149.596 46.4785V46.5012C149.573 46.5465 149.551 46.5918 149.551 46.6371C149.528 46.7051 149.505 46.7504 149.505 46.7958C149.528 46.8184 149.528 46.8411 149.528 46.8637C149.709 46.9544 149.755 47.0904 149.687 47.5662C149.528 48.8353 149.573 49.6058 148.916 49.4245L148.35 50.4442C148.327 50.5575 148.304 50.6029 148.304 50.6935C148.282 50.8748 148.282 51.26 148.282 53.3222C148.282 53.5715 148.35 53.7981 148.485 54.0021C148.621 54.2287 148.825 54.41 149.075 54.5006H149.097C150.48 55.0898 151.477 55.4751 152.247 55.7697Z" fill="white"/>
<path d="M149.528 46.795C149.573 46.4777 149.437 46.0925 149.324 45.7979C149.301 45.7525 149.279 45.7072 149.256 45.6619C148.758 44.6648 147.624 44.2342 146.559 44.1889C143.84 44.0529 143.568 44.5742 142.73 43.781C143.002 44.1889 143.024 44.8008 142.616 45.5939C142.322 46.1378 141.778 46.3871 141.302 46.5457C140.056 43.713 140.69 41.9454 141.914 41.3336C141.506 40.4498 141.483 40.1099 141.483 40.1099C141.483 40.1099 144.112 40.5404 145.018 40.3818C146.174 40.1552 147.919 40.4271 148.576 41.9454C149.664 42.376 150.095 43.0785 150.185 43.8037C150.321 44.9821 149.664 46.2738 149.528 46.795Z" fill="url(#paint7_linear_7814_913)"/>
<path d="M148.532 54.0237V54.5223H142.209V53.8651C142.277 53.7065 142.322 53.5252 142.322 53.3212V50.8058C142.277 50.7605 142.232 50.6925 142.209 50.6472V50.5112C142.345 50.7378 142.526 50.9645 142.73 51.1231L144.702 52.5054C145.155 52.8907 145.835 52.9133 146.311 52.5281L148.169 50.8738C148.237 50.8285 148.305 50.7605 148.35 50.6925C148.328 50.8738 148.328 51.2591 148.328 53.3212C148.328 53.5705 148.396 53.8198 148.532 54.0237Z" fill="url(#paint8_linear_7814_913)"/>
<path d="M154.311 121.328L125.645 92.6841L132.216 86.1123L160.86 114.779L154.311 121.328Z" fill="#AAB2C5"/>
<path d="M168.587 135.718L146.605 113.736C144.77 111.901 144.77 108.91 146.605 107.074C148.441 105.238 151.432 105.238 153.268 107.074L175.249 129.056C177.085 130.891 177.085 133.882 175.249 135.718C173.414 137.554 170.422 137.554 168.587 135.718Z" fill="#AAB2C5"/>
<path d="M167.024 137.123L138.743 108.842C138.086 108.185 138.086 107.119 138.743 106.44L145.972 99.2107C146.629 98.5535 147.694 98.5535 148.374 99.2107L176.655 127.492C177.313 128.149 177.313 129.214 176.655 129.894L169.426 137.123C168.747 137.78 167.681 137.78 167.024 137.123Z" fill="url(#paint9_linear_7814_913)"/>
<path d="M93.1924 0.384277C63.1887 0.384277 38.873 24.7 38.873 54.7036C38.873 84.6847 63.1887 109.023 93.1698 109.023C123.173 109.023 147.489 84.7073 147.489 54.7036C147.489 24.7 123.173 0.384277 93.1924 0.384277ZM93.1924 98.9614C69.1034 98.9614 49.5919 79.1326 49.5919 54.681C49.5919 30.2293 69.1034 10.4233 93.1924 10.4233C117.281 10.4233 136.793 30.252 136.793 54.7036C136.793 79.1553 117.259 98.9614 93.1924 98.9614Z" fill="url(#paint10_linear_7814_913)"/>
<defs>
<filter id="filter0_d_7814_913" x="45.5625" y="9.53027" width="95.5312" height="112.12" filterUnits="userSpaceOnUse" color-interpolation-filters="sRGB">
<feFlood flood-opacity="0" result="BackgroundImageFix"/>
<feColorMatrix in="SourceAlpha" type="matrix" values="0 0 0 0 0 0 0 0 0 0 0 0 0 0 0 0 0 0 127 0" result="hardAlpha"/>
<feOffset dy="11"/>
<feGaussianBlur stdDeviation="11"/>
<feColorMatrix type="matrix" values="0 0 0 0 0.397708 0 0 0 0 0.47749 0 0 0 0 0.575 0 0 0 0.27 0"/>
<feBlend mode="normal" in2="BackgroundImageFix" result="effect1_dropShadow_7814_913"/>
<feBlend mode="normal" in="SourceGraphic" in2="effect1_dropShadow_7814_913" result="shape"/>
</filter>
<filter id="filter1_d_7814_913" x="0.851562" y="20.0679" width="79.6016" height="91.0449" filterUnits="userSpaceOnUse" color-interpolation-filters="sRGB">
<feFlood flood-opacity="0" result="BackgroundImageFix"/>
<feColorMatrix in="SourceAlpha" type="matrix" values="0 0 0 0 0 0 0 0 0 0 0 0 0 0 0 0 0 0 127 0" result="hardAlpha"/>
<feOffset dy="11"/>
<feGaussianBlur stdDeviation="11"/>
<feColorMatrix type="matrix" values="0 0 0 0 0.397708 0 0 0 0 0.47749 0 0 0 0 0.575 0 0 0 0.27 0"/>
<feBlend mode="normal" in2="BackgroundImageFix" result="effect1_dropShadow_7814_913"/>
<feBlend mode="normal" in="SourceGraphic" in2="effect1_dropShadow_7814_913" result="shape"/>
</filter>
<filter id="filter2_d_7814_913" x="105.525" y="20.0679" width="79.6016" height="91.0449" filterUnits="userSpaceOnUse" color-interpolation-filters="sRGB">
<feFlood flood-opacity="0" result="BackgroundImageFix"/>
<feColorMatrix in="SourceAlpha" type="matrix" values="0 0 0 0 0 0 0 0 0 0 0 0 0 0 0 0 0 0 127 0" result="hardAlpha"/>
<feOffset dy="11"/>
<feGaussianBlur stdDeviation="11"/>
<feColorMatrix type="matrix" values="0 0 0 0 0.397708 0 0 0 0 0.47749 0 0 0 0 0.575 0 0 0 0.27 0"/>
<feBlend mode="normal" in2="BackgroundImageFix" result="effect1_dropShadow_7814_913"/>
<feBlend mode="normal" in="SourceGraphic" in2="effect1_dropShadow_7814_913" result="shape"/>
</filter>
<linearGradient id="paint0_linear_7814_913" x1="93.3117" y1="18.9546" x2="93.3117" y2="89.3848" gradientUnits="userSpaceOnUse">
<stop stop-color="#FDFEFF"/>
<stop offset="0.9964" stop-color="#ECF0F5"/>
</linearGradient>
<linearGradient id="paint1_linear_7814_913" x1="93.4144" y1="33.9646" x2="93.4144" y2="39.3958" gradientUnits="userSpaceOnUse">
<stop stop-color="#B0BACC"/>
<stop offset="1" stop-color="#969EAE"/>
</linearGradient>
<linearGradient id="paint2_linear_7814_913" x1="93.3772" y1="54.4895" x2="93.3772" y2="51.2935" gradientUnits="userSpaceOnUse">
<stop stop-color="white"/>
<stop offset="1" stop-color="#E2E5EC"/>
</linearGradient>
<linearGradient id="paint3_linear_7814_913" x1="40.6405" y1="29.9797" x2="40.6405" y2="78.6201" gradientUnits="userSpaceOnUse">
<stop stop-color="#FDFEFF"/>
<stop offset="0.9964" stop-color="#ECF0F5"/>
</linearGradient>
<linearGradient id="paint4_linear_7814_913" x1="40.7429" y1="40.3421" x2="40.7429" y2="44.0944" gradientUnits="userSpaceOnUse">
<stop stop-color="#B0BACC"/>
<stop offset="1" stop-color="#969EAE"/>
</linearGradient>
<linearGradient id="paint5_linear_7814_913" x1="40.6983" y1="54.5467" x2="40.6983" y2="52.337" gradientUnits="userSpaceOnUse">
<stop stop-color="white"/>
<stop offset="1" stop-color="#E2E5EC"/>
</linearGradient>
<linearGradient id="paint6_linear_7814_913" x1="145.314" y1="29.9797" x2="145.314" y2="78.6201" gradientUnits="userSpaceOnUse">
<stop stop-color="#FDFEFF"/>
<stop offset="0.9964" stop-color="#ECF0F5"/>
</linearGradient>
<linearGradient id="paint7_linear_7814_913" x1="145.415" y1="40.3421" x2="145.415" y2="44.0944" gradientUnits="userSpaceOnUse">
<stop stop-color="#B0BACC"/>
<stop offset="1" stop-color="#969EAE"/>
</linearGradient>
<linearGradient id="paint8_linear_7814_913" x1="145.372" y1="54.5467" x2="145.372" y2="52.337" gradientUnits="userSpaceOnUse">
<stop stop-color="white"/>
<stop offset="1" stop-color="#E2E5EC"/>
</linearGradient>
<linearGradient id="paint9_linear_7814_913" x1="157.702" y1="100.069" x2="157.702" y2="121.902" gradientUnits="userSpaceOnUse">
<stop stop-color="#B0BACC"/>
<stop offset="1" stop-color="#969EAE"/>
</linearGradient>
<linearGradient id="paint10_linear_7814_913" x1="93.1897" y1="4.15826" x2="93.1897" y2="65.1361" gradientUnits="userSpaceOnUse">
<stop stop-color="#B0BACC"/>
<stop offset="1" stop-color="#969EAE"/>
</linearGradient>
</defs>
</svg>
