<svg width="18" height="18" viewBox="0 0 18 18" fill="none" xmlns="http://www.w3.org/2000/svg">
<path fill-rule="evenodd" clip-rule="evenodd" d="M7.75 0C3.74594 0 0.5 3.24594 0.5 7.25C0.5 11.2541 3.74594 14.5 7.75 14.5C9.42765 14.5 10.9722 13.9302 12.2007 12.9735L16.4636 17.2364C16.8151 17.5879 17.3849 17.5879 17.7364 17.2364C18.0878 16.8849 18.0878 16.3151 17.7364 15.9636L13.4735 11.7007C14.4302 10.4722 15 8.92766 15 7.25C15 3.24594 11.7541 0 7.75 0ZM7.75 1.8C4.74005 1.8 2.3 4.24005 2.3 7.25C2.3 10.26 4.74005 12.7 7.75 12.7C10.76 12.7 13.2 10.26 13.2 7.25C13.2 4.24005 10.76 1.8 7.75 1.8Z" fill="white"/>
</svg>
