<svg width="14" height="14" viewBox="0 0 14 14" fill="none" xmlns="http://www.w3.org/2000/svg">
<path d="M0.25 13.75V9.25H1.75V11.2L4.075 8.875L5.125 9.925L2.8 12.25H4.75V13.75H0.25ZM9.25 13.75V12.25H11.2L8.875 9.925L9.925 8.875L12.25 11.2V9.25H13.75V13.75H9.25ZM4.075 5.125L1.75 2.8V4.75H0.25V0.25H4.75V1.75H2.8L5.125 4.075L4.075 5.125ZM9.925 5.125L8.875 4.075L11.2 1.75H9.25V0.25H13.75V4.75H12.25V2.8L9.925 5.125ZM7 8.5C6.5875 8.5 6.23438 8.35313 5.94063 8.05938C5.64687 7.76563 5.5 7.4125 5.5 7C5.5 6.5875 5.64687 6.23438 5.94063 5.94063C6.23438 5.64687 6.5875 5.5 7 5.5C7.4125 5.5 7.76563 5.64687 8.05938 5.94063C8.35313 6.23438 8.5 6.5875 8.5 7C8.5 7.4125 8.35313 7.76563 8.05938 8.05938C7.76563 8.35313 7.4125 8.5 7 8.5Z" fill="#F15A29"/>
</svg>
