<svg width="56" height="56" viewBox="0 0 56 56" fill="none" xmlns="http://www.w3.org/2000/svg">
<path d="M33.4532 5.63532L32.882 4.83531C30.4889 1.48524 25.5101 1.48524 23.117 4.83531L22.5458 5.63532C21.2822 7.40409 19.161 8.35125 17.0007 8.11119L14.4536 7.8282C10.6321 7.40358 7.40309 10.6326 7.82771 14.4541L8.1107 17.0011C8.35076 19.1615 7.4036 21.2827 5.63483 22.5463L4.83482 23.1175C1.48475 25.5106 1.48475 30.4894 4.83482 32.8825L5.63483 33.4537C7.4036 34.7173 8.35076 36.8386 8.1107 38.9989L7.82771 41.5459C7.40309 45.3673 10.6321 48.5965 14.4536 48.1717L17.0007 47.8888C19.161 47.6488 21.2822 48.5959 22.5458 50.3647L23.117 51.1645C25.5101 54.5146 30.4889 54.5146 32.882 51.1645L33.4532 50.3647C34.7168 48.5959 36.8381 47.6488 38.9984 47.8888L41.5454 48.1717C45.3668 48.5965 48.596 45.3673 48.1712 41.5459L47.8883 38.9989C47.6483 36.8386 48.5954 34.7173 50.3642 33.4537L51.164 32.8825C54.5141 30.4894 54.5141 25.5106 51.164 23.1175L50.3642 22.5463C48.5954 21.2827 47.6483 19.1615 47.8883 17.0011L48.1712 14.4541C48.596 10.6326 45.3668 7.40358 41.5454 7.8282L38.9984 8.11119C36.8381 8.35125 34.7168 7.40409 33.4532 5.63532Z" stroke="#323232" stroke-width="3" stroke-linecap="round" stroke-linejoin="round"/>
<path d="M19 28L24.4567 33.4567C24.7567 33.7567 25.2433 33.7567 25.5433 33.4567L37 22" stroke="#323232" stroke-width="3" stroke-linecap="round" stroke-linejoin="round"/>
</svg>
