<svg width="56" height="56" viewBox="0 0 56 56" fill="none" xmlns="http://www.w3.org/2000/svg">
<path d="M12.4506 9.17456H6.85063C6.35713 9.17456 5.95703 9.57465 5.95703 10.0682V15.6682C5.95703 16.1617 6.35713 16.5617 6.85063 16.5617H12.4506C12.9441 16.5617 13.3442 16.1617 13.3442 15.6682V10.0682C13.3443 9.57465 12.9441 9.17456 12.4506 9.17456ZM11.557 14.7746H7.74422V10.9617H11.557V14.7746Z" fill="black"/>
<path d="M21.6264 9.17456H16.0264C15.5329 9.17456 15.1328 9.57465 15.1328 10.0682V15.6682C15.1328 16.1617 15.5329 16.5617 16.0264 16.5617H21.6264C22.1199 16.5617 22.52 16.1617 22.52 15.6682V10.0682C22.52 9.57465 22.1199 9.17456 21.6264 9.17456ZM20.7328 14.7746H16.92V10.9617H20.7328V14.7746Z" fill="black"/>
<path d="M21.6264 27.5234H16.0264C15.5329 27.5234 15.1328 27.9235 15.1328 28.417V34.017C15.1328 34.5105 15.5329 34.9106 16.0264 34.9106H21.6264C22.1199 34.9106 22.52 34.5105 22.52 34.017V28.417C22.52 27.9235 22.1199 27.5234 21.6264 27.5234ZM20.7328 33.1234H16.92V29.3106H20.7328V33.1234Z" fill="black"/>
<path d="M30.8002 27.5234H25.2002C24.7067 27.5234 24.3066 27.9235 24.3066 28.417V34.017C24.3066 34.5105 24.7067 34.9106 25.2002 34.9106H30.8002C31.2937 34.9106 31.6938 34.5105 31.6938 34.017V28.417C31.6938 27.9235 31.2937 27.5234 30.8002 27.5234ZM29.9066 33.1234H26.0938V29.3106H29.9066V33.1234Z" fill="black"/>
<path d="M39.9741 36.6978H34.3741C33.8806 36.6978 33.4805 37.0978 33.4805 37.5913V43.1913C33.4805 43.6848 33.8806 44.0849 34.3741 44.0849H39.9741C40.4676 44.0849 40.8677 43.6848 40.8677 43.1913V37.5913C40.8677 37.0978 40.4676 36.6978 39.9741 36.6978ZM39.0805 42.2978H35.2677V38.4849H39.0805V42.2978Z" fill="black"/>
<path d="M30.8002 9.17456H25.2002C24.7067 9.17456 24.3066 9.57465 24.3066 10.0682V15.6682C24.3066 16.1617 24.7067 16.5617 25.2002 16.5617H30.8002C31.2937 16.5617 31.6938 16.1617 31.6938 15.6682V10.0682C31.6938 9.57465 31.2937 9.17456 30.8002 9.17456ZM29.9066 14.7746H26.0938V10.9617H29.9066V14.7746Z" fill="black"/>
<path d="M39.9741 9.17456H34.3741C33.8806 9.17456 33.4805 9.57465 33.4805 10.0682V15.6682C33.4805 16.1617 33.8806 16.5617 34.3741 16.5617H39.9741C40.4676 16.5617 40.8677 16.1617 40.8677 15.6682V10.0682C40.8677 9.57465 40.4676 9.17456 39.9741 9.17456ZM39.0805 14.7746H35.2677V10.9617H39.0805V14.7746Z" fill="black"/>
<path d="M49.1498 9.17456H43.5498C43.0563 9.17456 42.6562 9.57465 42.6562 10.0682V15.6682C42.6562 16.1617 43.0563 16.5617 43.5498 16.5617H49.1498C49.6433 16.5617 50.0434 16.1617 50.0434 15.6682V10.0682C50.0434 9.57465 49.6433 9.17456 49.1498 9.17456ZM48.2561 14.7746H44.4433V10.9617H48.2561V14.7746Z" fill="black"/>
<path d="M21.6264 0H16.0264C15.5329 0 15.1328 0.400094 15.1328 0.893594V6.49359C15.1328 6.98709 15.5329 7.38719 16.0264 7.38719H21.6264C22.1199 7.38719 22.52 6.98709 22.52 6.49359V0.893594C22.52 0.400094 22.1199 0 21.6264 0ZM20.7328 5.6H16.92V1.78719H20.7328V5.6Z" fill="black"/>
<path d="M30.8002 0H25.2002C24.7067 0 24.3066 0.400094 24.3066 0.893594V6.49359C24.3066 6.98709 24.7067 7.38719 25.2002 7.38719H30.8002C31.2937 7.38719 31.6938 6.98709 31.6938 6.49359V0.893594C31.6938 0.400094 31.2937 0 30.8002 0ZM29.9066 5.6H26.0938V1.78719H29.9066V5.6Z" fill="black"/>
<path d="M49.1498 0H43.5498C43.0563 0 42.6562 0.400094 42.6562 0.893594V6.49359C42.6562 6.98709 43.0563 7.38719 43.5498 7.38719H49.1498C49.6433 7.38719 50.0434 6.98709 50.0434 6.49359V0.893594C50.0434 0.400094 49.6433 0 49.1498 0ZM48.2561 5.6H44.4433V1.78719H48.2561V5.6Z" fill="black"/>
<path d="M49.1485 18.3489H34.374C33.8805 18.3489 33.4804 18.749 33.4804 19.2425V23.9489H31.6932V19.2425C31.6932 18.749 31.2931 18.3489 30.7996 18.3489H25.1996C24.7061 18.3489 24.306 18.749 24.306 19.2425V23.9489H22.5188V19.2425C22.5188 18.749 22.1187 18.3489 21.6252 18.3489H16.0252C15.5317 18.3489 15.1316 18.749 15.1316 19.2425V23.9489H13.3444V19.2425C13.3444 18.749 12.9443 18.3489 12.4508 18.3489H6.85084C6.35734 18.3489 5.95725 18.749 5.95725 19.2425V34.017C5.95725 34.5105 6.35734 34.9106 6.85084 34.9106C7.34434 34.9106 7.74444 34.5105 7.74444 34.017V25.7361H34.3742C34.8677 25.7361 35.2678 25.336 35.2678 24.8425V20.1361H48.255V47.0638H41.9995C41.506 47.0638 41.1059 47.4638 41.1059 47.9573V54.2126H7.74422V37.5914C7.74422 37.0979 7.34412 36.6978 6.85062 36.6978C6.35712 36.6978 5.95703 37.0979 5.95703 37.5914V55.1063C5.95703 55.5998 6.35712 55.9999 6.85062 55.9999H41.9995C42.0293 55.9999 42.0592 55.9984 42.0887 55.9954C42.1095 55.9933 42.1298 55.9897 42.1501 55.9862C42.1585 55.9848 42.1672 55.9841 42.1756 55.9824C42.1997 55.9775 42.2233 55.9713 42.2467 55.9646C42.2512 55.9633 42.2558 55.9624 42.2602 55.9611C42.284 55.9539 42.3069 55.9452 42.3298 55.9361C42.334 55.9345 42.3382 55.9333 42.3424 55.9315C42.3637 55.9226 42.3845 55.9125 42.4049 55.902C42.4104 55.8993 42.4161 55.8969 42.4217 55.894C42.4402 55.8842 42.4578 55.873 42.4754 55.8619C42.4824 55.8575 42.4898 55.8536 42.4968 55.8489C42.5127 55.8381 42.5277 55.8264 42.5428 55.8147C42.5507 55.8085 42.5592 55.803 42.5669 55.7966C42.5848 55.7819 42.6017 55.7661 42.6184 55.75C42.6227 55.7459 42.6274 55.7423 42.6315 55.7382L49.7801 48.5893C49.8007 48.5688 49.8203 48.547 49.8388 48.5243C49.8436 48.5186 49.8477 48.5123 49.8523 48.5064C49.8656 48.4893 49.8789 48.4722 49.8909 48.4542C49.8947 48.4487 49.8978 48.4426 49.9014 48.437C49.9134 48.418 49.9253 48.399 49.9361 48.3791C49.9385 48.3748 49.9402 48.3701 49.9425 48.3658C49.9536 48.3442 49.9643 48.3223 49.9736 48.3C49.9749 48.2968 49.9759 48.2936 49.9772 48.2904C49.9867 48.2667 49.9957 48.2426 50.0031 48.218C50.0042 48.2144 50.0049 48.2108 50.0058 48.2072C50.0128 48.183 50.0193 48.1585 50.0243 48.1334C50.0259 48.1259 50.0265 48.1182 50.0278 48.1107C50.0315 48.0895 50.0353 48.0684 50.0373 48.0467C50.0403 48.0172 50.0418 47.9874 50.0418 47.9575V19.2425C50.042 18.749 49.642 18.3489 49.1485 18.3489ZM11.5569 23.9489H7.74411V20.1361H11.5569V23.9489ZM20.7314 23.9489H16.9186V20.1361H20.7314V23.9489ZM29.9059 23.9489H26.0931V20.1361H29.9059V23.9489ZM42.8931 52.949V48.8509H46.9911L42.8931 52.949Z" fill="black"/>
</svg>
