<svg width="47" height="47" viewBox="0 0 47 47" fill="none" xmlns="http://www.w3.org/2000/svg">
<g clip-path="url(#clip0_6434_5121)">
<path d="M41.4738 0.917969H5.52617C2.98113 0.917969 0.917969 2.98113 0.917969 5.52617V41.4738C0.917969 44.0189 2.98113 46.082 5.52617 46.082H41.4738C44.0189 46.082 46.082 44.0189 46.082 41.4738V5.52617C46.082 2.98113 44.0189 0.917969 41.4738 0.917969Z" stroke="black" stroke-width="1.83594" stroke-linecap="round" stroke-linejoin="round"/>
<path d="M8.04102 35.954V21.3528" stroke="black" stroke-width="1.83594" stroke-linecap="round" stroke-linejoin="round"/>
<path d="M8.04102 14.4819V11.0459" stroke="black" stroke-width="1.83594" stroke-linecap="round" stroke-linejoin="round"/>
<path d="M8.04246 21.352C9.93958 21.352 11.4775 19.8141 11.4775 17.917C11.4775 16.0199 9.93958 14.4819 8.04246 14.4819C6.14534 14.4819 4.60742 16.0199 4.60742 17.917C4.60742 19.8141 6.14534 21.352 8.04246 21.352Z" stroke="black" stroke-width="1.83594" stroke-linecap="round" stroke-linejoin="round"/>
<path d="M18.3477 35.9542V32.2566" stroke="black" stroke-width="1.83594" stroke-linecap="round" stroke-linejoin="round"/>
<path d="M18.3477 25.3855V11.0459" stroke="black" stroke-width="1.83594" stroke-linecap="round" stroke-linejoin="round"/>
<path d="M18.3471 32.2556C20.2443 32.2556 21.7822 30.7177 21.7822 28.8205C21.7822 26.9234 20.2443 25.3855 18.3471 25.3855C16.45 25.3855 14.9121 26.9234 14.9121 28.8205C14.9121 30.7177 16.45 32.2556 18.3471 32.2556Z" stroke="black" stroke-width="1.83594" stroke-linecap="round" stroke-linejoin="round"/>
<path d="M28.6523 35.954V21.3528" stroke="black" stroke-width="1.83594" stroke-linecap="round" stroke-linejoin="round"/>
<path d="M28.6523 14.4819V11.0459" stroke="black" stroke-width="1.83594" stroke-linecap="round" stroke-linejoin="round"/>
<path d="M28.6538 21.352C30.5509 21.352 32.0888 19.8141 32.0888 17.917C32.0888 16.0199 30.5509 14.4819 28.6538 14.4819C26.7567 14.4819 25.2188 16.0199 25.2188 17.917C25.2188 19.8141 26.7567 21.352 28.6538 21.352Z" stroke="black" stroke-width="1.83594" stroke-linecap="round" stroke-linejoin="round"/>
<path d="M38.959 35.9541V28.0669" stroke="black" stroke-width="1.83594" stroke-linecap="round" stroke-linejoin="round"/>
<path d="M38.959 21.1959V11.0459" stroke="black" stroke-width="1.83594" stroke-linecap="round" stroke-linejoin="round"/>
<path d="M38.9604 28.0659C40.8576 28.0659 42.3955 26.528 42.3955 24.6308C42.3955 22.7337 40.8576 21.1958 38.9604 21.1958C37.0633 21.1958 35.5254 22.7337 35.5254 24.6308C35.5254 26.528 37.0633 28.0659 38.9604 28.0659Z" stroke="black" stroke-width="1.83594" stroke-linecap="round" stroke-linejoin="round"/>
</g>
<defs>
<clipPath id="clip0_6434_5121">
<rect width="47" height="47" fill="white"/>
</clipPath>
</defs>
</svg>
