<svg width="124" height="58" viewBox="0 0 124 58" fill="none" xmlns="http://www.w3.org/2000/svg">
<g clip-path="url(#clip0_5778_27779)">
<path d="M99.1689 45.3709C99.1689 45.7792 99.5555 45.9075 99.7743 45.9075H100.271C100.678 45.9075 100.678 46.6119 100.271 46.6119H95.4848C95.078 46.6119 95.078 45.9075 95.4848 45.9075H95.9807C96.2003 45.9075 96.5864 45.7792 96.5864 45.3709V37.9355C96.5864 37.529 96.2003 37.3981 95.9807 37.3981H95.4848C95.078 37.3981 95.078 36.6943 95.4848 36.6943H100.271C100.678 36.6943 100.678 37.3981 100.271 37.3981H99.7743C99.5555 37.3981 99.1689 37.529 99.1689 37.9355V45.3709Z" fill="black"/>
<path d="M82.0255 45.3709C82.2438 45.9076 81.8773 45.9076 81.6583 45.9076H81.1615C80.7548 45.9076 80.7548 46.6119 81.1615 46.6119H85.9482C86.3546 46.6119 86.3546 45.9076 85.9482 45.9076H85.6106C85.3918 45.9076 85.1239 45.9076 84.8855 45.3709C84.8855 45.3709 81.1428 36.8027 81.0625 36.6143C80.9843 36.4265 80.8749 36.4569 80.7946 36.4569H80.2685C80.0801 36.4569 80.0209 36.6143 79.9821 36.6748C79.9414 36.7342 76.1683 45.3712 76.1683 45.3712C75.8903 45.9078 75.7217 45.9078 75.5029 45.9078H75.0066C74.5994 45.9078 74.5994 46.6121 75.0066 46.6121H78.4616C78.8684 46.6121 78.8684 45.9078 78.4616 45.9078H77.5691C77.3499 45.9078 76.9226 45.9868 77.161 45.3712L79.6038 39.4539L82.0255 45.3709Z" fill="black"/>
<path d="M81.1422 43.2087L80.8487 42.502H78.3471L78.0547 43.2087H81.1422Z" fill="black"/>
<path d="M70.918 37.9355C70.6992 37.3981 71.0652 37.3981 71.2847 37.3981H71.781C72.1874 37.3981 72.1874 36.6943 71.781 36.6943H66.9952C66.5875 36.6943 66.5875 37.3981 66.9952 37.3981H67.3324C67.5512 37.3981 67.8191 37.3981 68.0566 37.9355C68.0566 37.9355 71.7998 46.4243 71.8788 46.6119C71.9587 46.8007 72.0681 46.771 72.1475 46.771H72.5151C72.6329 46.771 72.6598 46.8072 72.7763 46.6138C72.8142 46.5544 76.6153 37.9355 76.6153 37.9355C76.8933 37.3981 77.0619 37.3981 77.2811 37.3981H77.7771C78.1843 37.3981 78.1843 36.6943 77.7771 36.6943H74.7994C74.3918 36.6943 74.3918 37.3981 74.7994 37.3981H75.2154C75.4338 37.3981 75.861 37.3199 75.6226 37.9355L73.1811 43.615L70.918 37.9355Z" fill="black"/>
<path d="M65.5417 45.3709C65.76 45.9076 65.394 45.9076 65.175 45.9076H64.6769C64.2718 45.9076 64.2718 46.6119 64.6769 46.6119H69.4638C69.871 46.6119 69.871 45.9076 69.4638 45.9076H69.1262C68.9082 45.9076 68.6395 45.9076 68.4011 45.3709C68.4011 45.3709 64.6584 36.8027 64.5802 36.6143C64.4999 36.4265 64.3905 36.4569 64.311 36.4569H63.7841C63.7021 36.4569 63.6306 36.4474 63.5154 36.638C63.4779 36.7002 59.6841 45.3712 59.6841 45.3712C59.4059 45.9078 59.2373 45.9078 59.0202 45.9078H58.5224C58.1149 45.9078 58.1149 46.6121 58.5224 46.6121H61.9774C62.3848 46.6121 62.3848 45.9078 61.9774 45.9078H61.0844C60.8659 45.9078 60.4397 45.9868 60.677 45.3712L63.1204 39.4539L65.5417 45.3709Z" fill="black"/>
<path d="M64.6598 43.2087L64.3675 42.502H61.8649L61.5723 43.2087H64.6598Z" fill="black"/>
<path d="M47.057 41.6551L45.1113 39.7095L43.1654 41.6554L45.111 43.601L47.057 41.6551Z" fill="black"/>
<path d="M11.4727 44.0609C11.4727 43.7429 12.1675 43.6431 12.1675 44.0609C12.1675 44.835 12.53 46.4729 14.5752 46.4729C16.6205 46.4729 16.8139 45.0142 16.8139 44.517C16.8139 42.2934 11.6716 42.829 11.6716 39.4127C11.6716 36.9921 13.831 36.168 15.4891 36.168C16.9381 36.168 17.5882 36.5147 17.7671 36.6536C17.9463 36.7931 17.9655 36.9111 17.9655 37.0517V38.8989C17.9655 39.1553 17.5682 39.3545 17.4108 38.8989C17.2516 38.4417 16.715 36.8319 15.4844 36.8319C14.0933 36.8319 13.5982 37.8058 13.5982 38.4021C13.5982 40.6455 18.7207 39.7712 18.7207 43.4651C18.7207 45.5693 16.7742 47.1772 14.5705 47.1772C12.3659 47.1772 11.651 46.2797 11.4729 46.0808L11.4727 44.0609Z" fill="black"/>
<path d="M39.8675 44.1888C40.0269 43.8709 40.4031 43.9304 40.4031 44.3462V45.6578C40.4031 45.7172 40.4031 45.8363 40.3051 45.9151C40.2049 45.9944 39.0131 47.028 37.0677 47.028C34.1889 47.028 30.9121 45.34 30.9121 41.7055C30.9121 38.5091 34.2785 36.5034 37.1375 36.5034C37.9713 36.5034 39.4905 36.84 39.7687 36.9586C40.0467 37.0784 40.0856 37.197 40.1061 37.3473C40.1259 37.4955 40.2446 38.4496 40.2842 38.6871C40.3247 38.9257 39.9476 39.2251 39.6881 38.7666C39.4308 38.3101 38.8149 37.1785 37.1278 37.1785C35.4398 37.1785 33.5728 38.4694 33.5728 41.7456C33.5728 45.0223 35.598 46.352 37.0675 46.352C38.0412 46.3518 39.2321 45.9151 39.8675 44.1888Z" fill="black"/>
<path d="M105.281 36.6943L110.409 43.0493V37.9355C110.409 37.529 110.022 37.3981 109.803 37.3981H109.308C108.9 37.3981 108.9 36.6943 109.308 36.6943H112.385C112.793 36.6943 112.793 37.3981 112.385 37.3981H111.889C111.67 37.3981 111.283 37.529 111.283 37.9355V46.7411C111.283 46.8205 111.253 46.9194 111.104 46.9194H110.33C110.271 46.9194 110.22 46.8998 110.161 46.8412C110.101 46.7809 103.578 38.6212 103.578 38.6212V45.3711C103.578 45.7794 103.966 45.9077 104.183 45.9077H104.68C105.088 45.9077 105.088 46.6121 104.68 46.6121H101.603C101.195 46.6121 101.195 45.9077 101.603 45.9077H102.099C102.317 45.9077 102.704 45.7794 102.704 45.3711V38.0949C102.704 37.628 102.338 37.3983 102.019 37.3983H101.603C101.195 37.3983 101.195 36.6945 101.603 36.6945L105.281 36.6943Z" fill="black"/>
<path d="M23.2176 36.6943L28.3448 43.0493V37.9355C28.3448 37.529 27.9591 37.3981 27.7393 37.3981H27.2431C26.8359 37.3981 26.8359 36.6943 27.2431 36.6943H30.3203C30.7286 36.6943 30.7286 37.3981 30.3203 37.3981H29.8255C29.6075 37.3981 29.2193 37.529 29.2193 37.9355V46.7411C29.2193 46.8205 29.1887 46.9194 29.0408 46.9194H28.2656C28.2063 46.9194 28.1572 46.8998 28.0969 46.8412C28.0384 46.7809 21.515 38.6212 21.515 38.6212V45.3711C21.515 45.7794 21.9015 45.9077 22.1203 45.9077H22.6173C23.0238 45.9077 23.0238 46.6121 22.6173 46.6121H19.538C19.1306 46.6121 19.1306 45.9077 19.538 45.9077H20.0361C20.254 45.9077 20.6416 45.7794 20.6416 45.3711V38.0949C20.6416 37.628 20.2738 37.3983 19.9568 37.3983H19.5382C19.1308 37.3983 19.1308 36.6945 19.5382 36.6945L23.2176 36.6943Z" fill="black"/>
<path d="M54.8792 46.1177C55.2704 46.1177 56.5047 46.1112 57.3366 44.3892C57.4789 44.0007 58.0797 44.0877 58.0117 44.4876L57.6979 46.3442C57.6697 46.4885 57.5715 46.6119 57.3999 46.6119H49.954C49.5466 46.6119 49.5466 45.9075 49.954 45.9075H50.4512C50.6687 45.9075 51.0567 45.7792 51.0567 45.3709V37.9355C51.0567 37.529 50.6687 37.3981 50.4512 37.3981H49.954C49.5466 37.3981 49.5466 36.6943 49.954 36.6943H54.739C55.146 36.6943 55.146 37.3981 54.739 37.3981H54.2429C54.0247 37.3981 53.6365 37.529 53.6365 37.9355V44.9747C53.6362 45.8898 54.1683 46.1177 54.8792 46.1177Z" fill="black"/>
<path d="M91.845 46.1177C92.2365 46.1177 93.4715 46.1112 94.3042 44.3892C94.4454 44.0007 95.0464 44.0877 94.9775 44.4876L94.6647 46.3442C94.636 46.4885 94.5385 46.6119 94.366 46.6119H86.921C86.5133 46.6119 86.5133 45.9075 86.921 45.9075H87.4164C87.6357 45.9075 88.0228 45.7792 88.0228 45.3709V37.9355C88.0228 37.529 87.6354 37.3981 87.4164 37.3981H86.921C86.5133 37.3981 86.5133 36.6943 86.921 36.6943H91.7055C92.1118 36.6943 92.1118 37.3981 91.7055 37.3981H91.2096C90.9904 37.3981 90.6043 37.529 90.6043 37.9355V44.9747C90.6043 45.8898 91.1359 46.1177 91.845 46.1177Z" fill="black"/>
<path d="M31.1328 13.8247L38.1203 20.8121L45.1088 13.8247L38.1203 6.83789L31.1328 13.8247Z" fill="#00537B"/>
<path d="M39.5615 24.3735C40.6565 25.1638 41.8834 25.7956 43.1942 26.2198C47.7959 23.5604 52.3412 17.949 52.3412 13.8742C52.3412 9.74209 47.6544 4.01888 42.9866 1.40771C41.7004 1.84915 40.499 2.47987 39.4297 3.27597C42.7435 4.60546 49.2557 11.3659 49.2557 13.8488C49.2555 16.3014 42.9121 22.9299 39.5615 24.3735Z" fill="#00537B"/>
<path d="M48.2676 0.741699C55.0126 1.26217 60.3021 6.89558 60.3021 13.7747C60.3021 20.5173 55.1893 26.0713 48.6343 26.7767C52.6064 23.4883 55.4275 18.6348 55.4275 13.8983C55.4275 9.03063 52.416 4.03074 48.2676 0.741699Z" fill="#00537B"/>
</g>
<defs>
<clipPath id="clip0_5778_27779">
<rect width="123.189" height="56.5168" fill="white" transform="translate(0.484375 0.741699)"/>
</clipPath>
</defs>
</svg>
