<svg width="139" height="32" viewBox="0 0 139 32" fill="none" xmlns="http://www.w3.org/2000/svg">
<path d="M46.4136 10.4855C46.6011 10.6194 46.735 10.9074 46.8154 11.3494C46.8556 11.5502 46.9292 11.6507 47.0364 11.6507C47.1837 11.6373 47.2507 11.5369 47.2373 11.3494C47.2373 11.2556 47.2172 11.1016 47.177 10.8873C47.1502 10.7132 47.1368 10.4453 47.1368 10.0837C47.1368 9.70871 47.1034 9.48103 47.0364 9.40067C46.956 9.33371 46.7417 9.30022 46.3935 9.30022H36.2282C36.014 9.30022 35.88 9.3471 35.8265 9.44085C35.7595 9.52121 35.726 9.70871 35.726 10.0034C35.726 10.298 35.6791 10.673 35.5854 11.1284C35.505 11.4766 35.4648 11.7177 35.4648 11.8516C35.4648 12.0123 35.5184 12.0927 35.6256 12.0927C35.7461 12.1061 35.8332 11.9922 35.8867 11.7511C36.0073 11.1752 36.1881 10.7869 36.4291 10.586C36.6568 10.3851 37.0251 10.2846 37.5341 10.2846H40.0252C40.2662 10.2846 40.4203 10.3114 40.4872 10.365C40.5542 10.4319 40.5877 10.5793 40.5877 10.8069V11.048V20.4298C40.5877 20.9521 40.5073 21.3137 40.3466 21.5146C40.1725 21.7289 39.8444 21.8629 39.3622 21.9164C39.1479 21.9432 39.0408 22.0102 39.0408 22.1173C39.0408 22.2512 39.1412 22.3182 39.3421 22.3182C39.3957 22.3182 39.6033 22.2981 39.9649 22.2579C40.1524 22.2312 40.3734 22.2178 40.6278 22.2178H41.3712H42.0743C42.5163 22.2178 42.7975 22.2312 42.918 22.2579C43.1457 22.2981 43.2997 22.3182 43.3801 22.3182C43.5542 22.3182 43.6413 22.2446 43.6413 22.0972C43.6413 22.0035 43.5341 21.9365 43.3198 21.8963C42.5296 21.7624 42.1145 21.3271 42.0743 20.5905V20.2088V10.9476C42.0743 10.6529 42.1078 10.4654 42.1747 10.3851C42.2417 10.3181 42.4158 10.2846 42.6971 10.2846H45.3489C45.8846 10.2846 46.2395 10.3516 46.4136 10.4855ZM51.5364 10.1239C51.6436 10.0301 51.8913 9.98327 52.2797 9.98327H53.7664C54.7441 9.98327 55.4137 10.0301 55.7753 10.1239C56.1369 10.2177 56.378 10.4052 56.4985 10.6864C56.5789 10.8739 56.6191 11.0681 56.6191 11.269V11.5101C56.6191 11.6976 56.6793 11.7913 56.7999 11.7913C56.907 11.7779 56.974 11.7311 57.0008 11.6507C57.041 11.5569 57.0744 11.3293 57.1012 10.9676L57.1414 10.4051C57.1682 9.98996 57.195 9.74219 57.2218 9.66183C57.2352 9.56808 57.2419 9.49442 57.2419 9.44085C57.2419 9.25335 57.1414 9.15959 56.9405 9.15959C56.8602 9.15959 56.7329 9.17299 56.5588 9.19978C56.4785 9.21317 56.2508 9.22656 55.8758 9.23996L54.5298 9.30022C53.9405 9.32701 53.2641 9.3404 52.5007 9.3404C51.2284 9.3404 50.1436 9.29353 49.2462 9.19978C48.9918 9.1596 48.7842 9.13951 48.6235 9.13951C48.3422 9.13951 48.2016 9.22656 48.2016 9.40067C48.2016 9.52121 48.2886 9.58148 48.4627 9.58148C49.0386 9.58148 49.427 9.7355 49.6279 10.0435C49.8288 10.365 49.9293 10.9743 49.9293 11.8717V19.8472L49.9092 20.47C49.9092 21.22 49.6815 21.662 49.2261 21.7959L48.8645 21.8963C48.7038 21.9365 48.6235 22.0102 48.6235 22.1173C48.6235 22.2512 48.7239 22.3182 48.9248 22.3182C49.0186 22.3182 49.186 22.2981 49.427 22.2579C49.8824 22.1776 50.6592 22.1374 51.7574 22.1374C52.5342 22.1374 53.5253 22.1977 54.7307 22.3182C55.0387 22.3316 55.2865 22.3383 55.474 22.3383C56.3177 22.3383 57.0142 22.0035 57.5633 21.3338C58.0187 20.7713 58.2463 20.2825 58.2463 19.8673C58.2463 19.7066 58.1928 19.6262 58.0856 19.6262C58.0053 19.6396 57.9316 19.6999 57.8646 19.807C57.1682 20.9186 55.5811 21.4745 53.1034 21.4745C52.3266 21.4745 51.8445 21.4075 51.657 21.2736C51.4561 21.1396 51.3556 20.8048 51.3556 20.2691V16.7936V16.4722C51.3556 16.2847 51.4092 16.1641 51.5163 16.1106C51.6101 16.0436 51.811 16.0101 52.119 16.0101H54.2083C54.7441 16.0101 55.1258 16.0838 55.3534 16.2311C55.5811 16.3784 55.7351 16.6664 55.8155 17.0949L55.8758 17.3561C55.8892 17.49 55.9695 17.557 56.1168 17.557C56.2374 17.557 56.2976 17.4833 56.2976 17.336C56.2976 17.2691 56.291 17.1753 56.2776 17.0548C56.2374 16.6798 56.2173 16.2981 56.2173 15.9097C56.2173 15.4141 56.2441 14.8583 56.2976 14.2422C56.311 14.1485 56.3177 14.0815 56.3177 14.0414C56.3177 13.8806 56.2508 13.7936 56.1168 13.7802C55.9963 13.7802 55.9159 13.8605 55.8758 14.0213C55.7954 14.4364 55.7084 14.6976 55.6146 14.8047C55.5075 14.9253 55.2865 15.019 54.9517 15.086C54.5633 15.153 54.0409 15.1864 53.3847 15.1864H51.9382C51.657 15.1864 51.4896 15.1597 51.436 15.1061C51.3824 15.0391 51.3556 14.865 51.3556 14.5838V10.7668C51.3556 10.4319 51.4159 10.2177 51.5364 10.1239ZM70.6817 12.2936V11.269C70.6817 10.6663 70.742 10.2511 70.8625 10.0235C70.9831 9.80916 71.2375 9.65514 71.6259 9.56138C71.7599 9.52121 71.8201 9.46094 71.8067 9.38059C71.7933 9.24666 71.7063 9.17969 71.5456 9.17969C71.4384 9.17969 71.2844 9.19978 71.0835 9.23996C70.8558 9.28014 70.5478 9.30022 70.1594 9.30022C69.4228 9.30022 68.8402 9.27344 68.4116 9.21987C68.2241 9.20648 68.0902 9.19978 68.0098 9.19978C67.8223 9.19978 67.7286 9.26005 67.7286 9.38059C67.7286 9.50112 67.8223 9.57478 68.0098 9.60157C68.6527 9.70871 69.1013 9.87612 69.3558 10.1038C69.5969 10.3315 69.7509 10.7132 69.8179 11.2489L69.9384 13.4186L69.9183 14.6842V19.3651C69.9183 19.4722 69.8848 19.5258 69.8179 19.5258C69.7777 19.5392 69.6906 19.4655 69.5567 19.3048L60.8781 9.48103C60.7173 9.29353 60.5566 9.19978 60.3959 9.19978C60.3155 9.19978 60.2017 9.20648 60.0544 9.21987H59.8937L59.2709 9.19978H58.8892C58.8222 9.18638 58.7687 9.17969 58.7285 9.17969C58.5945 9.17969 58.5276 9.23995 58.5276 9.36049C58.5276 9.48103 58.6146 9.54799 58.7887 9.56138C59.4316 9.65514 59.9272 10.0168 60.2754 10.6462C60.6236 11.2757 60.7977 12.1328 60.7977 13.2177V19.6463C60.7977 20.316 60.7039 20.8048 60.5164 21.1128C60.3289 21.4209 59.974 21.6687 59.4517 21.8562C59.2642 21.9097 59.1771 21.9834 59.1905 22.0771C59.2039 22.1977 59.291 22.2579 59.4517 22.2579C59.5187 22.2579 59.6325 22.2446 59.7932 22.2178C60.0209 22.191 60.2553 22.1776 60.4964 22.1776L60.9584 22.1575L61.9026 22.1977C62.3848 22.2245 62.6593 22.2446 62.7263 22.2579C62.8334 22.2713 62.9272 22.278 63.0075 22.278C63.1415 22.278 63.2084 22.2178 63.2084 22.0972C63.2084 21.9633 63.108 21.8829 62.9071 21.8562C62.4116 21.7758 62.0767 21.662 61.9026 21.5146C61.7285 21.3539 61.6214 21.066 61.5812 20.6508L61.5611 19.9678V19.586V13.1775C61.5611 12.8962 61.6214 12.7556 61.7419 12.7556C61.7955 12.7556 61.8424 12.7757 61.8825 12.8159L61.9629 12.9163L69.9183 22.0169L70.1393 22.2579C70.1795 22.3115 70.2465 22.3383 70.3402 22.3383C70.4875 22.3383 70.5813 22.2646 70.6215 22.1173C70.6482 21.9566 70.6616 21.5213 70.6616 20.8115V12.9163L70.6817 12.2936ZM84.3627 12.2936V11.269C84.3627 10.6663 84.4229 10.2511 84.5435 10.0235C84.6774 9.80916 84.9319 9.65514 85.3069 9.56138C85.4408 9.52121 85.5078 9.46094 85.5078 9.38059C85.4944 9.24666 85.4006 9.17969 85.2265 9.17969C85.1194 9.17969 84.9654 9.19978 84.7645 9.23996C84.5368 9.28014 84.2287 9.30022 83.8403 9.30022C83.1037 9.30022 82.5211 9.27344 82.0926 9.21987C81.9051 9.20648 81.7711 9.19978 81.6908 9.19978C81.5167 9.19978 81.4296 9.26005 81.4296 9.38059C81.4296 9.50112 81.5167 9.57478 81.6908 9.60157C82.347 9.70871 82.7957 9.87612 83.0368 10.1038C83.2912 10.3315 83.4519 10.7132 83.5189 11.2489L83.6194 13.4186V14.6842V19.3651C83.606 19.4722 83.5725 19.5325 83.5189 19.5459C83.4787 19.5459 83.385 19.4655 83.2377 19.3048L74.559 9.48103C74.3983 9.29353 74.2443 9.19978 74.0969 9.19978C74.0166 9.19978 73.896 9.20648 73.7353 9.21987H73.5947L72.9518 9.19978H72.5701C72.5032 9.18638 72.4563 9.17969 72.4295 9.17969C72.2822 9.17969 72.2085 9.23995 72.2085 9.36049C72.2085 9.48103 72.2956 9.54799 72.4697 9.56138C73.1259 9.65514 73.6282 10.0168 73.9764 10.6462C74.3112 11.2757 74.4786 12.1328 74.4786 13.2177V19.6463C74.4786 20.316 74.3916 20.8048 74.2175 21.1128C74.03 21.4209 73.6684 21.6687 73.1326 21.8562C72.9585 21.9097 72.8715 21.9834 72.8715 22.0771C72.8849 22.1977 72.9719 22.2579 73.1326 22.2579C73.1996 22.2579 73.3201 22.2446 73.4943 22.2178C73.7085 22.191 73.9362 22.1776 74.1773 22.1776L74.6394 22.1575L75.6037 22.1977C76.0858 22.2245 76.3604 22.2446 76.4273 22.2579C76.5211 22.2713 76.6148 22.278 76.7086 22.278C76.8425 22.278 76.9095 22.2178 76.9095 22.0972C76.9095 21.9633 76.8023 21.8829 76.588 21.8562C76.0925 21.7758 75.7577 21.662 75.5836 21.5146C75.4228 21.3539 75.3157 21.066 75.2621 20.6508L75.242 19.9678L75.2621 19.586V13.1775C75.2621 12.8962 75.3157 12.7556 75.4228 12.7556C75.4764 12.7556 75.5233 12.7757 75.5635 12.8159L75.6639 12.9163L83.6194 22.0169L83.8202 22.2579C83.8738 22.3115 83.9475 22.3383 84.0412 22.3383C84.1886 22.3383 84.2756 22.2646 84.3024 22.1173C84.3292 21.9566 84.3426 21.5213 84.3426 20.8115V12.9163L84.3627 12.2936ZM89.5257 10.1239C89.6462 10.0301 89.9007 9.98327 90.2891 9.98327H91.7757C92.74 9.98327 93.4029 10.0301 93.7645 10.1239C94.1395 10.2177 94.3873 10.4052 94.5079 10.6864C94.5748 10.8739 94.6083 11.0681 94.6083 11.269V11.5101C94.6083 11.6976 94.6686 11.7913 94.7891 11.7913C94.8963 11.7779 94.9699 11.7311 95.0101 11.6507C95.0369 11.5569 95.0704 11.3293 95.1105 10.9676L95.1306 10.4051C95.1708 9.98996 95.1976 9.74219 95.211 9.66183C95.2378 9.56808 95.2512 9.49442 95.2512 9.44085C95.2512 9.25335 95.144 9.15959 94.9297 9.15959C94.8494 9.15959 94.7221 9.17299 94.548 9.19978C94.4677 9.21317 94.2467 9.22656 93.8851 9.23996L92.5391 9.30022C91.9498 9.32701 91.2668 9.3404 90.49 9.3404C89.231 9.3404 88.1529 9.29353 87.2556 9.19978C86.9877 9.1596 86.7734 9.13951 86.6127 9.13951C86.3314 9.13951 86.1908 9.22656 86.1908 9.40067C86.1908 9.52121 86.2846 9.58148 86.4721 9.58148C87.048 9.58148 87.4297 9.7355 87.6172 10.0435C87.8181 10.365 87.9185 10.9743 87.9185 11.8717V19.8472V20.47C87.9185 21.22 87.6908 21.662 87.2355 21.7959L86.8739 21.8963C86.7131 21.9365 86.6328 22.0102 86.6328 22.1173C86.6328 22.2512 86.7332 22.3182 86.9341 22.3182C87.0145 22.3182 87.1752 22.2981 87.4163 22.2579C87.8716 22.1776 88.6484 22.1374 89.7466 22.1374C90.5368 22.1374 91.5346 22.1977 92.74 22.3182C93.048 22.3316 93.2891 22.3383 93.4632 22.3383C94.307 22.3383 95.0101 22.0035 95.5726 21.3338C96.028 20.7713 96.2556 20.2825 96.2556 19.8673C96.2556 19.7066 96.1954 19.6262 96.0748 19.6262C96.0079 19.6396 95.9409 19.6999 95.8739 19.807C95.1641 20.9186 93.5771 21.4745 91.1127 21.4745C90.3359 21.4745 89.8471 21.4075 89.6462 21.2736C89.4587 21.1396 89.365 20.8048 89.365 20.2691V16.7936V16.4722C89.365 16.2847 89.4118 16.1641 89.5056 16.1106C89.6127 16.0436 89.8203 16.0101 90.1284 16.0101H92.2177C92.7534 16.0101 93.1351 16.0838 93.3628 16.2311C93.5904 16.3784 93.7378 16.6664 93.8047 17.0949L93.865 17.3561C93.8918 17.49 93.9721 17.557 94.1061 17.557C94.2266 17.557 94.2869 17.4833 94.2869 17.336C94.2869 17.2691 94.2802 17.1753 94.2668 17.0548C94.2266 16.6798 94.2065 16.2981 94.2065 15.9097C94.2065 15.4141 94.24 14.8583 94.307 14.2422C94.307 14.1485 94.307 14.0815 94.307 14.0414C94.307 13.8806 94.2467 13.7936 94.1262 13.7802C93.9922 13.7802 93.9119 13.8605 93.8851 14.0213C93.8047 14.4364 93.711 14.6976 93.6038 14.8047C93.5101 14.9253 93.2958 15.019 92.961 15.086C92.5726 15.153 92.0502 15.1864 91.394 15.1864H89.9275C89.6596 15.1864 89.4989 15.1597 89.4453 15.1061C89.3917 15.0391 89.365 14.865 89.365 14.5838V10.7668C89.365 10.4319 89.4185 10.2177 89.5257 10.1239ZM99.2088 10.0034C98.4588 10.6462 98.0838 11.4766 98.0838 12.4945C98.0838 13.4052 98.3717 14.1485 98.9476 14.7244C99.5369 15.2869 100.528 15.8092 101.921 16.2914C103.274 16.7467 104.091 17.0949 104.372 17.336C104.921 17.8182 105.195 18.4075 105.195 19.1039C105.195 19.8271 104.894 20.4432 104.291 20.9521C103.689 21.4611 102.959 21.7155 102.102 21.7155C101.245 21.7155 100.454 21.4544 99.7311 20.932C98.9945 20.3963 98.5191 19.7401 98.3048 18.9633C98.211 18.6552 98.1039 18.5012 97.9833 18.5012C97.8628 18.4878 97.8025 18.5749 97.8025 18.7624C97.8025 19.0035 97.8829 19.4119 98.0436 19.9878C98.1909 20.5102 98.2713 20.7914 98.2847 20.8316C98.3516 21.1932 98.4052 21.4142 98.4454 21.4945C98.4856 21.5749 98.5592 21.6553 98.6664 21.7356C98.9476 21.9231 99.3762 22.0838 99.9521 22.2178C100.528 22.3517 101.064 22.4187 101.559 22.4187C102.899 22.4187 103.997 22.0437 104.854 21.2937C105.698 20.557 106.12 19.5994 106.12 18.4209C106.12 16.6798 104.961 15.4275 102.644 14.6641C101.452 14.2757 100.702 14.0012 100.394 13.8405C100.086 13.6931 99.8048 13.4588 99.5503 13.1373C99.2557 12.7489 99.1084 12.2936 99.1084 11.7712C99.1084 11.1685 99.336 10.6663 99.7914 10.2645C100.247 9.86273 100.809 9.66183 101.479 9.66183C102.336 9.66183 103.113 9.88283 103.809 10.3248C104.506 10.7668 104.968 11.3293 105.195 12.0123C105.289 12.3203 105.39 12.4744 105.497 12.4744C105.631 12.4744 105.698 12.3739 105.698 12.173C105.698 12.1194 105.684 11.9922 105.658 11.7913L105.497 10.8069C105.416 10.2846 105.376 9.96987 105.376 9.86273C105.376 9.55469 105.296 9.40067 105.135 9.40067C105.082 9.40067 105.048 9.41407 105.035 9.44085L104.894 9.56138C104.827 9.61496 104.754 9.64175 104.673 9.64175C104.62 9.64175 104.566 9.62835 104.512 9.60157L103.849 9.3404C103.394 9.13951 102.825 9.03906 102.142 9.03906C100.95 9.03906 99.9722 9.36049 99.2088 10.0034ZM109.374 10.0034C108.624 10.6462 108.249 11.4766 108.249 12.4945C108.249 13.4052 108.537 14.1485 109.113 14.7244C109.689 15.2869 110.68 15.8092 112.086 16.2914C113.425 16.7467 114.242 17.0949 114.537 17.336C115.086 17.8182 115.361 18.4075 115.361 19.1039C115.361 19.8271 115.059 20.4432 114.457 20.9521C113.854 21.4611 113.124 21.7155 112.267 21.7155C111.41 21.7155 110.62 21.4544 109.896 20.932C109.16 20.3963 108.684 19.7401 108.47 18.9633C108.376 18.6552 108.269 18.5012 108.149 18.5012C108.028 18.4878 107.968 18.5749 107.968 18.7624C107.968 19.0035 108.048 19.4119 108.209 19.9878C108.356 20.5102 108.437 20.7914 108.45 20.8316C108.517 21.1932 108.571 21.4142 108.611 21.4945C108.651 21.5749 108.725 21.6553 108.832 21.7356C109.1 21.9231 109.528 22.0838 110.117 22.2178C110.693 22.3517 111.229 22.4187 111.725 22.4187C113.064 22.4187 114.155 22.0437 114.999 21.2937C115.856 20.557 116.285 19.5994 116.285 18.4209C116.285 16.6798 115.126 15.4275 112.809 14.6641C111.617 14.2757 110.867 14.0012 110.559 13.8405C110.251 13.6931 109.97 13.4588 109.716 13.1373C109.421 12.7489 109.274 12.2936 109.274 11.7712C109.274 11.1685 109.501 10.6663 109.957 10.2645C110.412 9.86273 110.975 9.66183 111.644 9.66183C112.501 9.66183 113.278 9.88283 113.975 10.3248C114.671 10.7668 115.126 11.3293 115.341 12.0123C115.448 12.3203 115.555 12.4744 115.662 12.4744C115.796 12.4744 115.863 12.3739 115.863 12.173C115.863 12.1194 115.843 11.9922 115.803 11.7913L115.662 10.8069C115.582 10.2846 115.542 9.96987 115.542 9.86273C115.542 9.55469 115.461 9.40067 115.3 9.40067C115.247 9.40067 115.213 9.41407 115.2 9.44085L115.059 9.56138C114.992 9.61496 114.919 9.64175 114.838 9.64175C114.785 9.64175 114.731 9.62835 114.678 9.60157L114.015 9.3404C113.546 9.13951 112.977 9.03906 112.307 9.03906C111.115 9.03906 110.137 9.36049 109.374 10.0034ZM120.845 10.1239C120.966 10.0301 121.22 9.98327 121.609 9.98327H123.075C124.053 9.98327 124.722 10.0301 125.084 10.1239C125.446 10.2177 125.687 10.4052 125.807 10.6864C125.888 10.8739 125.928 11.0681 125.928 11.269V11.5101C125.928 11.6976 125.988 11.7913 126.109 11.7913C126.216 11.7779 126.289 11.7311 126.33 11.6507C126.356 11.5569 126.383 11.3293 126.41 10.9676L126.45 10.4051C126.49 9.98996 126.517 9.74219 126.531 9.66183C126.544 9.56808 126.551 9.49442 126.551 9.44085C126.551 9.25335 126.45 9.15959 126.249 9.15959C126.169 9.15959 126.042 9.17299 125.868 9.19978C125.787 9.21317 125.56 9.22656 125.185 9.23996L123.859 9.30022C123.269 9.32701 122.586 9.3404 121.809 9.3404C120.551 9.3404 119.472 9.29353 118.575 9.19978C118.307 9.1596 118.093 9.13951 117.932 9.13951C117.651 9.13951 117.51 9.22656 117.51 9.40067C117.51 9.52121 117.604 9.58148 117.792 9.58148C118.354 9.58148 118.736 9.7355 118.937 10.0435C119.138 10.365 119.238 10.9743 119.238 11.8717V19.8472V20.47C119.238 21.22 119.01 21.662 118.555 21.7959L118.193 21.8963C118.033 21.9365 117.952 22.0102 117.952 22.1173C117.952 22.2512 118.053 22.3182 118.254 22.3182C118.334 22.3182 118.495 22.2981 118.736 22.2579C119.191 22.1776 119.968 22.1374 121.066 22.1374C121.856 22.1374 122.854 22.1977 124.06 22.3182C124.368 22.3316 124.609 22.3383 124.783 22.3383C125.626 22.3383 126.323 22.0035 126.872 21.3338C127.341 20.7713 127.575 20.2825 127.575 19.8673C127.575 19.7066 127.515 19.6262 127.394 19.6262C127.327 19.6396 127.254 19.6999 127.173 19.807C126.477 20.9186 124.897 21.4745 122.432 21.4745C121.642 21.4745 121.153 21.4075 120.966 21.2736C120.778 21.1396 120.684 20.8048 120.684 20.2691V16.7936L120.664 16.4722C120.664 16.2847 120.718 16.1641 120.825 16.1106C120.932 16.0436 121.14 16.0101 121.448 16.0101H123.517C124.066 16.0101 124.455 16.0838 124.682 16.2311C124.897 16.3784 125.044 16.6664 125.124 17.0949L125.185 17.3561C125.211 17.49 125.292 17.557 125.426 17.557C125.546 17.557 125.606 17.4833 125.606 17.336C125.606 17.2691 125.6 17.1753 125.586 17.0548C125.546 16.6798 125.526 16.2981 125.526 15.9097C125.526 15.4141 125.553 14.8583 125.606 14.2422C125.62 14.1485 125.626 14.0815 125.626 14.0414C125.626 13.8806 125.566 13.7936 125.446 13.7802C125.312 13.7802 125.231 13.8605 125.205 14.0213C125.124 14.4364 125.031 14.6976 124.923 14.8047C124.83 14.9253 124.609 15.019 124.26 15.086C123.885 15.153 123.363 15.1864 122.693 15.1864H121.247C120.979 15.1864 120.818 15.1597 120.765 15.1061C120.711 15.0391 120.684 14.865 120.684 14.5838V10.7668C120.684 10.4319 120.738 10.2177 120.845 10.1239ZM131.673 10.1239C131.781 10.0301 132.028 9.98327 132.417 9.98327H133.903C134.881 9.98327 135.551 10.0301 135.912 10.1239C136.274 10.2177 136.515 10.4052 136.636 10.6864C136.702 10.8739 136.743 11.0681 136.756 11.269V11.5101C136.756 11.6976 136.816 11.7913 136.937 11.7913C137.044 11.7779 137.111 11.7311 137.138 11.6507C137.178 11.5569 137.211 11.3293 137.238 10.9676L137.278 10.4051C137.305 9.98996 137.332 9.74219 137.359 9.66183C137.372 9.56808 137.379 9.49442 137.379 9.44085C137.379 9.25335 137.272 9.15959 137.057 9.15959C136.977 9.15959 136.857 9.17299 136.696 9.19978C136.615 9.21317 136.388 9.22656 136.013 9.23996L134.667 9.30022C134.077 9.32701 133.401 9.3404 132.638 9.3404C131.365 9.3404 130.281 9.29353 129.383 9.19978C129.115 9.1596 128.908 9.13951 128.76 9.13951C128.479 9.13951 128.339 9.22656 128.339 9.40067C128.339 9.52121 128.426 9.58148 128.6 9.58148C129.176 9.58148 129.564 9.7355 129.765 10.0435C129.952 10.365 130.046 10.9743 130.046 11.8717V19.8472V20.47C130.046 21.22 129.818 21.662 129.363 21.7959L129.002 21.8963C128.841 21.9365 128.76 22.0102 128.76 22.1173C128.76 22.2512 128.861 22.3182 129.062 22.3182C129.156 22.3182 129.323 22.2981 129.564 22.2579C130.006 22.1776 130.783 22.1374 131.894 22.1374C132.671 22.1374 133.662 22.1977 134.868 22.3182C135.176 22.3316 135.423 22.3383 135.611 22.3383C136.455 22.3383 137.151 22.0035 137.7 21.3338C138.156 20.7713 138.383 20.2825 138.383 19.8673C138.383 19.7066 138.33 19.6262 138.223 19.6262C138.142 19.6396 138.069 19.6999 138.002 19.807C137.292 20.9186 135.705 21.4745 133.24 21.4745C132.464 21.4745 131.981 21.4075 131.794 21.2736C131.593 21.1396 131.493 20.8048 131.493 20.2691V16.7936V16.4722C131.493 16.2847 131.546 16.1641 131.653 16.1106C131.747 16.0436 131.948 16.0101 132.256 16.0101H134.345C134.881 16.0101 135.263 16.0838 135.49 16.2311C135.718 16.3784 135.872 16.6664 135.952 17.0949L135.993 17.3561C136.019 17.49 136.1 17.557 136.234 17.557C136.368 17.557 136.435 17.4833 136.435 17.336C136.435 17.2691 136.428 17.1753 136.415 17.0548C136.374 16.6798 136.354 16.2981 136.354 15.9097C136.354 15.4141 136.381 14.8583 136.435 14.2422C136.435 14.1485 136.435 14.0815 136.435 14.0414C136.435 13.8806 136.374 13.7936 136.254 13.7802C136.133 13.7802 136.053 13.8605 136.013 14.0213C135.932 14.4364 135.845 14.6976 135.752 14.8047C135.644 14.9253 135.423 15.019 135.089 15.086C134.7 15.153 134.178 15.1864 133.522 15.1864H132.075C131.794 15.1864 131.627 15.1597 131.573 15.1061C131.519 15.0391 131.493 14.865 131.493 14.5838V10.7668C131.493 10.4319 131.553 10.2177 131.673 10.1239Z" fill="#58595B"/>
<path fill-rule="evenodd" clip-rule="evenodd" d="M38.9992 1.78615V4.96029C38.9992 5.44244 39.0662 5.77726 39.2001 5.96476C39.3474 6.16566 39.5952 6.2795 39.9434 6.30629C40.0372 6.30629 40.084 6.35315 40.084 6.4469C40.084 6.51387 40.0438 6.54735 39.9635 6.54735C39.9367 6.54735 39.8965 6.54735 39.843 6.54735L39.5416 6.52727L39.0193 6.50718C38.9657 6.49379 38.9054 6.48709 38.8385 6.48709C38.6778 6.48709 38.5304 6.49379 38.3965 6.50718L37.4724 6.56745C37.3786 6.58084 37.3117 6.58753 37.2715 6.58753C37.1911 6.58753 37.151 6.54736 37.151 6.467C37.151 6.40004 37.1644 6.35985 37.1911 6.34646C37.2179 6.33306 37.2715 6.31968 37.3519 6.30629C37.5661 6.29289 37.7336 6.21253 37.8541 6.06521C37.9746 5.93128 38.0349 5.73708 38.0349 5.48261V5.28172V1.54508C38.0349 1.31739 37.9144 1.20355 37.6733 1.20355C37.1108 1.20355 36.7291 1.25043 36.5282 1.34418C36.3809 1.39775 36.2804 1.46472 36.2268 1.54508C36.1867 1.62543 36.1197 1.81962 36.026 2.12766L36.0059 2.24821C35.9657 2.35535 35.9121 2.40892 35.8451 2.40892C35.7648 2.40892 35.7246 2.36875 35.7246 2.28839C35.7246 2.20803 35.738 2.09419 35.7648 1.94687L35.805 1.58526L35.8652 1.20355L35.8853 0.962475C35.8987 0.855331 35.959 0.801762 36.0661 0.801762C36.0929 0.801762 36.1398 0.801762 36.2068 0.801762C36.3139 0.815155 36.4679 0.821846 36.6688 0.821846H37.5327L38.5572 0.841943C39.2135 0.841943 39.9099 0.821856 40.6465 0.781677C40.7939 0.768284 40.8876 0.76158 40.9278 0.76158C41.0885 0.76158 41.1689 0.828545 41.1689 0.962475L41.209 1.26382C41.209 1.31739 41.2224 1.43123 41.2492 1.60534C41.2626 1.75266 41.2693 1.8732 41.2693 1.96695C41.2693 2.0607 41.2291 2.10758 41.1488 2.10758C41.0952 2.10758 41.055 2.05401 41.0282 1.94687C40.9613 1.67901 40.8474 1.49151 40.6867 1.38436C40.5126 1.26382 40.2715 1.20355 39.9635 1.20355C39.5349 1.20355 39.2671 1.23703 39.1599 1.304C39.0528 1.37096 38.9992 1.53168 38.9992 1.78615ZM46.9145 3.67456H44.9055C44.7046 3.67456 44.5841 3.69464 44.5439 3.73482C44.5037 3.78839 44.4836 3.92903 44.4836 4.15671V5.20137C44.4836 5.60316 44.5439 5.8911 44.6644 6.06521C44.7984 6.23932 45.0126 6.32637 45.3073 6.32637C45.401 6.32637 45.4479 6.35986 45.4479 6.42682C45.4479 6.52057 45.3743 6.56745 45.2269 6.56745C45.1734 6.56745 45.0729 6.56075 44.9256 6.54735C44.5908 6.50717 44.2894 6.48709 44.0216 6.48709C43.8475 6.48709 43.6131 6.50048 43.3184 6.52727C43.1443 6.54066 43.0372 6.54735 42.997 6.54735C42.9033 6.54735 42.8564 6.50049 42.8564 6.40674C42.8564 6.35316 42.8966 6.31968 42.9769 6.30629C43.1644 6.2795 43.2983 6.19244 43.3787 6.04511C43.4591 5.91118 43.4992 5.69691 43.4992 5.40226V5.18127V1.66561C43.4992 1.46471 43.4457 1.31739 43.3385 1.22364C43.2314 1.11649 43.0238 1.03614 42.7158 0.982572C42.6488 0.969179 42.6153 0.928993 42.6153 0.862028C42.6153 0.78167 42.6555 0.741496 42.7358 0.741496C42.7894 0.741496 42.8832 0.748187 43.0171 0.76158C43.2448 0.801759 43.5126 0.821846 43.8207 0.821846C43.9278 0.821846 44.1488 0.801759 44.4836 0.76158C44.6845 0.748187 44.8385 0.741496 44.9457 0.741496C45.0394 0.741496 45.0863 0.774978 45.0863 0.841943C45.0863 0.908908 45.0461 0.949082 44.9658 0.962475C44.6443 1.01605 44.4836 1.22365 44.4836 1.58526V2.67008C44.4836 2.95134 44.5037 3.11875 44.5439 3.17232C44.5841 3.22589 44.718 3.25268 44.9457 3.25268H46.9145C47.0752 3.25268 47.1756 3.2192 47.2158 3.15224C47.256 3.07188 47.2761 2.87767 47.2761 2.56963V1.66561C47.2761 1.304 47.0819 1.08971 46.6935 1.02274L46.4926 0.982572C46.4122 0.969179 46.372 0.928993 46.372 0.862028C46.372 0.78167 46.4189 0.741496 46.5127 0.741496C46.5528 0.741496 46.6466 0.748187 46.7939 0.76158C47.0216 0.801759 47.2895 0.821846 47.5975 0.821846C47.6912 0.821846 47.9122 0.801759 48.2605 0.76158C48.4613 0.748187 48.6087 0.741496 48.7024 0.741496C48.8096 0.741496 48.8631 0.774978 48.8631 0.841943C48.8631 0.908908 48.823 0.949082 48.7426 0.962475C48.4078 1.01605 48.2404 1.22365 48.2404 1.58526V5.20137C48.2404 5.60316 48.3073 5.8911 48.4413 6.06521C48.5618 6.23932 48.7694 6.32637 49.064 6.32637C49.1712 6.32637 49.2247 6.35986 49.2247 6.42682C49.2247 6.52057 49.1511 6.56745 49.0038 6.56745C48.9502 6.56745 48.8497 6.56075 48.7024 6.54735C48.3676 6.50717 48.0662 6.48709 47.7984 6.48709C47.6109 6.48709 47.3765 6.50048 47.0953 6.52727C46.9211 6.54066 46.814 6.54735 46.7738 6.54735C46.6801 6.54735 46.6332 6.50049 46.6332 6.40674C46.6332 6.35316 46.6667 6.31968 46.7336 6.30629C46.9212 6.2795 47.0618 6.19244 47.1555 6.04511C47.2359 5.91118 47.2761 5.69691 47.2761 5.40226V5.18127V4.25716C47.2761 3.9759 47.256 3.80849 47.2158 3.75492C47.189 3.70135 47.0886 3.67456 46.9145 3.67456ZM52.3587 1.74597V2.67008C52.3587 2.92455 52.3788 3.08527 52.419 3.15224C52.4458 3.2192 52.5328 3.25268 52.6801 3.25268H52.8208H53.0016H53.3632C53.631 3.25268 53.8453 3.09867 54.006 2.79063L54.0864 2.58973C54.1132 2.53616 54.1601 2.50937 54.227 2.50937C54.2806 2.50937 54.3074 2.54954 54.3074 2.6299C54.3074 2.64329 54.3074 2.70357 54.3074 2.81071C54.294 2.87768 54.2873 2.93795 54.2873 2.99152C54.2873 3.08527 54.3007 3.29955 54.3275 3.63438C54.3543 3.84866 54.3677 4.03618 54.3677 4.19689V4.39779C54.3677 4.43796 54.361 4.46474 54.3476 4.47814C54.3342 4.50492 54.3141 4.51832 54.2873 4.51832C54.2069 4.51832 54.1601 4.46475 54.1467 4.3576C54.1199 4.11653 54.0395 3.93572 53.9056 3.81519C53.8252 3.74822 53.7315 3.70134 53.6243 3.67456C53.5172 3.66116 53.323 3.65447 53.0418 3.65447H52.7605C52.6266 3.65447 52.5328 3.67456 52.4792 3.71474C52.4257 3.75492 52.3922 3.83528 52.3788 3.95581C52.3654 4.10314 52.3587 4.32412 52.3587 4.61877V5.00047C52.3587 5.40226 52.3855 5.69021 52.4391 5.86432C52.4926 5.98485 52.5529 6.06521 52.6199 6.10539C52.6868 6.15897 52.7873 6.18574 52.9212 6.18574C54.0596 6.18574 54.8029 5.83752 55.1512 5.14109C55.1645 5.10091 55.1779 5.08082 55.1913 5.08082C55.2181 5.08082 55.2449 5.09422 55.2717 5.121C55.2985 5.1344 55.3119 5.16119 55.3119 5.20137C55.3119 5.48262 55.2382 5.75048 55.0909 6.00495C54.9703 6.21923 54.8163 6.37325 54.6288 6.467C54.4413 6.56075 54.1935 6.60763 53.8855 6.60763C53.7114 6.60763 53.5105 6.60093 53.2828 6.58753L52.8007 6.52727C52.6266 6.51387 52.3855 6.50718 52.0774 6.50718C51.8766 6.50718 51.5618 6.52057 51.1333 6.54735C51.0261 6.56075 50.9457 6.56745 50.8922 6.56745C50.8252 6.56745 50.7917 6.53397 50.7917 6.467C50.7783 6.41343 50.8051 6.37324 50.8721 6.34646C51.0328 6.29289 51.1399 6.23262 51.1935 6.16566C51.2605 6.0853 51.3074 5.95806 51.3341 5.78395C51.3743 5.63663 51.3944 5.43574 51.3944 5.18127V1.84642C51.3944 1.53838 51.3408 1.32409 51.2337 1.20355C51.1266 1.09641 50.9123 1.02275 50.5908 0.982572C50.5239 0.969179 50.4904 0.928993 50.4904 0.862028C50.4904 0.795063 50.5306 0.76158 50.6109 0.76158C50.6377 0.76158 50.6846 0.76158 50.7515 0.76158C50.8051 0.76158 50.8721 0.76158 50.9524 0.76158L51.3743 0.781677L52.9815 0.801762C53.8922 0.801762 54.4547 0.788366 54.669 0.76158C54.6958 0.76158 54.7159 0.76158 54.7293 0.76158C54.8096 0.76158 54.8498 0.808458 54.8498 0.902209C54.8498 0.969174 54.8565 1.08302 54.8699 1.24373C54.8967 1.48481 54.9101 1.65891 54.9101 1.76605C54.9101 1.98034 54.8565 2.08749 54.7494 2.08749C54.6958 2.10089 54.669 2.04061 54.669 1.90668C54.669 1.62543 54.5686 1.42454 54.3677 1.304C54.1534 1.18346 53.8185 1.12319 53.3632 1.12319H52.8609L52.5797 1.14329C52.4324 1.19686 52.3587 1.33748 52.3587 1.56516V1.74597ZM64.3923 0.741496C64.4057 0.741496 64.4325 0.748187 64.4727 0.76158C64.5262 0.76158 64.6401 0.768284 64.8142 0.781677L65.2562 0.801762L65.678 0.781677C65.812 0.768284 65.9325 0.754889 66.0396 0.741496C66.0932 0.741496 66.1401 0.741496 66.1803 0.741496C66.2606 0.741496 66.3008 0.774978 66.3008 0.841943C66.3008 0.908908 66.2673 0.942391 66.2004 0.942391L66.0396 0.982572C65.812 1.02275 65.6981 1.25713 65.6981 1.6857L65.7182 2.04731L65.6981 2.56963C65.6981 3.37321 65.6579 4.02278 65.5776 4.51832C65.4972 5.01386 65.37 5.40225 65.1959 5.68351C64.7673 6.32637 64.0508 6.6478 63.0463 6.6478C62.3231 6.6478 61.7673 6.51387 61.3789 6.24601C60.8432 5.8844 60.5753 5.17457 60.5753 4.11653L60.6155 2.48928L60.5954 1.72587C60.5954 1.53837 60.582 1.40444 60.5552 1.32408C60.515 1.24373 60.4347 1.17676 60.3141 1.12319C60.1802 1.05622 60.0262 1.00936 59.8521 0.982572C59.7449 0.969179 59.6914 0.928993 59.6914 0.862028C59.6914 0.78167 59.7383 0.741496 59.832 0.741496C59.8588 0.741496 59.9124 0.748187 59.9927 0.76158C60.3543 0.788366 60.6289 0.801762 60.8164 0.801762C61.0976 0.801762 61.4057 0.788366 61.7405 0.76158C61.8744 0.748187 61.9682 0.741496 62.0217 0.741496C62.1691 0.741496 62.2427 0.78167 62.2427 0.862028C62.2427 0.9156 62.2293 0.949082 62.2026 0.962475C62.1892 0.975868 62.1423 0.989264 62.0619 1.00266C61.8878 1.04284 61.7673 1.1098 61.7003 1.20355C61.6467 1.2973 61.6133 1.47811 61.5999 1.74597L61.5396 2.81071V3.55402C61.5396 4.23707 61.5731 4.71922 61.6401 5.00047C61.7204 5.29512 61.8677 5.54288 62.082 5.74377C62.4302 6.05181 62.8655 6.20584 63.3878 6.20584C63.937 6.20584 64.3789 6.04512 64.7137 5.72369C64.928 5.5094 65.0821 5.19466 65.1758 4.77948C65.2829 4.3643 65.3365 3.76832 65.3365 2.99152V2.65L65.2963 1.78615C65.283 1.53168 65.2026 1.33079 65.0553 1.18347C64.9079 1.03614 64.7137 0.962475 64.4727 0.962475C64.3655 0.962475 64.312 0.922301 64.312 0.841943C64.312 0.774978 64.3387 0.741496 64.3923 0.741496ZM70.1982 1.74597L72.408 4.23706L72.5486 4.39779C72.7495 4.61207 72.8768 4.71921 72.9304 4.71921C72.9973 4.71921 73.0308 4.63216 73.0308 4.45805C73.0576 3.84197 73.071 3.25268 73.071 2.69018C73.071 2.03392 73.004 1.59195 72.8701 1.36427C72.7361 1.12319 72.475 0.989261 72.0866 0.962475C71.9928 0.962475 71.946 0.928993 71.946 0.862028C71.946 0.795063 71.9861 0.76158 72.0665 0.76158C72.1736 0.76158 72.3411 0.774976 72.5687 0.801762C72.7161 0.815155 72.8366 0.821846 72.9304 0.821846C73.1179 0.821846 73.4259 0.795068 73.8545 0.741496C73.908 0.741496 73.9482 0.741496 73.975 0.741496C74.0687 0.741496 74.1156 0.78167 74.1156 0.862028C74.1022 0.928993 74.0554 0.969179 73.975 0.982572C73.6134 1.04954 73.4326 1.37097 73.4326 1.94687V2.14776L73.3723 4.77948L73.3522 5.14109V5.60316V5.92458L73.3723 6.4469C73.3723 6.52726 73.3455 6.56745 73.292 6.56745C73.2384 6.56745 73.1848 6.54066 73.1312 6.48709L69.2941 2.22811C69.2272 2.14775 69.1803 2.10758 69.1535 2.10758C69.0866 2.10758 69.0531 2.17454 69.0531 2.30847V2.42901V4.05626C69.0531 4.92681 69.0999 5.5094 69.1937 5.80405C69.2875 6.11209 69.5553 6.29289 69.9973 6.34646C70.091 6.34646 70.1379 6.37994 70.1379 6.4469C70.1379 6.52726 70.091 6.56745 69.9973 6.56745C69.9705 6.56745 69.9169 6.56075 69.8366 6.54735C69.5955 6.52057 69.3343 6.50718 69.0531 6.50718C68.7718 6.50718 68.5174 6.52727 68.2897 6.56745C68.1959 6.58084 68.129 6.58753 68.0888 6.58753C68.0084 6.58753 67.9682 6.55405 67.9682 6.48709C67.9682 6.42012 68.0084 6.37995 68.0888 6.36655C68.2897 6.29959 68.437 6.17905 68.5308 6.00495C68.6245 5.81744 68.6714 5.54958 68.6714 5.20137L68.7116 4.19689V2.38884C68.7116 1.51829 68.3901 1.06292 67.7473 1.02274C67.6669 1.02274 67.6267 0.989259 67.6267 0.922294C67.6267 0.841936 67.6736 0.801762 67.7674 0.801762H68.0486H68.2294C68.4571 0.801762 68.6915 0.788366 68.9325 0.76158C69.0263 0.76158 69.1067 0.76158 69.1736 0.76158C69.254 0.76158 69.3209 0.774976 69.3745 0.801762C69.4281 0.841941 69.5352 0.962475 69.6959 1.16337L69.9772 1.50489C70.0977 1.63882 70.1714 1.71918 70.1982 1.74597ZM77.4505 5.24153L77.4907 5.64332C77.5174 5.87101 77.5978 6.03842 77.7317 6.14556C77.8657 6.2661 78.0398 6.32637 78.2541 6.32637C78.388 6.32637 78.455 6.36655 78.455 6.4469C78.455 6.52726 78.3612 6.56745 78.1737 6.56745C78.0933 6.56745 77.9862 6.56075 77.8523 6.54735C77.4773 6.50717 77.1759 6.48709 76.9483 6.48709C76.667 6.48709 76.446 6.50048 76.2853 6.52727C76.1514 6.55405 76.0509 6.56745 75.9839 6.56745C75.9304 6.56745 75.8902 6.54066 75.8634 6.48709V6.4469L75.9839 6.34646C76.1848 6.27949 76.3188 6.19244 76.3857 6.0853C76.4527 5.97815 76.4862 5.80405 76.4862 5.56297V5.18127V1.84642C76.4862 1.57856 76.4393 1.39106 76.3456 1.28391C76.2652 1.17677 76.1045 1.1031 75.8634 1.06292C75.7161 1.04953 75.6223 1.02944 75.5822 1.00266C75.542 0.975871 75.5219 0.942388 75.5219 0.902209C75.5219 0.821851 75.5554 0.781677 75.6223 0.781677C75.6759 0.781677 75.7496 0.79506 75.8433 0.821846C75.9505 0.835239 76.1246 0.841943 76.3657 0.841943C76.5264 0.841943 76.7206 0.835239 76.9483 0.821846L77.2496 0.801762C77.5442 0.774976 77.7652 0.76158 77.9125 0.76158C78.0063 0.76158 78.0532 0.795063 78.0532 0.862028C78.0532 0.9156 78.0465 0.949082 78.0331 0.962475C78.0197 0.989261 77.9862 1.00266 77.9326 1.00266C77.7317 1.04284 77.6045 1.10311 77.5509 1.18347C77.484 1.25043 77.4505 1.40445 77.4505 1.64552V5.24153ZM81.8903 2.87098L82.8144 5.18127C82.8546 5.27502 82.8947 5.32859 82.9349 5.34198C82.9617 5.34198 82.9952 5.30181 83.0354 5.22145L83.9796 3.11205C84.301 2.42901 84.4617 1.93347 84.4617 1.62543C84.4617 1.45132 84.4015 1.3107 84.2809 1.20355C84.147 1.08301 83.9729 1.00936 83.7586 0.982572C83.6514 0.969179 83.5979 0.928993 83.5979 0.862028C83.5979 0.795063 83.6314 0.76158 83.6983 0.76158C83.7385 0.76158 83.8189 0.76158 83.9394 0.76158L84.3814 0.801762C84.5823 0.815155 84.7229 0.821846 84.8032 0.821846C85.0577 0.821846 85.2787 0.801759 85.4662 0.76158C85.5465 0.748187 85.6068 0.741496 85.647 0.741496C85.6872 0.741496 85.7073 0.78167 85.7073 0.862028C85.7073 0.9156 85.6671 0.955786 85.5867 0.982572C85.426 1.00936 85.2921 1.08971 85.1849 1.22364C85.0912 1.35757 84.9439 1.63882 84.743 2.0674L84.1202 3.53393L83.397 5.121C83.1693 5.62994 83.0421 5.90449 83.0153 5.94467C82.8679 6.25271 82.7876 6.43351 82.7742 6.48709C82.7206 6.60762 82.6537 6.6679 82.5733 6.6679C82.5197 6.6679 82.4729 6.63441 82.4327 6.56745L82.3523 6.34646L82.2318 6.10539L81.2474 3.83527C80.9929 3.28616 80.7853 2.79062 80.6246 2.34866C80.4371 1.82633 80.2831 1.4848 80.1626 1.32408C80.0554 1.16337 79.9014 1.05623 79.7005 1.00266C79.5934 0.989264 79.5398 0.942386 79.5398 0.862028C79.5398 0.795063 79.58 0.76158 79.6603 0.76158C79.6737 0.76158 79.7139 0.76158 79.7809 0.76158C79.9282 0.774973 80.0956 0.781677 80.2831 0.781677L80.9862 0.801762L81.4282 0.781677C81.6157 0.768284 81.7362 0.76158 81.7898 0.76158C81.8702 0.76158 81.9103 0.801767 81.9103 0.882125C81.9103 0.94909 81.8501 0.995955 81.7295 1.02274C81.5287 1.06292 81.4282 1.18347 81.4282 1.38436C81.4282 1.63883 81.5822 2.13436 81.8903 2.87098ZM88.6604 1.76605V2.69018C88.6604 2.94465 88.6738 3.11206 88.7006 3.19242C88.7408 3.25938 88.8345 3.29286 88.9819 3.29286H89.1024L89.3033 3.27277H89.6448C89.9261 3.27277 90.147 3.12544 90.3078 2.8308L90.3881 2.60982C90.4149 2.55624 90.4618 2.52945 90.5287 2.52945C90.5823 2.52945 90.6091 2.56964 90.6091 2.65C90.6091 2.67678 90.6091 2.73704 90.6091 2.8308C90.5957 2.91115 90.589 2.97143 90.589 3.01161C90.589 3.10536 90.6024 3.31965 90.6292 3.65447C90.6426 3.86876 90.6493 4.05626 90.6493 4.21698L90.6694 4.43796C90.6694 4.47813 90.6627 4.50493 90.6493 4.51832C90.6359 4.53171 90.6158 4.5384 90.589 4.5384C90.5087 4.5518 90.4618 4.49823 90.4484 4.37769C90.4082 4.13662 90.3212 3.95581 90.1872 3.83527C90.1203 3.76831 90.0332 3.72813 89.9261 3.71474C89.8189 3.68795 89.6247 3.67456 89.3435 3.67456H89.0622C88.9149 3.67456 88.8211 3.69464 88.781 3.73482C88.7274 3.775 88.6939 3.86207 88.6805 3.996C88.6671 4.12993 88.6604 4.35091 88.6604 4.65895V5.02056C88.6604 5.42235 88.6872 5.71029 88.7408 5.8844C88.7943 6.00494 88.8546 6.09199 88.9216 6.14556C88.9752 6.18574 89.0689 6.20584 89.2028 6.20584C90.3546 6.20584 91.1046 5.85762 91.4529 5.16118C91.4663 5.1344 91.4796 5.11431 91.493 5.10092C91.5198 5.10092 91.5466 5.1143 91.5734 5.14109C91.6002 5.16787 91.6136 5.19466 91.6136 5.22145C91.6136 5.5027 91.5399 5.77056 91.3926 6.02503C91.2721 6.25271 91.118 6.41343 90.9305 6.50718C90.743 6.60093 90.4953 6.6478 90.1872 6.6478C90.0131 6.6478 89.8122 6.63442 89.5845 6.60763L89.1024 6.56745C88.9283 6.54066 88.6872 6.52727 88.3792 6.52727C88.1649 6.52727 87.8501 6.54066 87.435 6.56745C87.3278 6.58084 87.2475 6.58753 87.1939 6.58753C87.1269 6.58753 87.0867 6.55405 87.0733 6.48709C87.0733 6.43351 87.1068 6.40003 87.1738 6.38664C87.3345 6.31967 87.4417 6.25271 87.4952 6.18574C87.5622 6.11878 87.6091 5.99155 87.6359 5.80405C87.6626 5.65673 87.676 5.45583 87.676 5.20137V1.8866C87.676 1.56517 87.6292 1.35088 87.5354 1.24373C87.4283 1.1232 87.214 1.04284 86.8926 1.00266C86.8122 0.989264 86.772 0.94909 86.772 0.882125C86.772 0.81516 86.8189 0.781677 86.9126 0.781677C86.9394 0.781677 86.9863 0.781677 87.0533 0.781677C87.0934 0.79507 87.1604 0.801762 87.2542 0.801762H87.676L89.2631 0.821846C90.1872 0.821846 90.7564 0.808463 90.9707 0.781677C90.9841 0.781677 91.0042 0.781677 91.031 0.781677C91.1113 0.781677 91.1515 0.828543 91.1515 0.922294C91.1515 0.989259 91.1582 1.1031 91.1716 1.26382C91.1984 1.50489 91.2118 1.67901 91.2118 1.78615C91.2118 2.00044 91.1582 2.11427 91.0511 2.12766C90.9975 2.12766 90.9707 2.0607 90.9707 1.92677C90.9707 1.65891 90.8636 1.45801 90.6493 1.32408C90.4484 1.20355 90.1203 1.14329 89.6649 1.14329H89.1627L88.8814 1.18347C88.7341 1.22365 88.6604 1.36427 88.6604 1.60534V1.76605ZM94.7275 4.90002C94.7275 5.43574 94.781 5.79735 94.8882 5.98485C94.9819 6.17235 95.1761 6.2795 95.4708 6.30629C95.5913 6.31968 95.6449 6.36655 95.6315 6.4469C95.6315 6.52726 95.5846 6.56745 95.4909 6.56745C95.4641 6.56745 95.4105 6.56745 95.3301 6.56745C95.0891 6.54066 94.8547 6.52727 94.627 6.52727C94.4395 6.52727 94.2721 6.53396 94.1248 6.54735L93.7631 6.56745L93.4819 6.60763C93.4149 6.60763 93.3614 6.60763 93.3212 6.60763C93.2274 6.60763 93.1806 6.57415 93.1806 6.50718C93.1806 6.44022 93.2073 6.40003 93.2609 6.38664C93.4484 6.31967 93.5823 6.23931 93.6627 6.14556C93.7297 6.03842 93.7631 5.8844 93.7631 5.68351V5.28172V5.121V2.08749C93.7631 1.75267 93.723 1.52498 93.6426 1.40445C93.5087 1.21694 93.281 1.1031 92.9596 1.06292C92.8524 1.04953 92.7989 1.00265 92.7989 0.922294C92.7989 0.841936 92.839 0.801762 92.9194 0.801762C92.9462 0.801762 92.9931 0.808453 93.06 0.821846C93.2743 0.835239 93.5154 0.841943 93.7832 0.841943C94.0645 0.841943 94.406 0.828548 94.8078 0.801762C95.2766 0.761583 95.6047 0.741496 95.7922 0.741496C96.3279 0.741496 96.7699 0.888821 97.1181 1.18347C97.4663 1.47811 97.6404 1.84642 97.6404 2.28839C97.6404 2.55625 97.5601 2.80401 97.3994 3.03169C97.252 3.25937 97.0377 3.43349 96.7565 3.55402C96.7029 3.58081 96.6761 3.60759 96.6761 3.63438C96.6895 3.66116 96.7096 3.69464 96.7364 3.73482C96.7498 3.775 96.7833 3.84197 96.8369 3.93572L97.2185 4.59868L97.6404 5.38216C97.8011 5.63663 97.9351 5.81744 98.0422 5.92458C98.1628 6.01833 98.3034 6.06521 98.4641 6.06521C98.5177 6.06521 98.5779 6.05851 98.6449 6.04511C98.6717 6.04511 98.6985 6.04511 98.7253 6.04511C98.7788 6.04511 98.8056 6.07191 98.8056 6.12548C98.8056 6.20584 98.6918 6.29959 98.4641 6.40674C98.2364 6.51388 98.0288 6.56745 97.8413 6.56745C97.5601 6.56745 97.2989 6.42682 97.0578 6.14556C96.8168 5.86431 96.502 5.32859 96.1136 4.5384C95.9529 4.23036 95.8257 4.02947 95.7319 3.93572C95.6382 3.85536 95.4775 3.81519 95.2498 3.81519H94.9886L94.8078 3.85537C94.7542 3.88215 94.7275 3.94912 94.7275 4.05626V4.90002ZM94.7275 1.60534V3.07187C94.7275 3.24598 94.7542 3.35982 94.8078 3.4134C94.848 3.45357 94.9551 3.47366 95.1292 3.47366C95.6382 3.47366 95.9529 3.46697 96.0734 3.45358C96.194 3.44018 96.3011 3.38661 96.3949 3.29286C96.6092 3.10536 96.7163 2.84419 96.7163 2.50937C96.7163 2.09419 96.5757 1.74597 96.2944 1.46471C96.0132 1.19685 95.6583 1.06292 95.2297 1.06292C95.0422 1.06292 94.915 1.10311 94.848 1.18347C94.7676 1.25043 94.7275 1.39105 94.7275 1.60534ZM101.739 0.68123C101.993 0.68123 102.248 0.728095 102.502 0.821846L102.783 0.942391C102.917 0.995963 103.011 1.02274 103.065 1.02274C103.105 1.02274 103.145 1.01605 103.185 1.00266L103.346 0.922294C103.373 0.908901 103.393 0.902209 103.406 0.902209C103.473 0.902209 103.507 0.949087 103.507 1.04284L103.486 1.38436C103.486 1.43793 103.493 1.4848 103.507 1.52498L103.547 1.94687L103.587 2.32856C103.6 2.35534 103.607 2.38214 103.607 2.40892C103.607 2.52946 103.574 2.58973 103.507 2.58973C103.453 2.58973 103.413 2.53615 103.386 2.42901C103.306 2.04061 103.105 1.69909 102.783 1.40445C102.449 1.12319 102.1 0.982572 101.739 0.982572C101.484 0.982572 101.263 1.06962 101.076 1.24373C100.875 1.41784 100.774 1.61874 100.774 1.84642C100.774 2.06071 100.861 2.24821 101.036 2.40892C101.143 2.50267 101.478 2.66339 102.04 2.89107C102.696 3.17233 103.132 3.44019 103.346 3.69465C103.614 4.00269 103.748 4.38438 103.748 4.83975C103.748 5.32189 103.567 5.74378 103.205 6.10539C102.857 6.467 102.442 6.6478 101.96 6.6478C101.772 6.6478 101.464 6.58083 101.036 6.4469C100.848 6.37994 100.707 6.33977 100.614 6.32637C100.48 6.29959 100.406 6.2728 100.393 6.24601C100.366 6.23262 100.346 6.16565 100.332 6.04511C100.319 5.91118 100.279 5.71699 100.212 5.46253C100.105 5.08752 100.051 4.84644 100.051 4.7393C100.051 4.60537 100.091 4.5384 100.172 4.5384C100.212 4.5384 100.245 4.57189 100.272 4.63885C100.406 5.121 100.64 5.52279 100.975 5.84422C101.324 6.16565 101.678 6.32637 102.04 6.32637C102.321 6.32637 102.576 6.21923 102.803 6.00495C103.018 5.79066 103.125 5.54288 103.125 5.26163C103.125 5.04734 103.071 4.86654 102.964 4.71921C102.844 4.57189 102.643 4.43796 102.361 4.31742L101.719 4.03617C101.116 3.76831 100.701 3.51384 100.473 3.27277C100.259 3.03169 100.152 2.71026 100.152 2.30847C100.152 1.83972 100.306 1.45132 100.614 1.14329C100.908 0.835247 101.283 0.68123 101.739 0.68123ZM107.062 5.22145L107.103 5.64332C107.129 5.85761 107.21 6.02503 107.344 6.14556C107.478 6.2661 107.645 6.32637 107.846 6.32637C107.993 6.32637 108.067 6.36655 108.067 6.4469C108.053 6.52726 107.96 6.56745 107.786 6.56745C107.705 6.56745 107.591 6.56075 107.444 6.54735C107.082 6.50717 106.788 6.48709 106.56 6.48709C106.279 6.48709 106.058 6.50048 105.897 6.52727C105.75 6.55405 105.649 6.56745 105.596 6.56745C105.529 6.56745 105.489 6.54066 105.475 6.48709L105.455 6.4469L105.596 6.34646C105.797 6.27949 105.931 6.19244 105.998 6.0853C106.051 5.97815 106.078 5.80405 106.078 5.56297L106.098 5.18127V1.82632C106.098 1.57185 106.051 1.39106 105.957 1.28391C105.864 1.17677 105.696 1.1031 105.455 1.06292C105.321 1.03614 105.234 1.01605 105.194 1.00266C105.154 0.975871 105.134 0.935697 105.134 0.882125C105.134 0.81516 105.167 0.781677 105.234 0.781677C105.288 0.781677 105.361 0.788369 105.455 0.801762C105.562 0.828548 105.73 0.841943 105.957 0.841943C106.118 0.841943 106.319 0.835239 106.56 0.821846L106.862 0.781677C107.143 0.768284 107.364 0.76158 107.524 0.76158C107.618 0.76158 107.665 0.795063 107.665 0.862028C107.665 0.9156 107.658 0.949082 107.645 0.962475C107.632 0.975868 107.598 0.989264 107.545 1.00266C107.33 1.04284 107.196 1.09641 107.143 1.16337C107.089 1.24373 107.062 1.40445 107.062 1.64552V5.22145ZM112.406 1.78615V4.96029C112.406 5.44244 112.473 5.77726 112.607 5.96476C112.741 6.16566 112.982 6.2795 113.33 6.30629C113.437 6.30629 113.491 6.35315 113.491 6.4469C113.491 6.51387 113.444 6.54735 113.35 6.54735C113.337 6.54735 113.304 6.54735 113.25 6.54735L112.929 6.52727L112.406 6.50718C112.366 6.49379 112.312 6.48709 112.245 6.48709C112.085 6.48709 111.937 6.49379 111.804 6.50718L110.879 6.56745C110.772 6.58084 110.705 6.58753 110.679 6.58753C110.585 6.58753 110.538 6.54736 110.538 6.467C110.551 6.40004 110.565 6.35985 110.578 6.34646C110.605 6.33306 110.665 6.31968 110.759 6.30629C110.973 6.29289 111.141 6.21253 111.261 6.06521C111.382 5.93128 111.442 5.73708 111.442 5.48261V5.28172V1.54508C111.442 1.33079 111.321 1.22364 111.08 1.22364C110.518 1.22364 110.136 1.26382 109.935 1.34418C109.774 1.39775 109.674 1.46472 109.634 1.54508C109.58 1.62543 109.513 1.81962 109.433 2.12766L109.393 2.24821C109.366 2.35535 109.319 2.40892 109.252 2.40892C109.158 2.40892 109.118 2.36875 109.132 2.28839C109.132 2.20803 109.145 2.09419 109.172 1.94687L109.212 1.58526L109.252 1.22364L109.292 0.962475C109.306 0.855331 109.359 0.801762 109.453 0.801762C109.493 0.801762 109.547 0.801762 109.614 0.801762C109.721 0.815155 109.875 0.821846 110.076 0.821846H110.94L111.944 0.841943C112.614 0.841943 113.317 0.821856 114.054 0.781677C114.201 0.781677 114.295 0.781677 114.335 0.781677C114.482 0.781677 114.562 0.841938 114.576 0.962475L114.596 1.26382C114.596 1.31739 114.609 1.43123 114.636 1.60534C114.663 1.75266 114.676 1.8732 114.676 1.96695C114.676 2.0607 114.636 2.10758 114.556 2.10758C114.489 2.10758 114.442 2.05401 114.415 1.94687C114.362 1.67901 114.248 1.49151 114.074 1.38436C113.913 1.26382 113.672 1.20355 113.35 1.20355C112.922 1.20355 112.661 1.23703 112.567 1.304C112.46 1.37096 112.406 1.53168 112.406 1.78615ZM119.176 4.27724V5.52279L119.196 5.80405C119.237 6.12548 119.518 6.29959 120.04 6.32637C120.121 6.32637 120.161 6.36655 120.161 6.4469C120.161 6.52726 120.1 6.56745 119.98 6.56745C119.913 6.56745 119.839 6.56075 119.759 6.54735L119.156 6.50718C119.049 6.49379 118.888 6.48709 118.674 6.48709C118.152 6.48709 117.804 6.50048 117.629 6.52727C117.509 6.55405 117.422 6.56745 117.368 6.56745C117.301 6.56745 117.268 6.52057 117.268 6.42682C117.268 6.37325 117.308 6.33977 117.388 6.32637C117.71 6.2728 117.924 6.17235 118.031 6.02503C118.138 5.87771 118.192 5.61654 118.192 5.24153V4.43796C118.192 4.25045 118.132 4.04956 118.011 3.83527C117.864 3.60759 117.703 3.31964 117.529 2.97142L116.886 1.78615C116.632 1.304 116.337 1.04284 116.002 1.00266C115.895 0.989264 115.842 0.94909 115.842 0.882125C115.842 0.801767 115.882 0.76158 115.962 0.76158C116.029 0.76158 116.136 0.768284 116.283 0.781677C116.592 0.808463 116.866 0.821846 117.107 0.821846C117.335 0.821846 117.563 0.808463 117.79 0.781677C117.964 0.768284 118.085 0.76158 118.152 0.76158C118.272 0.76158 118.333 0.801767 118.333 0.882125C118.333 0.935697 118.279 0.969179 118.172 0.982572C117.958 1.03614 117.85 1.12989 117.85 1.26382C117.85 1.38435 117.958 1.64552 118.172 2.04731L118.493 2.69018C118.627 2.94465 118.708 3.10535 118.734 3.17232C118.828 3.37321 118.922 3.47366 119.016 3.47366C119.109 3.47366 119.23 3.32634 119.377 3.03169C119.404 2.96473 119.498 2.79731 119.659 2.52945C119.967 1.96695 120.121 1.61874 120.121 1.48481C120.121 1.36427 120.047 1.25043 119.9 1.14329C119.766 1.04953 119.612 0.989261 119.438 0.962475C119.344 0.962475 119.297 0.928993 119.297 0.862028C119.297 0.78167 119.337 0.741496 119.417 0.741496C119.498 0.741496 119.565 0.741496 119.618 0.741496L119.9 0.781677C120.007 0.79507 120.147 0.801762 120.321 0.801762C120.415 0.801762 120.522 0.801762 120.643 0.801762L120.984 0.781677C121.078 0.768284 121.192 0.76158 121.326 0.76158C121.393 0.76158 121.426 0.795063 121.426 0.862028C121.426 0.928993 121.38 0.969179 121.286 0.982572C121.071 1.03614 120.897 1.12989 120.763 1.26382C120.643 1.41114 120.482 1.67231 120.281 2.04731C119.92 2.74375 119.592 3.31964 119.297 3.775C119.243 3.86876 119.21 3.94242 119.196 3.996C119.183 4.04957 119.176 4.14331 119.176 4.27724ZM128.98 0.661133C129.851 0.661133 130.56 0.915597 131.11 1.42453C131.645 1.93347 131.913 2.60311 131.913 3.43348C131.913 4.3442 131.632 5.10761 131.069 5.72369C130.534 6.33977 129.79 6.6478 128.839 6.6478C127.929 6.6478 127.199 6.37994 126.65 5.84422C126.114 5.32189 125.846 4.61207 125.846 3.71474C125.846 3.33973 125.913 2.95803 126.047 2.56963C126.181 2.19463 126.368 1.87989 126.609 1.62543C126.877 1.33078 127.226 1.0964 127.654 0.922294C128.069 0.748185 128.511 0.661133 128.98 0.661133ZM128.679 0.982572C128.116 0.982572 127.674 1.19016 127.353 1.60534C127.045 2.02052 126.891 2.60312 126.891 3.35313C126.891 4.23707 127.085 4.9536 127.473 5.50271C127.875 6.05182 128.397 6.32637 129.04 6.32637C129.616 6.32637 130.072 6.09869 130.406 5.64332C130.755 5.18796 130.929 4.57859 130.929 3.81519C130.929 3.37322 130.848 2.94464 130.688 2.52945C130.527 2.11427 130.313 1.77945 130.045 1.52498C129.656 1.16337 129.201 0.982572 128.679 0.982572ZM135.027 2.89107C135.027 3.05179 135.047 3.15893 135.087 3.2125C135.127 3.26607 135.208 3.29286 135.328 3.29286L135.489 3.27277H135.951C136.165 3.27277 136.319 3.23259 136.413 3.15224C136.52 3.05848 136.627 2.87768 136.735 2.60982C136.761 2.55624 136.795 2.52945 136.835 2.52945C136.915 2.52945 136.956 2.56294 136.956 2.6299C136.956 2.64329 136.956 2.67678 136.956 2.73035C136.942 2.77053 136.935 2.81741 136.935 2.87098C136.935 3.03169 136.949 3.21919 136.976 3.43348L137.036 4.23706C137.036 4.31742 137.036 4.37769 137.036 4.41787C137.036 4.47144 137.002 4.50493 136.935 4.51832C136.882 4.51832 136.848 4.47814 136.835 4.39779C136.768 4.10314 136.674 3.90225 136.554 3.7951C136.42 3.70135 136.185 3.65447 135.851 3.65447C135.435 3.65447 135.194 3.68125 135.127 3.73482C135.06 3.78839 135.027 3.98929 135.027 4.33751V4.67903V5.16118C135.027 5.58976 135.101 5.89779 135.248 6.0853C135.355 6.21923 135.569 6.29959 135.891 6.32637C135.985 6.33977 136.031 6.37994 136.031 6.4469C136.031 6.52726 135.998 6.56745 135.931 6.56745C135.877 6.56745 135.797 6.56075 135.69 6.54735C135.596 6.53396 135.395 6.52727 135.087 6.52727H134.605C134.404 6.52727 134.223 6.53396 134.063 6.54735C133.862 6.58753 133.728 6.60763 133.661 6.60763C133.567 6.60763 133.52 6.56744 133.52 6.48709C133.52 6.43351 133.56 6.39334 133.641 6.36655C133.802 6.31298 133.915 6.21923 133.982 6.0853C134.036 5.93797 134.063 5.6969 134.063 5.36208V1.90668C134.063 1.55847 134.002 1.33078 133.882 1.22364C133.748 1.1031 133.54 1.03613 133.259 1.02274C133.192 1.00935 133.159 0.969174 133.159 0.902209C133.159 0.821851 133.206 0.781677 133.299 0.781677C133.326 0.781677 133.4 0.788369 133.52 0.801762C133.694 0.815155 133.875 0.821846 134.063 0.821846L134.786 0.801762H135.891C136.266 0.801762 136.648 0.788366 137.036 0.76158C137.183 0.748187 137.297 0.741496 137.377 0.741496C137.444 0.741496 137.478 0.815152 137.478 0.962475C137.491 1.13658 137.505 1.23703 137.518 1.26382L137.558 1.58526C137.558 1.65222 137.558 1.70579 137.558 1.74597C137.558 1.97365 137.505 2.08749 137.398 2.08749C137.344 2.08749 137.317 2.05401 137.317 1.98705V1.82632C137.317 1.77275 137.31 1.72588 137.297 1.6857C137.177 1.32409 136.808 1.14329 136.192 1.14329L135.63 1.12319L135.469 1.14329C135.308 1.14329 135.194 1.17006 135.127 1.22364C135.06 1.2906 135.027 1.39775 135.027 1.54508V2.89107Z" fill="#58595B"/>
<path fill-rule="evenodd" clip-rule="evenodd" d="M38.1365 26.7786V28.3054C38.1365 28.4126 38.1632 28.4661 38.2168 28.4661C38.2436 28.4661 38.3106 28.426 38.4177 28.3456L38.8396 27.984L39.4222 27.4617C40.199 26.7652 40.5874 26.2898 40.5874 26.0353C40.5874 25.9549 40.5472 25.888 40.4668 25.8344C40.3999 25.7808 40.3061 25.7541 40.1856 25.7541C40.0918 25.7541 40.045 25.7206 40.045 25.6536C40.045 25.5733 40.0985 25.5331 40.2057 25.5331C40.3128 25.5331 40.4267 25.5398 40.5472 25.5532C40.8552 25.5933 41.0695 25.6134 41.1901 25.6134C41.2838 25.6134 41.391 25.6067 41.5115 25.5933C41.8061 25.5532 42.007 25.5331 42.1142 25.5331C42.2213 25.5331 42.2749 25.5733 42.2749 25.6536C42.2749 25.7206 42.2079 25.7675 42.074 25.7942C41.8865 25.821 41.6655 25.9215 41.411 26.0956C41.1566 26.2697 40.8017 26.5777 40.3463 27.0197C40.132 27.2206 39.9847 27.3545 39.9043 27.4215C39.6633 27.6224 39.5427 27.7697 39.5427 27.8635C39.5427 27.9304 39.6097 28.051 39.7436 28.2251L40.045 28.6269C40.7414 29.5911 41.2503 30.234 41.5718 30.5554C41.7994 30.7831 42.1142 30.9505 42.516 31.0577L42.5963 31.0979C42.6633 31.1112 42.6968 31.1514 42.6968 31.2184C42.6968 31.2854 42.6566 31.3188 42.5762 31.3188C42.5361 31.3188 42.4959 31.3188 42.4557 31.3188C42.1745 31.2921 41.9401 31.2787 41.7526 31.2787C41.6588 31.2787 41.5651 31.2854 41.4713 31.2988C41.2838 31.3121 41.17 31.3188 41.1298 31.3188C40.9825 31.3188 40.8485 31.2519 40.728 31.118C40.728 31.0912 40.6811 31.0242 40.5874 30.9171C40.3329 30.6224 40.0182 30.2206 39.6432 29.7117C39.2682 29.2028 39.0338 28.8746 38.94 28.7273C38.8597 28.5934 38.7927 28.5264 38.7391 28.5264C38.7124 28.5264 38.6722 28.5532 38.6186 28.6068L38.4981 28.7273L38.3173 28.9081C38.2369 28.9751 38.19 29.0487 38.1766 29.1291C38.1499 29.2094 38.1365 29.3702 38.1365 29.6112V29.792C38.1365 30.2474 38.1833 30.5688 38.2771 30.7563C38.3708 30.9572 38.5383 31.0644 38.7793 31.0778C38.9266 31.0912 39.0003 31.1313 39.0003 31.1983C39.0003 31.2921 38.9534 31.3389 38.8597 31.3389C38.8061 31.3389 38.7191 31.3255 38.5985 31.2988C38.4512 31.272 38.257 31.2586 38.0159 31.2586C37.7079 31.2586 37.4132 31.272 37.132 31.2988C36.9579 31.3121 36.8106 31.3188 36.69 31.3188C36.5829 31.3188 36.5293 31.2787 36.5293 31.1983C36.5293 31.1447 36.5695 31.1112 36.6498 31.0979C36.8507 31.0711 36.9914 30.984 37.0717 30.8367C37.1387 30.6894 37.1722 30.4349 37.1722 30.0733V26.6983V26.5375L37.1521 26.2965C37.0985 26.1492 37.0181 26.0353 36.911 25.955C36.7905 25.8746 36.6231 25.8277 36.4088 25.8143C36.3418 25.8009 36.3016 25.7875 36.2882 25.7741C36.2614 25.7474 36.248 25.7072 36.248 25.6536C36.248 25.5866 36.2882 25.5532 36.3686 25.5532C36.4489 25.5532 36.5226 25.5532 36.5896 25.5532C36.8842 25.5933 37.219 25.6134 37.594 25.6134C37.9289 25.6134 38.2235 25.5933 38.478 25.5532C38.5583 25.5532 38.6253 25.5532 38.6789 25.5532C38.7592 25.5398 38.7994 25.5733 38.7994 25.6536C38.7994 25.7072 38.7592 25.7407 38.6789 25.7541C38.4378 25.821 38.2905 25.9014 38.2369 25.9951C38.1833 26.1023 38.1565 26.3166 38.1565 26.638L38.1365 26.7786ZM45.9111 26.4974L48.1209 28.9885L48.2817 29.1492C48.4692 29.3635 48.5964 29.4706 48.6634 29.4706C48.7169 29.4706 48.7437 29.3903 48.7437 29.2295C48.7705 28.6001 48.7839 28.0041 48.7839 27.4416C48.7839 26.7853 48.7169 26.3433 48.583 26.1157C48.4491 25.888 48.1879 25.7541 47.7995 25.7139C47.7058 25.7139 47.6589 25.6871 47.6589 25.6335C47.6589 25.5532 47.6991 25.513 47.7794 25.513C47.8866 25.513 48.054 25.5264 48.2817 25.5532C48.429 25.5666 48.5495 25.5732 48.6433 25.5732C48.8308 25.5732 49.1388 25.5465 49.5674 25.4929C49.6209 25.4929 49.6611 25.4929 49.6879 25.4929C49.7817 25.4929 49.8286 25.5331 49.8286 25.6134C49.8286 25.6804 49.7817 25.7206 49.6879 25.734C49.3263 25.8009 49.1455 26.1224 49.1455 26.6983V26.9192L49.0852 29.5309L49.0651 29.8925V30.3746V30.676L49.0852 31.2184C49.0852 31.2988 49.0584 31.3322 49.0049 31.3188C48.9513 31.3188 48.8977 31.2921 48.8442 31.2385L45.0071 26.9795C44.9401 26.8992 44.8932 26.859 44.8664 26.859C44.7995 26.859 44.766 26.9259 44.766 27.0599V27.1804V28.8077C44.766 29.6782 44.8129 30.2608 44.9066 30.5554C45.0004 30.8769 45.2749 31.0577 45.7303 31.0979C45.8106 31.0979 45.8508 31.1313 45.8508 31.1983C45.8508 31.2921 45.804 31.3389 45.7102 31.3389C45.6834 31.3389 45.6298 31.3322 45.5495 31.3188C45.3218 31.2787 45.0606 31.2586 44.766 31.2586C44.4847 31.2586 44.2303 31.2787 44.0026 31.3188C43.9088 31.3322 43.8419 31.3389 43.8017 31.3389C43.7213 31.3389 43.6812 31.3055 43.6812 31.2385C43.6812 31.1849 43.7213 31.1447 43.8017 31.118C44.0026 31.051 44.1499 30.9304 44.2437 30.7563C44.3374 30.5688 44.3843 30.301 44.3843 29.9528L44.4245 28.9684V27.1402C44.4245 26.2831 44.103 25.8277 43.4602 25.7741C43.3798 25.7741 43.3396 25.7407 43.3396 25.6737C43.3396 25.5933 43.3865 25.5532 43.4803 25.5532L43.7615 25.5732L43.9423 25.5532C44.17 25.5532 44.4044 25.5398 44.6455 25.513C44.7392 25.513 44.8196 25.513 44.8865 25.513C44.9669 25.513 45.0339 25.5331 45.0874 25.5732C45.141 25.6 45.2481 25.7139 45.4089 25.9148L45.6901 26.2563C45.8106 26.3902 45.8843 26.4706 45.9111 26.4974ZM53.9469 25.4326C54.8308 25.4326 55.5407 25.6871 56.0764 26.196C56.6121 26.705 56.88 27.3746 56.88 28.205C56.88 29.1023 56.6054 29.8657 56.0563 30.4952C55.5072 31.0979 54.7572 31.3992 53.8063 31.3992C52.8955 31.3992 52.1723 31.138 51.6366 30.6157C51.0875 30.08 50.8129 29.3702 50.8129 28.4862C50.8129 28.0978 50.8799 27.7161 51.0138 27.3411C51.1611 26.9661 51.3486 26.6514 51.5763 26.3969C51.8576 26.0889 52.2058 25.8545 52.621 25.6938C53.0362 25.5197 53.4781 25.4326 53.9469 25.4326ZM53.6456 25.7541C53.083 25.7541 52.6411 25.9616 52.3196 26.3768C52.0116 26.792 51.8576 27.3746 51.8576 28.1246C51.8576 28.9952 52.0585 29.7117 52.4603 30.2742C52.8487 30.8233 53.3643 31.0979 54.0072 31.0979C54.5831 31.0979 55.0451 30.8702 55.3933 30.4148C55.7282 29.9595 55.8956 29.3501 55.8956 28.5867C55.8956 28.1447 55.8152 27.7161 55.6545 27.3009C55.4938 26.8724 55.2862 26.5375 55.0317 26.2965C54.6433 25.9349 54.1813 25.7541 53.6456 25.7541ZM61.4805 25.513C61.5072 25.513 61.5541 25.5197 61.6211 25.5331C61.8889 25.5465 62.1367 25.5532 62.3644 25.5532C62.4849 25.5532 62.6122 25.5532 62.7461 25.5532L63.2684 25.513C63.3756 25.4996 63.4626 25.4929 63.5296 25.4929C63.6099 25.4929 63.6501 25.5331 63.6501 25.6134C63.6501 25.6804 63.6032 25.7206 63.5095 25.734C63.2684 25.7741 63.0809 25.8478 62.947 25.955C62.5854 26.2362 62.1836 26.6447 61.7416 27.1804C61.3934 27.5822 61.2059 27.8032 61.1791 27.8434C61.0586 27.9773 60.9983 28.071 60.9983 28.1246C60.9983 28.1648 61.0787 28.292 61.2394 28.5063C61.3197 28.6001 61.5005 28.8545 61.7818 29.2697C62.2506 29.9394 62.6456 30.4349 62.9671 30.7563C63.168 30.9572 63.4224 31.0644 63.7305 31.0778C63.8376 31.0912 63.8912 31.138 63.8912 31.2184C63.8912 31.2988 63.8376 31.3389 63.7305 31.3389C63.6903 31.3389 63.63 31.3389 63.5497 31.3389L63.0273 31.2988C62.7729 31.272 62.5519 31.2586 62.3644 31.2586C62.2305 31.2586 62.1032 31.2653 61.9827 31.2787L61.5206 31.2988C61.3733 31.3121 61.2595 31.3188 61.1791 31.3188C61.0854 31.3188 61.0385 31.2854 61.0385 31.2184C61.0385 31.138 61.0921 31.0912 61.1992 31.0778C61.4269 31.0644 61.5407 30.9572 61.5407 30.7563C61.5407 30.6626 61.4738 30.5086 61.3398 30.2943C61.1925 30.08 60.9447 29.7385 60.5965 29.2697L60.3755 29.0086C60.3354 28.955 60.3086 28.9282 60.2952 28.9282C60.2684 28.9282 60.2349 28.955 60.1947 29.0086C60.1144 29.0889 60.0273 29.1827 59.9336 29.2898C59.2907 30.0264 58.9693 30.5019 58.9693 30.7162C58.9693 30.9438 59.1903 31.0711 59.6322 31.0979C59.726 31.1112 59.7729 31.1514 59.7729 31.2184C59.7729 31.2854 59.7394 31.3188 59.6724 31.3188C59.6456 31.3188 59.592 31.3188 59.5117 31.3188C59.1769 31.2787 58.8353 31.2586 58.4871 31.2586C58.3934 31.2586 58.2661 31.2653 58.1054 31.2787H57.7438L57.5429 31.2988L57.4224 31.2787C57.409 31.2653 57.4023 31.2385 57.4023 31.1983C57.3889 31.1447 57.4224 31.1112 57.5027 31.0979C57.717 31.0443 57.9313 30.9304 58.1456 30.7563C58.3733 30.5688 58.6679 30.2541 59.0295 29.8121C59.351 29.4237 59.5853 29.1559 59.7327 29.0086C59.9336 28.7943 60.034 28.6536 60.034 28.5867C60.034 28.5331 59.9269 28.3657 59.7126 28.0844C59.5786 27.9103 59.4179 27.696 59.2304 27.4416C58.7081 26.705 58.3666 26.2563 58.2059 26.0956C58.0451 25.9349 57.8309 25.8277 57.563 25.7741C57.4559 25.7607 57.4023 25.7139 57.4023 25.6335C57.4023 25.5532 57.4492 25.513 57.5429 25.513C57.5831 25.513 57.6634 25.5197 57.784 25.5331C58.2393 25.5599 58.5742 25.5732 58.7885 25.5732C59.0027 25.5732 59.1902 25.5666 59.351 25.5532L59.7327 25.513C59.8532 25.4996 59.9403 25.4929 59.9938 25.4929C60.0876 25.4929 60.1345 25.5331 60.1345 25.6134C60.1345 25.6804 60.0809 25.7206 59.9737 25.734C59.88 25.7474 59.7996 25.7875 59.7327 25.8545C59.6657 25.9215 59.6322 25.9884 59.6322 26.0554C59.6456 26.2161 59.7528 26.4505 59.9536 26.7585L60.2349 27.1402L60.5362 27.5822C60.63 27.7161 60.7037 27.7831 60.7572 27.7831C60.784 27.7697 60.8175 27.7429 60.8577 27.7027L61.0586 27.4617L61.5005 26.9393C61.7282 26.6715 61.8688 26.4974 61.9224 26.417C61.976 26.3233 62.0028 26.2228 62.0028 26.1157C62.0028 25.9416 61.8889 25.8344 61.6613 25.7942L61.4805 25.7741C61.3733 25.7607 61.3197 25.7139 61.3197 25.6335C61.3331 25.5532 61.3867 25.513 61.4805 25.513ZM67.0452 27.6224L67.9894 29.9126C68.0296 30.0197 68.0698 30.0733 68.11 30.0733C68.1368 30.0733 68.1703 30.0331 68.2104 29.9528L69.1546 27.8434C69.4627 27.1603 69.6167 26.6648 69.6167 26.3567C69.6167 26.1826 69.5564 26.042 69.4359 25.9349C69.3154 25.8277 69.1413 25.7541 68.9136 25.7139C68.8198 25.7005 68.7729 25.6603 68.7729 25.5933C68.7729 25.5264 68.8064 25.4929 68.8734 25.4929C68.9136 25.4929 68.9939 25.4996 69.1145 25.513L69.5564 25.5331C69.7573 25.5465 69.898 25.5532 69.9783 25.5532C70.2328 25.5532 70.4538 25.5331 70.6413 25.4929C70.7082 25.4929 70.7618 25.4929 70.802 25.4929C70.8555 25.4929 70.8823 25.5264 70.8823 25.5933C70.8823 25.6603 70.8422 25.7005 70.7618 25.7139C70.6011 25.7407 70.4671 25.8277 70.36 25.975C70.2529 26.109 70.1055 26.3902 69.918 26.8188L69.2953 28.2652L68.572 29.8523C68.3444 30.3746 68.2171 30.6492 68.1903 30.676C68.043 30.9974 67.956 31.1782 67.9292 31.2184C67.8756 31.3389 67.8086 31.3992 67.7283 31.3992C67.6747 31.3992 67.6345 31.3657 67.6078 31.2988L67.5073 31.0979L67.4069 30.8367L66.4024 28.5666C66.1613 28.0175 65.9604 27.5219 65.7997 27.08C65.6122 26.571 65.4582 26.2295 65.3376 26.0554C65.2305 25.8947 65.0765 25.7942 64.8756 25.7541C64.7684 25.7273 64.7149 25.6804 64.7149 25.6134C64.7149 25.5331 64.7483 25.4929 64.8153 25.4929C64.8421 25.4929 64.889 25.4929 64.9559 25.4929C65.0899 25.5197 65.2573 25.5331 65.4582 25.5331L66.1613 25.5532L66.6033 25.5331C66.7908 25.5197 66.9113 25.513 66.9649 25.513C67.0452 25.513 67.0854 25.5532 67.0854 25.6335C67.0854 25.6871 67.0252 25.7273 66.9046 25.7541C66.6903 25.7942 66.5832 25.9148 66.5832 26.1157C66.5832 26.3701 66.7372 26.8724 67.0452 27.6224ZM73.7752 29.9929L73.7953 30.4148C73.8355 30.6291 73.9225 30.7898 74.0565 30.897C74.177 31.0175 74.3444 31.0778 74.5587 31.0778C74.6926 31.0778 74.7596 31.1179 74.7596 31.1983C74.7596 31.2787 74.6726 31.3255 74.4984 31.3389C74.4181 31.3389 74.3042 31.3255 74.1569 31.2988C73.7953 31.2586 73.5007 31.2385 73.273 31.2385C72.9917 31.2385 72.7707 31.2586 72.61 31.2988C72.4627 31.3255 72.3623 31.3389 72.3087 31.3389C72.2417 31.3389 72.2015 31.3055 72.1882 31.2385L72.1681 31.1983L72.2886 31.0979C72.4895 31.0309 72.6234 30.9438 72.6904 30.8367C72.7574 30.7296 72.7908 30.5554 72.7908 30.3144V29.9327V26.5978C72.7908 26.3434 72.7507 26.1558 72.6703 26.0353C72.5765 25.9282 72.4091 25.8612 72.1681 25.8344C72.0341 25.8076 71.9471 25.7808 71.9069 25.7541C71.8533 25.7407 71.8265 25.7072 71.8265 25.6536C71.8265 25.5733 71.8667 25.5331 71.9471 25.5331C71.9873 25.5331 72.0609 25.5465 72.1681 25.5732C72.2618 25.5866 72.4292 25.5933 72.6703 25.5933C72.831 25.5933 73.0252 25.5866 73.2529 25.5732L73.5743 25.5532C73.8556 25.5264 74.0766 25.513 74.2373 25.513C74.331 25.513 74.3779 25.5465 74.3779 25.6134C74.3779 25.667 74.3712 25.7005 74.3578 25.7139C74.331 25.7407 74.2909 25.7541 74.2373 25.7541C74.0364 25.7942 73.9091 25.8545 73.8556 25.9349C73.802 26.0152 73.7752 26.1759 73.7752 26.417V29.9929ZM77.8735 29.9728C77.8735 30.4952 77.9404 30.7898 78.0744 30.8568C78.1413 30.897 78.2753 30.9171 78.4762 30.9171C79.4271 30.9171 80.1034 30.6358 80.5052 30.0733C80.6257 29.8992 80.6994 29.8121 80.7262 29.8121C80.7798 29.8121 80.8065 29.8724 80.8065 29.9929C80.8065 30.3545 80.6927 30.676 80.465 30.9572C80.2641 31.1983 79.9829 31.3188 79.6213 31.3188C79.5543 31.3188 79.4204 31.3121 79.2195 31.2988C79.1659 31.2988 78.9985 31.2854 78.7172 31.2586L78.2552 31.2385C78.1079 31.2385 77.9337 31.2385 77.7328 31.2385C77.4114 31.2385 77.0632 31.2586 76.6882 31.2988C76.5677 31.3121 76.4873 31.3188 76.4471 31.3188C76.3668 31.3188 76.3266 31.2787 76.3266 31.1983C76.3266 31.1581 76.3668 31.1246 76.4471 31.0979C76.6212 31.0443 76.7418 30.9505 76.8087 30.8166C76.8757 30.6693 76.9092 30.4282 76.9092 30.0934V26.5978C76.9092 26.1425 76.7217 25.888 76.3467 25.8344L76.1056 25.7942C75.9985 25.7675 75.9449 25.7206 75.9449 25.6536C75.9449 25.5733 75.9851 25.5331 76.0654 25.5331C76.0922 25.5331 76.1324 25.5398 76.186 25.5532C76.2261 25.5532 76.2797 25.5532 76.3467 25.5532L76.5275 25.5732C76.7016 25.5866 76.8355 25.5933 76.9293 25.5933C77.0632 25.5933 77.2775 25.5799 77.5721 25.5532C77.7864 25.5264 78.0074 25.513 78.2351 25.513C78.4092 25.513 78.4962 25.5532 78.4962 25.6335C78.4962 25.7005 78.436 25.7407 78.3154 25.7541C78.0208 25.7674 77.8735 25.9616 77.8735 26.3366V29.9728ZM83.6793 29.9728C83.6793 30.4952 83.7396 30.7898 83.8601 30.8568C83.9271 30.8836 84.061 30.897 84.2619 30.897C85.2128 30.897 85.8892 30.6224 86.291 30.0733C86.4115 29.8992 86.4919 29.8121 86.532 29.8121C86.5722 29.8121 86.5923 29.8657 86.5923 29.9728C86.5923 30.3345 86.4785 30.6559 86.2508 30.9371C86.0499 31.1782 85.7686 31.2988 85.407 31.2988C85.3401 31.2988 85.2061 31.2921 85.0052 31.2787C84.9651 31.2787 84.7977 31.272 84.503 31.2586L84.041 31.2385C83.8936 31.2251 83.7195 31.2184 83.5186 31.2184C83.1972 31.2184 82.849 31.2385 82.474 31.2787C82.3534 31.2921 82.2731 31.2988 82.2329 31.2988C82.1525 31.2988 82.1124 31.2653 82.1124 31.1983C82.1124 31.1447 82.1525 31.1112 82.2329 31.0979C82.407 31.0443 82.5275 30.9438 82.5945 30.7965C82.6615 30.6492 82.695 30.4148 82.695 30.0934V26.5777C82.695 26.1358 82.5141 25.8813 82.1525 25.8143L81.8914 25.7741C81.7842 25.7607 81.7307 25.7206 81.7307 25.6536C81.7307 25.5599 81.7708 25.513 81.8512 25.513C81.878 25.513 81.9182 25.5197 81.9717 25.5331C82.0119 25.5331 82.0722 25.5398 82.1525 25.5532L82.3333 25.5732C82.4941 25.5866 82.6213 25.5933 82.715 25.5933C82.849 25.5933 83.0633 25.5732 83.3579 25.5331C83.5722 25.5197 83.7932 25.513 84.0209 25.513C84.195 25.513 84.282 25.5532 84.282 25.6335C84.282 25.7005 84.2218 25.734 84.1012 25.734C83.82 25.7607 83.6793 25.9549 83.6793 26.3166V29.9728ZM89.4651 26.5175V27.4215C89.4651 27.6759 89.4785 27.8434 89.5053 27.9237C89.5455 27.9907 89.6392 28.0242 89.7865 28.0242H89.9071H90.108H90.4495C90.7307 28.0108 90.9517 27.8568 91.1125 27.5621L91.1928 27.3411C91.2196 27.3009 91.2665 27.2742 91.3334 27.2608C91.387 27.2608 91.4138 27.3009 91.4138 27.3813C91.4138 27.4081 91.4138 27.4684 91.4138 27.5621C91.4004 27.6425 91.3937 27.7094 91.3937 27.763C91.3937 27.8434 91.4071 28.051 91.4339 28.3858C91.4473 28.6001 91.454 28.7876 91.454 28.9483L91.4741 29.1693C91.4741 29.2094 91.4674 29.2362 91.454 29.2496C91.4406 29.263 91.4205 29.2697 91.3937 29.2697C91.3133 29.2831 91.2665 29.2295 91.2531 29.109C91.2129 28.8813 91.1325 28.7005 91.012 28.5666C90.9317 28.4996 90.8379 28.4594 90.7308 28.446C90.6236 28.4193 90.4294 28.4059 90.1482 28.4059H89.8669C89.7196 28.4059 89.6258 28.426 89.5856 28.4661C89.5321 28.5063 89.4986 28.5934 89.4852 28.7273C89.4718 28.8612 89.4651 29.0822 89.4651 29.3902V29.772C89.4651 30.1604 89.4919 30.4416 89.5455 30.6157C89.599 30.7363 89.6593 30.8233 89.7263 30.8769C89.7799 30.9171 89.8803 30.9371 90.0276 30.9371C91.166 30.9371 91.9093 30.5889 92.2575 29.8925C92.2709 29.8657 92.2843 29.8523 92.2977 29.8523C92.3245 29.8389 92.3513 29.8456 92.3781 29.8724C92.4049 29.8992 92.4183 29.9327 92.4183 29.9728C92.4183 30.2407 92.3446 30.5019 92.1973 30.7563C92.0767 30.984 91.9227 31.1447 91.7352 31.2385C91.5477 31.3322 91.3 31.3791 90.9919 31.3791C90.8178 31.3791 90.6169 31.3657 90.3892 31.3389L89.9071 31.2988C89.733 31.2854 89.4919 31.2787 89.1839 31.2787C88.983 31.2787 88.6682 31.2921 88.2397 31.3188C88.1325 31.3188 88.0522 31.3188 87.9986 31.3188C87.9316 31.3188 87.8981 31.2854 87.8981 31.2184C87.8847 31.1782 87.9115 31.1447 87.9785 31.118C88.1392 31.051 88.2464 30.984 88.2999 30.9171C88.3669 30.8501 88.4138 30.7295 88.4405 30.5554C88.4673 30.4081 88.4807 30.2072 88.4807 29.9528V26.6179C88.4807 26.2965 88.4338 26.0822 88.3401 25.975C88.233 25.8679 88.0187 25.7875 87.6972 25.734C87.6169 25.7206 87.5767 25.6804 87.5767 25.6134C87.5767 25.5465 87.6236 25.513 87.7173 25.513C87.7441 25.513 87.791 25.513 87.858 25.513C87.8981 25.5264 87.9651 25.5331 88.0589 25.5331L88.4807 25.5532H90.0678C90.9919 25.5532 91.5611 25.5398 91.7754 25.513C91.8022 25.513 91.8223 25.513 91.8357 25.513C91.916 25.513 91.9562 25.5599 91.9562 25.6536C91.9562 25.7206 91.9629 25.8344 91.9763 25.9951C92.0031 26.2496 92.0165 26.4304 92.0165 26.5375C92.0165 26.7384 91.9629 26.8456 91.8558 26.859C91.8022 26.859 91.7754 26.7987 91.7754 26.6782C91.7754 26.3969 91.6683 26.1893 91.454 26.0554C91.2531 25.9349 90.925 25.8746 90.4696 25.8746H89.9674L89.6861 25.9148C89.5388 25.9549 89.4651 26.0956 89.4651 26.3366V26.5175Z" fill="#58595B"/>
<path d="M31.0843 31.2576V0.601074H0.427734V31.2576H31.0843Z" fill="#FF8200"/>
<path d="M27.2067 4.4585V12.193H24.354C24.354 10.7867 22.9477 9.6215 21.2 9.6215C19.9343 9.6215 18.8294 10.2443 18.3272 11.1282V20.7913C18.3272 22.8605 19.9343 24.5078 21.9031 24.5279H21.9232V27.3806H9.58823V24.5279H9.60832C11.5771 24.5078 13.1842 22.8605 13.1842 20.7913V11.1282C12.682 10.2443 11.5771 9.6215 10.3115 9.6215C8.56366 9.6215 7.1574 10.7867 7.1574 12.193H4.30469V4.4585H27.2067Z" fill="white"/>
</svg>
