<svg width="77" height="60" viewBox="0 0 77 60" fill="none" xmlns="http://www.w3.org/2000/svg">
<g clip-path="url(#clip0_5778_27763)">
<path d="M35.5445 40.0446V14.7261L30.3145 19.9564V45.2749L35.5445 40.0446Z" fill="#C1C5C8"/>
<path d="M41.9023 40.0437V37.4833L54.5595 17.1442H42.3995V14.7251H57.6153V17.0017L44.853 37.6265H57.6153V40.0443L41.9023 40.0437Z" fill="#898A8D"/>
<path d="M76.7841 34.6735C76.2451 38.2208 72.9423 40.4498 68.3158 40.4498C64.5075 40.4498 62.0154 39.4889 59.6309 37.1034L61.4821 35.2518C63.5816 37.3523 65.5392 38.0295 68.3854 38.0295C71.314 38.0295 73.3653 36.8589 73.9695 34.8363C74.0486 34.5667 74.096 34.2889 74.1108 34.0084C74.1582 33.3326 74.0573 32.6546 73.815 32.0219C73.6307 31.5076 73.0512 30.8222 72.6041 30.5175C71.618 29.7954 70.2075 29.1873 68.7585 28.6945L65.9294 27.7253C64.023 27.0627 62.598 26.1544 61.6727 25.0211C60.5828 23.6871 60.2129 21.7431 60.5327 19.7832C60.5327 19.7699 60.5555 19.6489 60.5555 19.6489C61.3478 16.2917 64.106 14.3198 68.4405 14.3198C71.6794 14.3198 73.4755 15.2941 75.6466 17.252L73.9024 18.9965C72.3368 17.5725 71.0036 16.6693 68.3335 16.6693C65.1782 16.6693 63.4347 18.3422 63.0895 20.5801C62.9571 21.8197 63.2915 22.7439 63.9331 23.53C64.5861 24.3326 65.7299 24.9781 66.9896 25.4177L69.6496 26.321C71.5806 26.9677 73.7029 27.9856 74.8853 29.0448C74.8853 29.0448 77.3496 30.9558 76.7853 34.671" fill="#898A8D"/>
<path d="M6.09921 40.0446V14.7261L0.869141 19.9564V45.2749L6.09921 40.0446Z" fill="#97A3AE"/>
<path d="M8.23047 52.6375L13.4605 47.4072V32.6816L8.23047 37.9126V52.6375Z" fill="#EC7700"/>
<path d="M13.4605 7.36279L8.23047 12.5937V27.3187L13.4605 22.0884V7.36279Z" fill="#97A3AE"/>
<path d="M8.23047 27.3187V37.9123L13.4605 32.6814V22.0884L8.23047 27.3187Z" fill="#96460A"/>
<path d="M15.5918 45.2747V60.0003L20.8212 54.7694V40.0444L15.5918 45.2747Z" fill="#C1C5C8"/>
<path d="M15.5918 30.5493V34.6812L20.8212 29.4503V25.3184L15.5918 30.5493Z" fill="#EC7700"/>
<path d="M20.8212 0L15.5918 5.23094V19.9559L20.8212 14.7256V0Z" fill="#97A3AE"/>
<path d="M15.5918 45.2751L20.8212 40.0448V29.4512L15.5918 34.6821V45.2751Z" fill="#C1531B"/>
<path d="M20.8212 25.3191V14.7261L15.5918 19.9564V30.55L20.8212 25.3191Z" fill="#96460A"/>
<path d="M28.1826 32.6816L22.9531 37.9126V52.6381L28.1826 47.4072V32.6816Z" fill="#C1C5C8"/>
<path d="M28.1826 22.0884V7.36279L22.9531 12.5937V27.3187L28.1826 22.0884Z" fill="#EC7700"/>
<path d="M28.1826 22.0884L22.9531 27.3187V37.9123L28.1826 32.6814V22.0884Z" fill="#C1531B"/>
</g>
<defs>
<clipPath id="clip0_5778_27763">
<rect width="76" height="60" fill="white" transform="translate(0.869141)"/>
</clipPath>
</defs>
</svg>
