<svg width="50" height="54" viewBox="0 0 50 54" fill="none" xmlns="http://www.w3.org/2000/svg">
<path d="M46.6979 34H19.4252C18.0456 34 16.9252 32.8795 16.9252 31.4999V22.409C16.9252 21.0295 18.0456 19.909 19.4252 19.909H46.6979C48.0774 19.909 49.1979 21.0295 49.1979 22.409V31.4999C49.1979 32.8795 48.0774 34 46.6979 34ZM19.4252 21.2727C18.7979 21.2727 18.2888 21.7818 18.2888 22.409V31.4999C18.2888 32.1272 18.7979 32.6363 19.4252 32.6363H46.6979C47.3252 32.6363 47.8343 32.1272 47.8343 31.4999V22.409C47.8343 21.7818 47.3252 21.2727 46.6979 21.2727H19.4252ZM43.7434 29.2273C43.7434 28.85 43.4389 28.5455 43.0616 28.5455H23.0616C22.6843 28.5455 22.3798 28.85 22.3798 29.2273C22.3798 29.6046 22.6843 29.9091 23.0616 29.9091H43.0616C43.4389 29.9091 43.7434 29.6046 43.7434 29.2273ZM43.7434 24.6819C43.7434 24.3046 43.4389 24 43.0616 24H23.0616C22.6843 24 22.3798 24.3046 22.3798 24.6819C22.3798 25.0591 22.6843 25.3637 23.0616 25.3637H43.0616C43.4389 25.3637 43.7434 25.0591 43.7434 24.6819ZM46.698 14.9091H19.4252C18.0457 14.9091 16.9252 13.7886 16.9252 12.409V3.31813C16.9252 1.93858 18.0457 0.818115 19.4252 0.818115H46.698C48.0775 0.818115 49.198 1.93858 49.198 3.31813V12.409C49.198 13.7886 48.0775 14.9091 46.698 14.9091ZM19.4252 2.18178C18.798 2.18178 18.2889 2.69087 18.2889 3.31813V12.409C18.2889 13.0363 18.798 13.5454 19.4252 13.5454H46.698C47.3252 13.5454 47.8343 13.0363 47.8343 12.409V3.31813C47.8343 2.69087 47.3252 2.18178 46.698 2.18178H19.4252ZM43.7435 10.1364C43.7435 9.75913 43.4389 9.45457 43.0616 9.45457H23.0616C22.6844 9.45457 22.3798 9.75911 22.3798 10.1364C22.3798 10.5137 22.6844 10.8182 23.0616 10.8182H43.0616C43.4389 10.8182 43.7435 10.5137 43.7435 10.1364ZM43.7435 5.59094C43.7435 5.21367 43.4389 4.90911 43.0616 4.90911H23.0616C22.6844 4.90911 22.3798 5.21366 22.3798 5.59094C22.3798 5.96823 22.6844 6.27278 23.0616 6.27278H43.0616C43.4389 6.27278 43.7435 5.96823 43.7435 5.59094ZM5.38653 29.7498L10.2797 24.8566C10.5457 24.5907 10.5457 24.1589 10.2797 23.893C10.0138 23.6271 9.58203 23.6271 9.31614 23.893L4.42293 28.7862C4.30702 28.9021 4.21838 28.9021 4.10247 28.7862L1.72749 26.4112C1.46158 26.1453 1.02978 26.1453 0.763884 26.4112C0.497976 26.6771 0.497976 27.1089 0.763884 27.3748L3.13887 29.7498C3.43887 30.0498 3.83885 30.2157 4.26387 30.2157C4.68887 30.2157 5.08889 30.0498 5.38887 29.7498H5.38653ZM5.38653 10.6592L10.2797 5.76596C10.5457 5.50005 10.5457 5.06824 10.2797 4.80235C10.0138 4.53646 9.58203 4.53644 9.31614 4.80235L4.42293 9.69556C4.30702 9.81147 4.21838 9.81147 4.10247 9.69556L1.72749 7.32057C1.46158 7.05467 1.02978 7.05467 0.763884 7.32057C0.497976 7.58648 0.497976 8.01829 0.763884 8.28418L3.13887 10.6592C3.43887 10.9592 3.83885 11.1251 4.26387 11.1251C4.68887 11.1251 5.08889 10.9592 5.38887 10.6592H5.38653ZM5.78881 49.4548C3.90925 49.4548 2.3797 47.9253 2.3797 46.0457C2.3797 44.1661 3.90925 42.6366 5.78881 42.6366C7.66837 42.6366 9.19792 44.1661 9.19792 46.0457C9.19792 47.9253 7.66837 49.4548 5.78881 49.4548ZM5.78881 44.0003C4.66154 44.0003 3.74337 44.9184 3.74337 46.0457C3.74337 47.173 4.66154 48.0911 5.78881 48.0911C6.91608 48.0911 7.83425 47.173 7.83425 46.0457C7.83425 44.9184 6.91608 44.0003 5.78881 44.0003ZM6.47064 39.6821V33.6364C6.47064 33.2591 6.1661 32.9546 5.78881 32.9546C5.41152 32.9546 5.10698 33.2591 5.10698 33.6364V39.6821C5.10698 40.0593 5.41152 40.3639 5.78881 40.3639C6.1661 40.3639 6.47064 40.0593 6.47064 39.6821ZM6.47064 23.0095V14.5458C6.47064 14.1685 6.1661 13.8639 5.78881 13.8639C5.41152 13.8639 5.10698 14.1685 5.10698 14.5458V23.0095C5.10698 23.3868 5.41152 23.6913 5.78881 23.6913C6.1661 23.6913 6.47064 23.3868 6.47064 23.0095ZM46.6981 53.0912H19.4254C18.0459 53.0912 16.9254 51.9708 16.9254 50.5912V41.5003C16.9254 40.1208 18.0459 39.0003 19.4254 39.0003H46.6981C48.0777 39.0003 49.1982 40.1208 49.1982 41.5003V50.5912C49.1982 51.9708 48.0777 53.0912 46.6981 53.0912ZM19.4254 40.3639C18.7981 40.3639 18.2891 40.873 18.2891 41.5003V50.5912C18.2891 51.2185 18.7981 51.7276 19.4254 51.7276H46.6981C47.3254 51.7276 47.8345 51.2185 47.8345 50.5912V41.5003C47.8345 40.873 47.3254 40.3639 46.6981 40.3639H19.4254ZM43.7437 48.3186C43.7437 47.9413 43.4391 47.6367 43.0618 47.6367H23.0618C22.6846 47.6367 22.38 47.9413 22.38 48.3186C22.38 48.6959 22.6845 49.0004 23.0618 49.0004H43.0618C43.4391 49.0004 43.7437 48.6959 43.7437 48.3186ZM43.7437 43.7731C43.7437 43.3958 43.4391 43.0913 43.0618 43.0913H23.0618C22.6846 43.0913 22.38 43.3958 22.38 43.7731C22.38 44.1504 22.6845 44.4549 23.0618 44.4549H43.0618C43.4391 44.4549 43.7437 44.1504 43.7437 43.7731Z" fill="black" stroke="black" stroke-width="0.4"/>
</svg>
