<svg width="52" height="52" viewBox="0 0 52 52" fill="none" xmlns="http://www.w3.org/2000/svg">
<path d="M0 0V51.9325H52V0H0ZM50.5837 17.1984H34.7341V1.3489H50.6511V17.1984H50.5837ZM17.8729 34.0597V33.7224L25.3593 23.7406C25.6965 23.9429 26.0337 24.0778 26.5058 24.0778C27.2477 24.0778 27.8547 23.6732 28.2594 23.0662L34.1271 26.9105V34.0597H17.8729ZM34.0597 34.7341V50.5836H17.8729V34.7341H34.0597ZM34.0597 17.8729V26.1012L28.4617 22.4592C28.4617 22.3243 28.5292 22.1894 28.5292 22.0545C28.5292 20.9079 27.6524 20.0311 26.5058 20.0311C25.3593 20.0311 24.4825 20.9079 24.4825 22.0545C24.4825 22.5266 24.6174 22.9313 24.8872 23.2685L17.8729 32.5759V17.8729H34.0597ZM17.8729 17.1984V1.3489H34.0597V17.1984H17.8729ZM17.1984 33.4527L16.7938 34.0597H9.64462L7.82361 29.4734C8.36317 29.1362 8.76783 28.4617 8.76783 27.7873C8.76783 26.6407 7.89105 25.7639 6.74449 25.7639C5.59792 25.7639 4.72114 26.6407 4.72114 27.7873C4.72114 28.9339 5.59792 29.8106 6.74449 29.8106C6.87938 29.8106 7.01426 29.8106 7.2166 29.7432L8.97017 34.0597H1.41635V17.8729H17.2659V33.4527H17.1984ZM13.0843 38.9831C12.7471 38.7134 12.3424 38.5785 11.8703 38.5785C11.7354 38.5785 11.6005 38.5785 11.4656 38.6459L9.91439 34.8016H16.2542L13.0843 38.9831ZM34.7341 27.3152L37.6342 29.2036C37.6342 29.2711 37.6342 29.3385 37.6342 29.406C37.6342 30.5525 38.511 31.4293 39.6576 31.4293C40.8041 31.4293 41.6809 30.5525 41.6809 29.406C41.6809 29.0013 41.546 28.5966 41.3437 28.3268L45.0532 24.6174C45.3904 24.8872 45.7951 25.022 46.2672 25.022C47.4137 25.022 48.2905 24.1453 48.2905 22.9987C48.2905 21.8521 47.4137 20.9754 46.2672 20.9754C45.1206 20.9754 44.2438 21.8521 44.2438 22.9987C44.2438 23.4034 44.3787 23.808 44.5811 24.0778L40.8716 27.7873C40.5344 27.5175 40.1297 27.3826 39.6576 27.3826C38.8482 27.3826 38.1738 27.8547 37.8366 28.5292L34.7341 26.5058V17.8729H50.6511V34.0597H34.7341V27.3152ZM17.1984 1.3489V17.1984H1.3489V1.3489H17.1984ZM1.3489 34.7341H9.17251L10.8586 38.8482C10.2516 39.1855 9.91439 39.8599 9.91439 40.5344C9.91439 41.6809 10.7912 42.5577 11.9377 42.5577C13.0843 42.5577 13.9611 41.6809 13.9611 40.5344C13.9611 40.1297 13.8262 39.725 13.6239 39.4552L17.131 34.7341H17.1984V50.5836H1.3489V34.7341ZM34.7341 50.5836V34.7341H50.6511V50.5836H34.7341Z" fill="black"/>
</svg>
