<svg width="51" height="60" viewBox="0 0 51 60" fill="none" xmlns="http://www.w3.org/2000/svg">
<mask id="path-1-inside-1_7331_1808" fill="white">
<path d="M2.50125 31.5809C2.50125 33.4061 2.35524 34.0006 1.97976 34.4387C1.56188 34.815 1.01937 35.0231 0.457031 35.0227L0.603048 36.0657C1.47486 36.0775 2.32081 35.7695 2.98102 35.2001C3.33625 34.7668 3.60059 34.2666 3.75828 33.729C3.91597 33.1914 3.96377 32.6276 3.89883 32.0711V25.1667H2.50125V31.5809Z"/>
<path d="M12.9244 30.7585C12.9244 31.5407 12.9244 32.2395 12.987 32.8444H11.7458L11.6624 31.6033C11.4028 32.0424 11.0315 32.405 10.5864 32.6542C10.1412 32.9033 9.63804 33.0301 9.12798 33.0217C7.91814 33.0217 6.47884 32.3647 6.47884 29.6842V25.2308H7.87642V29.4026C7.87642 30.8524 8.3249 31.8223 9.5869 31.8223C9.84653 31.8251 10.1041 31.776 10.3445 31.678C10.585 31.5799 10.8034 31.4348 10.987 31.2512C11.1706 31.0676 11.3157 30.8492 11.4137 30.6088C11.5118 30.3683 11.5609 30.1108 11.5581 29.8511V25.1786H12.9557V30.7168L12.9244 30.7585Z"/>
<path d="M15.5727 27.712C15.5727 26.742 15.5727 25.9494 15.5102 25.2297H16.7617L16.8243 26.5334C17.1031 26.0624 17.5046 25.6759 17.9858 25.4151C18.467 25.1543 19.01 25.0289 19.5569 25.0524C21.4134 25.0524 22.8109 26.6065 22.8109 28.9218C22.8109 31.6544 21.1318 33.0103 19.317 33.0103C18.8525 33.031 18.3905 32.9315 17.9758 32.7214C17.561 32.5113 17.2075 32.1976 16.9495 31.8109V35.9828H15.5727V27.712ZM16.9495 29.7458C16.9532 29.935 16.9742 30.1235 17.012 30.309C17.1304 30.7721 17.3998 31.1825 17.7775 31.4753C18.1553 31.7681 18.62 31.9266 19.098 31.9256C20.5686 31.9256 21.4342 30.7262 21.4342 28.9844C21.4342 27.4617 20.6207 26.158 19.1501 26.158C18.5682 26.2056 18.0236 26.4639 17.6184 26.8844C17.2133 27.3049 16.9754 27.8587 16.9495 28.4421V29.7458Z"/>
<path d="M25.3019 25.2225L26.9811 29.7177C27.1584 30.2183 27.3461 30.8232 27.4713 31.2717C27.6173 30.8128 27.7737 30.2287 27.9615 29.6864L29.4842 25.2225H30.9548L28.8689 30.6459C27.8259 33.2533 27.1897 34.5988 26.2302 35.4123C25.7469 35.8537 25.1576 36.1627 24.5197 36.3092L24.1755 35.1411C24.6216 34.9946 25.0357 34.7645 25.3958 34.4632C25.9046 34.0485 26.3084 33.5197 26.5743 32.9196C26.6313 32.8157 26.6701 32.7028 26.6891 32.5858C26.6772 32.46 26.6455 32.3368 26.5952 32.2208L23.7583 25.2016H25.281L25.3019 25.2225Z"/>
<path d="M34.6644 23.0348V25.2251H36.6669V26.268H34.6644V30.3773C34.6644 31.316 34.9356 31.8583 35.7074 31.8583C35.9815 31.8628 36.255 31.8313 36.5209 31.7645L36.5835 32.8074C36.1848 32.9456 35.7641 33.0092 35.3423 32.9952C35.0631 33.0127 34.7833 32.9695 34.5223 32.8687C34.2612 32.7679 34.0251 32.6118 33.83 32.4111C33.4052 31.8429 33.2114 31.1348 33.2877 30.4295V26.2576H32.0987V25.2146H33.3085V23.3581L34.6644 23.0348Z"/>
<path d="M39.242 29.2774C39.2137 29.6311 39.2626 29.9868 39.3852 30.3198C39.5078 30.6528 39.7012 30.9552 39.9521 31.2061C40.203 31.457 40.5054 31.6504 40.8384 31.773C41.1714 31.8956 41.527 31.9444 41.8808 31.9161C42.5962 31.9321 43.307 31.7971 43.9667 31.5198L44.2066 32.5628C43.397 32.8963 42.5265 33.0562 41.6513 33.0321C41.1411 33.067 40.6293 32.9912 40.1512 32.8098C39.673 32.6284 39.2398 32.3457 38.8811 31.9811C38.5225 31.6165 38.2469 31.1786 38.0734 30.6976C37.8999 30.2165 37.8324 29.7036 37.8758 29.194C37.8758 26.8995 39.242 25.0847 41.474 25.0847C43.9771 25.0847 44.6029 27.2749 44.6029 28.6725C44.6163 28.8878 44.6163 29.1038 44.6029 29.3191H39.2108L39.242 29.2774ZM43.3305 28.2345C43.3707 27.9556 43.3507 27.6714 43.2719 27.4009C43.193 27.1305 43.057 26.88 42.8732 26.6666C42.6894 26.4531 42.4619 26.2815 42.2062 26.1633C41.9504 26.0452 41.6723 25.9832 41.3906 25.9816C40.8175 26.0231 40.2806 26.2771 39.8851 26.6939C39.4896 27.1106 39.264 27.66 39.2525 28.2345H43.3305Z"/>
<path d="M46.7232 27.5945C46.7232 26.6975 46.7232 25.9257 46.6606 25.2165H47.9122V26.7079H47.9748C48.1061 26.2476 48.3776 25.8396 48.7514 25.5406C49.1251 25.2415 49.5828 25.0663 50.0607 25.0392C50.1923 25.0219 50.3255 25.0219 50.457 25.0392V26.3429C50.2976 26.3244 50.1367 26.3244 49.9773 26.3429C49.5038 26.3612 49.0532 26.5513 48.7097 26.8776C48.3661 27.2039 48.1531 27.6441 48.1104 28.1159C48.0714 28.3294 48.0504 28.5457 48.0478 28.7626V32.8197H46.6711V27.6049L46.7232 27.5945Z"/>
<path d="M46.1086 4.27407C46.1514 4.97475 45.9847 5.67231 45.6297 6.2779C45.2747 6.88349 44.7474 7.3697 44.1151 7.67459C43.4828 7.97947 42.774 8.08922 42.0791 7.98988C41.3842 7.89053 40.7346 7.58657 40.213 7.11673C39.6915 6.64689 39.3216 6.03242 39.1505 5.35161C38.9794 4.6708 39.0148 3.95447 39.2522 3.29387C39.4897 2.63326 39.9184 2.05829 40.4838 1.6422C41.0491 1.2261 41.7256 0.987725 42.4269 0.957426C42.8867 0.932124 43.347 0.99797 43.7813 1.15118C44.2155 1.30439 44.6153 1.54194 44.9574 1.85016C45.2996 2.15839 45.5774 2.53122 45.775 2.9472C45.9725 3.36318 46.0859 3.81412 46.1086 4.27407Z"/>
<path d="M25.4841 45.12C17.6045 45.12 10.5258 42.7461 5.93266 39.0409C5.42402 38.6306 4.61634 39.178 4.92632 39.7533C6.65616 42.9637 9.12178 45.7385 12.1393 47.8398C16.0551 50.5667 20.7124 52.0285 25.4841 52.0285C30.2559 52.0285 34.9132 50.5667 38.8291 47.8398C41.8434 45.7407 44.3069 42.9696 46.0365 39.7635C46.347 39.188 45.5383 38.6402 45.0295 39.051C40.4483 42.7504 33.3917 45.12 25.4841 45.12Z"/>
<path d="M25.4841 12.769C33.3638 12.769 40.4424 15.1429 45.0356 18.848C45.5442 19.2583 46.3519 18.7109 46.0419 18.1356C44.3121 14.9252 41.8465 12.1505 38.8291 10.0492C34.9132 7.32227 30.2559 5.86043 25.4841 5.86043C20.7124 5.86043 16.0551 7.32227 12.1393 10.0492C9.12448 12.1486 6.66056 14.9203 4.93096 18.1271C4.62058 18.7025 5.42863 19.2497 5.93714 18.8387C10.522 15.1331 17.5736 12.769 25.4841 12.769Z"/>
<path d="M12.5631 54.8015C12.6182 55.6841 12.4093 56.563 11.963 57.3264C11.5167 58.0898 10.8533 58.703 10.0572 59.088C9.26115 59.473 8.3685 59.6123 7.49301 59.4881C6.6175 59.364 5.79877 58.982 5.14113 58.3909C4.48349 57.7997 4.01672 57.0262 3.80028 56.1688C3.58384 55.3115 3.62754 54.4091 3.9258 53.5766C4.22405 52.7442 4.76338 52.0194 5.47504 51.4945C6.18672 50.9697 7.03852 50.6686 7.92192 50.6296C8.50062 50.5987 9.07976 50.682 9.62625 50.875C10.1727 51.0679 10.6758 51.3666 11.1068 51.754C11.5378 52.1414 11.8883 52.61 12.1382 53.1329C12.388 53.6558 12.5325 54.2228 12.5631 54.8015Z"/>
<path d="M4.64925 11.6354C4.14346 11.6493 3.64483 11.5135 3.21607 11.2448C2.78731 10.9761 2.44756 10.5867 2.23954 10.1254C2.03153 9.66419 1.96454 9.15174 2.047 8.65252C2.12946 8.1533 2.35768 7.68961 2.70297 7.31976C3.04827 6.94991 3.49521 6.69041 3.9876 6.57389C4.47997 6.45738 4.99581 6.48905 5.47025 6.66493C5.94468 6.84081 6.35651 7.15305 6.65395 7.56237C6.95141 7.97169 7.12119 8.45982 7.14195 8.96538C7.16171 9.64897 6.91104 10.3128 6.44434 10.8127C5.97764 11.3126 5.33259 11.6082 4.64925 11.6354Z"/>
</mask>
<path d="M2.50125 31.5809C2.50125 33.4061 2.35524 34.0006 1.97976 34.4387C1.56188 34.815 1.01937 35.0231 0.457031 35.0227L0.603048 36.0657C1.47486 36.0775 2.32081 35.7695 2.98102 35.2001C3.33625 34.7668 3.60059 34.2666 3.75828 33.729C3.91597 33.1914 3.96377 32.6276 3.89883 32.0711V25.1667H2.50125V31.5809Z" fill="black"/>
<path d="M12.9244 30.7585C12.9244 31.5407 12.9244 32.2395 12.987 32.8444H11.7458L11.6624 31.6033C11.4028 32.0424 11.0315 32.405 10.5864 32.6542C10.1412 32.9033 9.63804 33.0301 9.12798 33.0217C7.91814 33.0217 6.47884 32.3647 6.47884 29.6842V25.2308H7.87642V29.4026C7.87642 30.8524 8.3249 31.8223 9.5869 31.8223C9.84653 31.8251 10.1041 31.776 10.3445 31.678C10.585 31.5799 10.8034 31.4348 10.987 31.2512C11.1706 31.0676 11.3157 30.8492 11.4137 30.6088C11.5118 30.3683 11.5609 30.1108 11.5581 29.8511V25.1786H12.9557V30.7168L12.9244 30.7585Z" fill="black"/>
<path d="M15.5727 27.712C15.5727 26.742 15.5727 25.9494 15.5102 25.2297H16.7617L16.8243 26.5334C17.1031 26.0624 17.5046 25.6759 17.9858 25.4151C18.467 25.1543 19.01 25.0289 19.5569 25.0524C21.4134 25.0524 22.8109 26.6065 22.8109 28.9218C22.8109 31.6544 21.1318 33.0103 19.317 33.0103C18.8525 33.031 18.3905 32.9315 17.9758 32.7214C17.561 32.5113 17.2075 32.1976 16.9495 31.8109V35.9828H15.5727V27.712ZM16.9495 29.7458C16.9532 29.935 16.9742 30.1235 17.012 30.309C17.1304 30.7721 17.3998 31.1825 17.7775 31.4753C18.1553 31.7681 18.62 31.9266 19.098 31.9256C20.5686 31.9256 21.4342 30.7262 21.4342 28.9844C21.4342 27.4617 20.6207 26.158 19.1501 26.158C18.5682 26.2056 18.0236 26.4639 17.6184 26.8844C17.2133 27.3049 16.9754 27.8587 16.9495 28.4421V29.7458Z" fill="black"/>
<path d="M25.3019 25.2225L26.9811 29.7177C27.1584 30.2183 27.3461 30.8232 27.4713 31.2717C27.6173 30.8128 27.7737 30.2287 27.9615 29.6864L29.4842 25.2225H30.9548L28.8689 30.6459C27.8259 33.2533 27.1897 34.5988 26.2302 35.4123C25.7469 35.8537 25.1576 36.1627 24.5197 36.3092L24.1755 35.1411C24.6216 34.9946 25.0357 34.7645 25.3958 34.4632C25.9046 34.0485 26.3084 33.5197 26.5743 32.9196C26.6313 32.8157 26.6701 32.7028 26.6891 32.5858C26.6772 32.46 26.6455 32.3368 26.5952 32.2208L23.7583 25.2016H25.281L25.3019 25.2225Z" fill="black"/>
<path d="M34.6644 23.0348V25.2251H36.6669V26.268H34.6644V30.3773C34.6644 31.316 34.9356 31.8583 35.7074 31.8583C35.9815 31.8628 36.255 31.8313 36.5209 31.7645L36.5835 32.8074C36.1848 32.9456 35.7641 33.0092 35.3423 32.9952C35.0631 33.0127 34.7833 32.9695 34.5223 32.8687C34.2612 32.7679 34.0251 32.6118 33.83 32.4111C33.4052 31.8429 33.2114 31.1348 33.2877 30.4295V26.2576H32.0987V25.2146H33.3085V23.3581L34.6644 23.0348Z" fill="black"/>
<path d="M39.242 29.2774C39.2137 29.6311 39.2626 29.9868 39.3852 30.3198C39.5078 30.6528 39.7012 30.9552 39.9521 31.2061C40.203 31.457 40.5054 31.6504 40.8384 31.773C41.1714 31.8956 41.527 31.9444 41.8808 31.9161C42.5962 31.9321 43.307 31.7971 43.9667 31.5198L44.2066 32.5628C43.397 32.8963 42.5265 33.0562 41.6513 33.0321C41.1411 33.067 40.6293 32.9912 40.1512 32.8098C39.673 32.6284 39.2398 32.3457 38.8811 31.9811C38.5225 31.6165 38.2469 31.1786 38.0734 30.6976C37.8999 30.2165 37.8324 29.7036 37.8758 29.194C37.8758 26.8995 39.242 25.0847 41.474 25.0847C43.9771 25.0847 44.6029 27.2749 44.6029 28.6725C44.6163 28.8878 44.6163 29.1038 44.6029 29.3191H39.2108L39.242 29.2774ZM43.3305 28.2345C43.3707 27.9556 43.3507 27.6714 43.2719 27.4009C43.193 27.1305 43.057 26.88 42.8732 26.6666C42.6894 26.4531 42.4619 26.2815 42.2062 26.1633C41.9504 26.0452 41.6723 25.9832 41.3906 25.9816C40.8175 26.0231 40.2806 26.2771 39.8851 26.6939C39.4896 27.1106 39.264 27.66 39.2525 28.2345H43.3305Z" fill="black"/>
<path d="M46.7232 27.5945C46.7232 26.6975 46.7232 25.9257 46.6606 25.2165H47.9122V26.7079H47.9748C48.1061 26.2476 48.3776 25.8396 48.7514 25.5406C49.1251 25.2415 49.5828 25.0663 50.0607 25.0392C50.1923 25.0219 50.3255 25.0219 50.457 25.0392V26.3429C50.2976 26.3244 50.1367 26.3244 49.9773 26.3429C49.5038 26.3612 49.0532 26.5513 48.7097 26.8776C48.3661 27.2039 48.1531 27.6441 48.1104 28.1159C48.0714 28.3294 48.0504 28.5457 48.0478 28.7626V32.8197H46.6711V27.6049L46.7232 27.5945Z" fill="black"/>
<path d="M2.50125 31.5809C2.50125 33.4061 2.35524 34.0006 1.97976 34.4387C1.56188 34.815 1.01937 35.0231 0.457031 35.0227L0.603048 36.0657C1.47486 36.0775 2.32081 35.7695 2.98102 35.2001C3.33625 34.7668 3.60059 34.2666 3.75828 33.729C3.91597 33.1914 3.96377 32.6276 3.89883 32.0711V25.1667H2.50125V31.5809Z" stroke="black" stroke-width="2.34297" mask="url(#path-1-inside-1_7331_1808)"/>
<path d="M12.9244 30.7585C12.9244 31.5407 12.9244 32.2395 12.987 32.8444H11.7458L11.6624 31.6033C11.4028 32.0424 11.0315 32.405 10.5864 32.6542C10.1412 32.9033 9.63804 33.0301 9.12798 33.0217C7.91814 33.0217 6.47884 32.3647 6.47884 29.6842V25.2308H7.87642V29.4026C7.87642 30.8524 8.3249 31.8223 9.5869 31.8223C9.84653 31.8251 10.1041 31.776 10.3445 31.678C10.585 31.5799 10.8034 31.4348 10.987 31.2512C11.1706 31.0676 11.3157 30.8492 11.4137 30.6088C11.5118 30.3683 11.5609 30.1108 11.5581 29.8511V25.1786H12.9557V30.7168L12.9244 30.7585Z" stroke="black" stroke-width="2.34297" mask="url(#path-1-inside-1_7331_1808)"/>
<path d="M15.5727 27.712C15.5727 26.742 15.5727 25.9494 15.5102 25.2297H16.7617L16.8243 26.5334C17.1031 26.0624 17.5046 25.6759 17.9858 25.4151C18.467 25.1543 19.01 25.0289 19.5569 25.0524C21.4134 25.0524 22.8109 26.6065 22.8109 28.9218C22.8109 31.6544 21.1318 33.0103 19.317 33.0103C18.8525 33.031 18.3905 32.9315 17.9758 32.7214C17.561 32.5113 17.2075 32.1976 16.9495 31.8109V35.9828H15.5727V27.712ZM16.9495 29.7458C16.9532 29.935 16.9742 30.1235 17.012 30.309C17.1304 30.7721 17.3998 31.1825 17.7775 31.4753C18.1553 31.7681 18.62 31.9266 19.098 31.9256C20.5686 31.9256 21.4342 30.7262 21.4342 28.9844C21.4342 27.4617 20.6207 26.158 19.1501 26.158C18.5682 26.2056 18.0236 26.4639 17.6184 26.8844C17.2133 27.3049 16.9754 27.8587 16.9495 28.4421V29.7458Z" stroke="black" stroke-width="2.34297" mask="url(#path-1-inside-1_7331_1808)"/>
<path d="M25.3019 25.2225L26.9811 29.7177C27.1584 30.2183 27.3461 30.8232 27.4713 31.2717C27.6173 30.8128 27.7737 30.2287 27.9615 29.6864L29.4842 25.2225H30.9548L28.8689 30.6459C27.8259 33.2533 27.1897 34.5988 26.2302 35.4123C25.7469 35.8537 25.1576 36.1627 24.5197 36.3092L24.1755 35.1411C24.6216 34.9946 25.0357 34.7645 25.3958 34.4632C25.9046 34.0485 26.3084 33.5197 26.5743 32.9196C26.6313 32.8157 26.6701 32.7028 26.6891 32.5858C26.6772 32.46 26.6455 32.3368 26.5952 32.2208L23.7583 25.2016H25.281L25.3019 25.2225Z" stroke="black" stroke-width="2.34297" mask="url(#path-1-inside-1_7331_1808)"/>
<path d="M34.6644 23.0348V25.2251H36.6669V26.268H34.6644V30.3773C34.6644 31.316 34.9356 31.8583 35.7074 31.8583C35.9815 31.8628 36.255 31.8313 36.5209 31.7645L36.5835 32.8074C36.1848 32.9456 35.7641 33.0092 35.3423 32.9952C35.0631 33.0127 34.7833 32.9695 34.5223 32.8687C34.2612 32.7679 34.0251 32.6118 33.83 32.4111C33.4052 31.8429 33.2114 31.1348 33.2877 30.4295V26.2576H32.0987V25.2146H33.3085V23.3581L34.6644 23.0348Z" stroke="black" stroke-width="2.34297" mask="url(#path-1-inside-1_7331_1808)"/>
<path d="M39.242 29.2774C39.2137 29.6311 39.2626 29.9868 39.3852 30.3198C39.5078 30.6528 39.7012 30.9552 39.9521 31.2061C40.203 31.457 40.5054 31.6504 40.8384 31.773C41.1714 31.8956 41.527 31.9444 41.8808 31.9161C42.5962 31.9321 43.307 31.7971 43.9667 31.5198L44.2066 32.5628C43.397 32.8963 42.5265 33.0562 41.6513 33.0321C41.1411 33.067 40.6293 32.9912 40.1512 32.8098C39.673 32.6284 39.2398 32.3457 38.8811 31.9811C38.5225 31.6165 38.2469 31.1786 38.0734 30.6976C37.8999 30.2165 37.8324 29.7036 37.8758 29.194C37.8758 26.8995 39.242 25.0847 41.474 25.0847C43.9771 25.0847 44.6029 27.2749 44.6029 28.6725C44.6163 28.8878 44.6163 29.1038 44.6029 29.3191H39.2108L39.242 29.2774ZM43.3305 28.2345C43.3707 27.9556 43.3507 27.6714 43.2719 27.4009C43.193 27.1305 43.057 26.88 42.8732 26.6666C42.6894 26.4531 42.4619 26.2815 42.2062 26.1633C41.9504 26.0452 41.6723 25.9832 41.3906 25.9816C40.8175 26.0231 40.2806 26.2771 39.8851 26.6939C39.4896 27.1106 39.264 27.66 39.2525 28.2345H43.3305Z" stroke="black" stroke-width="2.34297" mask="url(#path-1-inside-1_7331_1808)"/>
<path d="M46.7232 27.5945C46.7232 26.6975 46.7232 25.9257 46.6606 25.2165H47.9122V26.7079H47.9748C48.1061 26.2476 48.3776 25.8396 48.7514 25.5406C49.1251 25.2415 49.5828 25.0663 50.0607 25.0392C50.1923 25.0219 50.3255 25.0219 50.457 25.0392V26.3429C50.2976 26.3244 50.1367 26.3244 49.9773 26.3429C49.5038 26.3612 49.0532 26.5513 48.7097 26.8776C48.3661 27.2039 48.1531 27.6441 48.1104 28.1159C48.0714 28.3294 48.0504 28.5457 48.0478 28.7626V32.8197H46.6711V27.6049L46.7232 27.5945Z" stroke="black" stroke-width="2.34297" mask="url(#path-1-inside-1_7331_1808)"/>
<path d="M46.1086 4.27407C46.1514 4.97475 45.9847 5.67231 45.6297 6.2779C45.2747 6.88349 44.7474 7.3697 44.1151 7.67459C43.4828 7.97947 42.774 8.08922 42.0791 7.98988C41.3842 7.89053 40.7346 7.58657 40.213 7.11673C39.6915 6.64689 39.3216 6.03242 39.1505 5.35161C38.9794 4.6708 39.0148 3.95447 39.2522 3.29387C39.4897 2.63326 39.9184 2.05829 40.4838 1.6422C41.0491 1.2261 41.7256 0.987725 42.4269 0.957426C42.8867 0.932124 43.347 0.99797 43.7813 1.15118C44.2155 1.30439 44.6153 1.54194 44.9574 1.85016C45.2996 2.15839 45.5774 2.53122 45.775 2.9472C45.9725 3.36318 46.0859 3.81412 46.1086 4.27407Z" stroke="black" stroke-width="2.34297" mask="url(#path-1-inside-1_7331_1808)"/>
<path d="M25.4841 45.12C17.6045 45.12 10.5258 42.7461 5.93266 39.0409C5.42402 38.6306 4.61634 39.178 4.92632 39.7533C6.65616 42.9637 9.12178 45.7385 12.1393 47.8398C16.0551 50.5667 20.7124 52.0285 25.4841 52.0285C30.2559 52.0285 34.9132 50.5667 38.8291 47.8398C41.8434 45.7407 44.3069 42.9696 46.0365 39.7635C46.347 39.188 45.5383 38.6402 45.0295 39.051C40.4483 42.7504 33.3917 45.12 25.4841 45.12Z" stroke="black" stroke-width="2.34297" mask="url(#path-1-inside-1_7331_1808)"/>
<path d="M25.4841 12.769C33.3638 12.769 40.4424 15.1429 45.0356 18.848C45.5442 19.2583 46.3519 18.7109 46.0419 18.1356C44.3121 14.9252 41.8465 12.1505 38.8291 10.0492C34.9132 7.32227 30.2559 5.86043 25.4841 5.86043C20.7124 5.86043 16.0551 7.32227 12.1393 10.0492C9.12448 12.1486 6.66056 14.9203 4.93096 18.1271C4.62058 18.7025 5.42863 19.2497 5.93714 18.8387C10.522 15.1331 17.5736 12.769 25.4841 12.769Z" stroke="black" stroke-width="2.34297" mask="url(#path-1-inside-1_7331_1808)"/>
<path d="M12.5631 54.8015C12.6182 55.6841 12.4093 56.563 11.963 57.3264C11.5167 58.0898 10.8533 58.703 10.0572 59.088C9.26115 59.473 8.3685 59.6123 7.49301 59.4881C6.6175 59.364 5.79877 58.982 5.14113 58.3909C4.48349 57.7997 4.01672 57.0262 3.80028 56.1688C3.58384 55.3115 3.62754 54.4091 3.9258 53.5766C4.22405 52.7442 4.76338 52.0194 5.47504 51.4945C6.18672 50.9697 7.03852 50.6686 7.92192 50.6296C8.50062 50.5987 9.07976 50.682 9.62625 50.875C10.1727 51.0679 10.6758 51.3666 11.1068 51.754C11.5378 52.1414 11.8883 52.61 12.1382 53.1329C12.388 53.6558 12.5325 54.2228 12.5631 54.8015Z" stroke="black" stroke-width="2.34297" mask="url(#path-1-inside-1_7331_1808)"/>
<path d="M4.64925 11.6354C4.14346 11.6493 3.64483 11.5135 3.21607 11.2448C2.78731 10.9761 2.44756 10.5867 2.23954 10.1254C2.03153 9.66419 1.96454 9.15174 2.047 8.65252C2.12946 8.1533 2.35768 7.68961 2.70297 7.31976C3.04827 6.94991 3.49521 6.69041 3.9876 6.57389C4.47997 6.45738 4.99581 6.48905 5.47025 6.66493C5.94468 6.84081 6.35651 7.15305 6.65395 7.56237C6.95141 7.97169 7.12119 8.45982 7.14195 8.96538C7.16171 9.64897 6.91104 10.3128 6.44434 10.8127C5.97764 11.3126 5.33259 11.6082 4.64925 11.6354Z" stroke="black" stroke-width="2.34297" mask="url(#path-1-inside-1_7331_1808)"/>
</svg>
