<svg width="52" height="52" viewBox="0 0 52 52" fill="none" xmlns="http://www.w3.org/2000/svg">
<path d="M51.9492 42.6902C52.0009 42.5003 52.0133 42.3019 51.9856 42.1071C51.9579 41.9122 51.8908 41.7251 51.7882 41.5571L50.708 39.7699C50.5006 39.4357 50.1731 39.1937 49.7928 39.0936C49.4125 38.9934 49.0083 39.0428 48.6632 39.2314L48.3487 39.4059C47.9427 39.115 47.5052 38.8708 47.0445 38.6779V38.3868C47.0403 37.9897 46.8787 37.6104 46.5952 37.3323C46.3117 37.0541 45.9295 36.8998 45.5323 36.9032H43.3702C42.9734 36.9005 42.5918 37.0551 42.3089 37.3332C42.0259 37.6113 41.8647 37.9901 41.8605 38.3868V38.6779C41.3999 38.8709 40.9624 39.1151 40.5563 39.4059L40.2426 39.2322C39.8979 39.0432 39.4939 38.9933 39.1135 39.093C38.7332 39.1927 38.4055 39.4343 38.1979 39.7682L37.1143 41.558C37.0117 41.7258 36.9445 41.9128 36.9168 42.1075C36.8892 42.3022 36.9015 42.5005 36.9533 42.6902C37.0057 42.8834 37.0965 43.0641 37.2203 43.2214C37.3441 43.3788 37.4983 43.5096 37.6737 43.6061L37.9505 43.7587C37.8957 44.2189 37.8957 44.684 37.9505 45.1443L37.6737 45.2969C37.4983 45.3934 37.3441 45.5242 37.2203 45.6816C37.0965 45.8389 37.0057 46.0196 36.9533 46.2128C36.9016 46.4027 36.8892 46.6011 36.9169 46.7959C36.9446 46.9908 37.0117 47.1779 37.1143 47.3459L38.1945 49.1331C38.4019 49.4673 38.7294 49.7093 39.1097 49.8094C39.49 49.9096 39.8942 49.8602 40.2393 49.6716L40.5538 49.4971C40.9598 49.788 41.3973 50.0322 41.858 50.2251V50.5162C41.8622 50.9133 42.0238 51.2925 42.3073 51.5707C42.5908 51.8488 42.973 52.0032 43.3702 51.9998H45.5323C45.9291 52.0025 46.3107 51.8479 46.5936 51.5698C46.8766 51.2917 47.0378 50.9129 47.042 50.5162V50.2251C47.5026 50.0321 47.9401 49.7879 48.3462 49.4971L48.6599 49.6707C49.0045 49.8602 49.4087 49.9103 49.7891 49.8106C50.1696 49.7109 50.4972 49.469 50.7046 49.1348L51.7857 47.345C51.8883 47.1772 51.9555 46.9902 51.9831 46.7955C52.0108 46.6008 51.9984 46.4025 51.9467 46.2128C51.8943 46.0196 51.8035 45.8389 51.6797 45.6816C51.5559 45.5242 51.4017 45.3934 51.2263 45.2969L50.9495 45.1443C51.0043 44.684 51.0043 44.2189 50.9495 43.7587L51.2263 43.6061C51.4022 43.5099 51.5569 43.3792 51.6811 43.2218C51.8053 43.0644 51.8965 42.8836 51.9492 42.6902ZM49.3157 44.4515C49.3154 44.6583 49.3005 44.8649 49.2713 45.0696C49.2333 45.3638 49.285 45.6626 49.4197 45.9269C49.5544 46.1912 49.7658 46.4086 50.0261 46.5508L50.2366 46.6665L49.3501 48.1351L49.0767 47.9841C48.8159 47.8443 48.5207 47.7814 48.2255 47.8028C47.9303 47.8241 47.6473 47.9289 47.4094 48.1049C47.0769 48.3486 46.7151 48.5496 46.3325 48.7029C46.0512 48.8096 45.8085 48.9985 45.636 49.245C45.4636 49.4915 45.3693 49.7842 45.3654 50.0851V50.3224H43.5354V50.0851C43.5316 49.7844 43.4374 49.4919 43.265 49.2456C43.0927 48.9992 42.8503 48.8104 42.5692 48.7037C42.1861 48.55 41.824 48.3485 41.4915 48.104C41.2529 47.9287 40.9696 47.8244 40.6743 47.8032C40.379 47.782 40.0837 47.8447 39.8224 47.9841L39.5507 48.1351L38.6642 46.6665L38.8756 46.5499C39.1358 46.4079 39.3471 46.1906 39.4818 45.9265C39.6165 45.6623 39.6683 45.3637 39.6304 45.0696C39.5711 44.6597 39.5711 44.2433 39.6304 43.8334C39.6684 43.5392 39.6166 43.2404 39.4819 42.9761C39.3472 42.7118 39.1359 42.4944 38.8756 42.3522L38.665 42.2365L39.5516 40.7679L39.825 40.9189C40.0857 41.0591 40.3809 41.1222 40.6762 41.1008C40.9715 41.0795 41.2545 40.9744 41.4923 40.7981C41.8247 40.5543 42.1866 40.3534 42.5692 40.2001C42.8505 40.0934 43.0932 39.9045 43.2656 39.658C43.4381 39.4115 43.5324 39.1188 43.5362 38.8179V38.5806H45.368V38.8179C45.3718 39.1185 45.466 39.4111 45.6383 39.6574C45.8106 39.9038 46.0531 40.0926 46.3341 40.1993C46.7172 40.353 47.0793 40.5545 47.4119 40.7989C47.6502 40.9748 47.9336 41.0795 48.229 41.1007C48.5245 41.1219 48.8199 41.0589 49.0809 40.9189L49.3526 40.7679L50.2383 42.2365L50.0269 42.3531C49.7667 42.4951 49.5554 42.7124 49.4207 42.9765C49.286 43.2407 49.2342 43.5393 49.2721 43.8334C49.3011 44.0381 49.3157 44.2447 49.3157 44.4515Z" fill="black"/>
<path d="M44.4513 41.0967C43.7877 41.0967 43.1391 41.2934 42.5874 41.6621C42.0357 42.0307 41.6057 42.5547 41.3518 43.1677C41.0979 43.7807 41.0315 44.4552 41.1609 45.106C41.2903 45.7568 41.6099 46.3545 42.079 46.8237C42.5482 47.2929 43.146 47.6124 43.7968 47.7418C44.4475 47.8713 45.1221 47.8049 45.7351 47.5509C46.3481 47.297 46.872 46.867 47.2407 46.3153C47.6093 45.7636 47.8061 45.115 47.8061 44.4515C47.8061 43.5617 47.4526 42.7084 46.8235 42.0793C46.1943 41.4501 45.341 41.0967 44.4513 41.0967ZM44.4513 46.1289C44.1195 46.1289 43.7952 46.0305 43.5193 45.8462C43.2435 45.6619 43.0285 45.3999 42.9015 45.0934C42.7746 44.7869 42.7414 44.4496 42.8061 44.1242C42.8708 43.7989 43.0306 43.5 43.2651 43.2654C43.4997 43.0308 43.7986 42.871 44.124 42.8063C44.4494 42.7416 44.7867 42.7748 45.0932 42.9018C45.3997 43.0287 45.6616 43.2437 45.846 43.5196C46.0303 43.7954 46.1287 44.1197 46.1287 44.4515C46.1287 44.8964 45.9519 45.323 45.6374 45.6376C45.3228 45.9522 44.8961 46.1289 44.4513 46.1289Z" fill="black"/>
<path d="M51.1609 0.000244141H19.2902C19.0677 0.000244141 18.8544 0.0886072 18.6971 0.245894C18.5398 0.403182 18.4515 0.616509 18.4515 0.838947V12.5808H10.0644C9.842 12.5808 9.62867 12.6691 9.47138 12.8264C9.31409 12.9837 9.22573 13.1971 9.22573 13.4195V22.6452H0.838703C0.616265 22.6452 0.402938 22.7336 0.24565 22.8909C0.088363 23.0482 0 23.2615 0 23.4839V40.258C0 40.4804 0.088363 40.6937 0.24565 40.851C0.402938 41.0083 0.616265 41.0967 0.838703 41.0967H24.3224C24.5448 41.0967 24.7581 41.0083 24.9154 40.851C25.0727 40.6937 25.1611 40.4804 25.1611 40.258V32.7097H36.9029C37.1254 32.7097 37.3387 32.6213 37.496 32.464C37.6533 32.3067 37.7416 32.0934 37.7416 31.871V23.4839H51.1609C51.3833 23.4839 51.5966 23.3956 51.7539 23.2383C51.9112 23.081 51.9996 22.8677 51.9996 22.6452V0.838947C51.9996 0.616509 51.9112 0.403182 51.7539 0.245894C51.5966 0.0886072 51.3833 0.000244141 51.1609 0.000244141ZM23.4837 39.4193H1.67741V24.3226H23.4837V39.4193ZM36.0642 31.0322H25.1611V23.4839C25.1611 23.2615 25.0727 23.0482 24.9154 22.8909C24.7581 22.7336 24.5448 22.6452 24.3224 22.6452H10.9031V14.2582H36.0642V31.0322ZM50.3222 21.8065H37.7416V13.4195C37.7416 13.1971 37.6533 12.9837 37.496 12.8264C37.3387 12.6691 37.1254 12.5808 36.9029 12.5808H20.1289V1.67765H50.3222V21.8065Z" fill="black"/>
<path d="M14.2579 43.6128H12.5805V48.645C12.5805 48.8674 12.6689 49.0808 12.8262 49.2381C12.9835 49.3954 13.1968 49.4837 13.4192 49.4837H34.3868V47.8063H14.2579V43.6128Z" fill="black"/>
<path d="M31.032 35.2258H29.3546V41.9354C29.3546 42.1578 29.443 42.3712 29.6003 42.5284C29.7575 42.6857 29.9709 42.7741 30.1933 42.7741H34.3868V41.0967H31.032V35.2258Z" fill="black"/>
<path d="M46.1287 26H44.4513V34.3871H46.1287V26Z" fill="black"/>
<path d="M48.6448 3.35506H46.9674V5.03246H48.6448V3.35506Z" fill="black"/>
<path d="M45.29 3.35506H43.6125V5.03246H45.29V3.35506Z" fill="black"/>
<path d="M34.3868 15.9356H32.7094V17.613H34.3868V15.9356Z" fill="black"/>
<path d="M31.032 15.9356H29.3546V17.613H31.032V15.9356Z" fill="black"/>
<path d="M21.8063 26H20.1289V27.6774H21.8063V26Z" fill="black"/>
<path d="M18.4515 26H16.7741V27.6774H18.4515V26Z" fill="black"/>
</svg>
