<svg width="50" height="60" viewBox="0 0 50 60" fill="none" xmlns="http://www.w3.org/2000/svg">
<path d="M27.9024 4.71229L43.6688 12.5337L43.8915 12.2837C44.4311 11.7441 45.181 11.4075 46.0077 11.4075C46.8344 11.4075 47.5818 11.7441 48.1238 12.2837C48.6634 12.8233 49 13.5732 49 14.3999C49 15.2265 48.6659 15.974 48.1238 16.516C47.7253 16.9145 47.2155 17.2016 46.6413 17.3253V27.5501C46.6388 27.7827 46.5101 28.0055 46.2874 28.1168L39.6736 31.3988L43.6684 33.3789L43.8912 33.1289C44.4307 32.5893 45.1807 32.2527 46.0073 32.2527C46.8315 32.2527 47.584 32.5868 48.1235 33.1289C48.6631 33.6684 48.9997 34.4184 48.9997 35.245C48.9997 36.0717 48.6655 36.8192 48.1235 37.3612C47.725 37.7597 47.2151 38.0468 46.641 38.1705V48.3952C46.6385 48.6279 46.5098 48.8507 46.287 48.962L25.3231 59.3648C25.229 59.4217 25.1177 59.4539 24.9989 59.4539C24.8801 59.4539 24.7712 59.4217 24.6746 59.3648L3.75506 48.9867C3.52241 48.8927 3.35657 48.6625 3.35657 48.4001V45.6751C3.35657 45.3261 3.64121 45.0415 3.99019 45.0415C4.33918 45.0415 4.62381 45.3261 4.62381 45.6751V48.0115L24.3598 57.8054V48.6008C23.788 48.4771 23.2757 48.1899 22.8797 47.7915C22.3401 47.2519 22.0035 46.5019 22.0035 45.6753C22.0035 45.4229 22.0357 45.1778 22.0951 44.9427L6.32877 37.1213L6.10602 37.3713C5.70753 37.7698 5.19766 38.0569 4.62348 38.1806V46.2893C4.62348 46.6383 4.33884 46.9229 3.98986 46.9229C3.64087 46.9229 3.35624 46.6383 3.35624 46.2893V38.1806C2.7845 38.0569 2.27218 37.7698 1.87617 37.3713C1.3366 36.8318 1 36.0818 1 35.2552C1 34.4285 1.33661 33.6785 1.87617 33.139C2.41573 32.5994 3.16571 32.2628 3.99233 32.2628C4.81895 32.2628 5.56896 32.5994 6.10849 33.139L6.33372 33.389L10.3285 31.4089L3.75724 28.1493C3.52458 28.0552 3.35875 27.825 3.35875 27.5627V17.338C2.78701 17.2142 2.27469 16.9271 1.87868 16.5287C1.33911 15.9891 1.00251 15.2391 1.00251 14.4125C1.00251 13.5858 1.33912 12.8359 1.87868 12.2963C2.41824 11.7568 3.16822 11.4202 3.99484 11.4202C4.82152 11.4202 5.57147 11.7568 6.111 12.2963L6.33623 12.5463L22.1026 4.72492C22.0432 4.48979 22.011 4.24476 22.011 3.99233C22.011 3.16565 22.3476 2.41569 22.8872 1.87617C23.4267 1.3366 24.1767 1 25.0033 1C25.83 1 26.5775 1.33661 27.1195 1.87617C27.6591 2.41573 27.9957 3.16571 27.9957 3.99233C27.9957 4.24479 27.9635 4.48982 27.9041 4.72492L27.9024 4.71229ZM35.2239 9.75647L27.3385 5.84337L27.1157 6.09335C26.5762 6.63291 25.8262 6.96951 24.9996 6.96951C24.1729 6.96951 23.4254 6.6329 22.8834 6.09335L22.6607 5.84337L6.89432 13.6648C6.95372 13.8999 6.98589 14.1449 6.98589 14.3973C6.98589 14.6498 6.95372 14.8973 6.89432 15.1299L22.6607 22.9513L22.8834 22.7013C23.423 22.1618 24.173 21.8252 24.9996 21.8252C25.8238 21.8252 26.5762 22.1593 27.1157 22.7013L27.3385 22.9513L31.0709 21.1C31.3852 20.9465 31.7639 21.0727 31.9173 21.3871C32.0708 21.7014 31.9446 22.0801 31.6302 22.2335L27.9003 24.0824C27.9597 24.3175 27.9919 24.5626 27.9919 24.815C27.9919 25.6417 27.6578 26.3892 27.1157 26.9312C26.7172 27.3297 26.2074 27.6167 25.6332 27.7405V36.9451L45.3691 27.1512V17.3175C44.7974 17.1937 44.2851 16.9066 43.8866 16.5081L43.6638 16.2582L31.5681 22.2752C31.2538 22.4286 30.875 22.3024 30.7216 21.9881C30.5682 21.6737 30.6944 21.295 31.0087 21.1416L43.1001 15.1246C43.0407 14.8919 43.0085 14.6444 43.0085 14.392C43.0085 14.1395 43.0407 13.892 43.1001 13.6594L35.2191 9.75126L35.2239 9.75647ZM22.0984 24.0868L6.33206 16.2654L6.1093 16.5154C5.71081 16.9139 5.20094 17.201 4.62676 17.3247V27.1585L24.3627 36.9524V27.7478C23.791 27.624 23.2787 27.3369 22.8827 26.9385C22.3431 26.3989 22.0065 25.6489 22.0065 24.8223C22.0065 24.5698 22.0387 24.3223 22.0981 24.0897L22.0984 24.0868ZM24.6749 38.5162L11.7504 32.1034L6.89674 34.5116C6.95614 34.7443 6.98831 34.9918 6.98831 35.2442C6.98831 35.4967 6.95614 35.7442 6.89674 35.9768L22.6631 43.7982L22.8883 43.5482C23.4279 43.0087 24.1779 42.6721 25.0045 42.6721C25.8287 42.6721 26.5811 43.0062 27.1206 43.5482L27.3459 43.7982L43.1122 35.9768C43.0528 35.7417 43.0206 35.4967 43.0206 35.2442C43.0206 34.9918 43.0528 34.7443 43.1122 34.5116L38.2586 32.1034L25.3315 38.5188C25.2374 38.5757 25.126 38.6079 25.0072 38.6079C24.8884 38.6079 24.7795 38.5757 24.683 38.5188L24.6749 38.5162ZM43.6639 37.1079L27.8975 44.9293C27.9569 45.1644 27.9891 45.4095 27.9891 45.6619C27.9891 46.4886 27.6525 47.2385 27.1129 47.778C26.7145 48.1765 26.2046 48.4636 25.6329 48.5874V57.792L45.3688 47.9981V38.1624C44.7971 38.0387 44.2848 37.7516 43.8863 37.3531L43.6635 37.1031L43.6639 37.1079ZM24.9968 5.70397C25.472 5.70397 25.9027 5.51091 26.2146 5.19905C26.5264 4.88719 26.7195 4.45651 26.7195 3.9813C26.7195 3.50608 26.5264 3.07294 26.2146 2.76355C25.9027 2.45168 25.472 2.25863 24.9968 2.25863C24.5216 2.25863 24.0909 2.45168 23.7791 2.76355C23.4672 3.07541 23.2742 3.50608 23.2742 3.9813C23.2742 4.45651 23.4672 4.88718 23.7791 5.19905C24.0909 5.51091 24.5216 5.70397 24.9968 5.70397ZM46 16.1238C46.4752 16.1238 46.9084 15.9308 47.2178 15.6189C47.5296 15.3071 47.7227 14.8764 47.7227 14.4012C47.7227 13.926 47.5296 13.4928 47.2178 13.1834C46.9059 12.8716 46.4752 12.6785 46 12.6785C45.5248 12.6785 45.0917 12.8716 44.7823 13.1834C44.4704 13.4953 44.2774 13.926 44.2774 14.4012C44.2774 14.8764 44.4704 15.3071 44.7823 15.6189C45.0941 15.9308 45.5248 16.1238 46 16.1238ZM3.98792 16.1238C4.46313 16.1238 4.89628 15.9308 5.20567 15.6189C5.51753 15.3071 5.71059 14.8764 5.71059 14.4012C5.71059 13.926 5.51753 13.4928 5.20567 13.1834C4.89381 12.8716 4.46313 12.6785 3.98792 12.6785C3.5127 12.6785 3.08203 12.8716 2.77017 13.1834C2.45831 13.4953 2.26525 13.926 2.26525 14.4012C2.26525 14.8764 2.45831 15.3071 2.77017 15.6189C3.08203 15.9308 3.5127 16.1238 3.98792 16.1238ZM24.9911 26.5462C25.4663 26.5462 25.8995 26.3532 26.2089 26.0413C26.5207 25.7295 26.7138 25.2988 26.7138 24.8236C26.7138 24.3483 26.5207 23.9152 26.2089 23.6058C25.897 23.2939 25.4663 23.1009 24.9911 23.1009C24.5159 23.1009 24.0852 23.2939 23.7734 23.6058C23.4615 23.9177 23.2685 24.3483 23.2685 24.8236C23.2685 25.2988 23.4615 25.7294 23.7734 26.0413C24.0852 26.3532 24.5159 26.5462 24.9911 26.5462ZM24.9911 47.3891C25.4663 47.3891 25.897 47.1961 26.2089 46.8842C26.5207 46.5724 26.7138 46.1417 26.7138 45.6665C26.7138 45.1912 26.5207 44.7581 26.2089 44.4487C25.897 44.1369 25.4663 43.9438 24.9911 43.9438C24.5159 43.9438 24.0852 44.1369 23.7734 44.4487C23.4615 44.7606 23.2685 45.1912 23.2685 45.6665C23.2685 46.1417 23.4615 46.5748 23.7734 46.8842C24.0852 47.1961 24.5159 47.3891 24.9911 47.3891ZM45.9943 36.9667C46.4695 36.9667 46.9027 36.7737 47.2121 36.4618C47.5239 36.15 47.717 35.7193 47.717 35.2441C47.717 34.7688 47.5239 34.3357 47.2121 34.0263C46.9002 33.7145 46.4695 33.5214 45.9943 33.5214C45.5191 33.5214 45.086 33.7145 44.7766 34.0263C44.4647 34.3382 44.2717 34.7688 44.2717 35.2441C44.2717 35.7193 44.4647 36.1499 44.7766 36.4618C45.0884 36.7737 45.5191 36.9667 45.9943 36.9667ZM3.98222 36.9667C4.45743 36.9667 4.89057 36.7737 5.19997 36.4618C5.51183 36.15 5.70489 35.7193 5.70489 35.2441C5.70489 34.7688 5.51183 34.3382 5.19997 34.0263C4.88811 33.7145 4.45743 33.5214 3.98222 33.5214C3.507 33.5214 3.07633 33.7145 2.76446 34.0263C2.4526 34.3382 2.25955 34.7688 2.25955 35.2441C2.25955 35.7193 2.4526 36.1499 2.76446 36.4618C3.07632 36.7737 3.507 36.9667 3.98222 36.9667Z" fill="black" stroke="black" stroke-width="0.5"/>
</svg>
