<svg width="54" height="54" viewBox="0 0 54 54" fill="none" xmlns="http://www.w3.org/2000/svg">
<path d="M53.3298 46.701L48.2365 37.8759L50.1716 33.2039L53.5734 31.1095C53.836 30.9475 53.9959 30.6613 53.9959 30.3529V23.6384C53.9959 23.3299 53.836 23.0431 53.5734 22.8817L50.1716 20.7873L47.7749 14.9982L48.6975 11.1145C48.7691 10.8148 48.6793 10.499 48.4613 10.281L43.715 5.53195C43.4963 5.31327 43.1804 5.22417 42.8807 5.29572L38.9937 6.22109L33.2045 3.82431L31.1102 0.422524C30.9482 0.159965 30.662 0 30.3535 0H23.6424C23.334 0 23.0471 0.159965 22.8858 0.422524L20.7914 3.82431L15.0023 6.22109L11.1152 5.29572C10.8155 5.22417 10.499 5.31394 10.281 5.53195L5.53465 10.281C5.31664 10.499 5.22755 10.8142 5.29842 11.1145L6.22109 15.0016L3.82431 20.788L0.422523 22.8824C0.159965 23.0444 0 23.3306 0 23.639V30.3535C0 30.662 0.159965 30.9488 0.422523 31.1102L3.82431 33.2045L6.22109 38.9937L5.29842 42.8807C5.22755 43.1811 5.31664 43.4963 5.53465 43.7143L10.281 48.4606C10.4996 48.6786 10.8148 48.7684 11.1152 48.6969L15.0023 47.7715L20.7914 50.1683L22.8858 53.5701C23.0478 53.8326 23.334 53.9926 23.6424 53.9926H49.118C50.9033 53.9926 52.4381 53.1064 53.3298 51.5614C54.2234 50.0164 54.2234 48.2453 53.3298 46.701ZM15.416 46.0186C15.2432 45.9471 15.0522 45.9322 14.87 45.9754L11.1868 46.8522L7.1424 42.8079L8.01647 39.1239C8.05967 38.9424 8.04415 38.7514 7.9726 38.5786L5.35579 32.2576C5.28424 32.0848 5.16005 31.939 5.00076 31.8405L1.77649 29.8554V24.1338L5.00076 22.1487C5.16005 22.0509 5.28424 21.9051 5.35579 21.7323L7.9726 15.4147C8.04415 15.2419 8.05967 15.0509 8.01647 14.8693L7.14173 11.1854L11.1861 7.13835L14.8693 8.01512C15.0509 8.05832 15.2426 8.04347 15.4154 7.97193L21.7363 5.35512C21.9091 5.28357 22.0549 5.15938 22.1535 5.00009L24.1385 1.77581H29.8568L31.8418 5.00009C31.9397 5.15938 32.0861 5.28357 32.2589 5.35512L38.5799 7.97193C38.7527 8.04347 38.9437 8.059 39.126 8.01512L42.8092 7.13835L46.8535 11.1854L45.9795 14.8659C45.9363 15.0475 45.9518 15.2385 46.0227 15.4113L48.6395 21.7323C48.711 21.9051 48.8352 22.0509 48.9945 22.1494L52.2188 24.1345V29.8561L48.9945 31.8411C48.8352 31.939 48.711 32.0848 48.6395 32.2576L47.1161 35.9354L43.5678 29.7926C43.7231 28.8774 43.8021 27.9385 43.8021 26.9949C43.8021 17.7298 36.2628 10.1925 26.9963 10.1925C17.7298 10.1925 10.1939 17.7305 10.1939 26.9949C10.1939 35.0533 15.904 41.9149 23.6768 43.4686L21.8119 46.6997C21.494 47.2491 21.2915 47.8268 21.1997 48.4127L15.416 46.0186ZM24.6211 41.8325C17.37 40.6838 11.9717 34.406 11.9717 26.9956C11.9717 18.7105 18.7119 11.9704 26.997 11.9704C35.2821 11.9704 42.0249 18.7105 42.0249 26.9956C42.0249 27.0368 42.0235 27.0773 42.0235 27.1185L41.7812 26.6993C40.8923 25.1537 39.3575 24.2674 37.5688 24.2674C35.7802 24.2674 34.2474 25.1543 33.3598 26.6986L27.5835 36.6981L24.6204 41.8319L24.6211 41.8325ZM51.7902 50.6725C51.2158 51.6673 50.2668 52.2154 49.118 52.2154H26.0237C24.8742 52.2154 23.9252 51.6674 23.3508 50.6718C22.7758 49.6782 22.7758 48.5841 23.3508 47.5899L29.1238 37.5877L34.9007 27.5869C35.4717 26.5927 36.4194 26.0453 37.5695 26.0453C38.7196 26.0453 39.67 26.5927 40.241 27.5869L46.0179 37.5877L51.7915 47.5913C52.3666 48.5848 52.3666 49.6789 51.7915 50.6731L51.7902 50.6725ZM37.5688 31.725C36.7629 31.725 35.9813 32.0612 35.4245 32.6464C34.8906 33.2079 34.6179 33.9328 34.6564 34.6868L34.9648 40.7486C35.0411 42.1828 36.1852 43.3066 37.5688 43.3066C38.9619 43.3066 40.106 42.1808 40.1728 40.7472L40.4846 34.6874C40.5231 33.9342 40.2504 33.2099 39.7165 32.6484C39.159 32.0618 38.3761 31.725 37.5688 31.725ZM38.3977 40.6601C38.3747 41.1475 38.0109 41.5295 37.5688 41.5295C37.1227 41.5295 36.7663 41.1535 36.74 40.6568L36.4315 34.5977C36.418 34.3344 36.5179 34.0773 36.713 33.8721C36.9357 33.6379 37.2475 33.5036 37.5688 33.5036C37.8901 33.5036 38.2046 33.6385 38.428 33.8741C38.6231 34.0793 38.7223 34.3358 38.7095 34.5977L38.3977 40.6615V40.6601ZM37.5688 44.4838C36.1325 44.4838 34.9635 45.6541 34.9635 47.0918C34.9635 48.5295 36.1325 49.6998 37.5688 49.6998C39.0051 49.6998 40.1769 48.5295 40.1769 47.0918C40.1769 45.6541 39.0065 44.4838 37.5688 44.4838ZM37.5688 47.9227C37.1125 47.9227 36.7413 47.5501 36.7413 47.0918C36.7413 46.6335 37.1125 46.2609 37.5688 46.2609C38.0251 46.2609 38.3997 46.6335 38.3997 47.0918C38.3997 47.5501 38.0271 47.9227 37.5688 47.9227Z" fill="black"/>
</svg>
