<svg width="57" height="57" viewBox="0 0 57 57" fill="none" xmlns="http://www.w3.org/2000/svg">
<g clip-path="url(#clip0_5079_3649)">
<path d="M32.3464 31.455L28.0742 29.5707L28.7931 27.9408L31.4354 29.1076L32.6004 26.4648L34.2312 27.1828L32.3464 31.455Z" fill="black"/>
<path d="M13.7118 37.6601L12.0811 36.9421L13.9658 32.6699L18.238 34.5542L17.5192 36.1842L14.8769 35.0174L13.7118 37.6601Z" fill="black"/>
<path d="M31.0099 30.4593C30.248 26.7277 26.9652 24.0475 23.1565 24.0475C19.3479 24.0475 16.065 26.7277 15.3031 30.4593L13.5566 30.1027C14.4855 25.5392 18.499 22.2598 23.1565 22.2598C27.814 22.2598 31.8275 25.5392 32.7564 30.1027L31.0099 30.4593Z" fill="black"/>
<path d="M23.1565 41.8595C18.5042 41.8494 14.4968 38.5779 13.5566 34.0221L15.3031 33.6655C16.065 37.3972 19.3479 40.0773 23.1565 40.0773C26.9652 40.0773 30.248 37.3972 31.0099 33.6655L32.7564 34.0221C31.8162 38.5779 27.8088 41.8494 23.1565 41.8595Z" fill="black"/>
<path d="M10.6875 24.9375H8.90625V19.5938H14.25V21.375H10.6875V24.9375Z" fill="black"/>
<path d="M3.5625 48.0938H8.90625V49.875H3.5625V48.0938Z" fill="black"/>
<path d="M19.5938 0V5.34375H14.25V10.6875H8.90625V16.0312H5.34375V44.5312H0V51.6562C0.00304413 54.6064 2.39355 56.997 5.34375 57H35.625C38.5752 56.997 40.9657 54.6064 40.9688 51.6562V16.0312H10.6875V12.4688H44.5312V44.5312H46.3125V10.6875H16.0312V7.125H49.875V39.1875H51.6562V5.34375H21.375V1.78125H55.2188V33.8438H57V0H19.5938ZM5.34375 55.2188C3.37637 55.2188 1.78125 53.6236 1.78125 51.6562V46.3125H30.2812V51.6562C30.2804 52.9713 30.7661 54.2403 31.6446 55.2188H5.34375ZM39.1875 17.8125V51.6562C39.1875 53.6236 37.5924 55.2188 35.625 55.2188C33.6576 55.2188 32.0625 53.6236 32.0625 51.6562V44.5312H7.125V17.8125H39.1875Z" fill="black"/>
<path d="M55.2188 37.4062H57V42.75H55.2188V37.4062Z" fill="black"/>
<path d="M49.875 42.75H51.6562V48.0938H49.875V42.75Z" fill="black"/>
<path d="M44.5312 48.0938H46.3125V53.4375H44.5312V48.0938Z" fill="black"/>
</g>
<defs>
<clipPath id="clip0_5079_3649">
<rect width="57" height="57" fill="white"/>
</clipPath>
</defs>
</svg>
