<svg width="57" height="57" viewBox="0 0 57 57" fill="none" xmlns="http://www.w3.org/2000/svg">
<g clip-path="url(#clip0_5079_3668)">
<path d="M56.0327 34.8553C55.2147 33.9266 53.5616 33.4676 51.7119 34.5352C49.4722 35.8283 43.9576 38.5199 39.7391 40.1402C39.8702 39.3756 39.7262 38.5821 39.3076 37.8777C38.6739 36.8112 37.5594 36.2014 36.325 36.2406C31.123 36.2379 27.7548 34.8405 24.7825 33.6076C22.0629 32.4794 19.7141 31.5052 16.9247 32.1802C14.1241 32.8581 11.1483 35.1687 7.31682 39.6502C6.30807 39.1905 5.07645 39.372 4.24772 40.2009L0.594826 43.8537C0.247037 44.2015 0.247037 44.7654 0.594826 45.1132L11.8869 56.4054C12.0539 56.5724 12.2805 56.6663 12.5167 56.6663C12.753 56.6663 12.9794 56.5724 13.1465 56.4054L16.7995 52.7524C17.3145 52.2374 17.5982 51.5508 17.5982 50.8189C17.5982 50.502 17.5449 50.1939 17.4428 49.9042C19.7459 48.9583 22.3187 48.878 25.5993 49.0743C26.3452 49.1189 27.1287 49.1819 27.9581 49.2487C29.9287 49.4076 31.9668 49.5714 33.9371 49.528C38.0767 49.4365 40.6829 48.2183 43.9127 46.5074C47.3044 44.7106 54.5399 40.4176 55.8957 38.6351C56.8714 37.3525 56.9251 35.8687 56.0324 34.8553H56.0327ZM15.5401 51.493L12.5168 54.5162L2.48429 44.4835L5.5074 41.4603C5.87913 41.0888 6.48386 41.0888 6.85547 41.4603L15.5401 50.1449C15.7186 50.3235 15.8169 50.5628 15.8169 50.8189C15.8169 51.0749 15.7185 51.3143 15.5401 51.493ZM54.4783 37.5567C53.5338 38.7983 47.47 42.6074 43.0791 44.9333C39.9721 46.5792 37.6545 47.6642 33.898 47.7472C32.0185 47.7885 30.0271 47.6284 28.1012 47.4732C27.2624 47.4057 26.4702 47.3419 25.7058 47.2961C22.7638 47.1201 19.4007 47.057 16.3509 48.4366L8.69473 40.7804C12.21 36.6746 14.9665 34.4868 17.3438 33.9115C19.5684 33.3731 21.4693 34.1616 24.1001 35.2529C27.074 36.4865 30.7752 38.0218 36.3406 38.0218C36.3519 38.0218 36.3631 38.0216 36.3742 38.0212C36.9543 37.9993 37.4782 38.2858 37.7763 38.7875C38.0744 39.2893 38.0756 39.8866 37.7791 40.3854C37.5955 40.6945 37.2405 40.9579 36.724 41.1685C36.7217 41.1695 36.7196 41.1707 36.7172 41.1716C36.7149 41.1725 36.7126 41.1731 36.7103 41.1741C33.8773 42.3176 27.8497 41.3466 25.9696 40.3683C25.5333 40.1411 24.9955 40.3107 24.7684 40.7471C24.5413 41.1835 24.7109 41.7213 25.1472 41.9484C26.5936 42.7012 30.0654 43.4631 33.2291 43.4631C34.7615 43.4631 36.2215 43.2837 37.3439 42.8385C41.5748 41.6471 49.73 37.7363 52.6023 36.078C53.5741 35.5172 54.3686 35.6614 54.6957 36.0327C55.0121 36.392 54.9307 36.9618 54.4781 37.5568L54.4783 37.5567ZM17.2909 18.4277C17.4499 18.7036 17.7441 18.8736 18.0627 18.8736H24.839L20.6519 30.658C20.5098 31.058 20.6698 31.5029 21.0342 31.7207C21.1764 31.8056 21.3341 31.8468 21.4908 31.8468C21.7356 31.8468 21.9774 31.746 22.1513 31.5541L39.5975 12.294C39.834 12.0329 39.8944 11.6571 39.7516 11.335C39.6088 11.0131 39.2897 10.8054 38.9375 10.8054H31.3683L35.4513 3.73343C35.6104 3.45789 35.6104 3.11834 35.4513 2.8428C35.2922 2.56727 34.9982 2.39749 34.68 2.39749H26.5773C26.2595 2.39749 25.9659 2.56671 25.8066 2.84158L17.2922 17.5364C17.1324 17.812 17.1321 18.1518 17.291 18.4276L17.2909 18.4277ZM27.0905 4.17874H33.1374L29.0543 11.2508C28.8952 11.5263 28.8952 11.8658 29.0543 12.1414C29.2134 12.4169 29.5074 12.5867 29.8256 12.5867H36.929L23.8219 27.0566L26.9397 18.2812C27.0366 18.0086 26.995 17.7059 26.8281 17.4694C26.6612 17.233 26.3899 17.0925 26.1005 17.0925H19.608L27.0905 4.17874ZM38.5045 1.54194C38.3964 1.25838 38.4403 0.939205 38.6207 0.695174C38.8012 0.451254 39.0934 0.31599 39.3963 0.336252L43.2872 0.597428C43.7779 0.630381 44.1491 1.05488 44.1161 1.54572C44.0832 2.03657 43.6583 2.40651 43.1678 2.37467L42.4366 2.32557C44.7264 4.2127 46.6348 6.56673 47.9963 9.19441C49.5982 12.2858 50.4449 15.7723 50.4449 19.2772C50.4449 25.8104 47.5634 31.9581 42.5394 36.1444C42.2272 36.4046 41.9029 36.6597 41.5757 36.9029C41.4162 37.0214 41.2298 37.0787 41.0452 37.0787C40.773 37.0787 40.5044 36.9544 40.3296 36.7192C40.0363 36.3243 40.1185 35.7664 40.5133 35.4731C40.8141 35.2495 41.1121 35.015 41.3991 34.7758C46.0159 30.929 48.6637 25.28 48.6637 19.2771C48.6637 13.2109 45.8913 7.42886 41.2006 3.61542L41.4601 4.29653C41.6353 4.75609 41.4046 5.27076 40.945 5.44588C40.4855 5.62122 39.9708 5.39033 39.7957 4.93076L38.5045 1.54182V1.54194ZM9.17388 30.2479C7.45676 27.0629 6.555 23.4938 6.555 19.8433C6.555 11.6916 11.034 4.25589 18.2441 0.437783C18.6789 0.207445 19.2178 0.373324 19.4479 0.808061C19.6781 1.24269 19.5124 1.78174 19.0776 2.01185C12.4521 5.52047 8.33614 12.353 8.33614 19.8432C8.33614 23.2474 9.18902 26.5736 10.8121 29.5318L10.8301 28.7965C10.8421 28.3048 11.2513 27.9175 11.7422 27.928C12.234 27.9401 12.6228 28.3485 12.6108 28.8403L12.5217 32.4657C12.5143 32.7691 12.3527 33.0478 12.0932 33.2053C11.9517 33.2912 11.7918 33.3345 11.6313 33.3345C11.4975 33.3345 11.3635 33.3043 11.2395 33.2436L7.73764 31.5277C7.296 31.3113 7.11342 30.7778 7.32973 30.3361C7.54604 29.8943 8.07964 29.712 8.52139 29.9282L9.17366 30.2478L9.17388 30.2479Z" fill="black"/>
</g>
<defs>
<clipPath id="clip0_5079_3668">
<rect width="57" height="57" fill="white"/>
</clipPath>
</defs>
</svg>
