<svg width="57" height="57" viewBox="0 0 57 57" fill="none" xmlns="http://www.w3.org/2000/svg">
<path d="M27.6094 24.0469H29.3906V31.1719H27.6094V24.0469Z" fill="black"/>
<path d="M10.7998 34.425L11.7965 32.9478L17.7035 36.9321L16.7067 38.4098L10.7998 34.425Z" fill="black"/>
<path d="M17.9316 27.228L19.4741 26.3374L23.0366 32.5074L21.4941 33.3985L17.9316 27.228Z" fill="black"/>
<path d="M39.2979 36.9339L45.2039 32.9482L46.2006 34.4251L40.295 38.4111L39.2979 36.9339Z" fill="black"/>
<path d="M26.7188 43.6406H30.2812V45.4219H26.7188V43.6406Z" fill="black"/>
<path d="M0 6.23438V48.0938H23.3424C24.5105 49.7911 26.4396 50.8052 28.5 50.8052C30.5604 50.8052 32.4895 49.7911 33.6576 48.0938H57V6.23438H0ZM28.5 48.9452C26.0621 48.9452 24.086 46.9692 24.086 44.5312C24.086 42.0933 26.0621 40.1173 28.5 40.1173C30.9379 40.1173 32.914 42.0933 32.914 44.5312C32.9114 46.9679 30.9366 48.9426 28.5 48.9452ZM32.3887 39.6176C31.9207 39.2462 31.4024 38.9435 30.8496 38.7183L40.8635 20.0695L42.433 20.9119L32.3887 39.6176ZM55.2188 46.3125H34.5117C35.0536 44.5025 34.7452 42.5447 33.6728 40.9892L34.9127 38.687C36.373 40.283 37.1832 42.3677 37.1836 44.5312H38.9648C38.9614 41.7111 37.8163 39.0122 35.7907 37.0501L41.8024 25.8538C42.84 26.5935 43.8146 27.4176 44.7165 28.3174C49.0305 32.6083 51.4492 38.4465 51.4336 44.5312H53.2148C53.2327 37.9729 50.626 31.6802 45.9759 27.0553C44.95 26.0334 43.8372 25.1019 42.6504 24.2721L44.8457 20.1852L40.136 17.6586L37.9672 21.6981C30.3404 18.5374 21.639 19.3928 14.7736 23.9786C7.90821 28.5648 3.78603 36.2751 3.78516 44.5312H5.56641C5.57119 36.9031 9.36635 29.7759 15.6925 25.5137C22.0191 21.2515 30.0499 20.4118 37.1214 23.2728L31.1423 34.4056C28.0055 33.582 24.664 34.2608 22.0978 36.2438C19.5311 38.2264 18.0304 41.2879 18.0352 44.5312H19.8164C19.8073 41.9155 20.9819 39.4358 23.0119 37.7859C25.0419 36.136 27.709 35.4928 30.2678 36.0364L29.0601 38.286C28.8757 38.2695 28.6887 38.2577 28.5 38.2577C26.52 38.2543 24.6548 39.1875 23.4702 40.7744C22.2856 42.3617 21.9216 44.4151 22.4883 46.3125H1.78125V15.1406H55.2188V46.3125ZM55.2188 13.3594H1.78125V8.01562H55.2188V13.3594Z" fill="black"/>
<path d="M3.5625 9.79688H5.34375V11.5781H3.5625V9.79688Z" fill="black"/>
<path d="M10.6875 9.79688H12.4688V11.5781H10.6875V9.79688Z" fill="black"/>
<path d="M7.125 9.79688H8.90625V11.5781H7.125V9.79688Z" fill="black"/>
<path d="M16.0312 9.79688H53.4375V11.5781H16.0312V9.79688Z" fill="black"/>
<path d="M8.01562 42.75H15.1406V44.5312H8.01562V42.75Z" fill="black"/>
<path d="M41.8594 42.75H48.9844V44.5312H41.8594V42.75Z" fill="black"/>
</svg>
