<svg width="57" height="57" viewBox="0 0 57 57" fill="none" xmlns="http://www.w3.org/2000/svg">
<g clip-path="url(#clip0_5079_3660)">
<path d="M26.4155 36.7651C25.9257 36.7651 25.4714 36.4979 25.2399 36.0437C24.9727 35.5271 25.0528 34.9304 25.4447 34.5029L29.408 30.2902C29.7286 29.9429 29.7108 29.3907 29.3635 29.0612L27.511 27.3334C27.1636 27.0038 26.6114 27.0306 26.2819 27.3779L22.3275 31.5995C21.9357 32.0181 21.3389 32.1428 20.8135 31.9112C20.288 31.6796 19.9763 31.1542 20.0208 30.5842L20.386 25.6679C20.4572 24.8307 20.8046 24.047 21.3657 23.4502L24.1889 20.4399C24.946 19.6384 26.0058 19.2287 27.1013 19.291L30.076 19.4959C30.5925 19.5315 31.1002 19.3356 31.4653 18.9526L43.2572 6.64416C43.5957 6.28791 44.1657 6.279 44.513 6.61744C44.8692 6.95587 44.8782 7.51697 44.5397 7.87322L32.7567 20.1817C32.0264 20.9476 31.0022 21.3484 29.9513 21.2682L26.9855 21.0634C26.4244 21.0188 25.8811 21.2415 25.4893 21.6512L22.666 24.6615C22.381 24.9643 22.2028 25.374 22.1672 25.8015L21.9 29.4531L24.9994 26.1488C26.0058 25.089 27.6802 25.0356 28.74 26.0331L30.5925 27.7609C31.6524 28.7673 31.7058 30.4417 30.7172 31.5104L27.6089 34.8057L31.2516 34.2892C31.6791 34.2268 32.0532 34.0309 32.3471 33.7192L35.1703 30.7088C35.5533 30.2992 35.7314 29.7381 35.6602 29.1859L35.2594 26.2468C35.1258 25.1781 35.4642 24.1271 36.1857 23.3701L47.9775 11.0706C48.316 10.7143 48.886 10.7054 49.2333 11.0438C49.5896 11.3823 49.5985 11.9434 49.26 12.2996L37.4682 24.5992C37.1208 24.9643 36.9516 25.4898 37.0228 26.0063L37.4236 28.9454C37.5661 30.0409 37.2188 31.1274 36.4707 31.929L33.6474 34.9393C33.0774 35.5449 32.3114 35.9457 31.4921 36.0615L26.6114 36.7473C26.5491 36.7562 26.4778 36.7651 26.4155 36.7651Z" fill="black"/>
<path d="M28.482 46.9548C18.3143 46.9548 10.0371 38.6777 10.0371 28.5001C10.0371 18.3226 18.3143 10.0454 28.482 10.0454C29.0208 10.0454 29.4616 10.4862 29.4616 11.025C29.4616 11.5637 29.0208 12.0045 28.482 12.0045C19.3918 12.0045 11.9962 19.4001 11.9962 28.5001C11.9962 37.6001 19.3918 44.9957 28.482 44.9957C37.582 44.9957 44.9776 37.6001 44.9776 28.5001C44.9776 27.9614 45.4184 27.5206 45.9572 27.5206C46.496 27.5206 46.9367 27.9614 46.9367 28.5001C46.9367 38.6777 38.6596 46.9548 28.482 46.9548Z" fill="black"/>
<path d="M34.5977 56.9956H22.3827C21.8929 56.9956 21.4717 56.6332 21.413 56.1434L20.933 52.4407C19.5616 52.0097 18.2196 51.4514 16.9168 50.7755L13.9586 53.0578C13.5668 53.3615 13.0182 53.3223 12.6656 52.9795L4.02595 44.3496C3.68311 44.0068 3.64393 43.4484 3.93779 43.0664L6.21035 40.0984C5.53446 38.7858 4.97611 37.434 4.54511 36.0626L0.852208 35.5729C0.362433 35.5141 0 35.0929 0 34.6031V22.3881C0 21.8983 0.362433 21.4771 0.852208 21.4184L4.55491 20.9384C4.97611 19.5768 5.53446 18.2348 6.21035 16.9124L3.93779 13.9444C3.63413 13.5526 3.67331 13.004 4.02595 12.6514L12.6656 4.02155C13.0084 3.67871 13.5668 3.63953 13.9586 3.94319L16.9168 6.21575C18.2196 5.54965 19.5714 4.99131 20.933 4.56031L21.413 0.847814C21.4717 0.358039 21.8929 -0.00439453 22.3827 -0.00439453H28.4853C29.0241 -0.00439453 29.4649 0.436403 29.4649 0.975155V11.0253C29.4649 11.5641 29.0241 12.0049 28.4853 12.0049C27.9466 12.0049 27.5058 11.5641 27.5058 11.0253V1.9645H23.2447L22.7941 5.4419C22.7451 5.83372 22.4709 6.15697 22.0888 6.25493C20.453 6.71532 18.8367 7.38141 17.2891 8.23362C16.9462 8.41973 16.525 8.39035 16.2213 8.15526L13.4492 6.01984L6.02423 13.435L8.15965 16.2169C8.39474 16.5206 8.42413 16.9418 8.23801 17.2847C7.37601 18.8421 6.71971 20.4584 6.26912 22.0845C6.16137 22.4665 5.83812 22.7408 5.4463 22.7897L1.9591 23.2403V33.7215L5.4365 34.1721C5.82832 34.2211 6.15157 34.4953 6.24953 34.8774C6.71971 36.523 7.38581 38.1393 8.23801 39.6968C8.42413 40.0396 8.39474 40.451 8.15965 40.7645L6.02423 43.5464L13.4492 50.9616L16.2213 48.8262C16.525 48.5911 16.9462 48.5519 17.2891 48.7478C18.8367 49.6 20.453 50.2661 22.0888 50.7265C22.4709 50.8342 22.7451 51.1575 22.7941 51.5395L23.2447 55.0267H33.7357L34.1863 51.5395C34.2353 51.1477 34.5095 50.8244 34.8916 50.7265C36.5274 50.2661 38.1437 49.6 39.6914 48.7478C40.0342 48.5617 40.4456 48.5911 40.7591 48.8262L43.5606 50.9714L50.9758 43.5562L48.8306 40.7547C48.5955 40.4412 48.5661 40.02 48.7522 39.687C49.5946 38.1687 50.2607 36.5524 50.7211 34.897C50.8288 34.5149 51.1521 34.2407 51.5439 34.1917L55.0409 33.7411V29.4801H45.9605C45.4217 29.4801 44.9809 29.0393 44.9809 28.5005C44.9809 27.9618 45.4217 27.521 45.9605 27.521H56.0205C56.5592 27.521 57 27.9618 57 28.5005V34.5933C57 35.0831 56.6376 35.5043 56.1478 35.5631L52.4353 36.043C52.0141 37.4242 51.4557 38.776 50.7799 40.069L53.0622 43.0566C53.3561 43.4484 53.3267 43.997 52.974 44.3398L44.3442 52.9697C44.0014 53.3125 43.443 53.3517 43.061 53.0578L40.0734 50.7755C38.7706 51.4514 37.4188 52.0097 36.0572 52.4407L35.5772 56.1532C35.5087 56.6332 35.0875 56.9956 34.5977 56.9956Z" fill="black"/>
</g>
<defs>
<clipPath id="clip0_5079_3660">
<rect width="57" height="57" fill="white"/>
</clipPath>
</defs>
</svg>
