<svg width="38" height="38" viewBox="0 0 38 38" fill="none" xmlns="http://www.w3.org/2000/svg">
<g clip-path="url(#clip0_6434_6574)">
<mask id="mask0_6434_6574" style="mask-type:luminance" maskUnits="userSpaceOnUse" x="0" y="0" width="38" height="38">
<path d="M38 0H0V38H38V0Z" fill="white"/>
</mask>
<g mask="url(#mask0_6434_6574)">
<path d="M36.4452 19.0002C36.4452 9.29363 28.5767 1.425 18.8702 1.425C18.1239 1.425 17.5188 2.03006 17.5188 2.77642C17.5188 3.52277 18.1239 4.12781 18.8702 4.12781C27.0839 4.12781 33.7424 10.7863 33.7424 19.0002C33.7424 27.2139 27.0839 33.8723 18.8702 33.8723C18.1239 33.8723 17.5188 34.4774 17.5188 35.2237C17.5188 35.97 18.1239 36.5752 18.8702 36.5752C28.5767 36.5752 36.4452 28.7065 36.4452 19.0002ZM12.868 2.49875C13.57 2.2452 14.3446 2.60872 14.5982 3.3107C14.8517 4.01267 14.4882 4.78728 13.7862 5.04082C12.156 5.62965 10.6419 6.50015 9.31317 7.61258C8.74091 8.0917 7.88857 8.0162 7.40947 7.44392C6.93032 6.87164 7.00585 6.01932 7.57813 5.54019C9.14954 4.22456 10.9401 3.19508 12.868 2.49875ZM7.40882 30.5571C7.88751 29.9845 8.73977 29.9083 9.31241 30.3871C10.6424 31.4988 12.1568 32.3695 13.7872 32.9599C14.4889 33.2139 14.8519 33.9887 14.5978 34.6906C14.3437 35.3923 13.5688 35.7553 12.8671 35.5011C10.9404 34.8036 9.15066 33.7748 7.57889 32.4607C7.00627 31.9821 6.93011 31.1298 7.40882 30.5571ZM5.50559 9.71807C4.85929 9.34476 4.03273 9.56605 3.65942 10.2124C2.63347 11.9885 1.92793 13.9313 1.57506 15.9519C1.44666 16.6871 1.93859 17.3872 2.67383 17.5156C3.40905 17.644 4.10918 17.1521 4.23759 16.4168C4.53592 14.7085 5.13243 13.0659 5.99986 11.5642C6.37317 10.9179 6.15187 10.0914 5.50559 9.71807ZM2.67404 20.4826C3.4093 20.3543 4.10934 20.8464 4.23762 21.5817C4.53579 23.2908 5.13233 24.9339 5.99989 26.4362C6.37317 27.0824 6.15182 27.9089 5.50551 28.2823C4.85919 28.6556 4.03265 28.4343 3.65938 27.7879C2.63325 26.0112 1.9277 24.0675 1.57502 22.0463C1.44674 21.311 1.93878 20.611 2.67404 20.4826Z" fill="#F15A29"/>
<mask id="mask1_6434_6574" style="mask-type:luminance" maskUnits="userSpaceOnUse" x="12" y="10" width="14" height="18">
<path d="M12.238 10.4384H25.762V27.5622H12.238V10.4384Z" fill="white"/>
</mask>
<g mask="url(#mask1_6434_6574)">
<path d="M21.6066 10.7033C21.0774 10.3108 20.3267 10.3544 19.847 10.8342C19.8033 10.8848 19.7597 10.9353 19.7161 10.9858C19.3235 11.5149 19.3672 12.2657 19.847 12.7454C20.28 13.178 20.713 13.6106 21.146 14.0432C18.628 14.0434 16.1101 14.0435 13.5921 14.0436C13.531 14.0477 13.4699 14.0518 13.4088 14.0559C12.7492 14.1454 12.2408 14.7108 12.2408 15.395C12.2408 16.1414 12.8458 16.7464 13.5921 16.7464C17.1974 16.7464 20.8027 16.7464 24.4079 16.7464C24.4696 16.7425 24.5313 16.7385 24.593 16.7346C25.6714 16.5949 26.17 15.2459 25.3634 14.4394C24.1617 13.2377 22.9599 12.0359 21.7582 10.8342C21.7076 10.7906 21.6571 10.747 21.6066 10.7033ZM25.7594 22.6056C25.7594 21.8591 25.1542 21.2542 24.4079 21.2542C20.8027 21.2542 17.1974 21.2542 13.5921 21.2542C13.5305 21.2581 13.4688 21.262 13.4072 21.2659C12.3287 21.4058 11.83 22.7546 12.6366 23.5611C13.8383 24.7629 15.04 25.9646 16.2418 27.1664C16.2923 27.21 16.3428 27.2537 16.3933 27.2973C16.9224 27.6898 17.6732 27.6461 18.1529 27.1664C18.1966 27.1158 18.2402 27.0653 18.2838 27.0148C18.6763 26.4858 18.6327 25.7349 18.1529 25.2552C17.7193 24.8219 17.2857 24.3887 16.8521 23.9554C19.3707 23.9559 21.8893 23.9564 24.4079 23.9569C24.469 23.9528 24.5302 23.9487 24.5913 23.9446C25.2509 23.8551 25.7594 23.2898 25.7594 22.6056Z" fill="#F15A29"/>
</g>
</g>
</g>
<defs>
<clipPath id="clip0_6434_6574">
<rect width="38" height="38" fill="white"/>
</clipPath>
</defs>
</svg>
