<svg width="36" height="36" viewBox="0 0 36 36" fill="none" xmlns="http://www.w3.org/2000/svg">
<path d="M16.18 31.55C15.9822 31.3504 15.8708 31.081 15.87 30.8V29.29C15.8636 29.0619 15.7844 28.8419 15.6441 28.662C15.5038 28.4821 15.3096 28.3517 15.09 28.29C14.2921 28.0641 13.5235 27.7452 12.8 27.34C12.5962 27.2263 12.3608 27.1824 12.1297 27.2149C11.8987 27.2474 11.6845 27.3545 11.52 27.52L10.45 28.59C10.2495 28.7897 9.978 28.9018 9.695 28.9018C9.412 28.9018 9.14053 28.7897 8.94 28.59L7.44 27.05C7.24032 26.8495 7.12821 26.578 7.12821 26.295C7.12821 26.012 7.24032 25.7405 7.44 25.54L8.51 24.47C8.6732 24.3062 8.77895 24.0939 8.8114 23.865C8.84385 23.636 8.80125 23.4027 8.69 23.2C8.28435 22.4767 7.96548 21.708 7.74 20.91C7.67825 20.6904 7.54792 20.4962 7.36801 20.3559C7.18811 20.2156 6.96807 20.1364 6.74 20.13H5.2C4.91703 20.1274 4.64638 20.0138 4.44628 19.8137C4.24618 19.6136 4.13261 19.343 4.13 19.06V16.93C4.1352 16.6488 4.24991 16.3807 4.44973 16.1827C4.64956 15.9847 4.91873 15.8726 5.2 15.87H6.71C6.93807 15.8636 7.15811 15.7844 7.33801 15.6441C7.51792 15.5038 7.64825 15.3096 7.71 15.09C7.93512 14.2918 8.25401 13.5231 8.66 12.8C8.77368 12.5962 8.81762 12.3608 8.78512 12.1297C8.75263 11.8987 8.64548 11.6845 8.48 11.52L7.44 10.46C7.24272 10.2582 7.13225 9.98721 7.13225 9.705C7.13225 9.42279 7.24272 9.15179 7.44 8.95L8.95 7.44C9.15053 7.24032 9.422 7.12821 9.705 7.12821C9.988 7.12821 10.2595 7.24032 10.46 7.44L11.53 8.51C11.6945 8.67548 11.9087 8.78263 12.1397 8.81512C12.3708 8.84762 12.6062 8.80368 12.81 8.69C13.5333 8.28443 14.302 7.96556 15.1 7.74C15.3196 7.67825 15.5138 7.54792 15.6541 7.36801C15.7944 7.18811 15.8736 6.96807 15.88 6.74V5.2C15.88 4.91622 15.9927 4.64406 16.1934 4.4434C16.3941 4.24273 16.6662 4.13 16.95 4.13H19.08V2H16.93C16.0813 2 15.2674 2.33714 14.6673 2.93726C14.0671 3.53737 13.73 4.35131 13.73 5.2V5.93C13.3045 6.0814 12.8873 6.25497 12.48 6.45L12 5.93C11.4001 5.33156 10.5873 4.99548 9.74 4.99548C8.89265 4.99548 8.07989 5.33156 7.48 5.93L5.93 7.44C5.33878 8.04369 5.00766 8.85502 5.00766 9.7C5.00766 10.545 5.33878 11.3563 5.93 11.96L6.45 12.48C6.25465 12.8872 6.08107 13.3044 5.93 13.73H5.2C4.35373 13.7378 3.54434 14.0775 2.94591 14.6759C2.34748 15.2743 2.00782 16.0837 2 16.93V19.06C2.00782 19.9063 2.34748 20.7157 2.94591 21.3141C3.54434 21.9125 4.35373 22.2522 5.2 22.26H5.93C6.0814 22.6855 6.25497 23.1027 6.45 23.51L5.93 24C5.33156 24.5999 4.99548 25.4127 4.99548 26.26C4.99548 27.1073 5.33156 27.9201 5.93 28.52L7.44 30.03C8.04118 30.626 8.85345 30.9604 9.7 30.9604C10.5465 30.9604 11.3588 30.626 11.96 30.03L12.48 29.51C12.8873 29.705 13.3045 29.8786 13.73 30.03V30.76C13.7336 31.6077 14.0714 32.4198 14.67 33.02C14.9659 33.3182 15.318 33.5548 15.7059 33.7162C16.0938 33.8775 16.5099 33.9604 16.93 33.96H19.06V31.87H16.93C16.6478 31.8654 16.3786 31.7506 16.18 31.55Z" fill="#F15A29"/>
<path d="M30.7999 27.6C30.1694 27.6006 29.5533 27.7885 29.0299 28.14L22.9099 23.55C22.7251 23.4123 22.5004 23.3386 22.2699 23.34H17.9999C17.1512 23.34 16.3373 23.0029 15.7372 22.4027C15.1371 21.8026 14.7999 20.9887 14.7999 20.14V15.87C14.7999 15.0213 15.1371 14.2074 15.7372 13.6073C16.3373 13.0071 17.1512 12.67 17.9999 12.67H22.2699C22.5004 12.6714 22.7251 12.5977 22.9099 12.46L28.9999 7.86C29.5902 8.26158 30.2978 8.45423 31.0102 8.4073C31.7226 8.36038 32.3988 8.07658 32.9313 7.60104C33.4639 7.12551 33.822 6.48556 33.9489 5.78299C34.0758 5.08043 33.9641 4.35561 33.6316 3.72383C33.2991 3.09206 32.7649 2.58963 32.1139 2.29647C31.463 2.0033 30.7327 1.93624 30.0392 2.10595C29.3457 2.27567 28.7289 2.67241 28.2869 3.23306C27.8449 3.79371 27.6031 4.48607 27.5999 5.2C27.6044 5.52298 27.6583 5.84337 27.7599 6.15L21.9099 10.54H17.9999C16.5863 10.54 15.2306 11.1015 14.231 12.1011C13.2315 13.1007 12.6699 14.4564 12.6699 15.87V20.14C12.6699 21.5536 13.2315 22.9093 14.231 23.9089C15.2306 24.9084 16.5863 25.47 17.9999 25.47H21.9099L27.7599 29.86C27.6583 30.1666 27.6044 30.487 27.5999 30.81C27.5999 31.4429 27.7876 32.0616 28.1392 32.5878C28.4908 33.1141 28.9906 33.5242 29.5753 33.7664C30.1601 34.0086 30.8035 34.072 31.4242 33.9485C32.045 33.825 32.6151 33.5203 33.0627 33.0727C33.5102 32.6252 33.815 32.055 33.9384 31.4343C34.0619 30.8135 33.9985 30.1701 33.7563 29.5854C33.5141 29.0007 33.104 28.5009 32.5777 28.1493C32.0515 27.7977 31.4328 27.61 30.7999 27.61V27.6ZM30.7999 4.13C31.0115 4.13 31.2184 4.19275 31.3944 4.31032C31.5703 4.4279 31.7075 4.59501 31.7885 4.79052C31.8695 4.98604 31.8906 5.20118 31.8494 5.40874C31.8081 5.6163 31.7062 5.80696 31.5565 5.9566C31.4069 6.10624 31.2162 6.20815 31.0087 6.24944C30.8011 6.29072 30.586 6.26953 30.3905 6.18855C30.1949 6.10756 30.0278 5.97042 29.9102 5.79446C29.7927 5.6185 29.7299 5.41162 29.7299 5.2C29.7299 4.91621 29.8427 4.64406 30.0433 4.44339C30.244 4.24273 30.5161 4.13 30.7999 4.13ZM30.7999 31.86C30.5883 31.86 30.3814 31.7972 30.2055 31.6797C30.0295 31.5621 29.8924 31.395 29.8114 31.1995C29.7304 31.004 29.7092 30.7888 29.7505 30.5812C29.7918 30.3737 29.8937 30.183 30.0433 30.0334C30.193 29.8837 30.3836 29.7818 30.5912 29.7406C30.7987 29.6993 31.0139 29.7205 31.2094 29.8014C31.4049 29.8824 31.572 30.0196 31.6896 30.1955C31.8072 30.3715 31.8699 30.5784 31.8699 30.79C31.8712 30.9314 31.8445 31.0716 31.7914 31.2025C31.7382 31.3335 31.6596 31.4527 31.5601 31.5531C31.4606 31.6535 31.3422 31.7332 31.2117 31.7876C31.0812 31.842 30.9413 31.87 30.7999 31.87V31.86Z" fill="#F15A29"/>
<path d="M30.8 14.8C30.1412 14.8018 29.4991 15.0075 28.962 15.3889C28.4248 15.7703 28.0189 16.3086 27.8 16.93H18V19.06H27.8C27.9978 19.6096 28.3427 20.0944 28.7971 20.4615C29.2515 20.8286 29.798 21.0638 30.3769 21.1416C30.9559 21.2194 31.545 21.1367 32.0802 20.9025C32.6154 20.6684 33.076 20.2918 33.4118 19.8138C33.7476 19.3359 33.9457 18.7749 33.9846 18.192C34.0234 17.6092 33.9014 17.0268 33.632 16.5085C33.3625 15.9903 32.9559 15.5559 32.4566 15.2529C31.9572 14.9498 31.3841 14.7897 30.8 14.79V14.8ZM30.8 19.07C30.5884 19.07 30.3815 19.0072 30.2055 18.8897C30.0296 18.7721 29.8924 18.605 29.8115 18.4095C29.7305 18.2139 29.7093 17.9988 29.7506 17.7912C29.7918 17.5837 29.8938 17.393 30.0434 17.2434C30.193 17.0937 30.3837 16.9918 30.5913 16.9506C30.7988 16.9093 31.014 16.9305 31.2095 17.0114C31.405 17.0924 31.5721 17.2296 31.6897 17.4055C31.8072 17.5815 31.87 17.7884 31.87 18C31.87 18.2838 31.7573 18.5559 31.5566 18.7566C31.3559 18.9573 31.0838 19.07 30.8 19.07Z" fill="#F15A29"/>
</svg>
