<svg width="35" height="38" viewBox="0 0 35 38" fill="none" xmlns="http://www.w3.org/2000/svg">
<g clip-path="url(#clip0_6434_6590)">
<path d="M25.3782 19.25C30.5352 19.25 34.7502 23.4161 34.7502 28.5C34.7502 33.5839 30.5352 37.75 25.3782 37.75C20.2211 37.75 16.0061 33.5839 16.0061 28.5C16.0061 23.4161 20.2211 19.25 25.3782 19.25ZM25.3782 21.125C21.274 21.125 17.9114 24.4402 17.9114 28.5C17.9114 32.5598 21.274 35.875 25.3782 35.875C29.4823 35.875 32.845 32.5598 32.845 28.5C32.845 24.4402 29.4823 21.125 25.3782 21.125Z" fill="#F15A29" stroke="#F3F3F3" stroke-width="0.5"/>
<path d="M26.3306 24V27.5625H29.939V29.4375H24.4253V24H26.3306Z" fill="#F15A29" stroke="#F15A29" stroke-width="0.5"/>
<path d="M6.01367 4.75H8.41917V7.125H6.01367V4.75Z" fill="#F15A29"/>
<path d="M6.01367 14.25H8.41917V16.625H6.01367V14.25Z" fill="#F15A29"/>
<path d="M6.01367 23.75H8.41917V26.125H6.01367V23.75Z" fill="#F15A29"/>
<path d="M29.1162 12.2451L29.042 12.1719L28.5605 11.6973L28.4873 11.625H2.78418L2.71094 11.6973L2.22949 12.1719L2.15527 12.2451V18.6299L2.22949 18.7031L2.71094 19.1777L2.78418 19.25H12.9805V21.125H2.78418L2.71094 21.1973L2.22949 21.6719L2.15527 21.7451V28.1299L2.22949 28.2031L2.71094 28.6777L2.78418 28.75H12.9805V30.625H2.02637L0.25 28.8701V21.0039L0.897461 20.3652L1.07715 20.1875L0.897461 20.0098L0.25 19.3701V11.5039L0.897461 10.8652L1.07715 10.6875L0.897461 10.5098L0.25 9.87012V2.00391L2.02637 0.25H29.2451L31.0215 2.00391V9.87012L30.374 10.5098L30.1943 10.6875L30.374 10.8652L31.0215 11.5039V16.375H29.1162V12.2451ZM29.1162 2.74512L29.042 2.67188L28.5605 2.19727L28.4873 2.125H2.78418L2.71094 2.19727L2.22949 2.67188L2.15527 2.74512V9.12988L2.22949 9.20312L2.71094 9.67773L2.78418 9.75H28.4873L28.5605 9.67773L29.042 9.20312L29.1162 9.12988V2.74512Z" fill="#F15A29" stroke="#F3F3F3" stroke-width="0.5"/>
</g>
<defs>
<clipPath id="clip0_6434_6590">
<rect width="35" height="38" fill="#F15A29"/>
</clipPath>
</defs>
</svg>
