<svg width="50" height="50" viewBox="0 0 50 50" fill="none" xmlns="http://www.w3.org/2000/svg">
<path d="M17.1296 17.2395C17.1296 16.8006 17.4859 16.4444 17.9247 16.4444H21.5274C21.9662 16.4444 22.3225 16.8006 22.3225 17.2395C22.3225 17.6783 21.9662 18.0346 21.5274 18.0346H17.9247C17.4859 18.0346 17.1296 17.6783 17.1296 17.2395ZM17.9247 28.0075H21.5274C21.9662 28.0075 22.3225 27.6512 22.3225 27.2124C22.3225 26.7735 21.9662 26.4173 21.5274 26.4173H17.9247C17.4859 26.4173 17.1296 26.7735 17.1296 27.2124C17.1296 27.6512 17.4859 28.0075 17.9247 28.0075ZM21.525 36.3903H17.9223C17.4835 36.3903 17.1272 36.7465 17.1272 37.1854C17.1272 37.6242 17.4835 37.9805 17.9223 37.9805H21.525C21.9639 37.9805 22.3201 37.6242 22.3201 37.1854C22.3201 36.7465 21.9639 36.3903 21.525 36.3903ZM47.9993 35.489V38.4594C47.9993 38.7709 47.8176 39.0516 47.5368 39.1814L45.5031 40.1204L44.8424 41.7153L45.6163 43.8152C45.7248 44.1054 45.6516 44.4333 45.4322 44.6527L43.3324 46.7526C43.113 46.972 42.7874 47.0428 42.4948 46.9366L40.3903 46.1651L38.7954 46.8234L37.8563 48.8571C37.7266 49.1402 37.4435 49.3196 37.1344 49.3196H34.1639C33.8525 49.3196 33.5717 49.1379 33.442 48.8571L32.503 46.8234L30.9081 46.1651L28.8035 46.9366C28.5133 47.0428 28.1854 46.972 27.966 46.7526L25.8661 44.6527C25.6467 44.4333 25.5759 44.1054 25.6821 43.8152L26.1563 42.5293C24.1296 42.8172 21.9307 42.9658 19.7202 42.9658C15.386 42.9658 11.2999 42.4067 8.21106 41.3945C4.80182 40.2738 2.99927 38.7355 2.99927 36.9424L3.00635 7.02357C3.00635 5.23043 4.8089 3.68983 8.21814 2.57147C11.3042 1.5593 15.3906 1.00012 19.7248 1.00012C24.0613 1.00012 28.1499 1.55693 31.2339 2.57147C34.6431 3.68983 36.4457 5.23043 36.4457 7.02357V24.627H37.1346C37.4461 24.627 37.7268 24.8086 37.8566 25.0894L38.7956 27.1231L40.3905 27.7838L42.4904 27.01C42.7806 26.9038 43.1085 26.9746 43.3279 27.194L45.4301 29.2938C45.6495 29.5133 45.7227 29.8412 45.6141 30.1314L44.8403 32.2312L45.5009 33.8261L47.5347 34.7675C47.8155 34.8973 47.9972 35.1804 47.9972 35.4895L47.9993 35.489ZM4.59691 7.02341C4.59691 8.87314 10.3513 11.4566 19.7251 11.4566C29.0991 11.4566 34.8558 8.87549 34.8558 7.02341C34.8558 5.17132 29.099 2.59022 19.7251 2.59022C10.3512 2.59022 4.59691 5.17132 4.59691 7.02341ZM4.59691 16.999C4.59691 18.851 10.3513 21.4322 19.7251 21.4322C29.0991 21.4322 34.8558 18.851 34.8558 16.999V9.71541C33.9899 10.3784 32.7772 10.9706 31.2342 11.4779C28.1481 12.49 24.0617 13.0492 19.7251 13.0492C15.3886 13.0492 11.3024 12.4924 8.2184 11.4779C6.67538 10.9706 5.46503 10.3784 4.59679 9.71541L4.59691 16.999ZM4.59691 26.9697C4.59691 28.8218 10.3513 31.4053 19.7251 31.4053C21.8839 31.4053 24.0333 31.2567 25.9964 30.9735L25.685 30.1313C25.5764 29.8411 25.6496 29.5131 25.869 29.2937L27.9688 27.1939C28.1883 26.9744 28.5162 26.9037 28.8064 27.0098L30.9109 27.7837L32.5059 27.123L33.4449 25.0893C33.5746 24.8061 33.8578 24.6268 34.1668 24.6268H34.8557V19.6887C33.9899 20.3517 32.7772 20.9439 31.2341 21.4511C28.1481 22.4657 24.0593 23.0225 19.7251 23.0225C15.3886 23.0225 11.3048 22.4633 8.21596 21.4511C6.67294 20.9439 5.4626 20.3517 4.59436 19.6887V26.9698L4.59691 26.9697ZM19.7251 41.3761C21.9335 41.3761 24.1277 41.2204 26.1329 40.9255L25.7979 40.1186L23.7641 39.1796C23.481 39.0498 23.3017 38.7667 23.3017 38.4576V35.4872C23.3017 35.1781 23.481 34.895 23.7641 34.7653L25.7979 33.8239L26.3334 32.5286C24.2525 32.8353 22.0323 32.991 19.7227 32.991C15.3886 32.991 11.3 32.4319 8.21364 31.4197C6.67062 30.9124 5.46028 30.3202 4.59204 29.6572V36.9408C4.59204 38.7905 10.3465 41.374 19.7203 41.374L19.7251 41.3761ZM46.4096 35.9992L44.5551 35.1404C44.3734 35.0554 44.2295 34.9068 44.154 34.7228L43.2551 32.5521C43.1772 32.3681 43.1749 32.1605 43.2433 31.9717L43.9488 30.0559L42.5662 28.6757L40.6504 29.3812C40.4616 29.4496 40.2564 29.4472 40.07 29.3694L37.8993 28.4704C37.7153 28.3926 37.5643 28.251 37.4817 28.0694L36.6276 26.2149H34.6764L33.8223 28.0694C33.7374 28.251 33.5887 28.3949 33.4047 28.4704L31.2341 29.3694C31.05 29.4472 30.8424 29.4496 30.6537 29.3812L28.7355 28.6757L27.3553 30.0559L28.0607 31.9717C28.1291 32.1605 28.1268 32.3658 28.0489 32.5521L27.15 34.7228C27.0721 34.9068 26.9306 35.0578 26.7489 35.1404L24.8945 35.9992V37.9528L26.7489 38.8069C26.9306 38.8918 27.0745 39.0404 27.15 39.2245L28.0489 41.3951C28.1268 41.5791 28.1291 41.7868 28.0607 41.9755L27.3553 43.8913L28.7355 45.2716L30.6537 44.5684C30.8401 44.5 31.0477 44.5047 31.2317 44.5802L33.4023 45.4768C33.5887 45.5547 33.7374 45.6962 33.8199 45.8779L34.6741 47.7323H36.6253L37.4794 45.8779C37.5643 45.6962 37.7129 45.5523 37.897 45.4768L40.0676 44.5802C40.2516 44.5047 40.4569 44.5 40.6456 44.5684L42.5638 45.2716L43.944 43.8913L43.2386 41.9755C43.1702 41.7868 43.1725 41.5815 43.2504 41.3951L44.1493 39.2245C44.2272 39.0404 44.3687 38.8894 44.5504 38.8069L46.4048 37.9528V35.9992H46.4096ZM40.7023 36.976C40.7023 39.76 38.435 42.0274 35.6509 42.0274C32.8669 42.0274 30.5995 39.76 30.5995 36.976C30.5995 34.1919 32.8645 31.9246 35.6509 31.9246C38.4373 31.9246 40.7023 34.1919 40.7023 36.976ZM39.1121 36.976C39.1121 35.0672 37.5597 33.5148 35.6509 33.5148C33.7422 33.5148 32.1897 35.0672 32.1897 36.976C32.1897 38.8847 33.7422 40.4372 35.6509 40.4372C37.5597 40.4372 39.1121 38.8847 39.1121 36.976Z" fill="black"/>
</svg>
