<svg width="44" height="44" viewBox="0 0 44 44" fill="none" xmlns="http://www.w3.org/2000/svg">
<path fill-rule="evenodd" clip-rule="evenodd" d="M35.936 13.298V14.7563L37.5534 15.7753V15.7734C37.7579 15.9022 37.8753 16.1332 37.8602 16.3738L37.7579 18.9324C37.7352 19.2885 37.4322 19.5631 37.0742 19.548C36.7162 19.5347 36.4359 19.2374 36.4397 18.8813L36.5268 16.6881L35.275 15.8965L34.025 16.6862L34.1121 18.8794L34.1102 18.8813C34.1159 19.2374 33.8356 19.5347 33.4776 19.548C33.1197 19.5631 32.8166 19.2885 32.7939 18.9325L32.6935 16.3586C32.684 16.1237 32.8015 15.9021 33.0003 15.7772L34.6177 14.7582L34.6158 13.298H21.2728C21.0133 13.9306 20.3997 14.3434 19.7141 14.3454H19.5342C19.4774 14.5063 19.4168 14.6654 19.3524 14.8207C19.288 14.976 19.2198 15.1313 19.1441 15.2866L19.2709 15.4135H19.2728C19.5872 15.7298 19.7653 16.1579 19.7634 16.6029H19.7615C19.7634 17.0499 19.5872 17.4779 19.2728 17.7923L17.3088 19.7582H17.3069C16.6497 20.4135 15.5853 20.4135 14.9282 19.7582L14.8013 19.6313C14.6479 19.7052 14.4926 19.7771 14.3354 19.8396C14.1782 19.9022 14.0229 19.9646 13.86 20.0215V20.2014L13.8619 20.1995C13.86 21.1275 13.1081 21.8794 12.1781 21.8813H9.39971C8.47167 21.8813 7.71981 21.1294 7.71787 20.1995V20.0196C7.55689 19.9628 7.3978 19.9021 7.24249 19.8378C7.0853 19.7734 6.93 19.7033 6.77658 19.6294L6.64969 19.7563V19.7582C5.99248 20.4116 4.92998 20.4116 4.27282 19.7582L2.30691 17.7923C1.64969 17.1351 1.64969 16.0707 2.30691 15.4135L2.4338 15.2866C2.35994 15.1332 2.28986 14.9779 2.22547 14.8207C2.16107 14.6635 2.10047 14.5044 2.04365 14.3454H1.86373C0.935678 14.3454 0.183824 13.5916 0.181885 12.6635V9.88509C0.181885 8.95704 0.935678 8.20519 1.86373 8.20325H2.04365C2.10047 8.04226 2.16107 7.88317 2.22547 7.72787C2.28986 7.57257 2.35993 7.41726 2.4338 7.26196L2.30691 7.13506C1.64969 6.47785 1.64969 5.41347 2.30691 4.7563L4.27093 2.79039C4.92814 2.13696 5.99064 2.13696 6.6478 2.79039L6.77469 2.91728C6.9281 2.84342 7.08341 2.77334 7.2406 2.70895C7.39591 2.64456 7.555 2.58395 7.71598 2.52713V1.90594C7.71598 1.57829 7.84666 1.2658 8.07962 1.03472L8.08341 1.03093V1.02904C8.31447 0.797979 8.62886 0.669188 8.95652 0.667297H12.6194C13.3031 0.669192 13.858 1.2241 13.8599 1.90783V2.52902C14.0228 2.58584 14.18 2.64644 14.3353 2.71084C14.4906 2.77523 14.6478 2.8453 14.8012 2.91917L14.9281 2.79228H14.9262C15.5834 2.13506 16.6478 2.13506 17.305 2.79228L19.2709 4.7563C19.9262 5.41351 19.9262 6.4779 19.2709 7.13506L19.144 7.26195C19.2179 7.41537 19.2861 7.57067 19.3523 7.72786C19.4167 7.88506 19.4773 8.04415 19.5342 8.20324H19.7141H19.7122C20.3978 8.20324 21.0133 8.61802 21.2728 9.2525H41.1307C42.6137 9.2544 43.8164 10.4571 43.8182 11.94V12.637V12.6351C43.8182 12.8112 43.7482 12.9798 43.6251 13.1029C43.5001 13.2279 43.3315 13.298 43.1573 13.298L35.936 13.298ZM21.3963 11.976H42.4969V11.94C42.495 11.1862 41.8852 10.5764 41.1314 10.5745H21.3986V11.976L21.3963 11.976ZM33.1292 20.9685V20.9666C31.8527 20.9685 30.8186 22.0044 30.8148 23.281V27.5669C30.8186 28.8434 31.8527 29.8794 33.1292 29.8813H37.419C38.6955 29.8794 39.7315 28.8453 39.7334 27.5669V23.281C39.7315 22.0044 38.6955 20.9685 37.419 20.9666L33.1292 20.9685ZM37.419 22.2886C37.9663 22.2924 38.4076 22.7336 38.4114 23.281V27.567C38.4095 28.1143 37.9663 28.5594 37.419 28.5613H33.133C32.5838 28.5575 32.1406 28.1143 32.1387 27.567V23.281C32.1425 22.7337 32.5857 22.2924 33.133 22.2886H37.419ZM23.0364 20.9666C21.758 20.9685 20.724 22.0044 20.7202 23.281V27.5669C20.724 28.8434 21.758 29.8794 23.0364 29.8813H27.3243H27.3224C28.599 29.8794 29.6349 28.8434 29.6368 27.5669V23.281C29.6349 22.0044 28.599 20.9704 27.3224 20.9666H23.0364ZM27.3243 22.2886H27.3224C27.8698 22.2924 28.3111 22.7336 28.3149 23.281V27.567C28.313 28.1143 27.8698 28.5575 27.3224 28.5594H23.0365C22.4891 28.5575 22.0459 28.1143 22.0441 27.567V23.281C22.0459 22.7337 22.4891 22.2924 23.0365 22.2886H27.3243ZM7.20509 31.0217H37.5003C40.8943 31.0217 43.6463 33.7736 43.6463 37.1676C43.6463 40.5634 40.8944 43.3155 37.5003 43.3155H7.20509C3.80926 43.3155 1.05721 40.5636 1.05721 37.1676C1.05721 33.7737 3.80911 31.0217 7.20509 31.0217ZM37.5003 32.3436H7.20509C4.56683 32.3815 2.44941 34.5292 2.44941 37.1675C2.44941 39.8057 4.56683 41.9554 7.20509 41.9913H37.5003C40.1386 41.9554 42.256 39.8057 42.256 37.1675C42.256 34.5292 40.1386 32.3815 37.5003 32.3436ZM10.7901 5.93833C8.24271 5.93833 6.05144 7.73566 5.55515 10.2338C5.05895 12.73 6.39418 15.2302 8.74642 16.2052C11.0987 17.1787 13.8107 16.3567 15.2254 14.2393C16.6402 12.1218 16.3637 9.30157 14.5626 7.50085C13.5626 6.49896 12.2048 5.93644 10.7901 5.93833ZM13.6291 8.43641H13.6272C12.273 7.08223 10.1518 6.87389 8.55907 7.93644C6.96625 9.00082 6.34695 11.0406 7.0799 12.8116C7.81284 14.5805 9.69352 15.5862 11.5723 15.2131C13.4492 14.84 14.8034 13.1922 14.8034 11.2756C14.8053 10.2112 14.3829 9.19035 13.6272 8.43845L13.6291 8.43641ZM18.1348 8.23376C18.0287 7.97808 17.9094 7.72995 17.7768 7.48753C17.6139 7.22617 17.6518 6.88525 17.8696 6.66746L18.3374 6.19966C18.4757 6.05951 18.4757 5.83223 18.3374 5.69207L16.3715 3.72616C16.2314 3.5879 16.0041 3.5879 15.8639 3.72616L15.3961 4.19396C15.1897 4.40229 14.8696 4.44775 14.612 4.3057C14.3582 4.16744 14.0988 4.04244 13.8317 3.9307C13.5817 3.82842 13.3279 3.73752 13.0685 3.65797C12.7616 3.59547 12.5401 3.32464 12.5381 3.01026V1.99131L9.04006 1.9932V3.01216V3.01026C9.03816 3.30382 8.84498 3.5595 8.56468 3.64095C8.02301 3.80004 7.50029 4.01595 7.00405 4.28488C6.74269 4.44965 6.40177 4.41177 6.18398 4.19207L5.71618 3.72427V3.72617C5.57603 3.58602 5.34875 3.58602 5.20859 3.72617L3.24078 5.69208C3.10252 5.83223 3.10252 6.0595 3.24078 6.19967L3.70859 6.66747C3.91692 6.8758 3.96237 7.19397 3.82033 7.45157C3.55139 7.94398 3.33359 8.46102 3.17262 8.99702C3.10823 9.30573 2.83739 9.52541 2.52302 9.52541H1.86392C1.66695 9.5273 1.50596 9.68829 1.50407 9.88526V12.6637C1.50596 12.8625 1.66505 13.0216 1.86392 13.0235H2.52302C2.81658 13.0254 3.07226 13.2186 3.15371 13.4989C3.3128 14.0406 3.5306 14.5633 3.79953 15.0595C3.96241 15.3209 3.92453 15.6618 3.70672 15.8796L3.23892 16.3474C3.09877 16.4876 3.09877 16.7148 3.23892 16.855L5.20295 18.8209C5.34499 18.9592 5.57037 18.9592 5.71242 18.8209L6.18022 18.3531C6.38666 18.1467 6.70672 18.1012 6.96432 18.2414C7.45484 18.5103 7.97188 18.7281 8.50788 18.8891C8.8166 18.9516 9.03821 19.2224 9.03821 19.5368V20.1978C9.03821 20.3947 9.19919 20.5557 9.39806 20.5557H12.1765C12.3735 20.5557 12.5344 20.3947 12.5344 20.1978V19.5406C12.5363 19.247 12.7295 18.9913 13.0117 18.9099C13.5534 18.7508 14.0761 18.5349 14.5723 18.2659C14.8337 18.1012 15.1727 18.1391 15.3905 18.3588L15.8583 18.8266V18.8247C16.0004 18.9648 16.2257 18.9648 16.3678 18.8247L18.3337 16.8587L18.3318 16.8606C18.4 16.7925 18.4379 16.7016 18.4379 16.6069H18.4417C18.4417 16.5103 18.4038 16.4194 18.3375 16.3512L17.8697 15.8834V15.8853C17.6633 15.6769 17.6178 15.3569 17.758 15.0993C18.0288 14.6088 18.2447 14.0917 18.4057 13.5557C18.4682 13.2451 18.739 13.0216 19.0553 13.0216H19.7163H19.7144C19.9132 13.0216 20.0723 12.8606 20.0742 12.6618V9.88522C20.0723 9.68826 19.9132 9.52727 19.7144 9.52538H19.0553C18.7617 9.52538 18.506 9.3303 18.4246 9.05C18.3431 8.77348 18.2465 8.50265 18.1367 8.2356L18.1348 8.23376ZM34.6385 34.1164C33.1802 34.1145 31.9264 35.1448 31.6404 36.5747C31.3563 38.0028 32.1215 39.4346 33.468 39.9933C34.8146 40.5501 36.3677 40.0785 37.1764 38.8664C37.987 37.6562 37.826 36.0407 36.7957 35.0104C36.2237 34.4365 35.4472 34.1145 34.6385 34.1164ZM35.862 35.944C35.2768 35.3607 34.362 35.2717 33.6764 35.73C32.9908 36.1884 32.7238 37.0671 33.04 37.8304C33.3563 38.5936 34.1669 39.0254 34.9756 38.8645C35.7862 38.7035 36.3677 37.9932 36.3677 37.1675C36.3677 36.7073 36.1859 36.2679 35.862 35.944ZM26.4472 34.1164C24.9908 34.1145 23.7351 35.1448 23.451 36.5747C23.165 38.0028 23.9302 39.4346 25.2767 39.9933C26.6233 40.5501 28.1764 40.0785 28.985 38.8664C29.7957 37.6562 29.6366 36.0407 28.6044 35.0104C28.0343 34.4365 27.2578 34.1145 26.4472 34.1164ZM27.6726 35.944C27.0911 35.3607 26.1764 35.2679 25.4889 35.7262C24.8013 36.1827 24.5324 37.0615 24.8487 37.8247C25.1631 38.588 25.9737 39.0236 26.7824 38.8626C27.593 38.7035 28.1764 37.9932 28.1764 37.1675C28.1783 36.7092 27.9964 36.2698 27.6726 35.944ZM18.2578 34.1164C16.7995 34.1145 15.5456 35.1448 15.2597 36.5747C14.9756 38.0028 15.7407 39.4346 17.0873 39.9933C18.4339 40.5501 19.9869 40.0785 20.7956 38.8664C21.6062 37.6562 21.4452 36.0407 20.4149 35.0104C19.843 34.4365 19.0665 34.1145 18.2578 34.1164ZM19.4794 35.944C18.8941 35.3626 17.9793 35.2736 17.2938 35.7319C16.6081 36.1921 16.343 37.0709 16.6593 37.8342C16.9775 38.5955 17.7881 39.0273 18.5968 38.8664C19.4055 38.7035 19.9888 37.9933 19.9869 37.1675C19.9869 36.7092 19.8051 36.2679 19.4794 35.944ZM10.0665 34.1164C8.61008 34.1164 7.35437 35.1448 7.0703 36.5747C6.78621 38.0028 7.55136 39.4346 8.89793 39.9933C10.2426 40.5501 11.7957 40.0785 12.6062 38.8664C13.415 37.6562 13.2558 36.0407 12.2256 35.0104C11.6536 34.4365 10.8771 34.1145 10.0665 34.1164ZM11.29 35.944C10.7067 35.3607 9.7919 35.2717 9.10627 35.73C8.41876 36.1884 8.1517 37.0671 8.46802 37.8304C8.78433 38.5936 9.5949 39.0254 10.4055 38.8645C11.2142 38.7035 11.7976 37.9932 11.7957 37.1675C11.7976 36.7092 11.6139 36.2679 11.29 35.944Z" fill="black"/>
</svg>
