<svg width="50" height="50" viewBox="0 0 50 50" fill="none" xmlns="http://www.w3.org/2000/svg">
<path d="M40.7984 10.9153L25.9275 2.32941C25.3593 2.00128 24.6806 2.00128 24.1119 2.32941L9.24106 10.9153C8.67284 11.2435 8.33325 11.831 8.33325 12.4877V29.6596C8.33325 30.3159 8.67284 30.9039 9.24106 31.232L16.4968 35.4211C16.3583 36.0435 16.4166 36.6695 16.6728 37.2893L16.7999 37.5966L13.1359 43.9424C13.0098 44.1612 13.0202 44.4331 13.1629 44.6409C13.3056 44.8492 13.5562 44.956 13.8051 44.9174L17.6228 44.3179L19.0124 47.9237C19.103 48.1591 19.3213 48.3216 19.5734 48.3414C19.5905 48.3429 19.6077 48.3435 19.6244 48.3435C19.8572 48.3435 20.0744 48.2195 20.1921 48.0159L22.5635 43.9081L23.8077 44.4232C24.2098 44.5898 24.615 44.6732 25.0197 44.6732C25.4249 44.6732 25.8296 44.5898 26.2317 44.4232L27.476 43.9081L29.8473 48.0159C29.965 48.2195 30.1822 48.3435 30.415 48.3435C30.4322 48.3435 30.4489 48.3429 30.4661 48.3414C30.7176 48.3216 30.9359 48.1591 31.027 47.9237L32.4166 44.3179L36.2343 44.9174C36.4833 44.9565 36.7338 44.8492 36.8765 44.6409C37.0192 44.4325 37.0301 44.1607 36.9036 43.9424L33.2395 37.5961L33.3666 37.2888C33.6234 36.6695 33.6812 36.0435 33.5426 35.4206L40.7984 31.2315C41.3666 30.9034 41.7062 30.3153 41.7062 29.6591V12.4872C41.7062 11.831 41.3666 11.2435 40.7984 10.9153ZM24.7676 3.46482C24.9327 3.36951 25.1072 3.36951 25.2718 3.46482L39.7395 11.8179L35.5551 14.2336L20.8353 5.73514L24.7676 3.46482ZM25.0197 20.3164L10.2999 11.8179L15.0286 9.08774L29.7484 17.5862L25.0197 20.3164ZM31.0593 16.8294L16.3395 8.33097L19.5244 6.49191L34.2442 14.9903L31.0593 16.8294ZM31.4426 18.1221L34.6275 16.2831V23.2159L34.6109 23.1982C34.2327 22.7992 33.8562 22.3997 33.4817 22.0034C33.3333 21.8466 33.1176 21.7721 32.9041 21.806C32.6905 21.8393 32.5072 21.9758 32.414 22.1706L31.4426 24.1987V18.1221ZM9.64419 29.6591V12.9534L24.364 21.4518V27.5528C24.178 27.594 23.9921 27.6523 23.8072 27.7289L19.9744 29.3164C19.1702 29.6497 18.5931 30.2263 18.2598 31.031L16.9583 34.1732L9.89575 30.0961C9.73169 30.0008 9.64419 29.8497 9.64419 29.6591ZM19.7426 46.1716L18.6562 43.3518C18.5452 43.0638 18.2478 42.8914 17.9426 42.9398L14.9577 43.4086L17.4327 39.1221L18.2609 41.1211C18.5942 41.9252 19.1708 42.5023 19.9754 42.8357L21.3426 43.4018L19.7426 46.1716ZM25.7301 43.2122C25.252 43.4107 24.7874 43.4107 24.3093 43.2122L20.4765 41.6247C19.9984 41.4268 19.6697 41.0982 19.4718 40.62L17.8843 36.7872C17.6864 36.3091 17.6864 35.8445 17.8843 35.3664L19.4718 31.5336C19.6697 31.0554 19.9984 30.7268 20.4765 30.5289L24.3093 28.9414C24.5484 28.8424 24.7843 28.7929 25.0197 28.7929C25.2556 28.7929 25.4911 28.8424 25.7301 28.9414L29.5629 30.5289C30.0411 30.7268 30.3697 31.0554 30.5676 31.5336L32.1551 35.3664C32.353 35.8445 32.353 36.3091 32.1551 36.7872L30.5676 40.62C30.3697 41.0982 30.0411 41.4268 29.5629 41.6247L25.7301 43.2122ZM35.0822 43.4091L32.0973 42.9403C31.7921 42.8929 31.4952 43.0638 31.3838 43.3523L30.2973 46.1721L28.6978 43.4023L30.065 42.8362C30.8692 42.5028 31.4463 41.9263 31.7796 41.1216L32.6077 39.1226L35.0822 43.4091ZM40.1431 30.0956L33.0806 34.1732L31.7791 31.031C31.4458 30.2268 30.8692 29.6497 30.0645 29.3164L26.2317 27.7289C26.0468 27.6523 25.8609 27.594 25.6749 27.5528V21.4518L30.1312 18.8789V27.0841C30.1312 27.3903 30.3431 27.6554 30.6416 27.7232C30.69 27.7341 30.739 27.7393 30.7869 27.7393C31.0348 27.7393 31.2671 27.5982 31.378 27.3669L33.1838 23.5976C33.3421 23.7648 33.5004 23.9325 33.6588 24.0997L33.9109 24.3659C34.2088 24.6804 34.5077 24.9966 34.8083 25.3117C34.9931 25.506 35.2775 25.5679 35.5265 25.4679C35.7754 25.3685 35.9385 25.1273 35.9385 24.8591V15.5263L40.3947 12.9534V29.6591C40.3952 29.8497 40.3077 30.0008 40.1431 30.0956ZM31.0629 36.6732C31.2291 36.2716 31.2291 35.881 31.0629 35.4794L29.715 32.2252C29.5489 31.8237 29.2723 31.5476 28.8708 31.381L25.6166 30.0331C25.215 29.8664 24.8244 29.8669 24.4228 30.0331L21.1687 31.381C20.7671 31.5476 20.4905 31.8237 20.3244 32.2252L18.9765 35.4794C18.8103 35.881 18.8103 36.2716 18.9765 36.6732L20.3244 39.9273C20.4905 40.3289 20.7666 40.6049 21.1687 40.7716L24.4228 42.1195C24.6239 42.2028 24.8218 42.2445 25.0197 42.2445C25.2176 42.2445 25.4161 42.2028 25.6166 42.1195L28.8708 40.7716C29.2723 40.6049 29.5484 40.3289 29.715 39.9273L31.0629 36.6732ZM28.5041 39.4258C28.4702 39.507 28.4504 39.5268 28.3692 39.5607L25.115 40.9086C25.0338 40.9419 25.0056 40.9419 24.9244 40.9086L21.6702 39.5607C21.589 39.5273 21.5692 39.507 21.5353 39.4258L20.1874 36.1716C20.1541 36.0903 20.1541 36.0622 20.1874 35.981L21.5353 32.7268C21.5687 32.6461 21.589 32.6258 21.6702 32.5924L24.9244 31.2445C24.965 31.2278 24.9921 31.2195 25.0197 31.2195C25.0473 31.2195 25.0744 31.2278 25.115 31.2445L28.3692 32.5924C28.4499 32.6258 28.4702 32.6461 28.5041 32.7268L29.852 35.981C29.8853 36.0622 29.8853 36.0903 29.852 36.1716L28.5041 39.4258ZM28.2994 33.8065C28.5624 34.0554 28.5734 34.4706 28.3244 34.7331L24.9244 38.3211C24.7963 38.456 24.6234 38.5258 24.4484 38.5258C24.3166 38.5258 24.1838 38.4862 24.0692 38.4049L21.8114 36.8028C21.5161 36.5935 21.4468 36.1841 21.6562 35.8888C21.8655 35.5935 22.2749 35.5242 22.5702 35.7336L24.364 37.0065L27.3728 33.8315C27.6218 33.5685 28.0369 33.5575 28.2994 33.8065Z" fill="black"/>
</svg>
