<svg width="50" height="50" viewBox="0 0 50 50" fill="none" xmlns="http://www.w3.org/2000/svg">
<path d="M42.4101 10.3326L26.5219 3.08085C25.4822 2.60944 24.5133 2.60944 23.4792 3.08085L7.58955 10.3326C7.28397 10.4705 6.36353 10.8916 6.36353 11.8884V22.2015C6.36353 26.5988 7.2411 30.6252 8.9777 34.1598C10.3994 37.0553 12.3837 39.6209 14.8824 41.786C19.1474 45.4901 23.7831 46.9976 25 47.0033H25.0055H25.0111C26.2316 46.994 30.8786 45.4718 35.1325 41.775C37.6274 39.6099 39.6118 37.0423 41.0277 34.1488C42.7586 30.6142 43.6363 26.5932 43.6363 22.1958V11.8865C43.6363 10.8897 42.7157 10.4705 42.4101 10.3326ZM42.3822 22.1998C42.3822 31.8069 37.9942 37.6348 34.3066 40.8307C30.1609 44.4324 25.7637 45.7404 24.9995 45.7495C24.2412 45.7401 19.8623 44.447 15.6981 40.8417C12.0107 37.6462 7.61354 31.816 7.61354 22.2017V11.8866C7.61354 11.8289 7.61354 11.6966 8.10542 11.4711L23.997 4.22655C24.3491 4.06444 24.6752 3.98805 24.9994 3.98805C25.3236 3.98805 25.6479 4.07004 26.0019 4.22655L41.8901 11.4764C42.382 11.7 42.382 11.8341 42.382 11.8919L42.3822 22.1998ZM40.0345 12.8072L25.2624 6.06779C25.0947 5.99139 24.9047 5.99139 24.7426 6.06779L9.96527 12.8072C9.74168 12.9079 9.59821 13.1315 9.59821 13.3793V22.2037C9.59821 25.5277 10.1609 28.6059 11.2677 31.3577C12.4359 34.2681 14.2303 36.8336 16.591 38.9839C18.1747 40.4297 20.0249 41.6837 21.9476 42.6135C22.3817 42.8241 23.8649 43.5247 24.8766 43.7296C24.9195 43.7389 24.9623 43.7445 25.0052 43.7445C25.0481 43.7445 25.0909 43.7389 25.13 43.7296C26.1362 43.5246 27.625 42.8241 28.0591 42.6135C29.9819 41.6837 31.8322 40.4242 33.4157 38.9839C35.7765 36.8318 37.5708 34.2624 38.739 31.3577C39.8458 28.6056 40.4085 25.5293 40.4085 22.2037V13.3793C40.3973 13.1314 40.2538 12.9079 40.034 12.8072H40.0345ZM39.1419 22.1998C39.1419 28.7398 36.9284 34.0726 32.5589 38.0541C31.0609 39.418 29.315 40.6012 27.5018 41.4844C26.7286 41.8607 25.6889 42.3042 24.9976 42.4719C24.3064 42.3042 23.2666 41.8608 22.4934 41.4844C20.6804 40.6012 18.9308 39.4199 17.4363 38.0541C13.0669 34.0704 10.8533 28.7379 10.8533 22.1998L10.857 13.7817L24.999 7.32753L39.1409 13.7817L39.1419 22.1998ZM30.7387 32.718C30.9251 33.0086 30.8431 33.3962 30.5524 33.5862C28.8978 34.6539 26.9749 35.2185 24.9964 35.2185C19.3397 35.2185 14.7353 30.6162 14.7353 24.9574C14.7353 23.0866 15.2495 21.2513 16.2035 19.6618L14.821 19.8909C14.4781 19.9487 14.1577 19.7139 14.0999 19.3767C14.0421 19.0376 14.2769 18.7134 14.6141 18.6556L17.4817 18.1786C17.6438 18.1507 17.8152 18.1879 17.9494 18.2886C18.0835 18.3836 18.1786 18.5326 18.2028 18.6947L18.6798 21.5623C18.7375 21.9051 18.5028 22.2256 18.1655 22.2834C17.8227 22.3411 17.5022 22.1064 17.4445 21.7691L17.2209 20.4146C16.4197 21.7841 15.9911 23.3585 15.9911 24.9609C15.9911 29.9264 20.0307 33.9661 24.9963 33.9661C26.7329 33.9661 28.421 33.4704 29.8707 32.5351C30.1651 32.3413 30.5524 32.4273 30.7387 32.718ZM24.9943 14.6966C30.651 14.6966 35.2554 19.2989 35.2554 24.9577C35.2554 26.8378 34.7356 28.6824 33.7666 30.2753L35.179 30.061C35.5218 30.0088 35.8423 30.2473 35.8945 30.5865C35.9466 30.9293 35.7081 31.2498 35.369 31.3019L32.4977 31.7361C32.4642 31.7417 32.4362 31.7454 32.4027 31.7454C32.0971 31.7454 31.8307 31.5218 31.7822 31.2106L31.3481 28.3394C31.2959 27.9965 31.5344 27.6761 31.8736 27.6239C32.2164 27.5717 32.5369 27.8102 32.589 28.1493L32.7903 29.476C33.5878 28.112 34.0014 26.5712 34.0014 24.9538C34.0014 19.9883 29.9618 15.9486 24.9962 15.9486C23.2503 15.9486 21.5567 16.4499 20.1013 17.3945C19.8106 17.5845 19.4231 17.4988 19.233 17.2082C19.043 16.9175 19.1287 16.5299 19.4194 16.3399C21.0795 15.2685 23.0059 14.6966 24.9943 14.6966ZM30.7573 21.7938C30.9716 22.0659 30.9288 22.4609 30.6567 22.677L23.3358 28.5107C23.2221 28.602 23.0824 28.6486 22.9445 28.6486C22.7675 28.6486 22.5868 28.5722 22.4675 28.425L19.2534 24.6239C19.0298 24.3612 19.0633 23.9662 19.3242 23.7407C19.5869 23.5171 19.9819 23.5506 20.2074 23.8115L23.0321 27.1449L29.8779 21.6928C30.1462 21.4786 30.5374 21.5274 30.7573 21.7938Z" fill="black"/>
</svg>
