<svg width="50" height="50" viewBox="0 0 50 50" fill="none" xmlns="http://www.w3.org/2000/svg">
<path d="M47.0204 11.7881L45.9328 11.5728L45.1704 9.73387L45.7878 8.81333C46.1108 8.33218 46.0471 7.68625 45.6384 7.27759L43.7227 5.36181C43.314 4.95316 42.6659 4.88945 42.1869 5.21241L41.2664 5.8298L39.4275 5.06741L39.2122 3.97988C39.1001 3.41086 38.5992 3 38.0192 3H35.3103C34.7325 3 34.2293 3.41304 34.1173 3.97988L33.902 5.06741L32.0631 5.8298L31.1425 5.21241C30.6614 4.88945 30.0154 4.95316 29.6068 5.36181L27.691 7.27759C27.2824 7.68623 27.2186 8.33435 27.5416 8.81333L28.159 9.73387L27.3966 11.5728L26.3091 11.7881C25.7401 11.9001 25.3292 12.401 25.3292 12.9811V15.69C25.3292 16.2678 25.7422 16.7709 26.3091 16.883L27.3966 17.0983L28.159 18.9372L27.5416 19.8577C27.2186 20.3389 27.2824 20.9848 27.691 21.3935L29.6068 23.3092C30.0154 23.7179 30.6635 23.7816 31.1425 23.4586L32.0631 22.8413L33.902 23.6036L34.1173 24.6912C34.2293 25.2602 34.7302 25.6711 35.3103 25.6711H38.0192C38.597 25.6711 39.1001 25.258 39.2122 24.6912L39.4275 23.6036L41.2664 22.8413L42.1869 23.4586C42.6681 23.7816 43.314 23.7179 43.7227 23.3092L45.6384 21.3935C46.0471 20.9848 46.1108 20.3367 45.7878 19.8577L45.1704 18.9372L45.9328 17.0983L47.0204 16.883C47.5894 16.7709 48.0002 16.27 48.0002 15.69V12.9811C48.0002 12.4033 47.5872 11.9001 47.0204 11.7881ZM46.5788 15.5186L45.2847 15.7735C45.0518 15.8196 44.8563 15.98 44.764 16.1997L43.7116 18.7416C43.6215 18.9613 43.6457 19.2118 43.7775 19.4095L44.5135 20.5058L42.8394 22.18L41.7431 21.444C41.5454 21.3122 41.2949 21.2858 41.0752 21.3781L38.5332 22.4305C38.3135 22.5205 38.1532 22.7161 38.107 22.9512L37.8522 24.2452H35.4838L35.2289 22.9512C35.1828 22.7183 35.0224 22.5227 34.8027 22.4305L32.2608 21.3781C32.0411 21.288 31.7906 21.3122 31.5929 21.444L30.4966 22.18L28.8224 20.5058L29.5584 19.4095C29.6902 19.2118 29.7166 18.9613 29.6243 18.7416L28.572 16.1997C28.4819 15.98 28.2863 15.8196 28.0513 15.7735L26.7572 15.5186V13.1502L28.0513 12.8954C28.2841 12.8493 28.4797 12.6889 28.572 12.4692L29.6243 9.92723C29.7144 9.70753 29.6902 9.45706 29.5584 9.25933L28.8224 8.16302L30.4966 6.48887L31.5929 7.22487C31.7906 7.3567 32.0411 7.38306 32.2608 7.29079L34.8027 6.23841C35.0224 6.14833 35.1828 5.95279 35.2289 5.71771L35.4838 4.42365H37.8522L38.107 5.71771C38.1532 5.9506 38.3135 6.14613 38.5332 6.23841L41.0752 7.29079C41.2949 7.38087 41.5454 7.3567 41.7431 7.22487L42.8394 6.48887L44.5135 8.16302L43.7775 9.25933C43.6457 9.45706 43.6194 9.70753 43.7116 9.92723L44.764 12.4692C44.8541 12.6889 45.0496 12.8493 45.2847 12.8954L46.5788 13.1502V15.5186ZM36.668 7.25976C32.7661 7.25976 29.5937 10.4344 29.5937 14.3341C29.5937 18.236 32.7683 21.4085 36.668 21.4085C40.5699 21.4085 43.7424 18.2338 43.7424 14.3341C43.7424 10.4322 40.5677 7.25976 36.668 7.25976ZM36.668 19.9872C33.5526 19.9872 31.0149 17.4518 31.0149 14.3341C31.0149 11.2187 33.5503 8.68105 36.668 8.68105C39.7834 8.68105 42.3211 11.2164 42.3211 14.3341C42.3211 17.4495 39.7857 19.9872 36.668 19.9872ZM41.9189 34.4436V27.5143C41.9189 27.121 41.6003 26.8025 41.2071 26.8025H33.6029C33.2096 26.8025 32.8911 27.1211 32.8911 27.5143V34.4065H30.0152V27.5143C30.0152 27.121 29.6966 26.8025 29.3033 26.8025H21.6992C21.3059 26.8025 20.9873 27.1211 20.9873 27.5143V34.4065H18.1114V27.5143C18.1114 27.121 17.7928 26.8025 17.3996 26.8025H9.79541C9.40214 26.8025 9.08359 27.1211 9.08359 27.5143V34.4436C5.66941 34.7995 3.00024 37.6951 3.00024 41.2018C3.00024 44.9478 6.04973 47.9972 9.79563 47.9972H41.2C44.9459 47.9972 47.9954 44.9477 47.9954 41.2018C47.9954 37.6954 45.326 34.8018 41.912 34.4436H41.9189ZM37.0261 28.2258H37.7863V29.2606H37.0261V28.2258ZM34.3172 28.2258H35.6047V29.9703C35.6047 30.3635 35.9232 30.6821 36.3165 30.6821H38.5003C38.8936 30.6821 39.2122 30.3635 39.2122 29.9703V28.2258H40.4996V34.4059H34.3196V28.2258H34.3172ZM25.1247 28.2258H25.8849V29.2606H25.1247V28.2258ZM22.4158 28.2258H23.7032V29.9703C23.7032 30.3635 24.0218 30.6821 24.4151 30.6821H26.5989C26.9922 30.6821 27.3107 30.3635 27.3107 29.9703V28.2258H28.5982V34.4059H22.4181V28.2258H22.4158ZM13.2233 28.2258H13.9834V29.2606H13.2233V28.2258ZM11.7996 28.2258V29.9703C11.7996 30.3635 12.1182 30.6821 12.5114 30.6821H14.6953C15.0885 30.6821 15.4071 30.3635 15.4071 29.9703V28.2258H16.6946V34.4059H10.5145V28.2258H11.802H11.7996ZM41.2067 46.5731H9.80013C6.83855 46.5731 4.42839 44.163 4.42839 41.2014C4.42839 38.2398 6.83855 35.8296 9.80013 35.8296H41.2045C44.1661 35.8296 46.5762 38.2398 46.5762 41.2014C46.5762 44.163 44.1661 46.5731 41.2045 46.5731H41.2067ZM41.2067 36.9217L9.80013 36.9239C7.44053 36.9239 5.52031 38.8441 5.52031 41.2015C5.52031 43.5611 7.44053 45.4813 9.80013 45.4813H41.2045C43.5641 45.4813 45.4843 43.5611 45.4843 41.2015C45.4843 38.8419 43.5641 36.9239 41.2045 36.9239L41.2067 36.9217ZM41.2067 44.0579H9.80013C8.22485 44.0579 6.94401 42.7771 6.94401 41.2018C6.94401 39.6265 8.22485 38.3457 9.80013 38.3457H41.2045C42.7798 38.3457 44.0606 39.6265 44.0606 41.2018C44.0606 42.7771 42.7798 44.0579 41.2045 44.0579H41.2067ZM25.5046 38.9125C24.2435 38.9125 23.2153 39.9385 23.2153 41.2018C23.2153 42.4629 24.2413 43.4911 25.5046 43.4911C26.7657 43.4911 27.7939 42.4651 27.7939 41.2018C27.7939 39.9407 26.7679 38.9125 25.5046 38.9125ZM25.5046 42.0674C25.0278 42.0674 24.6389 41.6786 24.6389 41.2018C24.6389 40.725 25.0278 40.3361 25.5046 40.3361C25.9813 40.3361 26.3702 40.725 26.3702 41.2018C26.3702 41.6785 25.9813 42.0674 25.5046 42.0674ZM14.6534 38.9125C13.3923 38.9125 12.3641 39.9385 12.3641 41.2018C12.3641 42.4629 13.3901 43.4911 14.6534 43.4911C15.9145 43.4911 16.9427 42.4651 16.9427 41.2018C16.9427 39.9407 15.9167 38.9125 14.6534 38.9125ZM14.6534 42.0674C14.1767 42.0674 13.7878 41.6786 13.7878 41.2018C13.7878 40.725 14.1766 40.3361 14.6534 40.3361C15.1302 40.3361 15.5191 40.725 15.5191 41.2018C15.5191 41.6785 15.1302 42.0674 14.6534 42.0674ZM36.3557 38.9125C35.0946 38.9125 34.0664 39.9385 34.0664 41.2018C34.0664 42.4629 35.0924 43.4911 36.3557 43.4911C37.6168 43.4911 38.645 42.4651 38.645 41.2018C38.645 39.9407 37.619 38.9125 36.3557 38.9125ZM36.3557 42.0674C35.8789 42.0674 35.49 41.6786 35.49 41.2018C35.49 40.725 35.8789 40.3361 36.3557 40.3361C36.8325 40.3361 37.2213 40.725 37.2213 41.2018C37.2213 41.6785 36.8325 42.0674 36.3557 42.0674ZM7.81641 24.1948C7.62087 23.8543 7.73732 23.4193 8.07786 23.2237L19.6759 16.5273C19.8385 16.4328 20.034 16.4065 20.2164 16.457C20.3987 16.5053 20.5547 16.6262 20.6492 16.7887L22.6551 20.2644L25.8496 18.4212C26.1901 18.2256 26.6251 18.3421 26.8207 18.6826C27.0162 19.0231 26.8998 19.4582 26.5592 19.6537L22.7496 21.853C22.4091 22.0507 21.9741 21.9321 21.7785 21.5915L19.7726 18.1158L8.78986 24.4562C8.67781 24.5199 8.55478 24.5529 8.43395 24.5529C8.18788 24.5529 7.9484 24.4254 7.81656 24.1969L7.81641 24.1948ZM39.4272 11.3993C39.5546 11.619 39.5546 11.8892 39.4272 12.1111L37.7904 14.9475C37.6585 15.176 37.4191 15.3034 37.173 15.3034C37.0521 15.3034 36.9291 15.2727 36.8171 15.2068C36.4765 15.0112 36.3601 14.5762 36.5556 14.2357L36.8654 13.6996L33.2535 15.7845C33.1414 15.8483 33.0184 15.8812 32.8976 15.8812C32.6515 15.8812 32.412 15.7538 32.2802 15.5253C32.0846 15.1848 32.2011 14.7498 32.5416 14.5542L36.1535 12.4692H35.534C35.1407 12.4692 34.8221 12.1507 34.8221 11.7574C34.8221 11.3641 35.1407 11.0456 35.534 11.0456H38.8075C39.0624 11.0456 39.2953 11.1818 39.4227 11.4015L39.4272 11.3993Z" fill="black"/>
</svg>
