<svg width="62" height="62" viewBox="0 0 62 62" fill="none" xmlns="http://www.w3.org/2000/svg">
<g clip-path="url(#clip0_6434_6638)">
<path d="M57.6772 45.26C57.5561 44.8304 57.2729 44.4646 56.8874 44.2397C56.5018 44.0148 56.0441 43.9484 55.6105 44.0544L51.3222 45.2083C53.6688 41.7492 55.0917 37.7474 55.4555 33.5833C55.8073 29.6874 55.2376 25.7635 53.7926 22.1284C52.3476 18.4934 50.0677 15.2493 47.1372 12.6583C46.7984 12.3781 46.3653 12.2381 45.9267 12.2669C45.488 12.2957 45.0769 12.4912 44.7777 12.8133C44.4767 13.156 44.3239 13.6042 44.353 14.0595C44.382 14.5148 44.5906 14.9399 44.9327 15.2416C47.4579 17.4706 49.4225 20.2631 50.6672 23.3929C51.9119 26.5227 52.4018 29.9017 52.0972 33.2561C51.8022 36.7892 50.6172 40.1901 48.6527 43.1416L48.2222 38.8188C48.2547 38.5644 48.2299 38.306 48.1497 38.0624C48.0695 37.8188 47.936 37.5961 47.7588 37.4108C47.5815 37.2254 47.3652 37.0819 47.1254 36.9908C46.8857 36.8997 46.6286 36.8634 46.373 36.8843C46.1174 36.9053 45.8697 36.9831 45.648 37.112C45.4263 37.241 45.2362 37.4178 45.0916 37.6296C44.9469 37.8414 44.8514 38.0828 44.812 38.3362C44.7726 38.5897 44.7903 38.8487 44.8638 39.0944L45.725 50.1855L56.4888 47.3266C56.9152 47.2019 57.2769 46.9173 57.4984 46.5321C57.7198 46.147 57.7839 45.6912 57.6772 45.26Z" fill="black"/>
<path d="M7.42282 29.4156C7.65171 29.5628 7.91062 29.6569 8.18059 29.6912C8.63006 29.7501 9.08465 29.6295 9.44575 29.3554C9.80685 29.0814 10.0453 28.676 10.1095 28.2273C10.8211 22.973 13.4913 18.1816 17.5855 14.8124C21.6796 11.4432 26.8954 9.74496 32.1884 10.0578L28.3306 12.6928C28.0576 12.8985 27.852 13.1807 27.7399 13.5035C27.6278 13.8263 27.6143 14.1752 27.7011 14.5058C27.7879 14.8363 27.9711 15.1336 28.2273 15.3597C28.4836 15.5858 28.8013 15.7306 29.14 15.7756C29.528 15.8111 29.9166 15.7139 30.2423 15.5L39.4217 9.19672L31.5684 1.30894C31.4286 1.0948 31.2429 0.914469 31.0248 0.781034C30.8067 0.6476 30.5616 0.564413 30.3073 0.537512C30.053 0.51061 29.7959 0.54067 29.5547 0.625509C29.3135 0.710348 29.0942 0.847836 28.9127 1.02799C28.7313 1.20815 28.5922 1.42645 28.5056 1.66706C28.419 1.90766 28.3871 2.16452 28.4122 2.41899C28.4372 2.67347 28.5187 2.91916 28.6505 3.13825C28.7824 3.35734 28.9614 3.54431 29.1745 3.68561L32.1023 6.61338C25.9898 6.32112 19.9899 8.33107 15.287 12.2464C10.584 16.1618 7.51992 21.6981 6.69948 27.7623C6.65533 28.0778 6.69956 28.3994 6.82726 28.6913C6.95496 28.9832 7.16112 29.2339 7.42282 29.4156Z" fill="black"/>
<path d="M37.4239 51.5461C34.7346 52.4051 31.8977 52.7041 29.0884 52.4244C25.6669 52.089 22.3785 50.926 19.5071 49.0357C16.6356 47.1454 14.2673 44.5846 12.6067 41.5744L16.8951 43.1761C17.2903 43.2446 17.6972 43.173 18.0453 42.9736C18.3935 42.7742 18.6611 42.4596 18.8019 42.0839C18.9428 41.7082 18.9481 41.2952 18.8169 40.916C18.6857 40.5369 18.4263 40.2154 18.0834 40.0072L10.1784 37.0794L7.64672 36.1666L5.73505 47.1027C5.66878 47.5397 5.77306 47.9855 6.02632 48.3478C6.27958 48.71 6.66242 48.961 7.09561 49.0488H7.38838C7.79373 49.0562 8.18868 48.9204 8.50371 48.6652C8.81873 48.41 9.03365 48.0519 9.11061 47.6538L9.83394 43.5205C11.7818 46.9327 14.5178 49.8294 17.8135 51.9685C21.1091 54.1077 24.8687 55.4273 28.7784 55.8172C32.0471 56.1411 35.3475 55.7894 38.4745 54.7838C38.8727 54.619 39.1945 54.3108 39.3766 53.9202C39.5586 53.5296 39.5877 53.085 39.4579 52.674C39.3281 52.2631 39.049 51.9157 38.6756 51.7005C38.3023 51.4853 37.8618 51.4179 37.4412 51.5116L37.4239 51.5461Z" fill="black"/>
<path d="M37.8889 22.3889H24.1111C23.6544 22.3889 23.2163 22.5704 22.8933 22.8933C22.5704 23.2163 22.3889 23.6544 22.3889 24.1111V37.8889C22.3889 38.3457 22.5704 38.7837 22.8933 39.1067C23.2163 39.4297 23.6544 39.6111 24.1111 39.6111H37.8889C38.3457 39.6111 38.7837 39.4297 39.1067 39.1067C39.4297 38.7837 39.6111 38.3457 39.6111 37.8889V24.1111C39.6111 23.6544 39.4297 23.2163 39.1067 22.8933C38.7837 22.5704 38.3457 22.3889 37.8889 22.3889ZM36.1667 36.1667H25.8334V25.8334H36.1667V36.1667Z" fill="#F15A29"/>
</g>
<defs>
<clipPath id="clip0_6434_6638">
<rect width="62" height="62" fill="white"/>
</clipPath>
</defs>
</svg>
