<svg width="54" height="54" viewBox="0 0 54 54" fill="none" xmlns="http://www.w3.org/2000/svg">
<path d="M53.1 47.7H52.2V18.9C52.2 17.37 51.03 16.2 49.5 16.2H44.1V18H49.5C50.04 18 50.4 18.36 50.4 18.9V48.5999C50.4 49.1399 50.76 49.5 51.3 49.5H52.2V52.2H1.8V49.5H2.7H48.6V47.7H3.6V18.9C3.6 18.36 3.96 18 4.5 18H10.8V16.2H4.5C2.97 16.2 1.8 17.37 1.8 18.9V47.7H0.9C0.36 47.7 0 48.0599 0 48.5999V52.2C0 53.2799 0.72 54 1.8 54H52.2C53.28 54 54 53.2799 54 52.2V48.5999C54 48.0599 53.64 47.7 53.1 47.7Z" fill="black"/>
<path d="M24.3 28.44V33.3H22.5C21.96 33.3 21.6 33.66 21.6 34.2V44.1H6.3V20.7H10.8V18.9H5.4C4.86 18.9 4.5 19.26 4.5 19.8V45C4.5 45.54 4.86 45.9 5.4 45.9H22.5H32.4H48.6C49.14 45.9 49.5 45.54 49.5 45V19.8C49.5 19.26 49.14 18.9 48.6 18.9H44.1V20.7H47.7V44.1H33.3V34.2C33.3 33.66 32.94 33.3 32.4 33.3H30.6V28.35C37.08 26.91 41.67 21.15 41.67 14.4C41.67 6.48 35.19 0 27.27 0C19.35 0 12.87 6.48 12.87 14.4C12.87 21.24 17.64 27.09 24.3 28.44ZM31.5 44.1H23.4V42.3H27.9V40.5H23.4V38.7H27.9V36.9H23.4V35.1H25.2H29.7H31.5V44.1ZM27.27 1.8C34.2 1.8 39.87 7.47 39.87 14.4C39.87 20.52 35.46 25.74 29.52 26.73C29.16 26.82 28.8 27.18 28.8 27.63V33.3H26.1V27.72C26.1 27.27 25.83 26.91 25.38 26.82C19.17 25.92 14.67 20.7 14.67 14.4C14.67 7.47 20.34 1.8 27.27 1.8Z" fill="black"/>
<path d="M27.27 25.2C33.21 25.2 38.07 20.34 38.07 14.4C38.07 8.45998 33.21 3.59998 27.27 3.59998H27C21.06 3.77998 16.47 8.54998 16.47 14.4C16.47 20.34 21.33 25.2 27.27 25.2ZM36.18 13.5H27.9V11.7H33.3V9.89998H27.9V8.99998H29.7V7.19998H27.9V5.39998C32.22 5.75998 35.73 9.17998 36.18 13.5ZM26.1 5.48998V14.4C26.1 14.94 26.46 15.3 27 15.3H36.27C35.73 19.8 31.95 23.4 27.27 23.4C22.32 23.4 18.27 19.35 18.27 14.4C18.27 9.80998 21.6 6.11998 26.1 5.48998Z" fill="#F15A29"/>
<path d="M12.6 30.6H9V32.4H12.6V30.6Z" fill="black"/>
<path d="M12.6 26.1H9V27.9H12.6V26.1Z" fill="black"/>
<path d="M18.9 30.6H15.3V32.4H18.9V30.6Z" fill="black"/>
<path d="M18.9 35.1H15.3V36.9H18.9V35.1Z" fill="black"/>
<path d="M12.6 35.1H9V36.9H12.6V35.1Z" fill="black"/>
<path d="M12.6 39.6H9V41.4H12.6V39.6Z" fill="black"/>
<path d="M18.9 39.6H15.3V41.4H18.9V39.6Z" fill="black"/>
<path d="M38.7001 30.6H35.1001V32.4H38.7001V30.6Z" fill="black"/>
<path d="M44.9999 30.6H41.3999V32.4H44.9999V30.6Z" fill="black"/>
<path d="M44.9999 26.1H41.3999V27.9H44.9999V26.1Z" fill="black"/>
<path d="M44.9999 35.1H41.3999V36.9H44.9999V35.1Z" fill="black"/>
<path d="M38.7001 35.1H35.1001V36.9H38.7001V35.1Z" fill="black"/>
<path d="M38.7001 39.6H35.1001V41.4H38.7001V39.6Z" fill="black"/>
<path d="M44.9999 39.6H41.3999V41.4H44.9999V39.6Z" fill="black"/>
</svg>
