<svg width="41" height="42" viewBox="0 0 41 42" fill="none" xmlns="http://www.w3.org/2000/svg">
<path d="M15.73 -1.50196e-07L3.47996 -6.79797e-07C1.56617 -7.62535e-07 0.00582497 1.56034 0.00582489 3.47414L0.00582435 15.7241C0.00582426 17.6379 1.56617 19.1983 3.47996 19.1983L15.73 19.1983C17.6438 19.1983 19.2041 17.6379 19.2041 15.7241L19.2041 3.47414C19.2041 1.56034 17.6438 -6.7458e-08 15.73 -1.50196e-07ZM15.73 2.11207C16.48 2.11207 17.092 2.72414 17.092 3.47414L17.092 15.7241C17.092 16.4741 16.48 17.0862 15.73 17.0862L3.47996 17.0862C2.72996 17.0862 2.11789 16.4741 2.11789 15.7241L2.11789 3.47414C2.11789 2.72414 2.72996 2.11207 3.47996 2.11207L15.73 2.11207Z" fill="#F15A29"/>
<path d="M21.5229 9.60343C21.5229 10.1896 21.9971 10.6638 22.5833 10.6638L37.3074 10.6638L32.2902 15.681C32.0833 15.8879 31.9798 16.1552 31.9798 16.431C31.9798 16.7069 32.0833 16.9741 32.2902 17.181C32.704 17.5948 33.3678 17.5948 33.7816 17.181L40.6005 10.3621C40.9971 9.9655 40.9971 9.26722 40.6005 8.87067L33.7816 2.03447C33.3678 1.62067 32.704 1.62067 32.2902 2.03447C31.8764 2.44826 31.8764 3.11205 32.2902 3.52584L37.3074 8.54309L22.5833 8.54309C21.9971 8.54309 21.5229 9.01722 21.5229 9.60343Z" fill="black"/>
<path d="M25.1782 42L37.4282 42C39.342 42 40.9023 40.4397 40.9023 38.5259L40.9023 26.2759C40.9023 24.3621 39.342 22.8018 37.4282 22.8018L25.1782 22.8018C23.2644 22.8018 21.7041 24.3621 21.7041 26.2759L21.7041 38.5259C21.7041 40.4397 23.2644 42 25.1782 42ZM25.1782 39.888C24.4282 39.888 23.8161 39.2759 23.8161 38.5259L23.8161 26.2759C23.8161 25.5259 24.4282 24.9138 25.1782 24.9138L37.4282 24.9138C38.1782 24.9138 38.7903 25.5259 38.7903 26.2759L38.7903 38.5259C38.7903 39.2759 38.1782 39.888 37.4282 39.888L25.1782 39.888Z" fill="#F15A29"/>
<path d="M19.385 32.3965C19.385 31.8103 18.9109 31.3362 18.3247 31.3362L3.60053 31.3362L8.61777 26.3189C9.03156 25.9051 9.03156 25.2413 8.61777 24.8276C8.20398 24.4138 7.54018 24.4138 7.12639 24.8276L0.307424 31.6465C0.100528 31.8534 -0.00292049 32.1207 -0.0029205 32.3965C-0.00292051 32.6724 0.100528 32.9396 0.307424 33.1465L7.12639 39.9655C7.54018 40.3793 8.20397 40.3793 8.61777 39.9655C9.03156 39.5517 9.03156 38.8879 8.61777 38.4741L3.60053 33.4569L18.3247 33.4569C18.9109 33.4569 19.385 32.9827 19.385 32.3965Z" fill="black"/>
</svg>
