<svg width="95" height="95" viewBox="0 0 95 95" fill="none" xmlns="http://www.w3.org/2000/svg">
<rect x="0.38" y="0.38" width="94.24" height="94.24" rx="47.12" stroke="white" stroke-width="0.76"/>
<rect x="19.7598" y="19.76" width="55.48" height="55.48" rx="27.74" fill="white"/>
<path d="M45.0678 52.364L52.3638 47.5L45.0678 42.636V52.364ZM47.4998 59.66C45.8177 59.66 44.2369 59.3408 42.7574 58.7024C41.278 58.064 39.991 57.1976 38.8966 56.1032C37.8022 55.0088 36.9358 53.7218 36.2974 52.2424C35.659 50.7629 35.3398 49.1821 35.3398 47.5C35.3398 46.6285 35.431 45.7722 35.6134 44.9312C35.7958 44.0901 36.0593 43.2744 36.4038 42.484L38.2886 44.3688C38.1265 44.8957 37.9998 45.4176 37.9086 45.9344C37.8174 46.4512 37.7718 46.973 37.7718 47.5C37.7718 50.2157 38.7142 52.516 40.599 54.4008C42.4838 56.2856 44.7841 57.228 47.4998 57.228C50.2156 57.228 52.5158 56.2856 54.4006 54.4008C56.2854 52.516 57.2278 50.2157 57.2278 47.5C57.2278 44.7842 56.2854 42.484 54.4006 40.5992C52.5158 38.7144 50.2156 37.772 47.4998 37.772C46.9526 37.772 46.4206 37.8176 45.9038 37.9088C45.387 38 44.8753 38.1266 44.3686 38.2888L42.5142 36.4344C43.3249 36.0696 44.1356 35.796 44.9462 35.6136C45.7569 35.4312 46.6081 35.34 47.4998 35.34C49.182 35.34 50.7628 35.6592 52.2422 36.2976C53.7217 36.936 55.0086 37.8024 56.103 38.8968C57.1974 39.9912 58.0638 41.2781 58.7022 42.7576C59.3406 44.237 59.6598 45.8178 59.6598 47.5C59.6598 49.1821 59.3406 50.7629 58.7022 52.2424C58.0638 53.7218 57.1974 55.0088 56.103 56.1032C55.0086 57.1976 53.7217 58.064 52.2422 58.7024C50.7628 59.3408 49.182 59.66 47.4998 59.66ZM39.5958 41.42C39.0892 41.42 38.6585 41.2426 38.3038 40.888C37.9492 40.5333 37.7718 40.1026 37.7718 39.596C37.7718 39.0893 37.9492 38.6586 38.3038 38.304C38.6585 37.9493 39.0892 37.772 39.5958 37.772C40.1025 37.772 40.5332 37.9493 40.8878 38.304C41.2425 38.6586 41.4198 39.0893 41.4198 39.596C41.4198 40.1026 41.2425 40.5333 40.8878 40.888C40.5332 41.2426 40.1025 41.42 39.5958 41.42Z" fill="#F15A29"/>
</svg>
