<svg width="44" height="44" viewBox="0 0 44 44" fill="none" xmlns="http://www.w3.org/2000/svg">
<path fill-rule="evenodd" clip-rule="evenodd" d="M37.5294 33.7584C36.8616 33.7584 36.2405 33.9369 35.6918 34.2294L27.2567 25.7633C27.7925 25.0127 28.1729 24.1508 28.3489 23.2113H31.2814C31.8016 24.7021 33.2329 25.7788 34.9412 25.7788C37.0868 25.7788 38.8235 24.0913 38.8235 22.0052C38.8235 19.9191 37.0868 18.2315 34.9412 18.2315C33.1967 18.2315 31.7421 19.3574 31.2504 20.8948H28.3541C28.1936 19.9941 27.8598 19.1555 27.3654 18.4256L35.8807 9.87929C36.3828 10.1096 36.9367 10.2494 37.5294 10.2494C39.6751 10.2494 41.4118 8.56188 41.4118 6.47577C41.4118 4.38965 39.6751 2.70212 37.5294 2.70212C35.3863 2.70212 33.6522 4.38965 33.6522 6.47577C33.6522 7.15129 33.8463 7.77765 34.1673 8.32635L25.74 16.7873C24.9816 16.2515 24.112 15.8736 23.1621 15.7028V12.6461C24.7332 12.1647 25.8823 10.7541 25.8823 9.064C25.8823 6.97788 24.1456 5.29035 22 5.29035C19.8569 5.29035 18.1228 6.97788 18.1228 9.064C18.1228 10.7593 19.2746 12.1776 20.8612 12.6539V15.7002C19.9191 15.8659 19.0494 16.2308 18.2962 16.7562L9.85859 8.29012C10.164 7.74918 10.3529 7.13835 10.3529 6.47835C10.3529 4.39224 8.61623 2.70471 6.47059 2.70471C4.32753 2.70471 2.59341 4.39224 2.59341 6.47835C2.59341 8.56447 4.32753 10.252 6.47059 10.252C7.07623 10.252 7.64823 10.1045 8.15811 9.86377L16.6605 18.3972C16.1532 19.1348 15.8064 19.9838 15.6433 20.9H12.7496C12.2605 19.36 10.8007 18.2367 9.05623 18.2367C6.91317 18.2367 5.17906 19.9242 5.17906 22.0104C5.17906 24.0965 6.91317 25.784 9.05623 25.784C10.7645 25.784 12.2009 24.7073 12.716 23.2165H15.6485C15.8245 24.1715 16.2205 25.0464 16.7718 25.8047L8.34964 34.2579C7.79059 33.9551 7.15647 33.7687 6.468 33.7687C4.32494 33.7687 2.59082 35.4562 2.59082 37.5424C2.59082 39.6285 4.32494 41.316 6.468 41.316C8.61364 41.316 10.3504 39.6285 10.3504 37.5424C10.3504 36.9574 10.2028 36.4113 9.96211 35.9221L18.4386 27.4094C19.1555 27.8856 19.976 28.2092 20.8586 28.3645V31.3642C19.2746 31.8405 18.1202 33.2562 18.1202 34.9541C18.1202 37.0402 19.8543 38.7278 21.9974 38.7278C24.1431 38.7278 25.8798 37.0402 25.8798 34.9541C25.8798 33.2666 24.7332 31.8534 23.1595 31.372V28.3619C24.0499 28.2014 24.8755 27.8701 25.5976 27.3861L34.0586 35.8781C33.8024 36.3802 33.6496 36.9419 33.6496 37.5424C33.6496 39.6285 35.3838 41.316 37.5268 41.316C39.6725 41.316 41.4092 39.6285 41.4092 37.5424C41.4092 35.4562 39.6751 33.7584 37.5294 33.7584Z" fill="black"/>
</svg>
