<svg width="35" height="34" viewBox="0 0 35 34" fill="none" xmlns="http://www.w3.org/2000/svg">
<path fill-rule="evenodd" clip-rule="evenodd" d="M17.6527 27.7459L17.1496 29.053C17.0658 29.271 16.8563 29.4149 16.6226 29.4149H12.796C12.5624 29.4149 12.3529 29.271 12.269 29.053L11.4727 26.9839C10.365 26.6931 9.30593 26.2519 8.31819 25.6775L6.28864 26.5765C6.07525 26.671 5.82565 26.6245 5.66061 26.4594L2.95539 23.7542C2.79014 23.589 2.74376 23.339 2.83871 23.1255L3.74047 21.0974C3.16391 20.1124 2.72513 19.0513 2.43198 17.9464L0.361835 17.1497C0.143788 17.0658 0 16.8563 0 16.6227V12.7961C0 12.5624 0.143788 12.3529 0.361835 12.269L2.43176 11.4724C2.72499 10.3647 3.16384 9.30579 3.74061 8.31798L2.83871 6.28941C2.74376 6.07588 2.79014 5.82593 2.95539 5.66068L5.66061 2.95546C5.82586 2.79021 6.07581 2.74376 6.28934 2.83878L8.31784 3.74075C9.30565 3.16391 10.3644 2.72534 11.469 2.43494L12.2692 0.361412C12.3532 0.143647 12.5626 0 12.796 0H16.6226C16.8563 0 17.0659 0.144 17.1498 0.362188L17.9462 2.43508C19.0507 2.72548 20.1092 3.16398 21.0968 3.74068L23.1254 2.83878C23.3389 2.74376 23.589 2.79021 23.7542 2.95546L26.4594 5.66068C26.6245 5.82572 26.6709 6.07525 26.5764 6.28871L25.6777 8.31748C26.2547 9.30558 26.6934 10.3648 26.9839 11.4727L29.0529 12.269C29.271 12.3529 29.4148 12.5624 29.4148 12.7961V16.6227C29.4148 16.8563 29.271 17.0658 29.0529 17.1497L28.024 17.5457C28.2393 18.2816 28.3547 19.0602 28.3547 19.8656C28.3547 21.4525 27.9067 22.9348 27.1302 24.1928L28.8615 25.8728C29.3201 25.6674 29.8796 25.7476 30.2606 26.1174L34.4814 30.2131C34.98 30.6971 34.9922 31.5009 34.5083 31.9996L32.9843 33.5701C32.5005 34.0687 31.6967 34.0807 31.1979 33.597L26.9771 29.5013C26.5827 29.1186 26.4926 28.5357 26.7115 28.062L25.0618 26.4611C23.6816 27.5003 21.9648 28.1162 20.1042 28.1162C19.2505 28.1162 18.4271 27.9865 17.6527 27.7459ZM27.633 16.486L28.2854 16.2349V13.1838L26.3043 12.4213C26.1303 12.3544 26.0006 12.2059 25.9576 12.0245C25.6748 10.8308 25.2047 9.696 24.562 8.65299C24.4643 8.49452 24.4511 8.29814 24.5264 8.12802L25.3869 6.18537L23.2299 4.02833L21.2876 4.89198C21.1172 4.96765 20.9205 4.95445 20.7619 4.85668C19.7188 4.21398 18.5838 3.74379 17.3938 3.46101C17.2124 3.41788 17.0641 3.28807 16.9972 3.11414L16.2347 1.12941H13.1834L12.4172 3.11485C12.3503 3.28849 12.202 3.41795 12.021 3.46101C10.8309 3.74379 9.696 4.21398 8.65292 4.85668C8.49424 4.95445 8.29751 4.96765 8.12725 4.89198L6.18494 4.02833L4.02826 6.18501L4.89191 8.12732C4.96758 8.29758 4.95445 8.49431 4.85668 8.65299C4.21362 9.69649 3.74336 10.8319 3.45678 12.0261C3.41344 12.2068 3.28391 12.3546 3.11047 12.4213L1.12941 13.1838V16.2349L3.11047 16.9974C3.28377 17.0641 3.41322 17.2117 3.45671 17.3922C3.74322 18.5826 4.21327 19.7215 4.85619 20.7612C4.95438 20.92 4.96772 21.117 4.89191 21.2876L4.02826 23.2299L6.18536 25.387L8.12795 24.5265C8.29765 24.4513 8.49339 24.4643 8.65165 24.5613C9.69515 25.2006 10.8304 25.6748 12.0244 25.9577C12.2058 26.0007 12.3544 26.1304 12.4213 26.3044L13.1838 28.2855H16.2349L16.5998 27.3372C14.7348 26.461 13.2513 24.9071 12.4667 22.9927C8.81372 22.0076 6.12706 18.6702 6.12706 14.7052C6.12706 9.96544 9.96537 6.12706 14.7051 6.12706C18.5344 6.12706 21.7782 8.6328 22.8832 12.0947C25.0002 12.8519 26.7175 14.4497 27.633 16.486ZM26.4648 25.1208C26.2926 25.329 26.1103 25.5287 25.9187 25.719L27.4473 27.2023L28.0111 26.6213L26.4648 25.1208ZM12.0519 21.6721C11.922 21.0907 11.8535 20.4862 11.8535 19.8656C11.8535 19.4411 11.8855 19.024 11.9473 18.6168C10.7221 17.7502 9.92259 16.3216 9.92259 14.7062C9.92259 12.0631 12.063 9.92266 14.7061 9.92266C16.2437 9.92266 17.612 10.647 18.4876 11.7733C19.0103 11.6694 19.5509 11.615 20.1042 11.615C20.5957 11.615 21.0772 11.658 21.5451 11.7404C20.3984 9.10101 17.7671 7.25647 14.7051 7.25647C10.5894 7.25647 7.25647 10.5894 7.25647 14.7052C7.25647 17.8862 9.2472 20.6026 12.0519 21.6721ZM12.2296 17.3953C12.9978 14.9444 14.8787 12.9856 17.2805 12.1108C16.6196 11.4563 15.7101 11.0521 14.7061 11.0521C12.6871 11.0521 11.052 12.6872 11.052 14.7062C11.052 15.7696 11.5055 16.7271 12.2296 17.3953ZM20.1042 12.7444C16.1711 12.7444 12.9829 15.9327 12.9829 19.8656C12.9829 23.7985 16.1711 26.9868 20.1042 26.9868C24.0371 26.9868 27.2253 23.7985 27.2253 19.8656C27.2253 15.9327 24.0371 12.7444 20.1042 12.7444ZM20.1041 13.4183C23.6648 13.4183 26.5514 16.3048 26.5514 19.8656C26.5514 23.4263 23.6648 26.3129 20.1041 26.3129C16.5434 26.3129 13.6568 23.4263 13.6568 19.8656C13.6568 16.3048 16.5434 13.4183 20.1041 13.4183ZM20.1041 14.5477C17.1671 14.5477 14.7862 16.9286 14.7862 19.8656C14.7862 22.8025 17.1671 25.1835 20.1041 25.1835C23.0411 25.1835 25.422 22.8025 25.422 19.8656C25.422 16.9286 23.0411 14.5477 20.1041 14.5477ZM32.1738 32.7835L33.6978 31.2131C33.7491 31.1602 33.7477 31.0749 33.6948 31.0236L29.474 26.9279C29.4212 26.8765 29.3359 26.8779 29.2846 26.9308L27.7607 28.5012C27.7093 28.5541 27.7107 28.6393 27.7636 28.6907L31.9842 32.7863C32.0372 32.8376 32.1224 32.8364 32.1738 32.7835Z" fill="black"/>
<path fill-rule="evenodd" clip-rule="evenodd" d="M18.9016 19.6022L21.4668 17.0103L21.4679 17.0092C22.0386 16.4355 22.9702 16.4327 23.5439 17.0036C24.1174 17.574 24.1212 18.5022 23.5507 19.0786C22.3472 20.2931 21.1525 21.515 19.9436 22.724C19.3701 23.2973 18.4391 23.2973 17.8656 22.724L15.862 20.7185C15.2888 20.1454 15.2879 19.2177 15.861 18.6416L15.862 18.6406C16.4355 18.0671 17.3665 18.0671 17.9399 18.6406L18.9016 19.6022ZM18.5044 20.8022L17.1414 19.4392C17.0089 19.3067 16.7939 19.3065 16.6607 19.4391C16.5287 19.5728 16.528 19.7873 16.6607 19.9199L18.6642 21.9253C18.7969 22.058 19.0123 22.058 19.1449 21.9253C20.3526 20.7176 21.5457 19.4972 22.748 18.2841C22.8799 18.1508 22.8801 17.9362 22.7474 17.8042C22.6151 17.6726 22.4004 17.6734 22.2688 17.8055L19.305 20.8001C19.1994 20.9069 19.0554 20.9672 18.9052 20.9676C18.7549 20.968 18.6107 20.9085 18.5044 20.8022Z" fill="#F15A29"/>
</svg>
