<svg width="36" height="36" viewBox="0 0 36 36" fill="none" xmlns="http://www.w3.org/2000/svg">
<path d="M28.8669 29.16C25.8519 32.4338 21.5657 34.3125 17.1051 34.3125C13.3532 34.3125 9.79818 33.0188 6.94068 30.6563L8.3638 30.6675H8.36943C8.66755 30.6675 8.91505 30.4256 8.91505 30.1275C8.91505 29.8238 8.67318 29.5819 8.37505 29.5763L5.55693 29.5594C5.39943 29.5594 5.2588 29.6213 5.15755 29.7281C5.05068 29.8406 5.00005 29.9869 5.0113 30.1388L5.19693 32.9513C5.2138 33.2381 5.45568 33.4631 5.74255 33.4631H5.78193C6.08005 33.4406 6.31068 33.1819 6.28818 32.8838L6.18693 31.4494C9.24693 34.0088 13.0719 35.4038 17.1051 35.4038C21.8694 35.4038 26.4538 33.3956 29.6713 29.8969C29.8738 29.6775 29.8626 29.3288 29.6376 29.1263C29.4182 28.9238 29.0694 28.9406 28.8669 29.16Z" fill="black"/>
<path d="M35.911 20.5367C35.7422 20.2836 35.4047 20.2161 35.1516 20.3848L33.9591 21.1836C34.1222 20.2329 34.2122 19.2654 34.2122 18.2979C34.2122 16.5711 33.9535 14.8611 33.4472 13.2073C32.6822 10.7604 31.411 8.57232 29.6728 6.69919C27.3047 4.12857 24.2616 2.37357 20.8753 1.61419C20.5828 1.55232 20.2903 1.73232 20.2228 2.03044C20.1553 2.32294 20.341 2.61544 20.6391 2.68294C23.806 3.39169 26.6522 5.03419 28.8741 7.44169C30.5053 9.19669 31.6922 11.2442 32.4066 13.5336C32.8847 15.0748 33.1266 16.6779 33.1266 18.2979C33.1266 19.1754 33.0478 20.0529 32.9016 20.9192L32.1985 19.6873C32.0522 19.4229 31.7147 19.3329 31.456 19.4848C31.1916 19.6311 31.1016 19.9686 31.2535 20.2273L32.6428 22.6742C32.716 22.8036 32.8453 22.8992 32.9916 22.9329C33.031 22.9442 33.076 22.9498 33.1153 22.9498C33.2222 22.9498 33.3291 22.9161 33.4191 22.8598L35.7591 21.2904C36.0066 21.1273 36.0741 20.7898 35.911 20.5367Z" fill="#F15A29"/>
<path d="M1.09125 18.2981C1.09125 16.6781 1.33312 15.0749 1.81125 13.5337C2.51437 11.2837 3.735 9.17993 5.34938 7.43618C7.05375 5.59118 9.1575 4.18493 11.4806 3.31305L10.7606 4.53368C10.6087 4.79243 10.6931 5.12993 10.9519 5.2818C11.0362 5.33243 11.1319 5.35493 11.2275 5.35493C11.4131 5.35493 11.5931 5.2593 11.7 5.08493L13.1344 2.66055C13.2131 2.53118 13.23 2.37368 13.185 2.22743C13.14 2.08118 13.0388 1.96305 12.9038 1.89555L10.3781 0.646804C10.1081 0.511804 9.78187 0.624304 9.64687 0.894304C9.51188 1.1643 9.62438 1.49055 9.89437 1.62555L11.1769 2.26118C8.65688 3.1893 6.38438 4.70243 4.545 6.69368C2.82375 8.54993 1.51875 10.8056 0.765 13.2074C0.25875 14.8612 0 16.5712 0 18.2981C0 20.0193 0.25875 21.7293 0.765 23.3831C0.838125 23.6193 1.05187 23.7712 1.28813 23.7712C1.33875 23.7712 1.395 23.7656 1.45125 23.7487C1.73812 23.6587 1.90125 23.3549 1.81125 23.0681C1.33312 21.5156 1.09125 19.9124 1.09125 18.2981Z" fill="black"/>
<path d="M11.3237 9.77618C11.2224 9.67493 11.0818 9.61868 10.9355 9.61868C10.7893 9.61868 10.6543 9.67493 10.5474 9.77618L8.57305 11.7506C8.3593 11.9643 8.3593 12.3074 8.57305 12.5212L9.42242 13.3706C8.83742 14.2818 8.41555 15.2999 8.18492 16.3574H6.98117C6.67742 16.3574 6.43555 16.5993 6.43555 16.9031V19.6931C6.43555 19.9968 6.67742 20.2387 6.98117 20.2387H8.18492C8.41555 21.2906 8.83742 22.3087 9.42242 23.2256L8.57305 24.0749C8.3593 24.2887 8.3593 24.6318 8.57305 24.8456L10.5474 26.8199C10.6487 26.9212 10.7893 26.9774 10.9355 26.9774C11.0818 26.9774 11.2168 26.9212 11.3237 26.8199L12.1787 25.9649C13.0899 26.5499 14.1024 26.9718 15.1655 27.2081V28.4118C15.1655 28.7156 15.4074 28.9574 15.7112 28.9574H18.5068C18.8105 28.9574 19.0524 28.7156 19.0524 28.4118V27.2081C20.1099 26.9774 21.128 26.5556 22.0393 25.9706L22.8887 26.8199C23.1024 27.0337 23.4455 27.0337 23.6593 26.8199L25.6337 24.8456C25.8474 24.6318 25.8474 24.2887 25.6337 24.0749L24.7787 23.2199C25.3693 22.3087 25.7912 21.2906 26.0218 20.2331H27.2255C27.5293 20.2331 27.7712 19.9912 27.7712 19.6874V16.8974C27.7712 16.5937 27.5293 16.3518 27.2255 16.3518H26.0218C25.7912 15.2943 25.3693 14.2762 24.7787 13.3649L25.6337 12.5099C25.8474 12.2962 25.8474 11.9531 25.6337 11.7393L23.6593 9.76493C23.558 9.66368 23.4174 9.60743 23.2712 9.60743C23.1249 9.60743 22.9899 9.66368 22.883 9.76493L22.0337 10.6143C21.1224 10.0293 20.1043 9.60743 19.0468 9.37681V8.17868C19.0468 7.87493 18.8049 7.63306 18.5012 7.63306H15.7055C15.4018 7.63306 15.1599 7.87493 15.1599 8.17868V9.37681C14.1024 9.60743 13.0843 10.0293 12.173 10.6199L11.3237 9.77618ZM15.7955 10.3724C16.0599 10.3274 16.2512 10.1024 16.2512 9.83243V8.72993H17.9555V9.83243C17.9555 10.0968 18.1468 10.3274 18.4112 10.3724C19.6205 10.5693 20.7849 11.0531 21.7749 11.7674C21.9943 11.9249 22.2924 11.8968 22.478 11.7112L23.2599 10.9293L24.4637 12.1331L23.6762 12.9206C23.4849 13.1118 23.4624 13.4099 23.6199 13.6237C24.3399 14.6137 24.8237 15.7781 25.0205 16.9874C25.0655 17.2518 25.2905 17.4431 25.5605 17.4431H26.6687V19.1418H25.5605C25.2905 19.1418 25.0655 19.3387 25.0205 19.5974C24.8237 20.8068 24.3399 21.9712 23.6199 22.9612C23.4624 23.1806 23.4849 23.4787 23.6762 23.6643L24.4637 24.4518L23.2599 25.6556L22.478 24.8737C22.2868 24.6824 21.9887 24.6599 21.7749 24.8174C20.7793 25.5318 19.6149 26.0156 18.4112 26.2124C18.1468 26.2574 17.9555 26.4824 17.9555 26.7524V27.8606H16.2512V26.7524C16.2512 26.4881 16.0599 26.2574 15.7955 26.2124C14.5862 26.0156 13.4218 25.5318 12.4318 24.8118C12.2124 24.6543 11.9143 24.6768 11.7287 24.8681L10.9412 25.6556L9.73742 24.4518L10.5193 23.6699C10.7105 23.4787 10.733 23.1862 10.5755 22.9668C9.85555 21.9656 9.3718 20.7956 9.18055 19.5974C9.13555 19.3331 8.91055 19.1418 8.64055 19.1418H7.53805V17.4431H8.64617C8.91055 17.4431 9.14117 17.2518 9.18617 16.9874C9.38867 15.7612 9.85555 14.6306 10.5812 13.6181C10.7387 13.3987 10.7105 13.1062 10.5249 12.9149L9.74305 12.1331L10.9468 10.9293L11.7343 11.7168C11.9255 11.9081 12.2237 11.9306 12.4374 11.7731C13.4218 11.0587 14.5862 10.5749 15.7955 10.3724Z" fill="black"/>
<path d="M17.1066 24.1311C20.3241 24.1311 22.9397 21.5155 22.9397 18.298C22.9397 15.0805 20.3241 12.4648 17.1066 12.4648C13.8891 12.4648 11.2734 15.0805 11.2734 18.298C11.2734 21.5155 13.8891 24.1311 17.1066 24.1311ZM17.1066 13.5617C19.7222 13.5617 21.8484 15.688 21.8484 18.3036C21.8484 20.9192 19.7222 23.0455 17.1066 23.0455C14.4909 23.0455 12.3647 20.9192 12.3647 18.3036C12.3647 15.688 14.4909 13.5617 17.1066 13.5617Z" fill="#F15A29"/>
</svg>
