<svg width="36" height="29" viewBox="0 0 36 29" fill="none" xmlns="http://www.w3.org/2000/svg">
<path fill-rule="evenodd" clip-rule="evenodd" d="M6.27094 13.3263C6.92182 13.3263 7.45151 13.8595 7.45151 14.514C7.45151 15.1686 6.92182 15.7014 6.27094 15.7014C5.62015 15.7014 5.09094 15.1686 5.09094 14.514C5.09094 13.8594 5.62015 13.3263 6.27094 13.3263ZM13.8814 5.77022C14.5322 5.77022 15.0615 6.30296 15.0615 6.95749C15.0615 7.6121 14.5323 8.14531 13.8814 8.14531C13.2301 8.14531 12.7009 7.6121 12.7009 6.95749C12.7009 6.30296 13.2301 5.77022 13.8814 5.77022ZM21.5009 13.3263C22.1517 13.3263 22.6813 13.8595 22.6813 14.514C22.6813 15.1686 22.1517 15.7014 21.5009 15.7014C20.85 15.7014 20.3203 15.1686 20.3203 14.514C20.3203 13.8594 20.85 13.3263 21.5009 13.3263ZM29.1103 5.77022C29.7611 5.77022 30.2908 6.30296 30.2908 6.95749C30.2908 7.6121 29.7611 8.14531 29.1103 8.14531C28.4596 8.14531 27.9298 7.6121 27.9298 6.95749C27.9299 6.30296 28.4596 5.77022 29.1103 5.77022ZM6.27094 16.7986C8.04063 16.7986 9.11647 14.8501 8.22292 13.3466L12.6957 8.90501C13.423 9.35507 14.3405 9.35547 15.0676 8.90453L19.5479 13.348C18.6564 14.8551 19.7345 16.7986 21.5009 16.7986C23.2651 16.7986 24.3483 14.8576 23.4524 13.3466L27.9247 8.90501C29.4272 9.83342 31.3814 8.74481 31.3814 6.95741C31.3814 5.69808 30.3625 4.67334 29.1103 4.67334C27.3465 4.67334 26.2627 6.61371 27.1588 8.12483L22.6861 12.5664C21.9589 12.1158 21.0408 12.1165 20.3137 12.5669L15.8334 8.12338C16.7268 6.61676 15.6476 4.67334 13.8815 4.67334C12.1183 4.67334 11.0342 6.61146 11.9295 8.12483L7.4567 12.5664C5.95781 11.6389 4 12.724 4 14.5139C3.99992 15.7734 5.01881 16.7986 6.27094 16.7986Z" fill="#F15A29"/>
<path fill-rule="evenodd" clip-rule="evenodd" d="M27.6317 27.9027V12.7138H31.211V27.9027H27.6317ZM20.0175 27.9027V19.7083H23.5963V27.9028L20.0175 27.9027ZM12.4028 27.9027V14.0414H15.9826V27.9027H12.4028ZM4.78904 27.9027V21.342H8.3678V27.9027H4.78904ZM9.45882 25.6575H11.3118V27.9027H9.45882V25.6575ZM17.0735 25.6575H18.9265V27.9027H17.0735V25.6575ZM24.6873 25.6575H26.5408V27.9027H24.6873V25.6575ZM2.86957 24.5603H3.69802V20.7937C3.69802 20.4908 3.94262 20.2448 4.24329 20.2448H8.91355C9.21422 20.2448 9.45882 20.4908 9.45882 20.7937V24.5603H11.3118V13.493C11.3118 13.1892 11.5564 12.9441 11.8576 12.9441H16.5278C16.829 12.9441 17.0736 13.1892 17.0736 13.493V24.5603H18.9266V19.1593C18.9266 18.8564 19.1707 18.6109 19.4718 18.6109H24.1416C24.4437 18.6109 24.6874 18.8564 24.6874 19.1593V24.5603H26.5409V12.1654C26.5409 11.8625 26.7855 11.617 27.0866 11.617H31.7564C32.0575 11.617 32.3021 11.8625 32.3021 12.1654V24.5603H33.1302C33.9077 24.5603 34.5406 23.9242 34.5406 23.1417V2.51585C34.5406 1.73422 33.9077 1.0972 33.1302 1.0972H2.86957C2.09241 1.0972 1.45863 1.73422 1.45863 2.51585V23.1417C1.45863 23.9242 2.09241 24.5603 2.86957 24.5603ZM35.4548 27.9027H32.302V25.6575H33.13C34.5089 25.6575 35.6315 24.529 35.6315 23.1417V2.51585C35.6315 1.12854 34.5089 0 33.13 0H2.86957C1.49066 0 0.368093 1.12854 0.368093 2.51585V23.1417C0.368093 24.529 1.49066 25.6575 2.86957 25.6575H3.69802V27.9027H0.545269C0.244117 27.9027 0 28.1482 0 28.4511C0 28.7545 0.244117 29 0.545269 29H35.4547C35.7554 29 36 28.7545 36 28.4511C36.0001 28.1482 35.7554 27.9027 35.4548 27.9027Z" fill="black"/>
</svg>
