<svg width="33" height="33" viewBox="0 0 33 33" fill="none" xmlns="http://www.w3.org/2000/svg">
<path d="M16.4062 32.8125C25.4672 32.8125 32.8125 25.4672 32.8125 16.4062C32.8125 7.34533 25.4672 0 16.4062 0C7.34533 0 0 7.34533 0 16.4062C0 25.4672 7.34533 32.8125 16.4062 32.8125Z" fill="white"/>
<path d="M18.0142 9.81278L19.1736 12.1565C19.3022 12.4168 19.4921 12.642 19.727 12.8127C19.9619 12.9833 20.2347 13.0944 20.522 13.1362L23.1158 13.5128C23.4465 13.5611 23.7571 13.701 24.0125 13.9166C24.2679 14.1321 24.4579 14.4148 24.5611 14.7327C24.6643 15.0506 24.6766 15.391 24.5965 15.7155C24.5164 16.04 24.3472 16.3356 24.1079 16.569L22.2329 18.3987C22.0233 18.6032 21.8669 18.856 21.7776 19.1349C21.6883 19.4139 21.6686 19.7104 21.7204 19.9987L22.1642 22.5815C22.2206 22.9111 22.1838 23.2498 22.0578 23.5595C21.9318 23.8692 21.7216 24.1374 21.4512 24.3339C21.1807 24.5304 20.8606 24.6474 20.5272 24.6715C20.1937 24.6957 19.8602 24.6261 19.5642 24.4706L17.2439 23.2503C16.9868 23.1152 16.7007 23.0446 16.4103 23.0446C16.1199 23.0446 15.8338 23.1152 15.5767 23.2503L13.2564 24.4706C12.9604 24.6261 12.6269 24.6957 12.2934 24.6715C11.9599 24.6474 11.6399 24.5304 11.3694 24.3339C11.0989 24.1374 10.8888 23.8692 10.7628 23.5595C10.6368 23.2498 10.6 22.9111 10.6564 22.5815L11.0954 19.9987C11.1445 19.7124 11.1232 19.4184 11.0333 19.1421C10.9435 18.8658 10.7879 18.6155 10.5798 18.4128L8.70482 16.5831C8.46557 16.3497 8.29635 16.0541 8.21627 15.7296C8.13619 15.4051 8.14844 15.0647 8.25164 14.7468C8.35484 14.4289 8.54488 14.1462 8.80029 13.9306C9.0557 13.715 9.3663 13.5752 9.69701 13.5268L12.2908 13.1503C12.5781 13.1084 12.8509 12.9974 13.0858 12.8267C13.3207 12.6561 13.5106 12.4309 13.6392 12.1706L14.7986 9.82684C14.9451 9.52594 15.173 9.27209 15.4564 9.09403C15.7397 8.91597 16.0673 8.82082 16.402 8.81935C16.7367 8.81789 17.0651 8.91017 17.35 9.08574C17.635 9.26132 17.865 9.51317 18.0142 9.81278Z" fill="#F15A29"/>
</svg>
