<svg width="36" height="36" viewBox="0 0 36 36" fill="none" xmlns="http://www.w3.org/2000/svg">
<path d="M35.4 34.8H33V18C32.999 17.0063 32.1937 16.2011 31.2001 16.2V12.6C31.199 11.6063 30.3937 10.8011 29.4001 10.8V7.2C29.399 6.20634 28.5937 5.40105 27.6 5.4V1.8C27.599 0.806344 26.7937 0.00105469 25.8 0H10.2C9.20637 0.00105469 8.40108 0.806344 8.40002 1.8V5.4C7.40637 5.40105 6.60108 6.20634 6.60002 7.2V10.8C5.60637 10.8011 4.80108 11.6063 4.80002 12.6V16.2C3.80637 16.2011 3.00108 17.0063 3.00002 18V34.8H0.599977C0.268594 34.8 0 35.0686 0 35.4C0 35.7313 0.268594 36 0.599977 36H35.4C35.7313 36 35.9999 35.7314 35.9999 35.4C35.9999 35.0686 35.7314 34.8 35.4 34.8ZM9.59998 1.8C9.60019 1.46876 9.86871 1.20023 10.2 1.20002H25.8C26.1313 1.20023 26.3997 1.46876 26.4 1.8V5.4H17.3393C17.0542 4.00324 15.8256 3.00002 14.4 3.00002C12.9744 3.00002 11.7458 4.00324 11.4607 5.4H9.60005L9.59998 1.8ZM16.0895 5.4H12.7106C12.9613 4.68141 13.639 4.19998 14.4001 4.19998C15.1611 4.19998 15.8388 4.68141 16.0895 5.4ZM7.79998 7.2C7.80019 6.86869 8.06871 6.60023 8.39995 6.60002H27.6C27.9313 6.60023 28.1997 6.86876 28.2 7.2V10.8H15.5393C15.2542 9.40324 14.0256 8.40002 12.6 8.40002C11.1744 8.40002 9.94577 9.40324 9.66066 10.8H7.80005L7.79998 7.2ZM14.2895 10.8H10.9106C11.1613 10.0814 11.839 9.59998 12.6001 9.59998C13.3611 9.59998 14.0388 10.0814 14.2895 10.8ZM5.99998 12.6C6.00019 12.2687 6.26871 12.0002 6.59995 12H29.4C29.7312 12.0002 29.9997 12.2688 30 12.6V16.2H13.7393C13.4542 14.8032 12.2256 13.8 10.8 13.8C9.37442 13.8 8.14577 14.8032 7.86066 16.2H5.99998V12.6ZM12.4895 16.2H9.1106C9.36127 15.4814 10.039 15 10.8001 15C11.5611 15 12.2388 15.4814 12.4895 16.2ZM31.8 34.8H4.19998V18C4.20019 17.6688 4.46871 17.4002 4.79995 17.4H31.2C31.5313 17.4002 31.7997 17.6688 31.8 18V34.8H31.8Z" fill="black"/>
<path d="M10.1996 27C12.1878 27 13.7996 25.3883 13.7996 23.4C13.7996 21.4118 12.1878 19.8 10.1996 19.8C8.21138 19.8 6.59961 21.4118 6.59961 23.4C6.60179 25.3874 8.21223 26.9979 10.1996 27ZM10.1996 21.0001C11.5251 21.0001 12.5996 22.0746 12.5996 23.4C12.5996 24.7255 11.5251 25.8 10.1996 25.8C8.87415 25.8 7.79963 24.7255 7.79963 23.4C7.8009 22.0751 8.87464 21.0013 10.1996 21.0001Z" fill="#F15A29"/>
<path d="M28.7996 19.8H16.1996C15.8682 19.8 15.5996 20.0686 15.5996 20.4C15.5996 20.7314 15.8682 21 16.1996 21H28.7996C29.131 21 29.3996 20.7314 29.3996 20.4C29.3996 20.0686 29.131 19.8 28.7996 19.8Z" fill="#F15A29"/>
<path d="M28.7996 22.8H16.1996C15.8682 22.8 15.5996 23.0687 15.5996 23.4C15.5996 23.7314 15.8682 24 16.1996 24H28.7996C29.131 24 29.3996 23.7313 29.3996 23.4C29.3996 23.0686 29.131 22.8 28.7996 22.8Z" fill="#F15A29"/>
<path d="M28.7996 25.8H16.1996C15.8682 25.8 15.5996 26.0686 15.5996 26.4C15.5996 26.7314 15.8682 27.0001 16.1996 27.0001H28.7996C29.131 27.0001 29.3996 26.7315 29.3996 26.4001C29.3996 26.0687 29.131 25.8 28.7996 25.8Z" fill="black"/>
<path d="M28.7996 28.8H7.19959C6.8682 28.8 6.59961 29.0686 6.59961 29.4C6.59961 29.7314 6.8682 30 7.19959 30H28.7996C29.131 30 29.3996 29.7314 29.3996 29.4C29.3996 29.0686 29.131 28.8 28.7996 28.8Z" fill="black"/>
<path d="M28.7996 31.8H7.19959C6.8682 31.8 6.59961 32.0687 6.59961 32.4C6.59961 32.7313 6.8682 33 7.19959 33H28.7996C29.131 33 29.3996 32.7314 29.3996 32.4C29.3996 32.0686 29.131 31.8 28.7996 31.8Z" fill="black"/>
</svg>
