<svg width="34" height="38" viewBox="0 0 34 38" fill="none" xmlns="http://www.w3.org/2000/svg">
<g clip-path="url(#clip0_5079_6817)">
<path d="M24.6533 19.25C29.6523 19.25 33.751 23.4092 33.751 28.5C33.751 33.5908 29.6523 37.75 24.6533 37.75C19.6545 37.7498 15.5566 33.5906 15.5566 28.5C15.5566 23.4094 19.6545 19.2502 24.6533 19.25ZM24.6533 21.125C20.656 21.1252 17.3936 24.4472 17.3936 28.5C17.3936 32.5528 20.656 35.8748 24.6533 35.875C28.6509 35.875 31.9141 32.553 31.9141 28.5C31.9141 24.447 28.6509 21.125 24.6533 21.125Z" fill="#F15A29" stroke="#F3F3F3" stroke-width="0.5"/>
<path d="M25.5713 24V27.5625H29.0762V29.4375H23.7344V24H25.5713Z" fill="black" stroke="#F3F3F3" stroke-width="0.5"/>
<path d="M5.8418 4.75H8.17857V7.125H5.8418V4.75Z" fill="black"/>
<path d="M5.8418 14.25H8.17857V16.625H5.8418V14.25Z" fill="black"/>
<path d="M5.8418 23.75H8.17857V26.125H5.8418V23.75Z" fill="black"/>
<path d="M28.291 12.248L28.2197 12.1748L27.752 11.6992L27.6787 11.625H2.69922L2.62598 11.6992L2.1582 12.1748L2.08691 12.248V18.627L2.1582 18.7002L2.62598 19.1758L2.69922 19.25H12.6025V21.125H2.69922L2.62598 21.1992L2.1582 21.6748L2.08691 21.748V28.127L2.1582 28.2002L2.62598 28.6758L2.69922 28.75H12.6025V30.625H1.97461L0.25 28.873V21.001L0.878906 20.3633L1.05176 20.1875L0.878906 20.0117L0.25 19.373V11.501L0.878906 10.8633L1.05176 10.6875L0.878906 10.5117L0.25 9.87305V2.00098L1.97461 0.25H28.4033L30.1279 2.00098V9.87305L29.499 10.5117L29.3262 10.6875L29.499 10.8633L30.1279 11.501V16.375H28.291V12.248ZM28.291 2.74805L28.2197 2.6748L27.752 2.19922L27.6787 2.125H2.69922L2.62598 2.19922L2.1582 2.6748L2.08691 2.74805V9.12695L2.1582 9.2002L2.62598 9.67578L2.69922 9.75H27.6787L27.752 9.67578L28.2197 9.2002L28.291 9.12695V2.74805Z" fill="black" stroke="#F3F3F3" stroke-width="0.5"/>
</g>
<defs>
<clipPath id="clip0_5079_6817">
<rect width="34" height="38" fill="white"/>
</clipPath>
</defs>
</svg>
