<svg width="53" height="53" viewBox="0 0 53 53" fill="none" xmlns="http://www.w3.org/2000/svg">
<g clip-path="url(#clip0_4794_339)">
<mask id="mask0_4794_339" style="mask-type:luminance" maskUnits="userSpaceOnUse" x="0" y="0" width="53" height="53">
<path d="M53 0H0V53H53V0Z" fill="white"/>
</mask>
<g mask="url(#mask0_4794_339)">
<path d="M50.8349 26.5001C50.8349 12.962 39.8604 1.9873 26.3225 1.9873C25.2815 1.9873 24.4376 2.8312 24.4376 3.87217C24.4376 4.91314 25.2815 5.75701 26.3225 5.75701C37.7783 5.75701 47.0653 15.0439 47.0653 26.5001C47.0653 37.956 37.7783 47.2427 26.3225 47.2427C25.2815 47.2427 24.4376 48.0867 24.4376 49.1276C24.4376 50.1685 25.2815 51.0126 26.3225 51.0126C39.8604 51.0126 50.8349 40.0379 50.8349 26.5001ZM17.951 3.4849C18.9301 3.13126 20.0105 3.63828 20.3641 4.61735C20.7177 5.59642 20.2107 6.6768 19.2316 7.03041C16.9578 7.85168 14.8461 9.0658 12.9929 10.6173C12.1948 11.2856 11.006 11.1803 10.3378 10.3821C9.66947 9.58393 9.77481 8.39516 10.573 7.72691C12.7647 5.89195 15.2621 4.4561 17.951 3.4849ZM10.3368 42.619C11.0045 41.8203 12.1932 41.714 12.9919 42.3818C14.8468 43.9323 16.959 45.1468 19.233 45.9701C20.2118 46.3245 20.718 47.4051 20.3636 48.384C20.0092 49.3627 18.9285 49.8691 17.9497 49.5145C15.2625 48.5417 12.7663 47.1067 10.5741 45.274C9.77539 44.6065 9.66918 43.4177 10.3368 42.619ZM7.68234 13.5539C6.78092 13.0333 5.62809 13.3419 5.10742 14.2433C3.6765 16.7206 2.69245 19.4303 2.20029 22.2485C2.0212 23.2739 2.70731 24.2504 3.73278 24.4295C4.75823 24.6086 5.73473 23.9224 5.91381 22.897C6.32992 20.5143 7.16188 18.2234 8.37171 16.1288C8.89239 15.2274 8.58374 14.0746 7.68234 13.5539ZM3.73308 28.5676C4.75857 28.3887 5.73494 29.0751 5.91387 30.1006C6.32973 32.4843 7.16175 34.776 8.37177 36.8714C8.89239 37.7726 8.58366 38.9254 7.68224 39.4461C6.78079 39.9668 5.62798 39.6581 5.10737 38.7566C3.67618 36.2786 2.69213 33.5676 2.20024 30.7486C2.02132 29.723 2.70758 28.7467 3.73308 28.5676Z" fill="black"/>
<mask id="mask1_4794_339" style="mask-type:luminance" maskUnits="userSpaceOnUse" x="17" y="14" width="19" height="25">
<path d="M17.0703 14.5586H35.9327V38.4418H17.0703V14.5586Z" fill="white"/>
</mask>
<g mask="url(#mask1_4794_339)">
<path d="M30.1369 14.9281C29.3989 14.3807 28.3519 14.4415 27.6828 15.1107C27.6219 15.1812 27.561 15.2516 27.5002 15.3221C26.9527 16.06 27.0136 17.1071 27.6828 17.7763C28.2867 18.3797 28.8906 18.983 29.4946 19.5864C25.9827 19.5866 22.4708 19.5867 18.9589 19.5869C18.8737 19.5926 18.7884 19.5984 18.7032 19.6041C17.7832 19.7289 17.0741 20.5175 17.0741 21.4717C17.0741 22.5127 17.918 23.3566 18.9589 23.3566C23.9873 23.3566 29.0157 23.3566 34.0441 23.3566C34.1301 23.3511 34.2162 23.3456 34.3022 23.3401C35.8063 23.1452 36.5017 21.2638 35.3768 20.1389C33.7007 18.4628 32.0245 16.7867 30.3484 15.1106C30.2779 15.0498 30.2074 14.989 30.1369 14.9281ZM35.929 31.5287C35.929 30.4875 35.085 29.6437 34.0441 29.6437C29.0157 29.6437 23.9873 29.6437 18.9589 29.6437C18.8729 29.6492 18.787 29.6547 18.701 29.6602C17.1968 29.8552 16.5013 31.7364 17.6261 32.8614C19.3022 34.5375 20.9783 36.2136 22.6544 37.8897C22.7249 37.9506 22.7954 38.0115 22.8659 38.0723C23.6038 38.6198 24.6509 38.5589 25.3201 37.8897C25.3809 37.8192 25.4417 37.7488 25.5026 37.6783C26.05 36.9405 25.9892 35.8932 25.3201 35.2241C24.7153 34.6198 24.1105 34.0155 23.5057 33.4112C27.0185 33.4119 30.5313 33.4126 34.0441 33.4134C34.1293 33.4076 34.2146 33.4019 34.2998 33.3961C35.2199 33.2713 35.929 32.4829 35.929 31.5287Z" fill="black"/>
</g>
</g>
</g>
<defs>
<clipPath id="clip0_4794_339">
<rect width="53" height="53" fill="white"/>
</clipPath>
</defs>
</svg>
