<svg width="167" height="124" viewBox="0 0 167 124" fill="none" xmlns="http://www.w3.org/2000/svg">
<path d="M12.48 23.176C11.7013 23.176 10.976 23.032 10.304 22.744C9.632 22.4453 9.04 22.0347 8.528 21.512C8.02667 20.9787 7.632 20.3653 7.344 19.672C7.056 18.968 6.912 18.2107 6.912 17.4C6.912 16.5893 7.056 15.8373 7.344 15.144C7.632 14.44 8.02667 13.8267 8.528 13.304C9.04 12.7707 9.632 12.36 10.304 12.072C10.976 11.7733 11.7013 11.624 12.48 11.624C13.2587 11.624 13.984 11.7733 14.656 12.072C15.328 12.36 15.9147 12.7707 16.416 13.304C16.928 13.8267 17.328 14.44 17.616 15.144C17.904 15.8373 18.048 16.5893 18.048 17.4C18.048 18.2107 17.904 18.968 17.616 19.672C17.328 20.3653 16.928 20.9787 16.416 21.512C15.9147 22.0347 15.328 22.4453 14.656 22.744C13.984 23.032 13.2587 23.176 12.48 23.176ZM12.48 22.056C13.088 22.056 13.6533 21.9387 14.176 21.704C14.6987 21.4693 15.1573 21.1387 15.552 20.712C15.9467 20.2853 16.2507 19.7893 16.464 19.224C16.688 18.6587 16.8 18.0507 16.8 17.4C16.8 16.7387 16.688 16.1307 16.464 15.576C16.2507 15.0107 15.9467 14.5147 15.552 14.088C15.1573 13.6613 14.6987 13.3307 14.176 13.096C13.6533 12.8613 13.088 12.744 12.48 12.744C11.872 12.744 11.3067 12.8613 10.784 13.096C10.2613 13.3307 9.80267 13.6613 9.408 14.088C9.01333 14.5147 8.704 15.0107 8.48 15.576C8.26667 16.1307 8.16 16.7333 8.16 17.384C8.16 18.0453 8.26667 18.6587 8.48 19.224C8.704 19.7893 9.01333 20.2853 9.408 20.712C9.80267 21.1387 10.2613 21.4693 10.784 21.704C11.3067 21.9387 11.872 22.056 12.48 22.056ZM22.5544 23V12.888H18.6824V11.8H27.6584V12.888H23.7864V23H22.5544Z" fill="#383E45"/>
<path d="M6.408 100V88.8H7.64V100H6.408ZM13.3669 100V89.888H9.49488V88.8H18.4709V89.888H14.5989V100H13.3669Z" fill="#383E45"/>
<rect x="0.5" y="77.5" width="84" height="46" stroke="black"/>
<mask id="mask0_4966_732" style="mask-type:alpha" maskUnits="userSpaceOnUse" x="57" y="82" width="24" height="24">
<rect x="57" y="82" width="24" height="24" fill="#D9D9D9"/>
</mask>
<g mask="url(#mask0_4966_732)">
<path d="M64.5 97H66V93H64.5V94.25H63V95.75H64.5V97ZM67 95.75H75V94.25H67V95.75ZM72 93H73.5V91.75H75V90.25H73.5V89H72V93ZM63 91.75H71V90.25H63V91.75ZM65 103V101H61C60.45 101 59.9792 100.804 59.5875 100.413C59.1958 100.021 59 99.55 59 99V87C59 86.45 59.1958 85.9792 59.5875 85.5875C59.9792 85.1958 60.45 85 61 85H77C77.55 85 78.0208 85.1958 78.4125 85.5875C78.8042 85.9792 79 86.45 79 87V99C79 99.55 78.8042 100.021 78.4125 100.413C78.0208 100.804 77.55 101 77 101H73V103H65ZM61 99H77V87H61V99Z" fill="#F15A29"/>
</g>
<path d="M138 24.5H138.5V24H138V24.5ZM138 62.5H137.5V63H138V62.5ZM166.5 62.5L161.5 59.6133V65.3868L166.5 62.5ZM92.5 24.5V25H138V24.5V24H92.5V24.5ZM138 24.5H137.5V62.5H138H138.5V24.5H138ZM138 62.5V63H162V62.5V62H138V62.5Z" fill="black"/>
<path d="M138 101.5H138.5V102H138V101.5ZM138 62.5H137.5V62H138V62.5ZM166.5 62.5L161.5 65.3867V59.6132L166.5 62.5ZM92.5 101.5V101H138V101.5V102H92.5V101.5ZM138 101.5H137.5V62.5H138H138.5V101.5H138ZM138 62.5V62H162V62.5V63H138V62.5Z" fill="black"/>
<rect x="1.5" y="0.5" width="84" height="46" stroke="black"/>
<mask id="mask1_4966_732" style="mask-type:alpha" maskUnits="userSpaceOnUse" x="56" y="4" width="24" height="25">
<rect x="56" y="4.94141" width="24" height="24" fill="#D9D9D9"/>
</mask>
<g mask="url(#mask1_4966_732)">
<path d="M74.0031 25.9414V19.9414L79.0031 22.9414L74.0031 25.9414ZM69.0031 25.9414V19.9414L74.0031 22.9414L69.0031 25.9414ZM65.2531 26.9414L64.8531 23.7414C64.6365 23.6581 64.4323 23.5581 64.2406 23.4414C64.049 23.3247 63.8615 23.1997 63.6781 23.0664L60.7031 24.3164L57.9531 19.5664L60.5281 17.6164C60.5115 17.4997 60.5031 17.3872 60.5031 17.2789V16.6039C60.5031 16.4956 60.5115 16.3831 60.5281 16.2664L57.9531 14.3164L60.7031 9.56641L63.6781 10.8164C63.8615 10.6831 64.0531 10.5581 64.2531 10.4414C64.4531 10.3247 64.6531 10.2247 64.8531 10.1414L65.2531 6.94141H70.7531L71.1531 10.1414C71.3698 10.2247 71.574 10.3247 71.7656 10.4414C71.9573 10.5581 72.1448 10.6831 72.3281 10.8164L75.3031 9.56641L78.0531 14.3164L75.4781 16.2664C75.4948 16.3831 75.5031 16.4956 75.5031 16.6039V17.4414C75.5031 17.6081 75.4865 17.7747 75.4531 17.9414H73.4031C73.4365 17.7747 73.4615 17.6081 73.4781 17.4414C73.4948 17.2747 73.5031 17.1081 73.5031 16.9414C73.4865 16.6247 73.4615 16.3456 73.4281 16.1039C73.3948 15.8622 73.3448 15.6331 73.2781 15.4164L75.4281 13.7914L74.4531 12.0914L71.9781 13.1414C71.6115 12.7581 71.2073 12.4372 70.7656 12.1789C70.324 11.9206 69.8448 11.7247 69.3281 11.5914L69.0031 8.94141H67.0281L66.6781 11.5914C66.1615 11.7247 65.6823 11.9206 65.2406 12.1789C64.799 12.4372 64.3948 12.7497 64.0281 13.1164L61.5531 12.0914L60.5781 13.7914L62.7281 15.3914C62.6448 15.6414 62.5865 15.8914 62.5531 16.1414C62.5198 16.3914 62.5031 16.6581 62.5031 16.9414C62.5031 17.2081 62.5198 17.4664 62.5531 17.7164C62.5865 17.9664 62.6448 18.2164 62.7281 18.4664L60.5781 20.0914L61.5531 21.7914L64.0281 20.7414C64.4281 21.1581 64.8781 21.5081 65.3781 21.7914C65.8781 22.0747 66.4198 22.2581 67.0031 22.3414V26.9414H65.2531ZM67.0031 20.2914V18.0164C66.8698 17.8831 66.7615 17.7247 66.6781 17.5414C66.5948 17.3581 66.5531 17.1581 66.5531 16.9414C66.5531 16.5247 66.699 16.1706 66.9906 15.8789C67.2823 15.5872 67.6365 15.4414 68.0531 15.4414C68.4698 15.4414 68.824 15.5872 69.1156 15.8789C69.4073 16.1706 69.5531 16.5247 69.5531 16.9414C69.5531 17.1247 69.524 17.3039 69.4656 17.4789C69.4073 17.6539 69.3115 17.8081 69.1781 17.9414H71.4031C71.4531 17.7747 71.4906 17.6122 71.5156 17.4539C71.5406 17.2956 71.5531 17.1247 71.5531 16.9414C71.5531 15.9747 71.2115 15.1497 70.5281 14.4664C69.8448 13.7831 69.0198 13.4414 68.0531 13.4414C67.0698 13.4414 66.2406 13.7831 65.5656 14.4664C64.8906 15.1497 64.5531 15.9747 64.5531 16.9414C64.5531 17.7414 64.7823 18.4414 65.2406 19.0414C65.699 19.6414 66.2865 20.0581 67.0031 20.2914Z" fill="#F15A29"/>
</g>
</svg>
