<svg width="49" height="54" viewBox="0 0 49 54" fill="none" xmlns="http://www.w3.org/2000/svg">
<g clip-path="url(#clip0_4657_8134)">
<path d="M35.5254 27.25C42.7957 27.25 48.7461 33.2126 48.7461 40.5C48.7461 47.7874 42.7957 53.75 35.5254 53.75C28.2551 53.75 22.3047 47.7874 22.3047 40.5C22.3047 33.2126 28.2551 27.25 35.5254 27.25ZM35.5254 30.125C29.8301 30.125 25.1729 34.7937 25.1729 40.5C25.1729 46.2063 29.8301 50.875 35.5254 50.875C41.2207 50.875 45.8789 46.2063 45.8789 40.5C45.8789 34.7937 41.2207 30.125 35.5254 30.125Z" fill="black" stroke="#F3F3F3" stroke-width="0.5"/>
<path d="M36.9619 34V39.0625H42.0127V41.9375H34.0938V34H36.9619Z" fill="black" stroke="#F3F3F3" stroke-width="0.5"/>
<path d="M8.42188 6.75H11.7896V10.125H8.42188V6.75Z" fill="black"/>
<path d="M8.42188 20.25H11.7896V23.625H8.42188V20.25Z" fill="black"/>
<path d="M8.42188 33.75H11.7896V37.125H8.42188V33.75Z" fill="black"/>
<path d="M40.6621 17.4463L40.5889 17.373L39.916 16.6982L39.8428 16.625H3.9375L3.86426 16.6982L3.19043 17.373L3.11816 17.4463V26.4287L3.19043 26.502L3.86426 27.1768L3.9375 27.25H18.2725V30.125H3.9375L3.86426 30.1982L3.19043 30.873L3.11816 30.9463V39.9287L3.19043 40.002L3.86426 40.6768L3.9375 40.75H18.2725V43.625H2.79785L0.25 41.0713V29.8027L1.1875 28.8643L1.36328 28.6875L1.1875 28.5107L0.25 27.5713V16.3027L1.1875 15.3643L1.36328 15.1875L1.1875 15.0107L0.25 14.0713V2.80273L2.79785 0.25H40.9824L43.5303 2.80273V14.0713L42.5928 15.0107L42.417 15.1875L42.5928 15.3643L43.5303 16.3027V23.375H40.6621V17.4463ZM40.6621 3.94629L40.5889 3.87305L39.916 3.19824L39.8428 3.125H3.9375L3.86426 3.19824L3.19043 3.87305L3.11816 3.94629V12.9287L3.19043 13.002L3.86426 13.6768L3.9375 13.75H39.8428L39.916 13.6768L40.5889 13.002L40.6621 12.9287V3.94629Z" fill="black" stroke="#F3F3F3" stroke-width="0.5"/>
</g>
<defs>
<clipPath id="clip0_4657_8134">
<rect width="49" height="54" fill="white"/>
</clipPath>
</defs>
</svg>
