<svg width="50" height="50" viewBox="0 0 50 50" fill="none" xmlns="http://www.w3.org/2000/svg">
<path d="M22.4757 43.8195C22.201 43.5423 22.0463 43.1681 22.0451 42.7778V40.6806C22.0362 40.3638 21.9263 40.0582 21.7314 39.8084C21.5365 39.5585 21.2669 39.3775 20.9618 39.2917C19.8536 38.978 18.7861 38.5351 17.7813 37.9723C17.4982 37.8144 17.1713 37.7534 16.8503 37.7985C16.5294 37.8436 16.232 37.9924 16.0035 38.2223L14.5174 39.7084C14.2388 39.9857 13.8618 40.1414 13.4688 40.1414C13.0757 40.1414 12.6987 39.9857 12.4201 39.7084L10.3368 37.5695C10.0595 37.291 9.90376 36.9139 9.90376 36.5209C9.90376 36.1278 10.0595 35.7508 10.3368 35.4723L11.8229 33.9862C12.0496 33.7586 12.1965 33.4638 12.2415 33.1458C12.2866 32.8278 12.2274 32.5038 12.0729 32.2223C11.5095 31.2177 11.0666 30.1501 10.7535 29.0417C10.6677 28.7367 10.4867 28.467 10.2368 28.2721C9.98696 28.0772 9.68134 27.9673 9.36458 27.9584H7.22569C6.83267 27.9548 6.45678 27.797 6.17886 27.5191C5.90094 27.2412 5.74321 26.8653 5.73958 26.4723V23.5139C5.7468 23.1233 5.90612 22.751 6.18366 22.476C6.46119 22.2011 6.83505 22.0453 7.22569 22.0417H9.32292C9.63968 22.0328 9.94529 21.9229 10.1952 21.728C10.445 21.5331 10.626 21.2634 10.7118 20.9584C11.0245 19.8498 11.4674 18.7822 12.0312 17.7778C12.1891 17.4948 12.2502 17.1679 12.205 16.8469C12.1599 16.526 12.0111 16.2286 11.7812 16.0001L10.3368 14.5278C10.0628 14.2476 9.90938 13.8712 9.90938 13.4792C9.90938 13.0873 10.0628 12.7109 10.3368 12.4306L12.434 10.3334C12.7125 10.056 13.0896 9.90034 13.4826 9.90034C13.8757 9.90034 14.2527 10.056 14.5313 10.3334L16.0174 11.8195C16.2459 12.0493 16.5433 12.1981 16.8642 12.2433C17.1852 12.2884 17.5121 12.2274 17.7951 12.0695C18.7998 11.5062 19.8673 11.0633 20.9757 10.7501C21.2808 10.6643 21.5504 10.4833 21.7453 10.2334C21.9402 9.98354 22.0501 9.67792 22.059 9.36116V7.22228C22.059 6.82814 22.2156 6.45014 22.4943 6.17144C22.773 5.89274 23.151 5.73617 23.5451 5.73617H26.5035V2.77783H23.5174C22.3386 2.77783 21.2082 3.24608 20.3747 4.07958C19.5412 4.91307 19.0729 6.04354 19.0729 7.22228V8.23617C18.482 8.44645 17.9025 8.68752 17.3368 8.95839L16.6701 8.23617C15.837 7.405 14.7081 6.93822 13.5312 6.93822C12.3544 6.93822 11.2255 7.405 10.3924 8.23617L8.23958 10.3334C7.41844 11.1718 6.95856 12.2987 6.95856 13.4723C6.95856 14.6459 7.41844 15.7727 8.23958 16.6112L8.96181 17.3334C8.69049 17.8989 8.44941 18.4784 8.23958 19.0695H7.22569C6.05032 19.0804 4.92616 19.5521 4.09501 20.3833C3.26386 21.2144 2.79212 22.3386 2.78125 23.5139V26.4723C2.79212 27.6476 3.26386 28.7718 4.09501 29.603C4.92616 30.4341 6.05032 30.9059 7.22569 30.9167H8.23958C8.44986 31.5076 8.69094 32.0871 8.96181 32.6528L8.23958 33.3334C7.40842 34.1666 6.94164 35.2954 6.94164 36.4723C6.94164 37.6492 7.40842 38.778 8.23958 39.6112L10.3368 41.7084C11.1718 42.5362 12.2999 43.0006 13.4757 43.0006C14.6515 43.0006 15.7796 42.5362 16.6146 41.7084L17.3368 40.9862C17.9025 41.257 18.482 41.4981 19.0729 41.7084V42.7223C19.078 43.8996 19.5471 45.0275 20.3785 45.8612C20.7895 46.2753 21.2785 46.604 21.8173 46.828C22.356 47.0521 22.9339 47.1672 23.5174 47.1667H26.4757V44.2639H23.5174C23.1254 44.2576 22.7515 44.0981 22.4757 43.8195Z" fill="black"/>
<path d="M42.7743 38.3332C41.8986 38.3339 41.0429 38.595 40.316 39.0832L31.816 32.7082C31.5593 32.5169 31.2472 32.4145 30.9271 32.4165H24.9965C23.8178 32.4165 22.6873 31.9482 21.8538 31.1147C21.0203 30.2813 20.5521 29.1508 20.5521 27.9721V22.0415C20.5521 20.8628 21.0203 19.7323 21.8538 18.8988C22.6873 18.0653 23.8178 17.5971 24.9965 17.5971H30.9271C31.2472 17.5991 31.5593 17.4967 31.816 17.3054L40.2743 10.9165C41.0941 11.4742 42.0769 11.7418 43.0664 11.6766C44.0558 11.6115 44.995 11.2173 45.7346 10.5568C46.4742 9.89637 46.9717 9.00755 47.1479 8.03177C47.3242 7.05598 47.1691 6.04929 46.7072 5.17183C46.2454 4.29437 45.5034 3.59654 44.5993 3.18937C43.6952 2.78219 42.6809 2.68906 41.7177 2.92477C40.7546 3.16048 39.8979 3.71151 39.284 4.4902C38.6701 5.26888 38.3343 6.23049 38.3299 7.22205C38.3361 7.67064 38.411 8.11562 38.5521 8.5415L30.4271 14.6387H24.9965C23.0332 14.6387 21.1503 15.4187 19.762 16.8069C18.3737 18.1952 17.5938 20.0782 17.5938 22.0415V27.9721C17.5938 29.9354 18.3737 31.8183 19.762 33.2066C21.1503 34.5949 23.0332 35.3748 24.9965 35.3748H30.4271L38.5521 41.4721C38.411 41.8979 38.3361 42.3429 38.3299 42.7915C38.3299 43.6705 38.5905 44.5298 39.0789 45.2607C39.5672 45.9916 40.2614 46.5612 41.0735 46.8976C41.8856 47.234 42.7792 47.322 43.6414 47.1505C44.5035 46.9791 45.2954 46.5558 45.917 45.9342C46.5386 45.3126 46.9619 44.5207 47.1334 43.6586C47.3048 42.7964 47.2168 41.9028 46.8804 41.0907C46.5441 40.2786 45.9744 39.5844 45.2435 39.0961C44.5126 38.6077 43.6533 38.3471 42.7743 38.3471V38.3332ZM42.7743 5.73594C43.0682 5.73594 43.3556 5.8231 43.5999 5.98639C43.8443 6.14969 44.0348 6.38179 44.1473 6.65334C44.2598 6.92489 44.2892 7.2237 44.2319 7.51198C44.1745 7.80025 44.033 8.06505 43.8251 8.27289C43.6173 8.48073 43.3525 8.62226 43.0642 8.67961C42.776 8.73695 42.4771 8.70752 42.2056 8.59504C41.934 8.48256 41.7019 8.29208 41.5387 8.04769C41.3754 7.8033 41.2882 7.51598 41.2882 7.22205C41.2882 6.82791 41.4448 6.44991 41.7235 6.17121C42.0022 5.89251 42.3802 5.73594 42.7743 5.73594ZM42.7743 44.2498C42.4804 44.2498 42.1931 44.1627 41.9487 43.9994C41.7043 43.8361 41.5138 43.604 41.4013 43.3324C41.2888 43.0609 41.2594 42.7621 41.3167 42.4738C41.3741 42.1855 41.5156 41.9207 41.7235 41.7129C41.9313 41.505 42.1961 41.3635 42.4844 41.3062C42.7727 41.2488 43.0715 41.2783 43.343 41.3907C43.6146 41.5032 43.8467 41.6937 44.01 41.9381C44.1733 42.1825 44.2604 42.4698 44.2604 42.7637C44.2623 42.96 44.2252 43.1548 44.1513 43.3367C44.0774 43.5186 43.9683 43.6841 43.8301 43.8236C43.6919 43.963 43.5275 44.0737 43.3462 44.1493C43.165 44.2248 42.9706 44.2637 42.7743 44.2637V44.2498Z" fill="black"/>
<path d="M42.7778 20.5554C41.8628 20.5579 40.971 20.8436 40.225 21.3733C39.4789 21.903 38.9151 22.6507 38.6111 23.5137H25V26.4721H38.6111C38.8858 27.2355 39.3648 27.9088 39.9959 28.4186C40.6271 28.9284 41.3861 29.2552 42.1901 29.3632C42.9942 29.4712 43.8126 29.3563 44.5559 29.0312C45.2991 28.706 45.9389 28.1829 46.4053 27.5191C46.8717 26.8552 47.1469 26.0761 47.2008 25.2665C47.2547 24.457 47.0853 23.6482 46.7111 22.9284C46.3368 22.2085 45.7721 21.6053 45.0785 21.1844C44.3849 20.7635 43.5891 20.5411 42.7778 20.5415V20.5554ZM42.7778 26.4859C42.4839 26.4859 42.1965 26.3988 41.9521 26.2355C41.7078 26.0722 41.5173 25.8401 41.4048 25.5685C41.2923 25.297 41.2629 24.9982 41.3202 24.7099C41.3776 24.4216 41.5191 24.1568 41.7269 23.949C41.9348 23.7412 42.1996 23.5996 42.4879 23.5423C42.7761 23.4849 43.0749 23.5144 43.3465 23.6269C43.618 23.7393 43.8501 23.9298 44.0134 24.1742C44.1767 24.4186 44.2639 24.7059 44.2639 24.9998C44.2639 25.394 44.1073 25.772 43.8286 26.0507C43.5499 26.3294 43.1719 26.4859 42.7778 26.4859Z" fill="black"/>
</svg>
