<svg width="14" height="14" viewBox="0 0 14 14" fill="none" xmlns="http://www.w3.org/2000/svg">
<path d="M9.09547 5.06519C9.34399 4.81668 9.74691 4.81668 9.99543 5.06519C10.2439 5.31371 10.2439 5.71663 9.99543 5.96515L6.7429 9.21767C6.49439 9.46619 6.09146 9.46619 5.84295 9.21767L4.00456 7.37929C3.75605 7.13077 3.75605 6.72785 4.00456 6.47933C4.25308 6.23082 4.656 6.23082 4.90452 6.47933L6.29292 7.86774L9.09547 5.06519Z" fill="#383E45"/>
<path fill-rule="evenodd" clip-rule="evenodd" d="M7 0C10.8656 0 14 3.13436 14 7C14 10.8656 10.8656 14 7 14C3.13436 14 0 10.8656 0 7C0 3.13436 3.13436 0 7 0ZM7 1.27273C3.83656 1.27273 1.27273 3.83656 1.27273 7C1.27273 10.1634 3.83656 12.7273 7 12.7273C10.1634 12.7273 12.7273 10.1634 12.7273 7C12.7273 3.83656 10.1634 1.27273 7 1.27273Z" fill="#383E45"/>
</svg>
